<svg width="394" height="210" viewBox="0 0 394 210" fill="none" xmlns="http://www.w3.org/2000/svg">
<rect x="12" y="10" width="380" height="198" stroke="#F18A88" stroke-width="4"/>
<rect x="2" y="2" width="379" height="198" stroke="#8FA2ED" stroke-width="4"/>
<path d="M51.4 68.76C50.9733 68.2933 50.4267 67.92 49.76 67.64C49.1067 67.36 48.3733 67.22 47.56 67.22C46.7333 67.22 45.9867 67.3733 45.32 67.68C44.6533 67.9733 44.0867 68.38 43.62 68.9C43.1533 69.42 42.7933 70.0267 42.54 70.72C42.2867 71.4 42.16 72.1267 42.16 72.9C42.16 73.6867 42.2867 74.4267 42.54 75.12C42.7933 75.8133 43.1533 76.42 43.62 76.94C44.0867 77.4467 44.66 77.8467 45.34 78.14C46.02 78.4333 46.78 78.58 47.62 78.58C48.2867 78.58 48.9 78.52 49.46 78.4C50.02 78.28 50.5067 78.1067 50.92 77.88V73.94H47.78V72.26H52.88V79.12C52.1333 79.52 51.32 79.8267 50.44 80.04C49.56 80.2533 48.6 80.36 47.56 80.36C46.4533 80.36 45.4333 80.18 44.5 79.82C43.58 79.4467 42.7867 78.9333 42.12 78.28C41.4533 77.6133 40.9333 76.8267 40.56 75.92C40.1867 75 40 73.9933 40 72.9C40 71.7933 40.1867 70.7867 40.56 69.88C40.9467 68.96 41.4733 68.18 42.14 67.54C42.82 66.8867 43.62 66.38 44.54 66.02C45.46 65.66 46.46 65.48 47.54 65.48C48.6733 65.48 49.68 65.6467 50.56 65.98C51.4533 66.3133 52.1933 66.76 52.78 67.32L51.4 68.76ZM63.1264 74.42C63.1131 74.0467 63.0464 73.7 62.9264 73.38C62.8197 73.0467 62.6531 72.76 62.4264 72.52C62.2131 72.28 61.9397 72.0933 61.6064 71.96C61.2864 71.8133 60.9064 71.74 60.4664 71.74C60.0664 71.74 59.6864 71.8133 59.3264 71.96C58.9797 72.0933 58.6731 72.28 58.4064 72.52C58.1531 72.76 57.9397 73.0467 57.7664 73.38C57.6064 73.7 57.5131 74.0467 57.4864 74.42H63.1264ZM65.0264 75.18C65.0264 75.2867 65.0264 75.3933 65.0264 75.5C65.0264 75.6067 65.0197 75.7133 65.0064 75.82H57.4864C57.4997 76.22 57.5864 76.6 57.7464 76.96C57.9197 77.3067 58.1464 77.6133 58.4264 77.88C58.7064 78.1333 59.0264 78.3333 59.3864 78.48C59.7597 78.6267 60.1531 78.7 60.5664 78.7C61.2064 78.7 61.7597 78.56 62.2264 78.28C62.6931 78 63.0597 77.66 63.3264 77.26L64.6464 78.32C64.1397 78.9867 63.5397 79.48 62.8464 79.8C62.1664 80.1067 61.4064 80.26 60.5664 80.26C59.8464 80.26 59.1797 80.14 58.5664 79.9C57.9531 79.66 57.4264 79.3267 56.9864 78.9C56.5464 78.46 56.1997 77.9333 55.9464 77.32C55.6931 76.7067 55.5664 76.0267 55.5664 75.28C55.5664 74.5467 55.6864 73.8733 55.9264 73.26C56.1797 72.6333 56.5264 72.1 56.9664 71.66C57.4064 71.22 57.9264 70.88 58.5264 70.64C59.1264 70.3867 59.7731 70.26 60.4664 70.26C61.1597 70.26 61.7864 70.3733 62.3464 70.6C62.9197 70.8267 63.3997 71.1533 63.7864 71.58C64.1864 72.0067 64.4931 72.5267 64.7064 73.14C64.9197 73.74 65.0264 74.42 65.0264 75.18ZM69.3513 70.52C69.3779 70.76 69.3979 71.0333 69.4113 71.34C69.4246 71.6333 69.4313 71.88 69.4313 72.08H69.4913C69.6113 71.8267 69.7713 71.5933 69.9713 71.38C70.1846 71.1533 70.4246 70.96 70.6913 70.8C70.9579 70.6267 71.2513 70.4933 71.5713 70.4C71.8913 70.3067 72.2246 70.26 72.5713 70.26C73.1846 70.26 73.7113 70.3667 74.1513 70.58C74.5913 70.78 74.9579 71.0533 75.2513 71.4C75.5446 71.7467 75.7579 72.1533 75.8913 72.62C76.0379 73.0867 76.1113 73.5867 76.1113 74.12V80H74.2313V74.74C74.2313 74.3533 74.1979 73.9867 74.1313 73.64C74.0779 73.2933 73.9713 72.9867 73.8113 72.72C73.6513 72.4533 73.4313 72.24 73.1513 72.08C72.8713 71.92 72.5113 71.84 72.0713 71.84C71.3246 71.84 70.7113 72.1267 70.2313 72.7C69.7646 73.26 69.5313 74.0133 69.5313 74.96V80H67.6513V72.56C67.6513 72.3067 67.6446 71.98 67.6313 71.58C67.6179 71.18 67.5979 70.8267 67.5713 70.52H69.3513ZM86.2319 74.42C86.2185 74.0467 86.1519 73.7 86.0319 73.38C85.9252 73.0467 85.7585 72.76 85.5319 72.52C85.3185 72.28 85.0452 72.0933 84.7119 71.96C84.3919 71.8133 84.0119 71.74 83.5719 71.74C83.1719 71.74 82.7919 71.8133 82.4319 71.96C82.0852 72.0933 81.7785 72.28 81.5119 72.52C81.2585 72.76 81.0452 73.0467 80.8719 73.38C80.7119 73.7 80.6185 74.0467 80.5919 74.42H86.2319ZM88.1319 75.18C88.1319 75.2867 88.1319 75.3933 88.1319 75.5C88.1319 75.6067 88.1252 75.7133 88.1119 75.82H80.5919C80.6052 76.22 80.6919 76.6 80.8519 76.96C81.0252 77.3067 81.2519 77.6133 81.5319 77.88C81.8119 78.1333 82.1319 78.3333 82.4919 78.48C82.8652 78.6267 83.2585 78.7 83.6719 78.7C84.3119 78.7 84.8652 78.56 85.3319 78.28C85.7985 78 86.1652 77.66 86.4319 77.26L87.7519 78.32C87.2452 78.9867 86.6452 79.48 85.9519 79.8C85.2719 80.1067 84.5119 80.26 83.6719 80.26C82.9519 80.26 82.2852 80.14 81.6719 79.9C81.0585 79.66 80.5319 79.3267 80.0919 78.9C79.6519 78.46 79.3052 77.9333 79.0519 77.32C78.7985 76.7067 78.6719 76.0267 78.6719 75.28C78.6719 74.5467 78.7919 73.8733 79.0319 73.26C79.2852 72.6333 79.6319 72.1 80.0719 71.66C80.5119 71.22 81.0319 70.88 81.6319 70.64C82.2319 70.3867 82.8785 70.26 83.5719 70.26C84.2652 70.26 84.8919 70.3733 85.4519 70.6C86.0252 70.8267 86.5052 71.1533 86.8919 71.58C87.2919 72.0067 87.5985 72.5267 87.8119 73.14C88.0252 73.74 88.1319 74.42 88.1319 75.18ZM90.7567 72.56C90.7567 72.3067 90.7501 71.98 90.7367 71.58C90.7234 71.18 90.7034 70.8267 90.6767 70.52H92.4567C92.4834 70.76 92.5034 71.04 92.5167 71.36C92.5301 71.6667 92.5367 71.92 92.5367 72.12H92.5967C92.8634 71.56 93.2501 71.1133 93.7567 70.78C94.2767 70.4333 94.8567 70.26 95.4967 70.26C95.7901 70.26 96.0367 70.2867 96.2367 70.34L96.1567 72.08C95.8901 72.0133 95.6034 71.98 95.2967 71.98C94.8434 71.98 94.4501 72.0667 94.1167 72.24C93.7834 72.4 93.5034 72.62 93.2767 72.9C93.0634 73.18 92.9034 73.5067 92.7967 73.88C92.6901 74.24 92.6367 74.62 92.6367 75.02V80H90.7567V72.56ZM103.649 73.86C103.649 73.1533 103.436 72.6333 103.009 72.3C102.582 71.9533 102.016 71.78 101.309 71.78C100.776 71.78 100.269 71.8867 99.7889 72.1C99.3222 72.3 98.9289 72.56 98.6089 72.88L97.6089 71.68C98.0756 71.24 98.6422 70.8933 99.3089 70.64C99.9889 70.3867 100.716 70.26 101.489 70.26C102.169 70.26 102.756 70.36 103.249 70.56C103.756 70.7467 104.169 71.0067 104.489 71.34C104.809 71.6733 105.049 72.0667 105.209 72.52C105.369 72.9733 105.449 73.46 105.449 73.98V78.12C105.449 78.44 105.456 78.78 105.469 79.14C105.496 79.4867 105.536 79.7733 105.589 80H103.889C103.782 79.5467 103.729 79.0933 103.729 78.64H103.669C103.322 79.1467 102.882 79.54 102.349 79.82C101.829 80.1 101.209 80.24 100.489 80.24C100.116 80.24 99.7222 80.1867 99.3089 80.08C98.9089 79.9867 98.5422 79.8267 98.2089 79.6C97.8756 79.3733 97.5956 79.0733 97.3689 78.7C97.1556 78.3267 97.0489 77.8667 97.0489 77.32C97.0489 76.6 97.2422 76.0333 97.6289 75.62C98.0156 75.1933 98.5222 74.8733 99.1489 74.66C99.7756 74.4333 100.482 74.2867 101.269 74.22C102.056 74.1533 102.849 74.12 103.649 74.12V73.86ZM103.189 75.48C102.722 75.48 102.236 75.5 101.729 75.54C101.236 75.58 100.782 75.66 100.369 75.78C99.9689 75.9 99.6356 76.08 99.3689 76.32C99.1022 76.56 98.9689 76.88 98.9689 77.28C98.9689 77.56 99.0222 77.7933 99.1289 77.98C99.2489 78.1667 99.4022 78.32 99.5889 78.44C99.7756 78.56 99.9822 78.6467 100.209 78.7C100.436 78.74 100.669 78.76 100.909 78.76C101.789 78.76 102.462 78.5 102.929 77.98C103.409 77.4467 103.649 76.78 103.649 75.98V75.48H103.189ZM113.033 72.06H110.513V77C110.513 77.5733 110.62 77.9867 110.833 78.24C111.047 78.48 111.387 78.6 111.853 78.6C112.027 78.6 112.213 78.58 112.413 78.54C112.613 78.5 112.793 78.44 112.953 78.36L113.013 79.9C112.787 79.98 112.533 80.04 112.253 80.08C111.987 80.1333 111.707 80.16 111.413 80.16C110.52 80.16 109.833 79.9133 109.353 79.42C108.887 78.9267 108.653 78.1867 108.653 77.2V72.06H106.833V70.52H108.653V67.8H110.513V70.52H113.033V72.06ZM116.875 80H114.995V70.52H116.875V80ZM117.195 67.1C117.195 67.4467 117.069 67.7333 116.815 67.96C116.575 68.1867 116.282 68.3 115.935 68.3C115.589 68.3 115.295 68.1867 115.055 67.96C114.815 67.72 114.695 67.4333 114.695 67.1C114.695 66.7533 114.815 66.4667 115.055 66.24C115.295 66 115.589 65.88 115.935 65.88C116.282 65.88 116.575 66 116.815 66.24C117.069 66.4667 117.195 66.7533 117.195 67.1ZM129.751 75.24C129.751 75.9733 129.618 76.6467 129.351 77.26C129.098 77.8733 128.738 78.4067 128.271 78.86C127.818 79.3 127.278 79.6467 126.651 79.9C126.025 80.14 125.351 80.26 124.631 80.26C123.911 80.26 123.238 80.14 122.611 79.9C121.985 79.6467 121.445 79.3 120.991 78.86C120.538 78.4067 120.178 77.8733 119.911 77.26C119.658 76.6467 119.531 75.9733 119.531 75.24C119.531 74.5067 119.658 73.84 119.911 73.24C120.178 72.6267 120.538 72.1 120.991 71.66C121.445 71.22 121.985 70.88 122.611 70.64C123.238 70.3867 123.911 70.26 124.631 70.26C125.351 70.26 126.025 70.3867 126.651 70.64C127.278 70.88 127.818 71.22 128.271 71.66C128.738 72.1 129.098 72.6267 129.351 73.24C129.618 73.84 129.751 74.5067 129.751 75.24ZM127.791 75.24C127.791 74.7867 127.718 74.3533 127.571 73.94C127.438 73.5267 127.238 73.1667 126.971 72.86C126.705 72.54 126.371 72.2867 125.971 72.1C125.585 71.9133 125.138 71.82 124.631 71.82C124.125 71.82 123.671 71.9133 123.271 72.1C122.885 72.2867 122.558 72.54 122.291 72.86C122.025 73.1667 121.818 73.5267 121.671 73.94C121.538 74.3533 121.471 74.7867 121.471 75.24C121.471 75.6933 121.538 76.1267 121.671 76.54C121.818 76.9533 122.025 77.32 122.291 77.64C122.558 77.96 122.885 78.2133 123.271 78.4C123.671 78.5867 124.125 78.68 124.631 78.68C125.138 78.68 125.585 78.5867 125.971 78.4C126.371 78.2133 126.705 77.96 126.971 77.64C127.238 77.32 127.438 76.9533 127.571 76.54C127.718 76.1267 127.791 75.6933 127.791 75.24ZM134.058 70.52C134.085 70.76 134.105 71.0333 134.118 71.34C134.132 71.6333 134.138 71.88 134.138 72.08H134.198C134.318 71.8267 134.478 71.5933 134.678 71.38C134.892 71.1533 135.132 70.96 135.398 70.8C135.665 70.6267 135.958 70.4933 136.278 70.4C136.598 70.3067 136.932 70.26 137.278 70.26C137.892 70.26 138.418 70.3667 138.858 70.58C139.298 70.78 139.665 71.0533 139.958 71.4C140.252 71.7467 140.465 72.1533 140.598 72.62C140.745 73.0867 140.818 73.5867 140.818 74.12V80H138.938V74.74C138.938 74.3533 138.905 73.9867 138.838 73.64C138.785 73.2933 138.678 72.9867 138.518 72.72C138.358 72.4533 138.138 72.24 137.858 72.08C137.578 71.92 137.218 71.84 136.778 71.84C136.032 71.84 135.418 72.1267 134.938 72.7C134.472 73.26 134.238 74.0133 134.238 74.96V80H132.358V72.56C132.358 72.3067 132.352 71.98 132.338 71.58C132.325 71.18 132.305 70.8267 132.278 70.52H134.058ZM149.119 72.92C148.906 72.5733 148.606 72.2933 148.219 72.08C147.832 71.8533 147.399 71.74 146.919 71.74C146.706 71.74 146.492 71.7667 146.279 71.82C146.066 71.86 145.872 71.9333 145.699 72.04C145.539 72.1333 145.406 72.26 145.299 72.42C145.206 72.5667 145.159 72.7533 145.159 72.98C145.159 73.38 145.339 73.68 145.699 73.88C146.059 74.0667 146.599 74.24 147.319 74.4C147.772 74.5067 148.192 74.6333 148.579 74.78C148.966 74.9267 149.299 75.1133 149.579 75.34C149.872 75.5533 150.099 75.8133 150.259 76.12C150.419 76.4267 150.499 76.7867 150.499 77.2C150.499 77.76 150.392 78.2333 150.179 78.62C149.966 79.0067 149.679 79.3267 149.319 79.58C148.972 79.82 148.572 79.9933 148.119 80.1C147.666 80.2067 147.199 80.26 146.719 80.26C145.999 80.26 145.292 80.12 144.599 79.84C143.919 79.56 143.352 79.1333 142.899 78.56L144.239 77.42C144.492 77.7933 144.839 78.1067 145.279 78.36C145.732 78.6133 146.226 78.74 146.759 78.74C146.999 78.74 147.226 78.72 147.439 78.68C147.666 78.6267 147.866 78.5467 148.039 78.44C148.226 78.3333 148.372 78.1933 148.479 78.02C148.586 77.8467 148.639 77.6267 148.639 77.36C148.639 76.92 148.426 76.5933 147.999 76.38C147.586 76.1667 146.972 75.9667 146.159 75.78C145.839 75.7 145.512 75.6067 145.179 75.5C144.859 75.38 144.566 75.22 144.299 75.02C144.032 74.82 143.812 74.5733 143.639 74.28C143.479 73.9733 143.399 73.6 143.399 73.16C143.399 72.6533 143.499 72.22 143.699 71.86C143.912 71.4867 144.186 71.1867 144.519 70.96C144.852 70.72 145.232 70.5467 145.659 70.44C146.086 70.32 146.526 70.26 146.979 70.26C147.659 70.26 148.312 70.3933 148.939 70.66C149.579 70.9267 150.072 71.3133 150.419 71.82L149.119 72.92ZM163.017 80H161.017V73.88L155.717 65.84H158.157L162.077 72.24L166.017 65.84H168.317L163.017 73.88V80ZM180.29 73.86C180.29 73.1533 180.076 72.6333 179.65 72.3C179.223 71.9533 178.656 71.78 177.95 71.78C177.416 71.78 176.91 71.8867 176.43 72.1C175.963 72.3 175.57 72.56 175.25 72.88L174.25 71.68C174.716 71.24 175.283 70.8933 175.95 70.64C176.63 70.3867 177.356 70.26 178.13 70.26C178.81 70.26 179.396 70.36 179.89 70.56C180.396 70.7467 180.81 71.0067 181.13 71.34C181.45 71.6733 181.69 72.0667 181.85 72.52C182.01 72.9733 182.09 73.46 182.09 73.98V78.12C182.09 78.44 182.096 78.78 182.11 79.14C182.136 79.4867 182.176 79.7733 182.23 80H180.53C180.423 79.5467 180.37 79.0933 180.37 78.64H180.31C179.963 79.1467 179.523 79.54 178.99 79.82C178.47 80.1 177.85 80.24 177.13 80.24C176.756 80.24 176.363 80.1867 175.95 80.08C175.55 79.9867 175.183 79.8267 174.85 79.6C174.516 79.3733 174.236 79.0733 174.01 78.7C173.796 78.3267 173.69 77.8667 173.69 77.32C173.69 76.6 173.883 76.0333 174.27 75.62C174.656 75.1933 175.163 74.8733 175.79 74.66C176.416 74.4333 177.123 74.2867 177.91 74.22C178.696 74.1533 179.49 74.12 180.29 74.12V73.86ZM179.83 75.48C179.363 75.48 178.876 75.5 178.37 75.54C177.876 75.58 177.423 75.66 177.01 75.78C176.61 75.9 176.276 76.08 176.01 76.32C175.743 76.56 175.61 76.88 175.61 77.28C175.61 77.56 175.663 77.7933 175.77 77.98C175.89 78.1667 176.043 78.32 176.23 78.44C176.416 78.56 176.623 78.6467 176.85 78.7C177.076 78.74 177.31 78.76 177.55 78.76C178.43 78.76 179.103 78.5 179.57 77.98C180.05 77.4467 180.29 76.78 180.29 75.98V75.48H179.83ZM186.929 70.52C186.956 70.76 186.976 71.0333 186.989 71.34C187.003 71.6333 187.009 71.88 187.009 72.08H187.069C187.189 71.8267 187.349 71.5933 187.549 71.38C187.763 71.1533 188.003 70.96 188.269 70.8C188.536 70.6267 188.829 70.4933 189.149 70.4C189.469 70.3067 189.803 70.26 190.149 70.26C190.763 70.26 191.289 70.3667 191.729 70.58C192.169 70.78 192.536 71.0533 192.829 71.4C193.123 71.7467 193.336 72.1533 193.469 72.62C193.616 73.0867 193.689 73.5867 193.689 74.12V80H191.809V74.74C191.809 74.3533 191.776 73.9867 191.709 73.64C191.656 73.2933 191.549 72.9867 191.389 72.72C191.229 72.4533 191.009 72.24 190.729 72.08C190.449 71.92 190.089 71.84 189.649 71.84C188.903 71.84 188.289 72.1267 187.809 72.7C187.343 73.26 187.109 74.0133 187.109 74.96V80H185.229V72.56C185.229 72.3067 185.223 71.98 185.209 71.58C185.196 71.18 185.176 70.8267 185.149 70.52H186.929ZM204.43 78.5C204.07 79.0733 203.577 79.5133 202.95 79.82C202.337 80.1133 201.69 80.26 201.01 80.26C200.277 80.26 199.617 80.1333 199.03 79.88C198.443 79.6133 197.943 79.2533 197.53 78.8C197.117 78.3467 196.797 77.8133 196.57 77.2C196.343 76.5867 196.23 75.9333 196.23 75.24C196.23 74.5467 196.343 73.9 196.57 73.3C196.797 72.6867 197.117 72.1533 197.53 71.7C197.957 71.2467 198.463 70.8933 199.05 70.64C199.637 70.3867 200.283 70.26 200.99 70.26C201.763 70.26 202.437 70.4267 203.01 70.76C203.583 71.08 204.037 71.4733 204.37 71.94H204.41V64.88H206.29V80H204.47V78.5H204.43ZM198.19 75.24C198.19 75.68 198.257 76.1067 198.39 76.52C198.523 76.9333 198.723 77.3 198.99 77.62C199.257 77.94 199.583 78.2 199.97 78.4C200.357 78.5867 200.81 78.68 201.33 78.68C201.81 78.68 202.243 78.5867 202.63 78.4C203.03 78.2133 203.37 77.9667 203.65 77.66C203.93 77.34 204.143 76.9733 204.29 76.56C204.45 76.1467 204.53 75.7133 204.53 75.26C204.53 74.8067 204.45 74.3733 204.29 73.96C204.143 73.5467 203.93 73.18 203.65 72.86C203.37 72.54 203.03 72.2867 202.63 72.1C202.243 71.9133 201.81 71.82 201.33 71.82C200.81 71.82 200.357 71.9133 199.97 72.1C199.583 72.2867 199.257 72.54 198.99 72.86C198.723 73.18 198.523 73.5467 198.39 73.96C198.257 74.3733 198.19 74.8 198.19 75.24ZM224.005 67.58L216.005 78.24H224.125V80H213.605V78.26L221.585 67.58H213.765V65.84H224.005V67.58ZM237.301 73.86C237.301 73.1533 237.088 72.6333 236.661 72.3C236.235 71.9533 235.668 71.78 234.961 71.78C234.428 71.78 233.921 71.8867 233.441 72.1C232.975 72.3 232.581 72.56 232.261 72.88L231.261 71.68C231.728 71.24 232.295 70.8933 232.961 70.64C233.641 70.3867 234.368 70.26 235.141 70.26C235.821 70.26 236.408 70.36 236.901 70.56C237.408 70.7467 237.821 71.0067 238.141 71.34C238.461 71.6733 238.701 72.0667 238.861 72.52C239.021 72.9733 239.101 73.46 239.101 73.98V78.12C239.101 78.44 239.108 78.78 239.121 79.14C239.148 79.4867 239.188 79.7733 239.241 80H237.541C237.435 79.5467 237.381 79.0933 237.381 78.64H237.321C236.975 79.1467 236.535 79.54 236.001 79.82C235.481 80.1 234.861 80.24 234.141 80.24C233.768 80.24 233.375 80.1867 232.961 80.08C232.561 79.9867 232.195 79.8267 231.861 79.6C231.528 79.3733 231.248 79.0733 231.021 78.7C230.808 78.3267 230.701 77.8667 230.701 77.32C230.701 76.6 230.895 76.0333 231.281 75.62C231.668 75.1933 232.175 74.8733 232.801 74.66C233.428 74.4333 234.135 74.2867 234.921 74.22C235.708 74.1533 236.501 74.12 237.301 74.12V73.86ZM236.841 75.48C236.375 75.48 235.888 75.5 235.381 75.54C234.888 75.58 234.435 75.66 234.021 75.78C233.621 75.9 233.288 76.08 233.021 76.32C232.755 76.56 232.621 76.88 232.621 77.28C232.621 77.56 232.675 77.7933 232.781 77.98C232.901 78.1667 233.055 78.32 233.241 78.44C233.428 78.56 233.635 78.6467 233.861 78.7C234.088 78.74 234.321 78.76 234.561 78.76C235.441 78.76 236.115 78.5 236.581 77.98C237.061 77.4467 237.301 76.78 237.301 75.98V75.48H236.841ZM242.241 72.56C242.241 72.3067 242.234 71.98 242.221 71.58C242.208 71.18 242.188 70.8267 242.161 70.52H243.941C243.968 70.76 243.988 71.04 244.001 71.36C244.014 71.6667 244.021 71.92 244.021 72.12H244.081C244.348 71.56 244.734 71.1133 245.241 70.78C245.761 70.4333 246.341 70.26 246.981 70.26C247.274 70.26 247.521 70.2867 247.721 70.34L247.641 72.08C247.374 72.0133 247.088 71.98 246.781 71.98C246.328 71.98 245.934 72.0667 245.601 72.24C245.268 72.4 244.988 72.62 244.761 72.9C244.548 73.18 244.388 73.5067 244.281 73.88C244.174 74.24 244.121 74.62 244.121 75.02V80H242.241V72.56ZM256.076 74.42C256.062 74.0467 255.996 73.7 255.876 73.38C255.769 73.0467 255.602 72.76 255.376 72.52C255.162 72.28 254.889 72.0933 254.556 71.96C254.236 71.8133 253.856 71.74 253.416 71.74C253.016 71.74 252.636 71.8133 252.276 71.96C251.929 72.0933 251.622 72.28 251.356 72.52C251.102 72.76 250.889 73.0467 250.716 73.38C250.556 73.7 250.462 74.0467 250.436 74.42H256.076ZM257.976 75.18C257.976 75.2867 257.976 75.3933 257.976 75.5C257.976 75.6067 257.969 75.7133 257.956 75.82H250.436C250.449 76.22 250.536 76.6 250.696 76.96C250.869 77.3067 251.096 77.6133 251.376 77.88C251.656 78.1333 251.976 78.3333 252.336 78.48C252.709 78.6267 253.102 78.7 253.516 78.7C254.156 78.7 254.709 78.56 255.176 78.28C255.642 78 256.009 77.66 256.276 77.26L257.596 78.32C257.089 78.9867 256.489 79.48 255.796 79.8C255.116 80.1067 254.356 80.26 253.516 80.26C252.796 80.26 252.129 80.14 251.516 79.9C250.902 79.66 250.376 79.3267 249.936 78.9C249.496 78.46 249.149 77.9333 248.896 77.32C248.642 76.7067 248.516 76.0267 248.516 75.28C248.516 74.5467 248.636 73.8733 248.876 73.26C249.129 72.6333 249.476 72.1 249.916 71.66C250.356 71.22 250.876 70.88 251.476 70.64C252.076 70.3867 252.722 70.26 253.416 70.26C254.109 70.26 254.736 70.3733 255.296 70.6C255.869 70.8267 256.349 71.1533 256.736 71.58C257.136 72.0067 257.442 72.5267 257.656 73.14C257.869 73.74 257.976 74.42 257.976 75.18ZM267.52 80H265.64V64.88H267.52V80ZM277.736 74.42C277.722 74.0467 277.656 73.7 277.536 73.38C277.429 73.0467 277.262 72.76 277.036 72.52C276.822 72.28 276.549 72.0933 276.216 71.96C275.896 71.8133 275.516 71.74 275.076 71.74C274.676 71.74 274.296 71.8133 273.936 71.96C273.589 72.0933 273.282 72.28 273.016 72.52C272.762 72.76 272.549 73.0467 272.376 73.38C272.216 73.7 272.122 74.0467 272.096 74.42H277.736ZM279.636 75.18C279.636 75.2867 279.636 75.3933 279.636 75.5C279.636 75.6067 279.629 75.7133 279.616 75.82H272.096C272.109 76.22 272.196 76.6 272.356 76.96C272.529 77.3067 272.756 77.6133 273.036 77.88C273.316 78.1333 273.636 78.3333 273.996 78.48C274.369 78.6267 274.762 78.7 275.176 78.7C275.816 78.7 276.369 78.56 276.836 78.28C277.302 78 277.669 77.66 277.936 77.26L279.256 78.32C278.749 78.9867 278.149 79.48 277.456 79.8C276.776 80.1067 276.016 80.26 275.176 80.26C274.456 80.26 273.789 80.14 273.176 79.9C272.562 79.66 272.036 79.3267 271.596 78.9C271.156 78.46 270.809 77.9333 270.556 77.32C270.302 76.7067 270.176 76.0267 270.176 75.28C270.176 74.5467 270.296 73.8733 270.536 73.26C270.789 72.6333 271.136 72.1 271.576 71.66C272.016 71.22 272.536 70.88 273.136 70.64C273.736 70.3867 274.382 70.26 275.076 70.26C275.769 70.26 276.396 70.3733 276.956 70.6C277.529 70.8267 278.009 71.1533 278.396 71.58C278.796 72.0067 279.102 72.5267 279.316 73.14C279.529 73.74 279.636 74.42 279.636 75.18ZM287.381 72.92C287.167 72.5733 286.867 72.2933 286.481 72.08C286.094 71.8533 285.661 71.74 285.181 71.74C284.967 71.74 284.754 71.7667 284.541 71.82C284.327 71.86 284.134 71.9333 283.961 72.04C283.801 72.1333 283.667 72.26 283.561 72.42C283.467 72.5667 283.421 72.7533 283.421 72.98C283.421 73.38 283.601 73.68 283.961 73.88C284.321 74.0667 284.861 74.24 285.581 74.4C286.034 74.5067 286.454 74.6333 286.841 74.78C287.227 74.9267 287.561 75.1133 287.841 75.34C288.134 75.5533 288.361 75.8133 288.521 76.12C288.681 76.4267 288.761 76.7867 288.761 77.2C288.761 77.76 288.654 78.2333 288.441 78.62C288.227 79.0067 287.941 79.3267 287.581 79.58C287.234 79.82 286.834 79.9933 286.381 80.1C285.927 80.2067 285.461 80.26 284.981 80.26C284.261 80.26 283.554 80.12 282.861 79.84C282.181 79.56 281.614 79.1333 281.161 78.56L282.501 77.42C282.754 77.7933 283.101 78.1067 283.541 78.36C283.994 78.6133 284.487 78.74 285.021 78.74C285.261 78.74 285.487 78.72 285.701 78.68C285.927 78.6267 286.127 78.5467 286.301 78.44C286.487 78.3333 286.634 78.1933 286.741 78.02C286.847 77.8467 286.901 77.6267 286.901 77.36C286.901 76.92 286.687 76.5933 286.261 76.38C285.847 76.1667 285.234 75.9667 284.421 75.78C284.101 75.7 283.774 75.6067 283.441 75.5C283.121 75.38 282.827 75.22 282.561 75.02C282.294 74.82 282.074 74.5733 281.901 74.28C281.741 73.9733 281.661 73.6 281.661 73.16C281.661 72.6533 281.761 72.22 281.961 71.86C282.174 71.4867 282.447 71.1867 282.781 70.96C283.114 70.72 283.494 70.5467 283.921 70.44C284.347 70.32 284.787 70.26 285.241 70.26C285.921 70.26 286.574 70.3933 287.201 70.66C287.841 70.9267 288.334 71.3133 288.681 71.82L287.381 72.92ZM296.267 72.92C296.054 72.5733 295.754 72.2933 295.367 72.08C294.981 71.8533 294.547 71.74 294.067 71.74C293.854 71.74 293.641 71.7667 293.427 71.82C293.214 71.86 293.021 71.9333 292.847 72.04C292.687 72.1333 292.554 72.26 292.447 72.42C292.354 72.5667 292.307 72.7533 292.307 72.98C292.307 73.38 292.487 73.68 292.847 73.88C293.207 74.0667 293.747 74.24 294.467 74.4C294.921 74.5067 295.341 74.6333 295.727 74.78C296.114 74.9267 296.447 75.1133 296.727 75.34C297.021 75.5533 297.247 75.8133 297.407 76.12C297.567 76.4267 297.647 76.7867 297.647 77.2C297.647 77.76 297.541 78.2333 297.327 78.62C297.114 79.0067 296.827 79.3267 296.467 79.58C296.121 79.82 295.721 79.9933 295.267 80.1C294.814 80.2067 294.347 80.26 293.867 80.26C293.147 80.26 292.441 80.12 291.747 79.84C291.067 79.56 290.501 79.1333 290.047 78.56L291.387 77.42C291.641 77.7933 291.987 78.1067 292.427 78.36C292.881 78.6133 293.374 78.74 293.907 78.74C294.147 78.74 294.374 78.72 294.587 78.68C294.814 78.6267 295.014 78.5467 295.187 78.44C295.374 78.3333 295.521 78.1933 295.627 78.02C295.734 77.8467 295.787 77.6267 295.787 77.36C295.787 76.92 295.574 76.5933 295.147 76.38C294.734 76.1667 294.121 75.9667 293.307 75.78C292.987 75.7 292.661 75.6067 292.327 75.5C292.007 75.38 291.714 75.22 291.447 75.02C291.181 74.82 290.961 74.5733 290.787 74.28C290.627 73.9733 290.547 73.6 290.547 73.16C290.547 72.6533 290.647 72.22 290.847 71.86C291.061 71.4867 291.334 71.1867 291.667 70.96C292.001 70.72 292.381 70.5467 292.807 70.44C293.234 70.32 293.674 70.26 294.127 70.26C294.807 70.26 295.461 70.3933 296.087 70.66C296.727 70.9267 297.221 71.3133 297.567 71.82L296.267 72.92ZM306.894 78.5V80H305.074V64.88H306.954V71.94H307.014C307.334 71.4733 307.781 71.08 308.354 70.76C308.927 70.4267 309.607 70.26 310.394 70.26C311.101 70.26 311.741 70.3867 312.314 70.64C312.901 70.8933 313.401 71.2467 313.814 71.7C314.241 72.1533 314.567 72.6867 314.794 73.3C315.021 73.9 315.134 74.5467 315.134 75.24C315.134 75.9333 315.021 76.5867 314.794 77.2C314.567 77.8133 314.247 78.3467 313.834 78.8C313.421 79.2533 312.921 79.6133 312.334 79.88C311.747 80.1333 311.087 80.26 310.354 80.26C309.674 80.26 309.027 80.1133 308.414 79.82C307.801 79.5133 307.307 79.0733 306.934 78.5H306.894ZM313.194 75.24C313.194 74.8 313.127 74.3733 312.994 73.96C312.861 73.5467 312.661 73.18 312.394 72.86C312.127 72.54 311.794 72.2867 311.394 72.1C311.007 71.9133 310.554 71.82 310.034 71.82C309.554 71.82 309.114 71.9133 308.714 72.1C308.327 72.2867 307.994 72.54 307.714 72.86C307.434 73.18 307.214 73.5467 307.054 73.96C306.907 74.3733 306.834 74.8067 306.834 75.26C306.834 75.7133 306.907 76.1467 307.054 76.56C307.214 76.9733 307.434 77.34 307.714 77.66C307.994 77.9667 308.327 78.2133 308.714 78.4C309.114 78.5867 309.554 78.68 310.034 78.68C310.554 78.68 311.007 78.5867 311.394 78.4C311.794 78.2 312.127 77.94 312.394 77.62C312.661 77.3 312.861 76.9333 312.994 76.52C313.127 76.1067 313.194 75.68 313.194 75.24ZM317.749 72.56C317.749 72.3067 317.742 71.98 317.729 71.58C317.716 71.18 317.696 70.8267 317.669 70.52H319.449C319.476 70.76 319.496 71.04 319.509 71.36C319.522 71.6667 319.529 71.92 319.529 72.12H319.589C319.856 71.56 320.242 71.1133 320.749 70.78C321.269 70.4333 321.849 70.26 322.489 70.26C322.782 70.26 323.029 70.2867 323.229 70.34L323.149 72.08C322.882 72.0133 322.596 71.98 322.289 71.98C321.836 71.98 321.442 72.0667 321.109 72.24C320.776 72.4 320.496 72.62 320.269 72.9C320.056 73.18 319.896 73.5067 319.789 73.88C319.682 74.24 319.629 74.62 319.629 75.02V80H317.749V72.56ZM330.641 73.86C330.641 73.1533 330.428 72.6333 330.001 72.3C329.574 71.9533 329.008 71.78 328.301 71.78C327.768 71.78 327.261 71.8867 326.781 72.1C326.314 72.3 325.921 72.56 325.601 72.88L324.601 71.68C325.068 71.24 325.634 70.8933 326.301 70.64C326.981 70.3867 327.708 70.26 328.481 70.26C329.161 70.26 329.748 70.36 330.241 70.56C330.748 70.7467 331.161 71.0067 331.481 71.34C331.801 71.6733 332.041 72.0667 332.201 72.52C332.361 72.9733 332.441 73.46 332.441 73.98V78.12C332.441 78.44 332.448 78.78 332.461 79.14C332.488 79.4867 332.528 79.7733 332.581 80H330.881C330.774 79.5467 330.721 79.0933 330.721 78.64H330.661C330.314 79.1467 329.874 79.54 329.341 79.82C328.821 80.1 328.201 80.24 327.481 80.24C327.108 80.24 326.714 80.1867 326.301 80.08C325.901 79.9867 325.534 79.8267 325.201 79.6C324.868 79.3733 324.588 79.0733 324.361 78.7C324.148 78.3267 324.041 77.8667 324.041 77.32C324.041 76.6 324.234 76.0333 324.621 75.62C325.008 75.1933 325.514 74.8733 326.141 74.66C326.768 74.4333 327.474 74.2867 328.261 74.22C329.048 74.1533 329.841 74.12 330.641 74.12V73.86ZM330.181 75.48C329.714 75.48 329.228 75.5 328.721 75.54C328.228 75.58 327.774 75.66 327.361 75.78C326.961 75.9 326.628 76.08 326.361 76.32C326.094 76.56 325.961 76.88 325.961 77.28C325.961 77.56 326.014 77.7933 326.121 77.98C326.241 78.1667 326.394 78.32 326.581 78.44C326.768 78.56 326.974 78.6467 327.201 78.7C327.428 78.74 327.661 78.76 327.901 78.76C328.781 78.76 329.454 78.5 329.921 77.98C330.401 77.4467 330.641 76.78 330.641 75.98V75.48H330.181ZM337.281 70.52C337.308 70.76 337.328 71.0333 337.341 71.34C337.354 71.6333 337.361 71.88 337.361 72.08H337.421C337.541 71.8267 337.701 71.5933 337.901 71.38C338.114 71.1533 338.354 70.96 338.621 70.8C338.888 70.6267 339.181 70.4933 339.501 70.4C339.821 70.3067 340.154 70.26 340.501 70.26C341.114 70.26 341.641 70.3667 342.081 70.58C342.521 70.78 342.888 71.0533 343.181 71.4C343.474 71.7467 343.688 72.1533 343.821 72.62C343.968 73.0867 344.041 73.5867 344.041 74.12V80H342.161V74.74C342.161 74.3533 342.128 73.9867 342.061 73.64C342.008 73.2933 341.901 72.9867 341.741 72.72C341.581 72.4533 341.361 72.24 341.081 72.08C340.801 71.92 340.441 71.84 340.001 71.84C339.254 71.84 338.641 72.1267 338.161 72.7C337.694 73.26 337.461 74.0133 337.461 74.96V80H335.581V72.56C335.581 72.3067 335.574 71.98 335.561 71.58C335.548 71.18 335.528 70.8267 335.501 70.52H337.281ZM354.782 78.5C354.422 79.0733 353.928 79.5133 353.302 79.82C352.688 80.1133 352.042 80.26 351.362 80.26C350.628 80.26 349.968 80.1333 349.382 79.88C348.795 79.6133 348.295 79.2533 347.882 78.8C347.468 78.3467 347.148 77.8133 346.922 77.2C346.695 76.5867 346.582 75.9333 346.582 75.24C346.582 74.5467 346.695 73.9 346.922 73.3C347.148 72.6867 347.468 72.1533 347.882 71.7C348.308 71.2467 348.815 70.8933 349.402 70.64C349.988 70.3867 350.635 70.26 351.342 70.26C352.115 70.26 352.788 70.4267 353.362 70.76C353.935 71.08 354.388 71.4733 354.722 71.94H354.762V64.88H356.642V80H354.822V78.5H354.782ZM348.542 75.24C348.542 75.68 348.608 76.1067 348.742 76.52C348.875 76.9333 349.075 77.3 349.342 77.62C349.608 77.94 349.935 78.2 350.322 78.4C350.708 78.5867 351.162 78.68 351.682 78.68C352.162 78.68 352.595 78.5867 352.982 78.4C353.382 78.2133 353.722 77.9667 354.002 77.66C354.282 77.34 354.495 76.9733 354.642 76.56C354.802 76.1467 354.882 75.7133 354.882 75.26C354.882 74.8067 354.802 74.3733 354.642 73.96C354.495 73.5467 354.282 73.18 354.002 72.86C353.722 72.54 353.382 72.2867 352.982 72.1C352.595 71.9133 352.162 71.82 351.682 71.82C351.162 71.82 350.708 71.9133 350.322 72.1C349.935 72.2867 349.608 72.54 349.342 72.86C349.075 73.18 348.875 73.5467 348.742 73.96C348.608 74.3733 348.542 74.8 348.542 75.24ZM42.54 113H40.66V97.88H42.54V113ZM55.4153 108.24C55.4153 108.973 55.282 109.647 55.0153 110.26C54.762 110.873 54.402 111.407 53.9353 111.86C53.482 112.3 52.942 112.647 52.3153 112.9C51.6886 113.14 51.0153 113.26 50.2953 113.26C49.5753 113.26 48.902 113.14 48.2753 112.9C47.6486 112.647 47.1086 112.3 46.6553 111.86C46.202 111.407 45.842 110.873 45.5753 110.26C45.322 109.647 45.1953 108.973 45.1953 108.24C45.1953 107.507 45.322 106.84 45.5753 106.24C45.842 105.627 46.202 105.1 46.6553 104.66C47.1086 104.22 47.6486 103.88 48.2753 103.64C48.902 103.387 49.5753 103.26 50.2953 103.26C51.0153 103.26 51.6886 103.387 52.3153 103.64C52.942 103.88 53.482 104.22 53.9353 104.66C54.402 105.1 54.762 105.627 55.0153 106.24C55.282 106.84 55.4153 107.507 55.4153 108.24ZM53.4553 108.24C53.4553 107.787 53.382 107.353 53.2353 106.94C53.102 106.527 52.902 106.167 52.6353 105.86C52.3686 105.54 52.0353 105.287 51.6353 105.1C51.2486 104.913 50.802 104.82 50.2953 104.82C49.7886 104.82 49.3353 104.913 48.9353 105.1C48.5486 105.287 48.222 105.54 47.9553 105.86C47.6886 106.167 47.482 106.527 47.3353 106.94C47.202 107.353 47.1353 107.787 47.1353 108.24C47.1353 108.693 47.202 109.127 47.3353 109.54C47.482 109.953 47.6886 110.32 47.9553 110.64C48.222 110.96 48.5486 111.213 48.9353 111.4C49.3353 111.587 49.7886 111.68 50.2953 111.68C50.802 111.68 51.2486 111.587 51.6353 111.4C52.0353 111.213 52.3686 110.96 52.6353 110.64C52.902 110.32 53.102 109.953 53.2353 109.54C53.382 109.127 53.4553 108.693 53.4553 108.24ZM61.6223 110.96H61.6623L64.2823 103.52H66.2823L61.6823 115.24C61.5223 115.64 61.349 115.993 61.1623 116.3C60.9757 116.62 60.7557 116.887 60.5023 117.1C60.249 117.327 59.949 117.5 59.6023 117.62C59.269 117.74 58.869 117.8 58.4023 117.8C58.2023 117.8 57.9957 117.787 57.7823 117.76C57.5823 117.747 57.3757 117.713 57.1623 117.66L57.3423 116C57.6623 116.107 57.9757 116.16 58.2823 116.16C58.7757 116.16 59.1423 116.02 59.3823 115.74C59.6223 115.473 59.8423 115.087 60.0423 114.58L60.6423 113L56.5823 103.52H58.6823L61.6223 110.96ZM74.0005 106.86C74.0005 106.153 73.7871 105.633 73.3605 105.3C72.9338 104.953 72.3671 104.78 71.6605 104.78C71.1271 104.78 70.6205 104.887 70.1405 105.1C69.6738 105.3 69.2805 105.56 68.9605 105.88L67.9605 104.68C68.4271 104.24 68.9938 103.893 69.6605 103.64C70.3405 103.387 71.0671 103.26 71.8405 103.26C72.5205 103.26 73.1071 103.36 73.6005 103.56C74.1071 103.747 74.5205 104.007 74.8405 104.34C75.1605 104.673 75.4005 105.067 75.5605 105.52C75.7205 105.973 75.8005 106.46 75.8005 106.98V111.12C75.8005 111.44 75.8071 111.78 75.8205 112.14C75.8471 112.487 75.8871 112.773 75.9405 113H74.2405C74.1338 112.547 74.0805 112.093 74.0805 111.64H74.0205C73.6738 112.147 73.2338 112.54 72.7005 112.82C72.1805 113.1 71.5605 113.24 70.8405 113.24C70.4671 113.24 70.0738 113.187 69.6605 113.08C69.2605 112.987 68.8938 112.827 68.5605 112.6C68.2271 112.373 67.9471 112.073 67.7205 111.7C67.5071 111.327 67.4005 110.867 67.4005 110.32C67.4005 109.6 67.5938 109.033 67.9805 108.62C68.3671 108.193 68.8738 107.873 69.5005 107.66C70.1271 107.433 70.8338 107.287 71.6205 107.22C72.4071 107.153 73.2005 107.12 74.0005 107.12V106.86ZM73.5405 108.48C73.0738 108.48 72.5871 108.5 72.0805 108.54C71.5871 108.58 71.1338 108.66 70.7205 108.78C70.3205 108.9 69.9871 109.08 69.7205 109.32C69.4538 109.56 69.3205 109.88 69.3205 110.28C69.3205 110.56 69.3738 110.793 69.4805 110.98C69.6005 111.167 69.7538 111.32 69.9405 111.44C70.1271 111.56 70.3338 111.647 70.5605 111.7C70.7871 111.74 71.0205 111.76 71.2605 111.76C72.1405 111.76 72.8138 111.5 73.2805 110.98C73.7605 110.447 74.0005 109.78 74.0005 108.98V108.48H73.5405ZM80.8603 113H78.9803V97.88H80.8603V113ZM95.0356 106.86C95.0356 106.153 94.8223 105.633 94.3956 105.3C93.969 104.953 93.4023 104.78 92.6956 104.78C92.1623 104.78 91.6556 104.887 91.1756 105.1C90.709 105.3 90.3156 105.56 89.9956 105.88L88.9956 104.68C89.4623 104.24 90.029 103.893 90.6956 103.64C91.3756 103.387 92.1023 103.26 92.8756 103.26C93.5556 103.26 94.1423 103.36 94.6356 103.56C95.1423 103.747 95.5556 104.007 95.8756 104.34C96.1956 104.673 96.4356 105.067 96.5956 105.52C96.7556 105.973 96.8356 106.46 96.8356 106.98V111.12C96.8356 111.44 96.8423 111.78 96.8556 112.14C96.8823 112.487 96.9223 112.773 96.9756 113H95.2756C95.169 112.547 95.1156 112.093 95.1156 111.64H95.0556C94.709 112.147 94.269 112.54 93.7356 112.82C93.2156 113.1 92.5956 113.24 91.8756 113.24C91.5023 113.24 91.109 113.187 90.6956 113.08C90.2956 112.987 89.929 112.827 89.5956 112.6C89.2623 112.373 88.9823 112.073 88.7556 111.7C88.5423 111.327 88.4356 110.867 88.4356 110.32C88.4356 109.6 88.629 109.033 89.0156 108.62C89.4023 108.193 89.909 107.873 90.5356 107.66C91.1623 107.433 91.869 107.287 92.6556 107.22C93.4423 107.153 94.2356 107.12 95.0356 107.12V106.86ZM94.5756 108.48C94.109 108.48 93.6223 108.5 93.1156 108.54C92.6223 108.58 92.169 108.66 91.7556 108.78C91.3556 108.9 91.0223 109.08 90.7556 109.32C90.489 109.56 90.3556 109.88 90.3556 110.28C90.3556 110.56 90.409 110.793 90.5156 110.98C90.6356 111.167 90.789 111.32 90.9756 111.44C91.1623 111.56 91.369 111.647 91.5956 111.7C91.8223 111.74 92.0556 111.76 92.2956 111.76C93.1756 111.76 93.849 111.5 94.3156 110.98C94.7956 110.447 95.0356 109.78 95.0356 108.98V108.48H94.5756ZM101.675 103.52C101.702 103.76 101.722 104.033 101.735 104.34C101.749 104.633 101.755 104.88 101.755 105.08H101.815C101.935 104.827 102.095 104.593 102.295 104.38C102.509 104.153 102.749 103.96 103.015 103.8C103.282 103.627 103.575 103.493 103.895 103.4C104.215 103.307 104.549 103.26 104.895 103.26C105.509 103.26 106.035 103.367 106.475 103.58C106.915 103.78 107.282 104.053 107.575 104.4C107.869 104.747 108.082 105.153 108.215 105.62C108.362 106.087 108.435 106.587 108.435 107.12V113H106.555V107.74C106.555 107.353 106.522 106.987 106.455 106.64C106.402 106.293 106.295 105.987 106.135 105.72C105.975 105.453 105.755 105.24 105.475 105.08C105.195 104.92 104.835 104.84 104.395 104.84C103.649 104.84 103.035 105.127 102.555 105.7C102.089 106.26 101.855 107.013 101.855 107.96V113H99.9755V105.56C99.9755 105.307 99.9688 104.98 99.9555 104.58C99.9421 104.18 99.9221 103.827 99.8955 103.52H101.675ZM119.176 111.5C118.816 112.073 118.323 112.513 117.696 112.82C117.083 113.113 116.436 113.26 115.756 113.26C115.023 113.26 114.363 113.133 113.776 112.88C113.189 112.613 112.689 112.253 112.276 111.8C111.863 111.347 111.543 110.813 111.316 110.2C111.089 109.587 110.976 108.933 110.976 108.24C110.976 107.547 111.089 106.9 111.316 106.3C111.543 105.687 111.863 105.153 112.276 104.7C112.703 104.247 113.209 103.893 113.796 103.64C114.383 103.387 115.029 103.26 115.736 103.26C116.509 103.26 117.183 103.427 117.756 103.76C118.329 104.08 118.783 104.473 119.116 104.94H119.156V97.88H121.036V113H119.216V111.5H119.176ZM112.936 108.24C112.936 108.68 113.003 109.107 113.136 109.52C113.269 109.933 113.469 110.3 113.736 110.62C114.003 110.94 114.329 111.2 114.716 111.4C115.103 111.587 115.556 111.68 116.076 111.68C116.556 111.68 116.989 111.587 117.376 111.4C117.776 111.213 118.116 110.967 118.396 110.66C118.676 110.34 118.889 109.973 119.036 109.56C119.196 109.147 119.276 108.713 119.276 108.26C119.276 107.807 119.196 107.373 119.036 106.96C118.889 106.547 118.676 106.18 118.396 105.86C118.116 105.54 117.776 105.287 117.376 105.1C116.989 104.913 116.556 104.82 116.076 104.82C115.556 104.82 115.103 104.913 114.716 105.1C114.329 105.287 114.003 105.54 113.736 105.86C113.469 106.18 113.269 106.547 113.136 106.96C113.003 107.373 112.936 107.8 112.936 108.24ZM131.151 105.08C131.391 104.573 131.771 104.147 132.291 103.8C132.825 103.44 133.451 103.26 134.171 103.26C134.811 103.26 135.385 103.407 135.891 103.7C136.411 103.993 136.818 104.48 137.111 105.16C137.431 104.547 137.878 104.08 138.451 103.76C139.025 103.427 139.651 103.26 140.331 103.26C140.945 103.26 141.471 103.367 141.911 103.58C142.351 103.78 142.718 104.053 143.011 104.4C143.305 104.747 143.518 105.153 143.651 105.62C143.798 106.087 143.871 106.587 143.871 107.12V113H141.991V107.74C141.991 107.353 141.958 106.987 141.891 106.64C141.825 106.293 141.711 105.987 141.551 105.72C141.391 105.453 141.178 105.24 140.911 105.08C140.645 104.92 140.305 104.84 139.891 104.84C139.465 104.84 139.098 104.933 138.791 105.12C138.485 105.293 138.231 105.527 138.031 105.82C137.845 106.1 137.705 106.42 137.611 106.78C137.531 107.14 137.491 107.507 137.491 107.88V113H135.611V107.36C135.611 106.987 135.578 106.647 135.511 106.34C135.445 106.033 135.331 105.773 135.171 105.56C135.011 105.333 134.805 105.16 134.551 105.04C134.298 104.907 133.985 104.84 133.611 104.84C132.918 104.84 132.338 105.127 131.871 105.7C131.418 106.26 131.191 107.013 131.191 107.96V113H129.311V105.56C129.311 105.307 129.305 104.98 129.291 104.58C129.278 104.18 129.258 103.827 129.231 103.52H131.011C131.038 103.76 131.058 104.033 131.071 104.34C131.085 104.633 131.091 104.88 131.091 105.08H131.151ZM156.646 108.24C156.646 108.973 156.512 109.647 156.246 110.26C155.992 110.873 155.632 111.407 155.166 111.86C154.712 112.3 154.172 112.647 153.546 112.9C152.919 113.14 152.246 113.26 151.526 113.26C150.806 113.26 150.132 113.14 149.506 112.9C148.879 112.647 148.339 112.3 147.886 111.86C147.432 111.407 147.072 110.873 146.806 110.26C146.552 109.647 146.426 108.973 146.426 108.24C146.426 107.507 146.552 106.84 146.806 106.24C147.072 105.627 147.432 105.1 147.886 104.66C148.339 104.22 148.879 103.88 149.506 103.64C150.132 103.387 150.806 103.26 151.526 103.26C152.246 103.26 152.919 103.387 153.546 103.64C154.172 103.88 154.712 104.22 155.166 104.66C155.632 105.1 155.992 105.627 156.246 106.24C156.512 106.84 156.646 107.507 156.646 108.24ZM154.686 108.24C154.686 107.787 154.612 107.353 154.466 106.94C154.332 106.527 154.132 106.167 153.866 105.86C153.599 105.54 153.266 105.287 152.866 105.1C152.479 104.913 152.032 104.82 151.526 104.82C151.019 104.82 150.566 104.913 150.166 105.1C149.779 105.287 149.452 105.54 149.186 105.86C148.919 106.167 148.712 106.527 148.566 106.94C148.432 107.353 148.366 107.787 148.366 108.24C148.366 108.693 148.432 109.127 148.566 109.54C148.712 109.953 148.919 110.32 149.186 110.64C149.452 110.96 149.779 111.213 150.166 111.4C150.566 111.587 151.019 111.68 151.526 111.68C152.032 111.68 152.479 111.587 152.866 111.4C153.266 111.213 153.599 110.96 153.866 110.64C154.132 110.32 154.332 109.953 154.466 109.54C154.612 109.127 154.686 108.693 154.686 108.24ZM159.253 105.56C159.253 105.307 159.246 104.98 159.233 104.58C159.219 104.18 159.199 103.827 159.173 103.52H160.953C160.979 103.76 160.999 104.04 161.013 104.36C161.026 104.667 161.033 104.92 161.033 105.12H161.093C161.359 104.56 161.746 104.113 162.253 103.78C162.773 103.433 163.353 103.26 163.993 103.26C164.286 103.26 164.533 103.287 164.733 103.34L164.653 105.08C164.386 105.013 164.099 104.98 163.793 104.98C163.339 104.98 162.946 105.067 162.613 105.24C162.279 105.4 161.999 105.62 161.773 105.9C161.559 106.18 161.399 106.507 161.293 106.88C161.186 107.24 161.133 107.62 161.133 108.02V113H159.253V105.56ZM173.087 107.42C173.074 107.047 173.007 106.7 172.887 106.38C172.781 106.047 172.614 105.76 172.387 105.52C172.174 105.28 171.901 105.093 171.567 104.96C171.247 104.813 170.867 104.74 170.427 104.74C170.027 104.74 169.647 104.813 169.287 104.96C168.941 105.093 168.634 105.28 168.367 105.52C168.114 105.76 167.901 106.047 167.727 106.38C167.567 106.7 167.474 107.047 167.447 107.42H173.087ZM174.987 108.18C174.987 108.287 174.987 108.393 174.987 108.5C174.987 108.607 174.981 108.713 174.967 108.82H167.447C167.461 109.22 167.547 109.6 167.707 109.96C167.881 110.307 168.107 110.613 168.387 110.88C168.667 111.133 168.987 111.333 169.347 111.48C169.721 111.627 170.114 111.7 170.527 111.7C171.167 111.7 171.721 111.56 172.187 111.28C172.654 111 173.021 110.66 173.287 110.26L174.607 111.32C174.101 111.987 173.501 112.48 172.807 112.8C172.127 113.107 171.367 113.26 170.527 113.26C169.807 113.26 169.141 113.14 168.527 112.9C167.914 112.66 167.387 112.327 166.947 111.9C166.507 111.46 166.161 110.933 165.907 110.32C165.654 109.707 165.527 109.027 165.527 108.28C165.527 107.547 165.647 106.873 165.887 106.26C166.141 105.633 166.487 105.1 166.927 104.66C167.367 104.22 167.887 103.88 168.487 103.64C169.087 103.387 169.734 103.26 170.427 103.26C171.121 103.26 171.747 103.373 172.307 103.6C172.881 103.827 173.361 104.153 173.747 104.58C174.147 105.007 174.454 105.527 174.667 106.14C174.881 106.74 174.987 107.42 174.987 108.18ZM187.072 105.06H184.872V113H182.992V105.06H181.112V103.52H182.992V101.54C182.992 100.98 183.052 100.467 183.172 100C183.306 99.52 183.512 99.1067 183.792 98.76C184.086 98.4133 184.452 98.14 184.892 97.94C185.346 97.74 185.892 97.64 186.532 97.64C186.986 97.64 187.379 97.6867 187.712 97.78L187.492 99.4C187.346 99.36 187.199 99.3267 187.052 99.3C186.906 99.2733 186.739 99.26 186.552 99.26C186.192 99.26 185.899 99.3267 185.672 99.46C185.459 99.58 185.292 99.7467 185.172 99.96C185.052 100.173 184.972 100.42 184.932 100.7C184.892 100.967 184.872 101.247 184.872 101.54V103.52H187.072V105.06ZM198.404 108.24C198.404 108.973 198.27 109.647 198.004 110.26C197.75 110.873 197.39 111.407 196.924 111.86C196.47 112.3 195.93 112.647 195.304 112.9C194.677 113.14 194.004 113.26 193.284 113.26C192.564 113.26 191.89 113.14 191.264 112.9C190.637 112.647 190.097 112.3 189.644 111.86C189.19 111.407 188.83 110.873 188.564 110.26C188.31 109.647 188.184 108.973 188.184 108.24C188.184 107.507 188.31 106.84 188.564 106.24C188.83 105.627 189.19 105.1 189.644 104.66C190.097 104.22 190.637 103.88 191.264 103.64C191.89 103.387 192.564 103.26 193.284 103.26C194.004 103.26 194.677 103.387 195.304 103.64C195.93 103.88 196.47 104.22 196.924 104.66C197.39 105.1 197.75 105.627 198.004 106.24C198.27 106.84 198.404 107.507 198.404 108.24ZM196.444 108.24C196.444 107.787 196.37 107.353 196.224 106.94C196.09 106.527 195.89 106.167 195.624 105.86C195.357 105.54 195.024 105.287 194.624 105.1C194.237 104.913 193.79 104.82 193.284 104.82C192.777 104.82 192.324 104.913 191.924 105.1C191.537 105.287 191.21 105.54 190.944 105.86C190.677 106.167 190.47 106.527 190.324 106.94C190.19 107.353 190.124 107.787 190.124 108.24C190.124 108.693 190.19 109.127 190.324 109.54C190.47 109.953 190.677 110.32 190.944 110.64C191.21 110.96 191.537 111.213 191.924 111.4C192.324 111.587 192.777 111.68 193.284 111.68C193.79 111.68 194.237 111.587 194.624 111.4C195.024 111.213 195.357 110.96 195.624 110.64C195.89 110.32 196.09 109.953 196.224 109.54C196.37 109.127 196.444 108.693 196.444 108.24ZM207.651 105.92C207.451 105.613 207.151 105.36 206.751 105.16C206.351 104.947 205.924 104.84 205.471 104.84C204.977 104.84 204.537 104.933 204.151 105.12C203.777 105.307 203.457 105.56 203.191 105.88C202.924 106.187 202.717 106.547 202.571 106.96C202.437 107.373 202.371 107.807 202.371 108.26C202.371 108.713 202.437 109.147 202.571 109.56C202.717 109.973 202.924 110.34 203.191 110.66C203.457 110.967 203.784 111.213 204.171 111.4C204.557 111.587 204.997 111.68 205.491 111.68C205.971 111.68 206.404 111.587 206.791 111.4C207.191 111.213 207.517 110.96 207.771 110.64L209.031 111.78C208.631 112.247 208.131 112.613 207.531 112.88C206.931 113.133 206.251 113.26 205.491 113.26C204.757 113.26 204.077 113.14 203.451 112.9C202.837 112.66 202.304 112.327 201.851 111.9C201.397 111.46 201.037 110.933 200.771 110.32C200.517 109.707 200.391 109.02 200.391 108.26C200.391 107.513 200.517 106.833 200.771 106.22C201.024 105.607 201.377 105.08 201.831 104.64C202.284 104.2 202.817 103.86 203.431 103.62C204.057 103.38 204.731 103.26 205.451 103.26C206.117 103.26 206.777 103.393 207.431 103.66C208.097 103.927 208.624 104.313 209.011 104.82L207.651 105.92ZM217.573 113C217.547 112.76 217.527 112.493 217.513 112.2C217.5 111.893 217.493 111.64 217.493 111.44H217.453C217.213 111.947 216.807 112.38 216.233 112.74C215.673 113.087 215.047 113.26 214.353 113.26C213.74 113.26 213.207 113.16 212.753 112.96C212.313 112.76 211.947 112.487 211.653 112.14C211.373 111.78 211.16 111.367 211.013 110.9C210.88 110.433 210.813 109.933 210.813 109.4V103.52H212.693V108.76C212.693 109.147 212.72 109.52 212.773 109.88C212.84 110.227 212.953 110.533 213.113 110.8C213.273 111.067 213.493 111.28 213.773 111.44C214.053 111.6 214.413 111.68 214.853 111.68C215.613 111.68 216.227 111.4 216.693 110.84C217.16 110.267 217.393 109.507 217.393 108.56V103.52H219.273V110.96C219.273 111.213 219.28 111.54 219.293 111.94C219.307 112.34 219.327 112.693 219.353 113H217.573ZM227.654 105.92C227.441 105.573 227.141 105.293 226.754 105.08C226.367 104.853 225.934 104.74 225.454 104.74C225.241 104.74 225.027 104.767 224.814 104.82C224.601 104.86 224.407 104.933 224.234 105.04C224.074 105.133 223.941 105.26 223.834 105.42C223.741 105.567 223.694 105.753 223.694 105.98C223.694 106.38 223.874 106.68 224.234 106.88C224.594 107.067 225.134 107.24 225.854 107.4C226.307 107.507 226.727 107.633 227.114 107.78C227.501 107.927 227.834 108.113 228.114 108.34C228.407 108.553 228.634 108.813 228.794 109.12C228.954 109.427 229.034 109.787 229.034 110.2C229.034 110.76 228.927 111.233 228.714 111.62C228.501 112.007 228.214 112.327 227.854 112.58C227.507 112.82 227.107 112.993 226.654 113.1C226.201 113.207 225.734 113.26 225.254 113.26C224.534 113.26 223.827 113.12 223.134 112.84C222.454 112.56 221.887 112.133 221.434 111.56L222.774 110.42C223.027 110.793 223.374 111.107 223.814 111.36C224.267 111.613 224.761 111.74 225.294 111.74C225.534 111.74 225.761 111.72 225.974 111.68C226.201 111.627 226.401 111.547 226.574 111.44C226.761 111.333 226.907 111.193 227.014 111.02C227.121 110.847 227.174 110.627 227.174 110.36C227.174 109.92 226.961 109.593 226.534 109.38C226.121 109.167 225.507 108.967 224.694 108.78C224.374 108.7 224.047 108.607 223.714 108.5C223.394 108.38 223.101 108.22 222.834 108.02C222.567 107.82 222.347 107.573 222.174 107.28C222.014 106.973 221.934 106.6 221.934 106.16C221.934 105.653 222.034 105.22 222.234 104.86C222.447 104.487 222.721 104.187 223.054 103.96C223.387 103.72 223.767 103.547 224.194 103.44C224.621 103.32 225.061 103.26 225.514 103.26C226.194 103.26 226.847 103.393 227.474 103.66C228.114 103.927 228.607 104.313 228.954 104.82L227.654 105.92ZM238.361 107.42C238.347 107.047 238.281 106.7 238.161 106.38C238.054 106.047 237.887 105.76 237.661 105.52C237.447 105.28 237.174 105.093 236.841 104.96C236.521 104.813 236.141 104.74 235.701 104.74C235.301 104.74 234.921 104.813 234.561 104.96C234.214 105.093 233.907 105.28 233.641 105.52C233.387 105.76 233.174 106.047 233.001 106.38C232.841 106.7 232.747 107.047 232.721 107.42H238.361ZM240.261 108.18C240.261 108.287 240.261 108.393 240.261 108.5C240.261 108.607 240.254 108.713 240.241 108.82H232.721C232.734 109.22 232.821 109.6 232.981 109.96C233.154 110.307 233.381 110.613 233.661 110.88C233.941 111.133 234.261 111.333 234.621 111.48C234.994 111.627 235.387 111.7 235.801 111.7C236.441 111.7 236.994 111.56 237.461 111.28C237.927 111 238.294 110.66 238.561 110.26L239.881 111.32C239.374 111.987 238.774 112.48 238.081 112.8C237.401 113.107 236.641 113.26 235.801 113.26C235.081 113.26 234.414 113.14 233.801 112.9C233.187 112.66 232.661 112.327 232.221 111.9C231.781 111.46 231.434 110.933 231.181 110.32C230.927 109.707 230.801 109.027 230.801 108.28C230.801 107.547 230.921 106.873 231.161 106.26C231.414 105.633 231.761 105.1 232.201 104.66C232.641 104.22 233.161 103.88 233.761 103.64C234.361 103.387 235.007 103.26 235.701 103.26C236.394 103.26 237.021 103.373 237.581 103.6C238.154 103.827 238.634 104.153 239.021 104.58C239.421 105.007 239.727 105.527 239.941 106.14C240.154 106.74 240.261 107.42 240.261 108.18ZM250.446 111.5C250.086 112.073 249.592 112.513 248.966 112.82C248.352 113.113 247.706 113.26 247.026 113.26C246.292 113.26 245.632 113.133 245.046 112.88C244.459 112.613 243.959 112.253 243.546 111.8C243.132 111.347 242.812 110.813 242.586 110.2C242.359 109.587 242.246 108.933 242.246 108.24C242.246 107.547 242.359 106.9 242.586 106.3C242.812 105.687 243.132 105.153 243.546 104.7C243.972 104.247 244.479 103.893 245.066 103.64C245.652 103.387 246.299 103.26 247.006 103.26C247.779 103.26 248.452 103.427 249.026 103.76C249.599 104.08 250.052 104.473 250.386 104.94H250.426V97.88H252.306V113H250.486V111.5H250.446ZM244.206 108.24C244.206 108.68 244.272 109.107 244.406 109.52C244.539 109.933 244.739 110.3 245.006 110.62C245.272 110.94 245.599 111.2 245.986 111.4C246.372 111.587 246.826 111.68 247.346 111.68C247.826 111.68 248.259 111.587 248.646 111.4C249.046 111.213 249.386 110.967 249.666 110.66C249.946 110.34 250.159 109.973 250.306 109.56C250.466 109.147 250.546 108.713 250.546 108.26C250.546 107.807 250.466 107.373 250.306 106.96C250.159 106.547 249.946 106.18 249.666 105.86C249.386 105.54 249.046 105.287 248.646 105.1C248.259 104.913 247.826 104.82 247.346 104.82C246.826 104.82 246.372 104.913 245.986 105.1C245.599 105.287 245.272 105.54 245.006 105.86C244.739 106.18 244.539 106.547 244.406 106.96C244.272 107.373 244.206 107.8 244.206 108.24ZM270.181 108.24C270.181 108.973 270.048 109.647 269.781 110.26C269.528 110.873 269.168 111.407 268.701 111.86C268.248 112.3 267.708 112.647 267.081 112.9C266.454 113.14 265.781 113.26 265.061 113.26C264.341 113.26 263.668 113.14 263.041 112.9C262.414 112.647 261.874 112.3 261.421 111.86C260.968 111.407 260.608 110.873 260.341 110.26C260.088 109.647 259.961 108.973 259.961 108.24C259.961 107.507 260.088 106.84 260.341 106.24C260.608 105.627 260.968 105.1 261.421 104.66C261.874 104.22 262.414 103.88 263.041 103.64C263.668 103.387 264.341 103.26 265.061 103.26C265.781 103.26 266.454 103.387 267.081 103.64C267.708 103.88 268.248 104.22 268.701 104.66C269.168 105.1 269.528 105.627 269.781 106.24C270.048 106.84 270.181 107.507 270.181 108.24ZM268.221 108.24C268.221 107.787 268.148 107.353 268.001 106.94C267.868 106.527 267.668 106.167 267.401 105.86C267.134 105.54 266.801 105.287 266.401 105.1C266.014 104.913 265.568 104.82 265.061 104.82C264.554 104.82 264.101 104.913 263.701 105.1C263.314 105.287 262.988 105.54 262.721 105.86C262.454 106.167 262.248 106.527 262.101 106.94C261.968 107.353 261.901 107.787 261.901 108.24C261.901 108.693 261.968 109.127 262.101 109.54C262.248 109.953 262.454 110.32 262.721 110.64C262.988 110.96 263.314 111.213 263.701 111.4C264.101 111.587 264.554 111.68 265.061 111.68C265.568 111.68 266.014 111.587 266.401 111.4C266.801 111.213 267.134 110.96 267.401 110.64C267.668 110.32 267.868 109.953 268.001 109.54C268.148 109.127 268.221 108.693 268.221 108.24ZM274.488 103.52C274.515 103.76 274.535 104.033 274.548 104.34C274.561 104.633 274.568 104.88 274.568 105.08H274.628C274.748 104.827 274.908 104.593 275.108 104.38C275.321 104.153 275.561 103.96 275.828 103.8C276.095 103.627 276.388 103.493 276.708 103.4C277.028 103.307 277.361 103.26 277.708 103.26C278.321 103.26 278.848 103.367 279.288 103.58C279.728 103.78 280.095 104.053 280.388 104.4C280.681 104.747 280.895 105.153 281.028 105.62C281.175 106.087 281.248 106.587 281.248 107.12V113H279.368V107.74C279.368 107.353 279.335 106.987 279.268 106.64C279.215 106.293 279.108 105.987 278.948 105.72C278.788 105.453 278.568 105.24 278.288 105.08C278.008 104.92 277.648 104.84 277.208 104.84C276.461 104.84 275.848 105.127 275.368 105.7C274.901 106.26 274.668 107.013 274.668 107.96V113H272.788V105.56C272.788 105.307 272.781 104.98 272.768 104.58C272.755 104.18 272.735 103.827 272.708 103.52H274.488ZM293.889 113H291.849L287.989 103.52H290.069L292.849 110.98H292.889L295.689 103.52H297.689L293.889 113ZM305.407 106.86C305.407 106.153 305.193 105.633 304.767 105.3C304.34 104.953 303.773 104.78 303.067 104.78C302.533 104.78 302.027 104.887 301.547 105.1C301.08 105.3 300.687 105.56 300.367 105.88L299.367 104.68C299.833 104.24 300.4 103.893 301.067 103.64C301.747 103.387 302.473 103.26 303.247 103.26C303.927 103.26 304.513 103.36 305.007 103.56C305.513 103.747 305.927 104.007 306.247 104.34C306.567 104.673 306.807 105.067 306.967 105.52C307.127 105.973 307.207 106.46 307.207 106.98V111.12C307.207 111.44 307.213 111.78 307.227 112.14C307.253 112.487 307.293 112.773 307.347 113H305.647C305.54 112.547 305.487 112.093 305.487 111.64H305.427C305.08 112.147 304.64 112.54 304.107 112.82C303.587 113.1 302.967 113.24 302.247 113.24C301.873 113.24 301.48 113.187 301.067 113.08C300.667 112.987 300.3 112.827 299.967 112.6C299.633 112.373 299.353 112.073 299.127 111.7C298.913 111.327 298.807 110.867 298.807 110.32C298.807 109.6 299 109.033 299.387 108.62C299.773 108.193 300.28 107.873 300.907 107.66C301.533 107.433 302.24 107.287 303.027 107.22C303.813 107.153 304.607 107.12 305.407 107.12V106.86ZM304.947 108.48C304.48 108.48 303.993 108.5 303.487 108.54C302.993 108.58 302.54 108.66 302.127 108.78C301.727 108.9 301.393 109.08 301.127 109.32C300.86 109.56 300.727 109.88 300.727 110.28C300.727 110.56 300.78 110.793 300.887 110.98C301.007 111.167 301.16 111.32 301.347 111.44C301.533 111.56 301.74 111.647 301.967 111.7C302.193 111.74 302.427 111.76 302.667 111.76C303.547 111.76 304.22 111.5 304.687 110.98C305.167 110.447 305.407 109.78 305.407 108.98V108.48H304.947ZM312.267 113H310.387V97.88H312.267V113ZM322.222 113C322.195 112.76 322.175 112.493 322.162 112.2C322.149 111.893 322.142 111.64 322.142 111.44H322.102C321.862 111.947 321.455 112.38 320.882 112.74C320.322 113.087 319.695 113.26 319.002 113.26C318.389 113.26 317.855 113.16 317.402 112.96C316.962 112.76 316.595 112.487 316.302 112.14C316.022 111.78 315.809 111.367 315.662 110.9C315.529 110.433 315.462 109.933 315.462 109.4V103.52H317.342V108.76C317.342 109.147 317.369 109.52 317.422 109.88C317.489 110.227 317.602 110.533 317.762 110.8C317.922 111.067 318.142 111.28 318.422 111.44C318.702 111.6 319.062 111.68 319.502 111.68C320.262 111.68 320.875 111.4 321.342 110.84C321.809 110.267 322.042 109.507 322.042 108.56V103.52H323.922V110.96C323.922 111.213 323.929 111.54 323.942 111.94C323.955 112.34 323.975 112.693 324.002 113H322.222ZM334.123 107.42C334.109 107.047 334.043 106.7 333.923 106.38C333.816 106.047 333.649 105.76 333.423 105.52C333.209 105.28 332.936 105.093 332.603 104.96C332.283 104.813 331.903 104.74 331.463 104.74C331.063 104.74 330.683 104.813 330.323 104.96C329.976 105.093 329.669 105.28 329.403 105.52C329.149 105.76 328.936 106.047 328.763 106.38C328.603 106.7 328.509 107.047 328.483 107.42H334.123ZM336.023 108.18C336.023 108.287 336.023 108.393 336.023 108.5C336.023 108.607 336.016 108.713 336.003 108.82H328.483C328.496 109.22 328.583 109.6 328.743 109.96C328.916 110.307 329.143 110.613 329.423 110.88C329.703 111.133 330.023 111.333 330.383 111.48C330.756 111.627 331.149 111.7 331.563 111.7C332.203 111.7 332.756 111.56 333.223 111.28C333.689 111 334.056 110.66 334.323 110.26L335.643 111.32C335.136 111.987 334.536 112.48 333.843 112.8C333.163 113.107 332.403 113.26 331.563 113.26C330.843 113.26 330.176 113.14 329.563 112.9C328.949 112.66 328.423 112.327 327.983 111.9C327.543 111.46 327.196 110.933 326.943 110.32C326.689 109.707 326.563 109.027 326.563 108.28C326.563 107.547 326.683 106.873 326.923 106.26C327.176 105.633 327.523 105.1 327.963 104.66C328.403 104.22 328.923 103.88 329.523 103.64C330.123 103.387 330.769 103.26 331.463 103.26C332.156 103.26 332.783 103.373 333.343 103.6C333.916 103.827 334.396 104.153 334.783 104.58C335.183 105.007 335.489 105.527 335.703 106.14C335.916 106.74 336.023 107.42 336.023 108.18ZM343.767 105.92C343.554 105.573 343.254 105.293 342.867 105.08C342.481 104.853 342.047 104.74 341.567 104.74C341.354 104.74 341.141 104.767 340.927 104.82C340.714 104.86 340.521 104.933 340.347 105.04C340.187 105.133 340.054 105.26 339.947 105.42C339.854 105.567 339.807 105.753 339.807 105.98C339.807 106.38 339.987 106.68 340.347 106.88C340.707 107.067 341.247 107.24 341.967 107.4C342.421 107.507 342.841 107.633 343.227 107.78C343.614 107.927 343.947 108.113 344.227 108.34C344.521 108.553 344.747 108.813 344.907 109.12C345.067 109.427 345.147 109.787 345.147 110.2C345.147 110.76 345.041 111.233 344.827 111.62C344.614 112.007 344.327 112.327 343.967 112.58C343.621 112.82 343.221 112.993 342.767 113.1C342.314 113.207 341.847 113.26 341.367 113.26C340.647 113.26 339.941 113.12 339.247 112.84C338.567 112.56 338.001 112.133 337.547 111.56L338.887 110.42C339.141 110.793 339.487 111.107 339.927 111.36C340.381 111.613 340.874 111.74 341.407 111.74C341.647 111.74 341.874 111.72 342.087 111.68C342.314 111.627 342.514 111.547 342.687 111.44C342.874 111.333 343.021 111.193 343.127 111.02C343.234 110.847 343.287 110.627 343.287 110.36C343.287 109.92 343.074 109.593 342.647 109.38C342.234 109.167 341.621 108.967 340.807 108.78C340.487 108.7 340.161 108.607 339.827 108.5C339.507 108.38 339.214 108.22 338.947 108.02C338.681 107.82 338.461 107.573 338.287 107.28C338.127 106.973 338.047 106.6 338.047 106.16C338.047 105.653 338.147 105.22 338.347 104.86C338.561 104.487 338.834 104.187 339.167 103.96C339.501 103.72 339.881 103.547 340.307 103.44C340.734 103.32 341.174 103.26 341.627 103.26C342.307 103.26 342.961 103.393 343.587 103.66C344.227 103.927 344.721 104.313 345.067 104.82L343.767 105.92ZM46.52 139.86C46.52 139.153 46.3067 138.633 45.88 138.3C45.4533 137.953 44.8867 137.78 44.18 137.78C43.6467 137.78 43.14 137.887 42.66 138.1C42.1933 138.3 41.8 138.56 41.48 138.88L40.48 137.68C40.9467 137.24 41.5133 136.893 42.18 136.64C42.86 136.387 43.5867 136.26 44.36 136.26C45.04 136.26 45.6267 136.36 46.12 136.56C46.6267 136.747 47.04 137.007 47.36 137.34C47.68 137.673 47.92 138.067 48.08 138.52C48.24 138.973 48.32 139.46 48.32 139.98V144.12C48.32 144.44 48.3267 144.78 48.34 145.14C48.3667 145.487 48.4067 145.773 48.46 146H46.76C46.6533 145.547 46.6 145.093 46.6 144.64H46.54C46.1933 145.147 45.7533 145.54 45.22 145.82C44.7 146.1 44.08 146.24 43.36 146.24C42.9867 146.24 42.5933 146.187 42.18 146.08C41.78 145.987 41.4133 145.827 41.08 145.6C40.7467 145.373 40.4667 145.073 40.24 144.7C40.0267 144.327 39.92 143.867 39.92 143.32C39.92 142.6 40.1133 142.033 40.5 141.62C40.8867 141.193 41.3933 140.873 42.02 140.66C42.6467 140.433 43.3533 140.287 44.14 140.22C44.9267 140.153 45.72 140.12 46.52 140.12V139.86ZM46.06 141.48C45.5933 141.48 45.1067 141.5 44.6 141.54C44.1067 141.58 43.6533 141.66 43.24 141.78C42.84 141.9 42.5067 142.08 42.24 142.32C41.9733 142.56 41.84 142.88 41.84 143.28C41.84 143.56 41.8933 143.793 42 143.98C42.12 144.167 42.2733 144.32 42.46 144.44C42.6467 144.56 42.8533 144.647 43.08 144.7C43.3067 144.74 43.54 144.76 43.78 144.76C44.66 144.76 45.3333 144.5 45.8 143.98C46.28 143.447 46.52 142.78 46.52 141.98V141.48H46.06ZM53.1598 136.52C53.1865 136.76 53.2065 137.033 53.2198 137.34C53.2332 137.633 53.2398 137.88 53.2398 138.08H53.2998C53.4198 137.827 53.5798 137.593 53.7798 137.38C53.9932 137.153 54.2332 136.96 54.4998 136.8C54.7665 136.627 55.0598 136.493 55.3798 136.4C55.6998 136.307 56.0332 136.26 56.3798 136.26C56.9932 136.26 57.5198 136.367 57.9598 136.58C58.3998 136.78 58.7665 137.053 59.0598 137.4C59.3532 137.747 59.5665 138.153 59.6998 138.62C59.8465 139.087 59.9198 139.587 59.9198 140.12V146H58.0398V140.74C58.0398 140.353 58.0065 139.987 57.9398 139.64C57.8865 139.293 57.7798 138.987 57.6198 138.72C57.4598 138.453 57.2398 138.24 56.9598 138.08C56.6798 137.92 56.3198 137.84 55.8798 137.84C55.1332 137.84 54.5198 138.127 54.0398 138.7C53.5732 139.26 53.3398 140.013 53.3398 140.96V146H51.4598V138.56C51.4598 138.307 51.4532 137.98 51.4398 137.58C51.4265 137.18 51.4065 136.827 51.3798 136.52H53.1598ZM70.6605 144.5C70.3005 145.073 69.8071 145.513 69.1805 145.82C68.5671 146.113 67.9205 146.26 67.2405 146.26C66.5071 146.26 65.8471 146.133 65.2605 145.88C64.6738 145.613 64.1738 145.253 63.7605 144.8C63.3471 144.347 63.0271 143.813 62.8005 143.2C62.5738 142.587 62.4605 141.933 62.4605 141.24C62.4605 140.547 62.5738 139.9 62.8005 139.3C63.0271 138.687 63.3471 138.153 63.7605 137.7C64.1871 137.247 64.6938 136.893 65.2805 136.64C65.8671 136.387 66.5138 136.26 67.2205 136.26C67.9938 136.26 68.6671 136.427 69.2405 136.76C69.8138 137.08 70.2671 137.473 70.6005 137.94H70.6405V130.88H72.5205V146H70.7005V144.5H70.6605ZM64.4205 141.24C64.4205 141.68 64.4871 142.107 64.6205 142.52C64.7538 142.933 64.9538 143.3 65.2205 143.62C65.4871 143.94 65.8138 144.2 66.2005 144.4C66.5871 144.587 67.0405 144.68 67.5605 144.68C68.0405 144.68 68.4738 144.587 68.8605 144.4C69.2605 144.213 69.6005 143.967 69.8805 143.66C70.1605 143.34 70.3738 142.973 70.5205 142.56C70.6805 142.147 70.7605 141.713 70.7605 141.26C70.7605 140.807 70.6805 140.373 70.5205 139.96C70.3738 139.547 70.1605 139.18 69.8805 138.86C69.6005 138.54 69.2605 138.287 68.8605 138.1C68.4738 137.913 68.0405 137.82 67.5605 137.82C67.0405 137.82 66.5871 137.913 66.2005 138.1C65.8138 138.287 65.4871 138.54 65.2205 138.86C64.9538 139.18 64.7538 139.547 64.6205 139.96C64.4871 140.373 64.4205 140.8 64.4205 141.24ZM85.2558 138.06H83.0558V146H81.1758V138.06H79.2958V136.52H81.1758V134.54C81.1758 133.98 81.2358 133.467 81.3558 133C81.4891 132.52 81.6958 132.107 81.9758 131.76C82.2691 131.413 82.6358 131.14 83.0758 130.94C83.5291 130.74 84.0758 130.64 84.7158 130.64C85.1691 130.64 85.5624 130.687 85.8958 130.78L85.6758 132.4C85.5291 132.36 85.3824 132.327 85.2358 132.3C85.0891 132.273 84.9224 132.26 84.7358 132.26C84.3758 132.26 84.0824 132.327 83.8558 132.46C83.6424 132.58 83.4758 132.747 83.3558 132.96C83.2358 133.173 83.1558 133.42 83.1158 133.7C83.0758 133.967 83.0558 134.247 83.0558 134.54V136.52H85.2558V138.06ZM96.5872 141.24C96.5872 141.973 96.4539 142.647 96.1872 143.26C95.9339 143.873 95.5739 144.407 95.1072 144.86C94.6539 145.3 94.1139 145.647 93.4872 145.9C92.8605 146.14 92.1872 146.26 91.4672 146.26C90.7472 146.26 90.0739 146.14 89.4472 145.9C88.8205 145.647 88.2805 145.3 87.8272 144.86C87.3739 144.407 87.0139 143.873 86.7472 143.26C86.4939 142.647 86.3672 141.973 86.3672 141.24C86.3672 140.507 86.4939 139.84 86.7472 139.24C87.0139 138.627 87.3739 138.1 87.8272 137.66C88.2805 137.22 88.8205 136.88 89.4472 136.64C90.0739 136.387 90.7472 136.26 91.4672 136.26C92.1872 136.26 92.8605 136.387 93.4872 136.64C94.1139 136.88 94.6539 137.22 95.1072 137.66C95.5739 138.1 95.9339 138.627 96.1872 139.24C96.4539 139.84 96.5872 140.507 96.5872 141.24ZM94.6272 141.24C94.6272 140.787 94.5539 140.353 94.4072 139.94C94.2739 139.527 94.0739 139.167 93.8072 138.86C93.5405 138.54 93.2072 138.287 92.8072 138.1C92.4205 137.913 91.9739 137.82 91.4672 137.82C90.9605 137.82 90.5072 137.913 90.1072 138.1C89.7205 138.287 89.3939 138.54 89.1272 138.86C88.8605 139.167 88.6539 139.527 88.5072 139.94C88.3739 140.353 88.3072 140.787 88.3072 141.24C88.3072 141.693 88.3739 142.127 88.5072 142.54C88.6539 142.953 88.8605 143.32 89.1272 143.64C89.3939 143.96 89.7205 144.213 90.1072 144.4C90.5072 144.587 90.9605 144.68 91.4672 144.68C91.9739 144.68 92.4205 144.587 92.8072 144.4C93.2072 144.213 93.5405 143.96 93.8072 143.64C94.0739 143.32 94.2739 142.953 94.4072 142.54C94.5539 142.127 94.6272 141.693 94.6272 141.24ZM101.114 146H99.2342V130.88H101.114V146ZM106.31 146H104.43V130.88H106.31V146ZM119.185 141.24C119.185 141.973 119.052 142.647 118.785 143.26C118.532 143.873 118.172 144.407 117.705 144.86C117.252 145.3 116.712 145.647 116.085 145.9C115.458 146.14 114.785 146.26 114.065 146.26C113.345 146.26 112.672 146.14 112.045 145.9C111.418 145.647 110.878 145.3 110.425 144.86C109.972 144.407 109.612 143.873 109.345 143.26C109.092 142.647 108.965 141.973 108.965 141.24C108.965 140.507 109.092 139.84 109.345 139.24C109.612 138.627 109.972 138.1 110.425 137.66C110.878 137.22 111.418 136.88 112.045 136.64C112.672 136.387 113.345 136.26 114.065 136.26C114.785 136.26 115.458 136.387 116.085 136.64C116.712 136.88 117.252 137.22 117.705 137.66C118.172 138.1 118.532 138.627 118.785 139.24C119.052 139.84 119.185 140.507 119.185 141.24ZM117.225 141.24C117.225 140.787 117.152 140.353 117.005 139.94C116.872 139.527 116.672 139.167 116.405 138.86C116.138 138.54 115.805 138.287 115.405 138.1C115.018 137.913 114.572 137.82 114.065 137.82C113.558 137.82 113.105 137.913 112.705 138.1C112.318 138.287 111.992 138.54 111.725 138.86C111.458 139.167 111.252 139.527 111.105 139.94C110.972 140.353 110.905 140.787 110.905 141.24C110.905 141.693 110.972 142.127 111.105 142.54C111.252 142.953 111.458 143.32 111.725 143.64C111.992 143.96 112.318 144.213 112.705 144.4C113.105 144.587 113.558 144.68 114.065 144.68C114.572 144.68 115.018 144.587 115.405 144.4C115.805 144.213 116.138 143.96 116.405 143.64C116.672 143.32 116.872 142.953 117.005 142.54C117.152 142.127 117.225 141.693 117.225 141.24ZM122.492 136.52L124.632 143.76H124.672L126.932 136.52H128.912L131.212 143.76H131.252L133.392 136.52H135.372L132.232 146H130.272L127.932 138.88H127.892L125.572 146H123.612L120.452 136.52H122.492ZM139.161 146H137.281V136.52H139.161V146ZM139.481 133.1C139.481 133.447 139.354 133.733 139.101 133.96C138.861 134.187 138.567 134.3 138.221 134.3C137.874 134.3 137.581 134.187 137.341 133.96C137.101 133.72 136.981 133.433 136.981 133.1C136.981 132.753 137.101 132.467 137.341 132.24C137.581 132 137.874 131.88 138.221 131.88C138.567 131.88 138.861 132 139.101 132.24C139.354 132.467 139.481 132.753 139.481 133.1ZM144.136 136.52C144.163 136.76 144.183 137.033 144.196 137.34C144.21 137.633 144.216 137.88 144.216 138.08H144.276C144.396 137.827 144.556 137.593 144.756 137.38C144.97 137.153 145.21 136.96 145.476 136.8C145.743 136.627 146.036 136.493 146.356 136.4C146.676 136.307 147.01 136.26 147.356 136.26C147.97 136.26 148.496 136.367 148.936 136.58C149.376 136.78 149.743 137.053 150.036 137.4C150.33 137.747 150.543 138.153 150.676 138.62C150.823 139.087 150.896 139.587 150.896 140.12V146H149.016V140.74C149.016 140.353 148.983 139.987 148.916 139.64C148.863 139.293 148.756 138.987 148.596 138.72C148.436 138.453 148.216 138.24 147.936 138.08C147.656 137.92 147.296 137.84 146.856 137.84C146.11 137.84 145.496 138.127 145.016 138.7C144.55 139.26 144.316 140.013 144.316 140.96V146H142.436V138.56C142.436 138.307 142.43 137.98 142.416 137.58C142.403 137.18 142.383 136.827 142.356 136.52H144.136ZM154.817 147.62C155.23 148.087 155.744 148.46 156.357 148.74C156.984 149.02 157.624 149.16 158.277 149.16C158.904 149.16 159.43 149.067 159.857 148.88C160.284 148.707 160.624 148.46 160.877 148.14C161.144 147.833 161.33 147.467 161.437 147.04C161.557 146.613 161.617 146.153 161.617 145.66V144.44H161.577C161.23 144.973 160.757 145.38 160.157 145.66C159.557 145.94 158.917 146.08 158.237 146.08C157.517 146.08 156.857 145.953 156.257 145.7C155.67 145.447 155.17 145.1 154.757 144.66C154.344 144.22 154.024 143.707 153.797 143.12C153.57 142.52 153.457 141.88 153.457 141.2C153.457 140.52 153.57 139.88 153.797 139.28C154.024 138.68 154.344 138.16 154.757 137.72C155.17 137.267 155.67 136.913 156.257 136.66C156.844 136.393 157.497 136.26 158.217 136.26C158.897 136.26 159.544 136.407 160.157 136.7C160.784 136.993 161.277 137.44 161.637 138.04H161.677V136.52H163.497V145.52C163.497 146.213 163.41 146.873 163.237 147.5C163.064 148.14 162.77 148.7 162.357 149.18C161.944 149.673 161.404 150.067 160.737 150.36C160.07 150.653 159.244 150.8 158.257 150.8C157.43 150.8 156.597 150.647 155.757 150.34C154.93 150.047 154.217 149.627 153.617 149.08L154.817 147.62ZM155.397 141.16C155.397 141.6 155.464 142.02 155.597 142.42C155.744 142.82 155.95 143.173 156.217 143.48C156.497 143.787 156.83 144.033 157.217 144.22C157.604 144.407 158.044 144.5 158.537 144.5C159.017 144.5 159.457 144.413 159.857 144.24C160.257 144.067 160.597 143.833 160.877 143.54C161.157 143.233 161.37 142.88 161.517 142.48C161.677 142.067 161.757 141.627 161.757 141.16C161.757 140.707 161.677 140.28 161.517 139.88C161.37 139.48 161.15 139.127 160.857 138.82C160.577 138.513 160.237 138.273 159.837 138.1C159.45 137.913 159.017 137.82 158.537 137.82C158.044 137.82 157.604 137.913 157.217 138.1C156.83 138.273 156.497 138.513 156.217 138.82C155.95 139.113 155.744 139.467 155.597 139.88C155.464 140.28 155.397 140.707 155.397 141.16ZM176.354 138.06H173.834V143C173.834 143.573 173.94 143.987 174.154 144.24C174.367 144.48 174.707 144.6 175.174 144.6C175.347 144.6 175.534 144.58 175.734 144.54C175.934 144.5 176.114 144.44 176.274 144.36L176.334 145.9C176.107 145.98 175.854 146.04 175.574 146.08C175.307 146.133 175.027 146.16 174.734 146.16C173.84 146.16 173.154 145.913 172.674 145.42C172.207 144.927 171.974 144.187 171.974 143.2V138.06H170.154V136.52H171.974V133.8H173.834V136.52H176.354V138.06ZM178.296 138.56C178.296 138.307 178.289 137.98 178.276 137.58C178.262 137.18 178.242 136.827 178.216 136.52H179.996C180.022 136.76 180.042 137.04 180.056 137.36C180.069 137.667 180.076 137.92 180.076 138.12H180.136C180.402 137.56 180.789 137.113 181.296 136.78C181.816 136.433 182.396 136.26 183.036 136.26C183.329 136.26 183.576 136.287 183.776 136.34L183.696 138.08C183.429 138.013 183.142 137.98 182.836 137.98C182.382 137.98 181.989 138.067 181.656 138.24C181.322 138.4 181.042 138.62 180.816 138.9C180.602 139.18 180.442 139.507 180.336 139.88C180.229 140.24 180.176 140.62 180.176 141.02V146H178.296V138.56ZM192.13 140.42C192.117 140.047 192.05 139.7 191.93 139.38C191.824 139.047 191.657 138.76 191.43 138.52C191.217 138.28 190.944 138.093 190.61 137.96C190.29 137.813 189.91 137.74 189.47 137.74C189.07 137.74 188.69 137.813 188.33 137.96C187.984 138.093 187.677 138.28 187.41 138.52C187.157 138.76 186.944 139.047 186.77 139.38C186.61 139.7 186.517 140.047 186.49 140.42H192.13ZM194.03 141.18C194.03 141.287 194.03 141.393 194.03 141.5C194.03 141.607 194.024 141.713 194.01 141.82H186.49C186.504 142.22 186.59 142.6 186.75 142.96C186.924 143.307 187.15 143.613 187.43 143.88C187.71 144.133 188.03 144.333 188.39 144.48C188.764 144.627 189.157 144.7 189.57 144.7C190.21 144.7 190.764 144.56 191.23 144.28C191.697 144 192.064 143.66 192.33 143.26L193.65 144.32C193.144 144.987 192.544 145.48 191.85 145.8C191.17 146.107 190.41 146.26 189.57 146.26C188.85 146.26 188.184 146.14 187.57 145.9C186.957 145.66 186.43 145.327 185.99 144.9C185.55 144.46 185.204 143.933 184.95 143.32C184.697 142.707 184.57 142.027 184.57 141.28C184.57 140.547 184.69 139.873 184.93 139.26C185.184 138.633 185.53 138.1 185.97 137.66C186.41 137.22 186.93 136.88 187.53 136.64C188.13 136.387 188.777 136.26 189.47 136.26C190.164 136.26 190.79 136.373 191.35 136.6C191.924 136.827 192.404 137.153 192.79 137.58C193.19 138.007 193.497 138.527 193.71 139.14C193.924 139.74 194.03 140.42 194.03 141.18ZM198.355 136.52C198.382 136.76 198.402 137.033 198.415 137.34C198.428 137.633 198.435 137.88 198.435 138.08H198.495C198.615 137.827 198.775 137.593 198.975 137.38C199.188 137.153 199.428 136.96 199.695 136.8C199.962 136.627 200.255 136.493 200.575 136.4C200.895 136.307 201.228 136.26 201.575 136.26C202.188 136.26 202.715 136.367 203.155 136.58C203.595 136.78 203.962 137.053 204.255 137.4C204.548 137.747 204.762 138.153 204.895 138.62C205.042 139.087 205.115 139.587 205.115 140.12V146H203.235V140.74C203.235 140.353 203.202 139.987 203.135 139.64C203.082 139.293 202.975 138.987 202.815 138.72C202.655 138.453 202.435 138.24 202.155 138.08C201.875 137.92 201.515 137.84 201.075 137.84C200.328 137.84 199.715 138.127 199.235 138.7C198.768 139.26 198.535 140.013 198.535 140.96V146H196.655V138.56C196.655 138.307 196.648 137.98 196.635 137.58C196.622 137.18 196.602 136.827 196.575 136.52H198.355ZM215.856 144.5C215.496 145.073 215.002 145.513 214.376 145.82C213.762 146.113 213.116 146.26 212.436 146.26C211.702 146.26 211.042 146.133 210.456 145.88C209.869 145.613 209.369 145.253 208.956 144.8C208.542 144.347 208.222 143.813 207.996 143.2C207.769 142.587 207.656 141.933 207.656 141.24C207.656 140.547 207.769 139.9 207.996 139.3C208.222 138.687 208.542 138.153 208.956 137.7C209.382 137.247 209.889 136.893 210.476 136.64C211.062 136.387 211.709 136.26 212.416 136.26C213.189 136.26 213.862 136.427 214.436 136.76C215.009 137.08 215.462 137.473 215.796 137.94H215.836V130.88H217.716V146H215.896V144.5H215.856ZM209.616 141.24C209.616 141.68 209.682 142.107 209.816 142.52C209.949 142.933 210.149 143.3 210.416 143.62C210.682 143.94 211.009 144.2 211.396 144.4C211.782 144.587 212.236 144.68 212.756 144.68C213.236 144.68 213.669 144.587 214.056 144.4C214.456 144.213 214.796 143.967 215.076 143.66C215.356 143.34 215.569 142.973 215.716 142.56C215.876 142.147 215.956 141.713 215.956 141.26C215.956 140.807 215.876 140.373 215.716 139.96C215.569 139.547 215.356 139.18 215.076 138.86C214.796 138.54 214.456 138.287 214.056 138.1C213.669 137.913 213.236 137.82 212.756 137.82C212.236 137.82 211.782 137.913 211.396 138.1C211.009 138.287 210.682 138.54 210.416 138.86C210.149 139.18 209.949 139.547 209.816 139.96C209.682 140.373 209.616 140.8 209.616 141.24ZM226.111 138.92C225.898 138.573 225.598 138.293 225.211 138.08C224.824 137.853 224.391 137.74 223.911 137.74C223.698 137.74 223.484 137.767 223.271 137.82C223.058 137.86 222.864 137.933 222.691 138.04C222.531 138.133 222.398 138.26 222.291 138.42C222.198 138.567 222.151 138.753 222.151 138.98C222.151 139.38 222.331 139.68 222.691 139.88C223.051 140.067 223.591 140.24 224.311 140.4C224.764 140.507 225.184 140.633 225.571 140.78C225.958 140.927 226.291 141.113 226.571 141.34C226.864 141.553 227.091 141.813 227.251 142.12C227.411 142.427 227.491 142.787 227.491 143.2C227.491 143.76 227.384 144.233 227.171 144.62C226.958 145.007 226.671 145.327 226.311 145.58C225.964 145.82 225.564 145.993 225.111 146.1C224.658 146.207 224.191 146.26 223.711 146.26C222.991 146.26 222.284 146.12 221.591 145.84C220.911 145.56 220.344 145.133 219.891 144.56L221.231 143.42C221.484 143.793 221.831 144.107 222.271 144.36C222.724 144.613 223.218 144.74 223.751 144.74C223.991 144.74 224.218 144.72 224.431 144.68C224.658 144.627 224.858 144.547 225.031 144.44C225.218 144.333 225.364 144.193 225.471 144.02C225.578 143.847 225.631 143.627 225.631 143.36C225.631 142.92 225.418 142.593 224.991 142.38C224.578 142.167 223.964 141.967 223.151 141.78C222.831 141.7 222.504 141.607 222.171 141.5C221.851 141.38 221.558 141.22 221.291 141.02C221.024 140.82 220.804 140.573 220.631 140.28C220.471 139.973 220.391 139.6 220.391 139.16C220.391 138.653 220.491 138.22 220.691 137.86C220.904 137.487 221.178 137.187 221.511 136.96C221.844 136.72 222.224 136.547 222.651 136.44C223.078 136.32 223.518 136.26 223.971 136.26C224.651 136.26 225.304 136.393 225.931 136.66C226.571 136.927 227.064 137.313 227.411 137.82L226.111 138.92ZM232.198 144.8C232.198 145.147 232.071 145.453 231.818 145.72C231.564 145.987 231.244 146.12 230.858 146.12C230.484 146.12 230.164 145.993 229.898 145.74C229.644 145.473 229.518 145.167 229.518 144.82C229.518 144.46 229.644 144.153 229.898 143.9C230.151 143.633 230.471 143.5 230.858 143.5C231.244 143.5 231.564 143.627 231.818 143.88C232.071 144.133 232.198 144.44 232.198 144.8Z" fill="black"/>
</svg>
