<svg width="1440" height="1100" viewBox="0 0 1440 1100" fill="none" xmlns="http://www.w3.org/2000/svg">
<rect width="1440" height="1100" fill="white"/>
<path d="M1221.13 712.328C1303.38 708.782 1338.07 591.818 1348 523.356C1364.02 412.94 1284.35 317.592 1202.59 315.39C1096.4 312.53 1127.41 365.448 1058.31 297.583C989.208 229.717 937.764 268.684 887.214 327.946C842.189 380.73 826.544 442.827 837.496 521.274C849.852 609.774 909.826 664.782 958.225 686.76C1006.62 708.739 1039.75 627.553 1098.31 639.714C1156.88 651.875 1138.89 715.875 1221.13 712.328Z" fill="#F18A88"/>
<path opacity="0.16" d="M1339.97 633.067C1418.34 599.678 1427.55 474.558 1422.97 405.102C1415.58 293.081 1319.29 230.428 1240.21 258.112C1137.5 294.067 1178.24 333.653 1097.78 293.577C1017.32 253.501 975.897 309.725 939.518 385.138C907.116 452.309 904.889 517.727 931.613 589.174C961.763 669.776 1030.79 700.814 1081.87 704.308C1132.95 707.803 1148.05 617.657 1206.88 608.005C1265.71 598.353 1261.61 666.457 1339.97 633.067Z" fill="#F18A88"/>
</svg>
