<svg width="95" height="85" viewBox="0 0 95 85" fill="none" xmlns="http://www.w3.org/2000/svg">
<rect width="95" height="85" fill="white"/>
<path d="M40.0385 40.7019C40.0385 43.8337 39.7254 46.8193 39.099 49.6588C38.4726 52.4983 37.4705 55.0037 36.0925 57.1751C34.7145 59.3047 32.9189 61.0168 30.7058 62.3112C28.5344 63.564 25.8828 64.1903 22.751 64.1903C19.6193 64.1903 16.9468 63.564 14.7337 62.3112C12.5205 61.0168 10.7041 59.3047 9.28434 57.1751C7.90635 55.0037 6.90418 52.4983 6.27782 49.6588C5.65146 46.8193 5.33828 43.8337 5.33828 40.7019C5.33828 37.5701 5.65146 34.6053 6.27782 31.8076C6.90418 28.9681 7.90635 26.5044 9.28434 24.4166C10.7041 22.2869 12.5205 20.5958 14.7337 19.3431C16.9468 18.0903 19.6193 17.464 22.751 17.464C25.8828 17.464 28.5344 18.0903 30.7058 19.3431C32.9189 20.5958 34.7145 22.2869 36.0925 24.4166C37.4705 26.5044 38.4726 28.9681 39.099 31.8076C39.7254 34.6053 40.0385 37.5701 40.0385 40.7019ZM29.2652 40.7019C29.2652 39.3239 29.1817 37.7998 29.0146 36.1295C28.8476 34.4592 28.5344 32.9142 28.0751 31.4944C27.6158 30.0329 26.9476 28.822 26.0707 27.8615C25.2356 26.8594 24.129 26.3583 22.751 26.3583C21.3731 26.3583 20.2456 26.8594 19.3687 27.8615C18.4918 28.822 17.8028 30.0329 17.3017 31.4944C16.8424 32.9142 16.5292 34.4592 16.3622 36.1295C16.1952 37.7998 16.1116 39.3239 16.1116 40.7019C16.1116 42.1216 16.1952 43.6875 16.3622 45.3996C16.5292 47.0699 16.8424 48.6358 17.3017 50.0973C17.8028 51.517 18.4918 52.728 19.3687 53.7301C20.2456 54.6906 21.3731 55.1708 22.751 55.1708C24.129 55.1708 25.2356 54.6906 26.0707 53.7301C26.9476 52.728 27.6158 51.517 28.0751 50.0973C28.5344 48.6358 28.8476 47.0699 29.0146 45.3996C29.1817 43.6875 29.2652 42.1216 29.2652 40.7019ZM79.4668 50.0973C79.4668 52.5192 78.9657 54.6279 77.9636 56.4235C77.0031 58.1773 75.7295 59.6388 74.1428 60.808C72.556 61.9354 70.7604 62.7706 68.7561 63.3134C66.7935 63.898 64.7892 64.1903 62.743 64.1903C60.7387 64.1903 58.7761 63.9607 56.8553 63.5013C54.9762 63.042 53.2433 62.353 51.6565 61.4343C50.1115 60.4739 48.7544 59.263 47.5852 57.8015C46.416 56.2982 45.5391 54.5026 44.9545 52.4148L54.7257 49.8467C55.1432 51.3082 55.9993 52.6027 57.2937 53.7301C58.5882 54.8158 60.2376 55.3587 62.242 55.3587C62.9936 55.3587 63.7452 55.2543 64.4969 55.0455C65.2902 54.8367 65.9792 54.5235 66.5638 54.106C67.1902 53.6466 67.6913 53.062 68.0671 52.3522C68.4847 51.6423 68.6935 50.7654 68.6935 49.7214C68.6935 48.594 68.422 47.6545 67.8792 46.9028C67.3781 46.1512 66.6891 45.5666 65.8122 45.149C64.9771 44.6897 64.0166 44.3765 62.931 44.2095C61.8453 44.0007 60.7596 43.8963 59.6739 43.8963H56.8553V36.1921H59.9244C60.9266 36.1921 61.887 36.1295 62.8057 36.0042C63.7243 35.8372 64.5386 35.5657 65.2485 35.1899C66.0001 34.7724 66.5847 34.2295 67.0023 33.5614C67.4616 32.8933 67.6913 32.0164 67.6913 30.9307C67.6913 29.3439 67.1276 28.133 66.0001 27.2978C64.8727 26.4627 63.5782 26.0451 62.1167 26.0451C60.6134 26.0451 59.2981 26.5044 58.1706 27.4231C57.0849 28.3 56.3751 29.4901 56.041 30.9933L46.2698 28.7384C46.8127 26.8594 47.6269 25.2308 48.7126 23.8528C49.7983 22.4331 51.0719 21.2639 52.5334 20.3452C54.0367 19.3848 55.6652 18.6749 57.419 18.2156C59.1728 17.7145 60.9684 17.464 62.8057 17.464C64.7683 17.464 66.6682 17.7145 68.5055 18.2156C70.3846 18.7167 72.0549 19.4892 73.5164 20.5331C74.9779 21.5771 76.1471 22.8924 77.024 24.4792C77.9427 26.0242 78.402 27.8615 78.402 29.9912C78.402 32.4548 77.6921 34.5427 76.2724 36.2547C74.8944 37.925 73.1197 39.0525 70.9483 39.6371V39.825C72.2011 40.1173 73.3494 40.5975 74.3933 41.2656C75.4372 41.892 76.335 42.6645 77.0867 43.5831C77.8383 44.46 78.4229 45.4622 78.8405 46.5897C79.258 47.6753 79.4668 48.8445 79.4668 50.0973Z" fill="#2149D8"/>
<path d="M37.5815 40.7016C37.5815 43.8334 37.2683 46.8191 36.642 49.6586C36.0156 52.4981 35.0134 55.0035 33.6354 57.1749C32.2575 59.3045 30.4619 61.0165 28.2488 62.311C26.0774 63.5637 23.4258 64.1901 20.294 64.1901C17.1622 64.1901 14.4898 63.5637 12.2766 62.311C10.0635 61.0165 8.24705 59.3045 6.82731 57.1749C5.44932 55.0035 4.44714 52.4981 3.82079 49.6586C3.19443 46.8191 2.88125 43.8334 2.88125 40.7016C2.88125 37.5698 3.19443 34.6051 3.82079 31.8074C4.44714 28.9679 5.44932 26.5042 6.82731 24.4163C8.24705 22.2867 10.0635 20.5955 12.2766 19.3428C14.4898 18.0901 17.1622 17.4637 20.294 17.4637C23.4258 17.4637 26.0774 18.0901 28.2488 19.3428C30.4619 20.5955 32.2575 22.2867 33.6354 24.4163C35.0134 26.5042 36.0156 28.9679 36.642 31.8074C37.2683 34.6051 37.5815 37.5698 37.5815 40.7016ZM26.8081 40.7016C26.8081 39.3237 26.7246 37.7995 26.5576 36.1292C26.3906 34.4589 26.0774 32.9139 25.6181 31.4942C25.1587 30.0327 24.4906 28.8217 23.6137 27.8613C22.7786 26.8591 21.672 26.358 20.294 26.358C18.916 26.358 17.7886 26.8591 16.9117 27.8613C16.0348 28.8217 15.3458 30.0327 14.8447 31.4942C14.3854 32.9139 14.0722 34.4589 13.9052 36.1292C13.7381 37.7995 13.6546 39.3237 13.6546 40.7016C13.6546 42.1214 13.7381 43.6873 13.9052 45.3993C14.0722 47.0696 14.3854 48.6355 14.8447 50.097C15.3458 51.5168 16.0348 52.7277 16.9117 53.7299C17.7886 54.6903 18.916 55.1705 20.294 55.1705C21.672 55.1705 22.7786 54.6903 23.6137 53.7299C24.4906 52.7277 25.1587 51.5168 25.6181 50.097C26.0774 48.6355 26.3906 47.0696 26.5576 45.3993C26.7246 43.6873 26.8081 42.1214 26.8081 40.7016ZM77.0098 50.097C77.0098 52.5189 76.5087 54.6277 75.5065 56.4232C74.5461 58.177 73.2725 59.6385 71.6857 60.8077C70.099 61.9352 68.3034 62.7703 66.2991 63.3132C64.3365 63.8978 62.3321 64.1901 60.286 64.1901C58.2817 64.1901 56.3191 63.9604 54.3982 63.5011C52.5192 63.0418 50.7862 62.3528 49.1995 61.4341C47.6545 60.4737 46.2973 59.2627 45.1281 57.8012C43.9589 56.298 43.082 54.5024 42.4974 52.4145L52.2686 49.8465C52.6862 51.308 53.5422 52.6025 54.8367 53.7299C56.1312 54.8156 57.7806 55.3584 59.7849 55.3584C60.5366 55.3584 61.2882 55.254 62.0398 55.0452C62.8332 54.8365 63.5222 54.5233 64.1068 54.1057C64.7332 53.6464 65.2342 53.0618 65.6101 52.3519C66.0276 51.642 66.2364 50.7651 66.2364 49.7212C66.2364 48.5938 65.965 47.6542 65.4222 46.9026C64.9211 46.151 64.2321 45.5664 63.3552 45.1488C62.52 44.6895 61.5596 44.3763 60.4739 44.2092C59.3882 44.0005 58.3025 43.8961 57.2169 43.8961H54.3982V36.1919H57.4674C58.4696 36.1919 59.43 36.1292 60.3487 36.004C61.2673 35.8369 62.0816 35.5655 62.7915 35.1897C63.5431 34.7721 64.1277 34.2293 64.5453 33.5612C65.0046 32.893 65.2342 32.0161 65.2342 30.9304C65.2342 29.3437 64.6705 28.1327 63.5431 27.2976C62.4156 26.4624 61.1212 26.0449 59.6597 26.0449C58.1564 26.0449 56.841 26.5042 55.7136 27.4228C54.6279 28.2997 53.918 29.4898 53.584 30.9931L43.8128 28.7382C44.3556 26.8591 45.1699 25.2306 46.2556 23.8526C47.3413 22.4329 48.6149 21.2637 50.0764 20.345C51.5796 19.3846 53.2082 18.6747 54.962 18.2154C56.7158 17.7143 58.5113 17.4637 60.3487 17.4637C62.3112 17.4637 64.2112 17.7143 66.0485 18.2154C67.9276 18.7165 69.5979 19.489 71.0594 20.5329C72.5209 21.5768 73.6901 22.8922 74.567 24.479C75.4856 26.024 75.945 27.8613 75.945 29.9909C75.945 32.4546 75.2351 34.5424 73.8154 36.2545C72.4374 37.9248 70.6627 39.0522 68.4913 39.6368V39.8247C69.744 40.117 70.8924 40.5972 71.9363 41.2654C72.9802 41.8917 73.878 42.6642 74.6296 43.5829C75.3813 44.4598 75.9659 45.462 76.3834 46.5894C76.801 47.6751 77.0098 48.8443 77.0098 50.097Z" fill="white"/>
<path d="M33.6354 57.1749L34.5791 57.7855L34.5844 57.7771L33.6354 57.1749ZM28.2488 62.311L28.8104 63.2845L28.8162 63.2811L28.2488 62.311ZM12.2766 62.311L11.7092 63.2811L11.7161 63.2852L11.723 63.2891L12.2766 62.311ZM6.82731 57.1749L5.87836 57.7771L5.88515 57.7878L5.89216 57.7983L6.82731 57.1749ZM3.82079 31.8074L4.91754 32.0529L4.9183 32.0495L3.82079 31.8074ZM6.82731 24.4163L5.89215 23.7929L5.88929 23.7972L6.82731 24.4163ZM12.2766 19.3428L12.8303 20.3209L12.8303 20.3209L12.2766 19.3428ZM28.2488 19.3428L27.6871 20.3164L27.6951 20.3209L28.2488 19.3428ZM33.6354 24.4163L32.6918 25.0269L32.6974 25.0354L33.6354 24.4163ZM36.642 31.8074L35.5444 32.0495L35.5452 32.0529L36.642 31.8074ZM25.6181 31.4942L24.5458 31.8312L24.5487 31.8401L25.6181 31.4942ZM23.6137 27.8613L22.7503 28.5808L22.7666 28.6003L22.7837 28.6191L23.6137 27.8613ZM16.9117 27.8613L17.7417 28.6191L17.7497 28.6103L17.7575 28.6014L16.9117 27.8613ZM14.8447 31.4942L13.7815 31.1297L13.7784 31.1389L13.7754 31.1482L14.8447 31.4942ZM13.9052 36.1292L15.0235 36.2411L15.0235 36.2411L13.9052 36.1292ZM13.9052 45.3993L12.7866 45.5085L12.7868 45.5112L13.9052 45.3993ZM14.8447 50.097L13.7725 50.434L13.7784 50.4526L13.7849 50.4711L14.8447 50.097ZM16.9117 53.7299L16.0659 54.47L16.0737 54.4789L16.0817 54.4877L16.9117 53.7299ZM23.6137 53.7299L22.7679 52.9898L22.7656 52.9924L23.6137 53.7299ZM25.6181 50.097L26.6874 50.443L26.6903 50.434L25.6181 50.097ZM26.5576 45.3993L27.6759 45.5112L27.6762 45.5085L26.5576 45.3993ZM36.4576 40.7016C36.4576 43.7582 36.152 46.6623 35.5445 49.4165L37.7395 49.9007C38.3847 46.9758 38.7054 43.9086 38.7054 40.7016H36.4576ZM35.5445 49.4165C34.9426 52.1447 33.9859 54.5252 32.6865 56.5727L34.5844 57.7771C36.041 55.4818 37.0886 52.8514 37.7395 49.9007L35.5445 49.4165ZM32.6919 56.5643C31.4105 58.5446 29.7444 60.1342 27.6813 61.3409L28.8162 63.2811C31.1794 61.8989 33.1045 60.0643 34.579 57.7854L32.6919 56.5643ZM27.6871 61.3375C25.7242 62.47 23.2772 63.0662 20.294 63.0662V65.314C23.5744 65.314 26.4306 64.6575 28.8104 63.2845L27.6871 61.3375ZM20.294 63.0662C17.3117 63.0662 14.8396 62.4703 12.8303 61.3329L11.723 63.2891C14.1399 64.6572 17.0127 65.314 20.294 65.314V63.0662ZM12.8441 61.3409C10.778 60.1324 9.08737 58.5388 7.76245 56.5514L5.89216 57.7983C7.40674 60.0702 9.34902 61.9007 11.7092 63.2811L12.8441 61.3409ZM7.77625 56.5727C6.4769 54.5252 5.52012 52.1447 4.9183 49.4165L2.72327 49.9007C3.37417 52.8514 4.42174 55.4818 5.87836 57.7771L7.77625 56.5727ZM4.9183 49.4165C4.31077 46.6623 4.00515 43.7582 4.00515 40.7016H1.75735C1.75735 43.9086 2.07809 46.9758 2.72327 49.9007L4.9183 49.4165ZM4.00515 40.7016C4.00515 37.6449 4.3108 34.763 4.91754 32.0529L2.72404 31.5618C2.07806 34.4472 1.75735 37.4948 1.75735 40.7016H4.00515ZM4.9183 32.0495C5.51976 29.3229 6.47437 26.9914 7.76532 25.0354L5.88929 23.7972C4.42427 26.017 3.37453 28.6129 2.72327 31.5653L4.9183 32.0495ZM7.76245 25.0397C9.08521 23.0556 10.7713 21.4863 12.8303 20.3209L11.723 18.3647C9.35565 19.7047 7.4089 21.5178 5.89216 23.7929L7.76245 25.0397ZM12.8303 20.3209C14.8396 19.1835 17.3117 18.5876 20.294 18.5876V16.3398C17.0127 16.3398 14.1399 16.9967 11.723 18.3647L12.8303 20.3209ZM20.294 18.5876C23.2772 18.5876 25.7242 19.1839 27.6871 20.3163L28.8104 18.3693C26.4306 16.9963 23.5744 16.3398 20.294 16.3398V18.5876ZM27.6951 20.3209C29.751 21.4846 31.4126 23.0498 32.6919 25.0269L34.579 23.8058C33.1023 21.5236 31.1728 19.7065 28.8024 18.3647L27.6951 20.3209ZM32.6974 25.0354C33.9884 26.9914 34.943 29.3229 35.5445 32.0495L37.7395 31.5653C37.0882 28.6129 36.0385 26.017 34.5735 23.7972L32.6974 25.0354ZM35.5452 32.0529C36.152 34.763 36.4576 37.6449 36.4576 40.7016H38.7054C38.7054 37.4948 38.3847 34.4472 37.7387 31.5618L35.5452 32.0529ZM27.932 40.7016C27.932 39.2793 27.8459 37.7172 27.6759 36.0174L25.4393 36.2411C25.6034 37.8819 25.6842 39.368 25.6842 40.7016H27.932ZM27.6759 36.0174C27.5019 34.2773 27.1742 32.6528 26.6874 31.1482L24.5487 31.8401C24.9806 33.175 25.2792 34.6406 25.4393 36.2411L27.6759 36.0174ZM26.6903 31.1572C26.1905 29.567 25.449 28.2045 24.4437 27.1035L22.7837 28.6191C23.5323 29.4389 24.127 30.4983 24.5459 31.8311L26.6903 31.1572ZM24.4771 27.1418C23.415 25.8673 21.984 25.2341 20.294 25.2341V27.4819C21.36 27.4819 22.1421 27.8509 22.7503 28.5808L24.4771 27.1418ZM20.294 25.2341C18.6048 25.2341 17.1645 25.8656 16.0659 27.1212L17.7575 28.6014C18.4126 27.8526 19.2272 27.4819 20.294 27.4819V25.2341ZM16.0817 27.1035C15.0833 28.1969 14.3233 29.5494 13.7815 31.1297L15.9078 31.8587C16.3682 30.5159 16.9862 29.4465 17.7417 28.6191L16.0817 27.1035ZM13.7754 31.1482C13.2886 32.6528 12.9608 34.2773 12.7868 36.0174L15.0235 36.2411C15.1835 34.6406 15.4821 33.175 15.914 31.8401L13.7754 31.1482ZM12.7868 36.0174C12.6169 37.7172 12.5307 39.2793 12.5307 40.7016H14.7785C14.7785 39.368 14.8594 37.8819 15.0235 36.2411L12.7868 36.0174ZM12.5307 40.7016C12.5307 42.1645 12.6167 43.7674 12.7866 45.5085L15.0237 45.2902C14.8595 43.6071 14.7785 42.0783 14.7785 40.7016H12.5307ZM12.7868 45.5112C12.9608 47.2507 13.2881 48.8926 13.7725 50.434L15.9169 49.76C15.4827 48.3784 15.1836 46.8886 15.0235 45.2875L12.7868 45.5112ZM13.7849 50.4711C14.3273 52.0078 15.0836 53.3474 16.0659 54.47L17.7575 52.9898C16.986 52.1081 16.3643 51.0257 15.9045 49.723L13.7849 50.4711ZM16.0817 54.4877C17.1854 55.6965 18.6214 56.2944 20.294 56.2944V54.0466C19.2106 54.0466 18.3917 53.6841 17.7417 52.9721L16.0817 54.4877ZM20.294 56.2944C21.9669 56.2944 23.3941 55.6953 24.4618 54.4674L22.7656 52.9924C22.1631 53.6853 21.3771 54.0466 20.294 54.0466V56.2944ZM24.4595 54.47C25.4484 53.3399 26.1868 51.9904 26.6874 50.443L24.5487 49.7511C24.1307 51.0431 23.5329 52.1156 22.7679 52.9898L24.4595 54.47ZM26.6903 50.434C27.1747 48.8926 27.502 47.2507 27.6759 45.5112L25.4393 45.2875C25.2792 46.8886 24.9801 48.3784 24.5459 49.76L26.6903 50.434ZM27.6762 45.5085C27.846 43.7674 27.932 42.1645 27.932 40.7016H25.6842C25.6842 42.0783 25.6032 43.6071 25.439 45.2902L27.6762 45.5085ZM75.5065 56.4232L74.5251 55.8755L74.5208 55.8834L75.5065 56.4232ZM71.6857 60.8077L72.3367 61.7239L72.3446 61.7183L72.3524 61.7125L71.6857 60.8077ZM66.2991 63.3132L66.0053 62.2284L65.9917 62.232L65.9782 62.236L66.2991 63.3132ZM54.3982 63.5011L54.1314 64.5929L54.1369 64.5942L54.3982 63.5011ZM49.1995 61.4341L48.6061 62.3886L48.6211 62.3979L48.6364 62.4068L49.1995 61.4341ZM45.1281 57.8012L44.241 58.4912L44.2457 58.4973L44.2505 58.5033L45.1281 57.8012ZM42.4974 52.4145L42.2118 51.3276L41.1072 51.6178L41.4152 52.7176L42.4974 52.4145ZM52.2686 49.8465L53.3493 49.5377L53.047 48.4798L51.9829 48.7595L52.2686 49.8465ZM54.8367 53.7299L54.0985 54.5774L54.1064 54.5843L54.1145 54.591L54.8367 53.7299ZM62.0398 55.0452L61.7538 53.9584L61.7464 53.9603L61.739 53.9624L62.0398 55.0452ZM64.1068 54.1057L64.7601 55.0203L64.7714 55.012L64.1068 54.1057ZM65.6101 52.3519L64.6413 51.7821L64.6286 51.8038L64.6168 51.826L65.6101 52.3519ZM65.4222 46.9026L64.487 47.526L64.4987 47.5435L64.511 47.5606L65.4222 46.9026ZM63.3552 45.1488L62.8135 46.1336L62.8423 46.1494L62.872 46.1635L63.3552 45.1488ZM60.4739 44.2092L60.2617 45.3129L60.2823 45.3169L60.303 45.3201L60.4739 44.2092ZM54.3982 43.8961H53.2743V45.02H54.3982V43.8961ZM54.3982 36.1919V35.068H53.2743V36.1919H54.3982ZM60.3487 36.004L60.5005 37.1175L60.5252 37.1142L60.5497 37.1097L60.3487 36.004ZM62.7915 35.1897L63.3173 36.183L63.3273 36.1777L63.3373 36.1722L62.7915 35.1897ZM64.5453 33.5612L63.6191 32.9244L63.6052 32.9447L63.5922 32.9655L64.5453 33.5612ZM63.5431 27.2976L64.2121 26.3945L64.2121 26.3945L63.5431 27.2976ZM55.7136 27.4228L56.4198 28.2972L56.4235 28.2941L55.7136 27.4228ZM53.584 30.9931L53.3313 32.0882L54.4353 32.343L54.6811 31.2369L53.584 30.9931ZM43.8128 28.7382L42.733 28.4263L42.4037 29.5664L43.5601 29.8333L43.8128 28.7382ZM46.2556 23.8526L47.1384 24.5482L47.1434 24.5418L47.1484 24.5353L46.2556 23.8526ZM50.0764 20.345L50.6745 21.2966L50.6815 21.2921L50.0764 20.345ZM54.962 18.2154L55.2467 19.3026L55.2588 19.2995L55.2707 19.296L54.962 18.2154ZM66.0485 18.2154L65.7528 19.2997L65.7589 19.3013L66.0485 18.2154ZM71.0594 20.5329L71.7126 19.6183L71.7126 19.6183L71.0594 20.5329ZM74.567 24.479L73.5833 25.0226L73.5919 25.0381L73.601 25.0534L74.567 24.479ZM73.8154 36.2545L72.9502 35.5371L72.9484 35.5393L73.8154 36.2545ZM68.4913 39.6368L68.1991 38.5516L67.3674 38.7755V39.6368H68.4913ZM68.4913 39.8247H67.3674V40.7166L68.2359 40.9192L68.4913 39.8247ZM71.9363 41.2654L71.3304 42.212L71.3441 42.2207L71.358 42.2291L71.9363 41.2654ZM74.6296 43.5829L73.7598 44.2946L73.7679 44.3045L73.7763 44.3143L74.6296 43.5829ZM76.3834 46.5894L75.3294 46.9798L75.3344 46.9929L76.3834 46.5894ZM75.8859 50.097C75.8859 52.3614 75.4185 54.2749 74.5251 55.8755L76.4879 56.971C77.5989 54.9804 78.1337 52.6765 78.1337 50.097H75.8859ZM74.5208 55.8834C73.6377 57.4959 72.4722 58.8322 71.019 59.9029L72.3524 61.7125C74.0728 60.4449 75.4545 58.8581 76.4923 56.9631L74.5208 55.8834ZM71.0348 59.8916C69.5632 60.9371 67.8901 61.7179 66.0053 62.2284L66.5929 64.398C68.7167 63.8228 70.6347 62.9332 72.3367 61.7239L71.0348 59.8916ZM65.9782 62.236C64.1197 62.7897 62.2234 63.0662 60.286 63.0662V65.314C62.4409 65.314 64.5533 65.0059 66.6199 64.3903L65.9782 62.236ZM60.286 63.0662C58.3684 63.0662 56.4936 62.8466 54.6596 62.408L54.1369 64.5942C56.1446 65.0743 58.195 65.314 60.286 65.314V63.0662ZM54.6651 62.4093C52.8842 61.974 51.2518 61.3236 49.7626 60.4615L48.6364 62.4068C50.3207 63.3819 52.1541 64.1095 54.1314 64.5928L54.6651 62.4093ZM49.7928 60.4796C48.3593 59.5885 47.0976 58.4639 46.0058 57.0991L44.2505 58.5033C45.4971 60.0616 46.9496 61.3589 48.6061 62.3886L49.7928 60.4796ZM46.0153 57.1112C44.9472 55.7379 44.1304 54.0783 43.5797 52.1115L41.4152 52.7176C42.0337 54.9266 42.9707 56.858 44.241 58.4912L46.0153 57.1112ZM42.7831 53.5015L52.5543 50.9335L51.9829 48.7595L42.2118 51.3276L42.7831 53.5015ZM51.188 50.1552C51.6727 51.8519 52.6621 53.3263 54.0985 54.5774L55.5749 52.8824C54.4224 51.8786 53.6997 50.7641 53.3493 49.5377L51.188 50.1552ZM54.1145 54.591C55.6476 55.8769 57.568 56.4823 59.7849 56.4823V54.2345C57.9932 54.2345 56.6148 53.7543 55.5589 52.8688L54.1145 54.591ZM59.7849 56.4823C60.642 56.4823 61.4948 56.3631 62.3406 56.1281L61.739 53.9624C61.0816 54.145 60.4311 54.2345 59.7849 54.2345V56.4823ZM62.3258 56.1321C63.2326 55.8935 64.0499 55.5275 64.7601 55.0203L63.4535 53.1912C62.9945 53.5191 62.4338 53.7794 61.7538 53.9584L62.3258 56.1321ZM64.7714 55.012C65.5394 54.4489 66.1509 53.7324 66.6034 52.8778L64.6168 51.826C64.3176 52.3912 63.9269 52.8439 63.4422 53.1994L64.7714 55.012ZM66.5788 52.9217C67.1218 51.9987 67.3603 50.9127 67.3603 49.7212H65.1125C65.1125 50.6176 64.9335 51.2854 64.6413 51.7821L66.5788 52.9217ZM67.3603 49.7212C67.3603 48.4095 67.0421 47.226 66.3333 46.2446L64.511 47.5606C64.8879 48.0825 65.1125 48.778 65.1125 49.7212H67.3603ZM66.3573 46.2792C65.7352 45.346 64.8842 44.6321 63.8384 44.1341L62.872 46.1635C63.5799 46.5006 64.1069 46.9559 64.487 47.526L66.3573 46.2792ZM63.8968 44.164C62.9303 43.6324 61.841 43.2824 60.6448 43.0984L60.303 45.3201C61.2782 45.4701 62.1098 45.7465 62.8135 46.1336L63.8968 44.164ZM60.6862 43.1056C59.5318 42.8836 58.3751 42.7722 57.2169 42.7722V45.02C58.23 45.02 59.2447 45.1173 60.2617 45.3129L60.6862 43.1056ZM57.2169 42.7722H54.3982V45.02H57.2169V42.7722ZM55.5221 43.8961V36.1919H53.2743V43.8961H55.5221ZM54.3982 37.3158H57.4674V35.068H54.3982V37.3158ZM57.4674 37.3158C58.5163 37.3158 59.5277 37.2502 60.5005 37.1175L60.1968 34.8904C59.3323 35.0082 58.4228 35.068 57.4674 35.068V37.3158ZM60.5497 37.1097C61.5638 36.9253 62.4906 36.6207 63.3173 36.183L62.2656 34.1964C61.6726 34.5103 60.9709 34.7485 60.1476 34.8982L60.5497 37.1097ZM63.3373 36.1722C64.2396 35.6708 64.9709 35.0007 65.4983 34.1568L63.5922 32.9655C63.2845 33.4578 62.8465 33.8734 62.2456 34.2072L63.3373 36.1722ZM65.4714 34.1979C66.0966 33.2885 66.3581 32.1678 66.3581 30.9304H64.1103C64.1103 31.8645 63.9126 32.4976 63.6191 32.9244L65.4714 34.1979ZM66.3581 30.9304C66.3581 29.0411 65.6661 27.4715 64.2121 26.3945L62.8741 28.2007C63.675 28.7939 64.1103 29.6463 64.1103 30.9304H66.3581ZM64.2121 26.3945C62.8826 25.4097 61.3513 24.921 59.6597 24.921V27.1688C60.891 27.1688 61.9487 27.5152 62.8741 28.2007L64.2121 26.3945ZM59.6597 24.921C57.9072 24.921 56.3388 25.4636 55.0037 26.5516L56.4235 28.2941C57.3433 27.5447 58.4056 27.1688 59.6597 27.1688V24.921ZM55.0074 26.5485C53.7031 27.602 52.87 29.0249 52.4868 30.7493L54.6811 31.2369C54.966 29.9547 55.5527 28.9975 56.4198 28.2972L55.0074 26.5485ZM53.8367 29.898L44.0655 27.6431L43.5601 29.8333L53.3313 32.0882L53.8367 29.898ZM44.8925 29.0501C45.3997 27.2944 46.1523 25.7998 47.1384 24.5482L45.3728 23.1571C44.1875 24.6614 43.3115 26.4238 42.733 28.4263L44.8925 29.0501ZM47.1484 24.5353C48.1556 23.2182 49.3304 22.1413 50.6745 21.2965L49.4783 19.3935C47.8993 20.386 46.527 21.6475 45.3628 23.1699L47.1484 24.5353ZM50.6815 21.2921C52.0843 20.3959 53.6045 19.7327 55.2467 19.3026L54.6772 17.1281C52.8119 17.6167 51.075 18.3733 49.4713 19.3979L50.6815 21.2921ZM55.2707 19.296C56.9234 18.8238 58.615 18.5876 60.3487 18.5876V16.3398C58.4077 16.3398 56.5082 16.6047 54.6532 17.1347L55.2707 19.296ZM60.3487 18.5876C62.2144 18.5876 64.0148 18.8257 65.7528 19.2997L66.3442 17.1311C64.4076 16.6029 62.4081 16.3398 60.3487 16.3398V18.5876ZM65.7589 19.3013C67.5183 19.7705 69.0633 20.4883 70.4061 21.4475L71.7126 19.6183C70.1324 18.4896 68.3369 17.6624 66.3381 17.1294L65.7589 19.3013ZM70.4061 21.4475C71.7299 22.393 72.7867 23.5811 73.5833 25.0226L75.5507 23.9353C74.5935 22.2033 73.3119 20.7607 71.7126 19.6183L70.4061 21.4475ZM73.601 25.0534C74.3986 26.3949 74.8211 28.0258 74.8211 29.9909H77.0689C77.0689 27.6968 76.5727 25.6531 75.533 23.9046L73.601 25.0534ZM74.8211 29.9909C74.8211 32.2227 74.1845 34.0487 72.9502 35.5371L74.6805 36.9719C76.2857 35.0362 77.0689 32.6865 77.0689 29.9909H74.8211ZM72.9484 35.5393C71.7249 37.0223 70.1544 38.0252 68.1991 38.5516L68.7835 40.7221C71.171 40.0793 73.1498 38.8273 74.6823 36.9697L72.9484 35.5393ZM67.3674 39.6368V39.8247H69.6152V39.6368H67.3674ZM68.2359 40.9192C69.369 41.1836 70.3981 41.6153 71.3304 42.212L72.5421 40.3187C71.3866 39.5792 70.119 39.0504 68.7467 38.7302L68.2359 40.9192ZM71.358 42.2291C72.2939 42.7906 73.0922 43.4787 73.7598 44.2946L75.4995 42.8712C74.6638 41.8498 73.6666 40.9928 72.5145 40.3016L71.358 42.2291ZM73.7763 44.3143C74.4379 45.0862 74.9562 45.9718 75.3295 46.9798L77.4374 46.1991C76.9755 44.9521 76.3246 43.8334 75.483 42.8515L73.7763 44.3143ZM75.3344 46.9929C75.6988 47.9402 75.8859 48.9716 75.8859 50.097H78.1337C78.1337 48.717 77.9032 47.41 77.4324 46.186L75.3344 46.9929Z" fill="#2149D8"/>
</svg>
