<svg width="95" height="85" viewBox="0 0 95 85" fill="none" xmlns="http://www.w3.org/2000/svg">
<rect width="95" height="85" fill="white"/>
<path d="M40.0385 40.7019C40.0385 43.8337 39.7254 46.8193 39.099 49.6588C38.4726 52.4983 37.4705 55.0037 36.0925 57.1751C34.7145 59.3047 32.9189 61.0168 30.7058 62.3112C28.5344 63.564 25.8828 64.1903 22.751 64.1903C19.6193 64.1903 16.9468 63.564 14.7337 62.3112C12.5205 61.0168 10.7041 59.3047 9.28434 57.1751C7.90635 55.0037 6.90418 52.4983 6.27782 49.6588C5.65146 46.8193 5.33828 43.8337 5.33828 40.7019C5.33828 37.5701 5.65146 34.6053 6.27782 31.8076C6.90418 28.9681 7.90635 26.5044 9.28434 24.4166C10.7041 22.2869 12.5205 20.5958 14.7337 19.3431C16.9468 18.0903 19.6193 17.464 22.751 17.464C25.8828 17.464 28.5344 18.0903 30.7058 19.3431C32.9189 20.5958 34.7145 22.2869 36.0925 24.4166C37.4705 26.5044 38.4726 28.9681 39.099 31.8076C39.7254 34.6053 40.0385 37.5701 40.0385 40.7019ZM29.2652 40.7019C29.2652 39.3239 29.1817 37.7998 29.0146 36.1295C28.8476 34.4592 28.5344 32.9142 28.0751 31.4944C27.6158 30.0329 26.9476 28.822 26.0707 27.8615C25.2356 26.8594 24.129 26.3583 22.751 26.3583C21.3731 26.3583 20.2456 26.8594 19.3687 27.8615C18.4918 28.822 17.8028 30.0329 17.3017 31.4944C16.8424 32.9142 16.5292 34.4592 16.3622 36.1295C16.1952 37.7998 16.1116 39.3239 16.1116 40.7019C16.1116 42.1216 16.1952 43.6875 16.3622 45.3996C16.5292 47.0699 16.8424 48.6358 17.3017 50.0973C17.8028 51.517 18.4918 52.728 19.3687 53.7301C20.2456 54.6906 21.3731 55.1708 22.751 55.1708C24.129 55.1708 25.2356 54.6906 26.0707 53.7301C26.9476 52.728 27.6158 51.517 28.0751 50.0973C28.5344 48.6358 28.8476 47.0699 29.0146 45.3996C29.1817 43.6875 29.2652 42.1216 29.2652 40.7019ZM47.2094 63.0002V54.2312L64.4969 38.5723C65.5825 37.5283 66.4594 36.4635 67.1276 35.3778C67.7957 34.2922 68.1297 33.0812 68.1297 31.745C68.1297 30.1582 67.6286 28.8846 66.6265 27.9242C65.6243 26.922 64.2881 26.4209 62.6178 26.4209C60.864 26.4209 59.4233 27.0473 58.2959 28.3C57.2102 29.5109 56.563 31.1186 56.3542 33.1229L46.2698 31.745C46.5204 29.4901 47.1258 27.4857 48.0863 25.7319C49.0884 23.9781 50.3412 22.4957 51.8444 21.2848C53.3477 20.0321 55.0597 19.0925 56.9806 18.4662C58.9431 17.798 61.0101 17.464 63.1815 17.464C65.2276 17.464 67.2111 17.7354 69.1319 18.2783C71.0527 18.8211 72.7648 19.6562 74.268 20.7837C75.7713 21.9111 76.9614 23.3309 77.8383 25.0429C78.7569 26.755 79.2163 28.7593 79.2163 31.056C79.2163 32.6427 79.0075 34.0834 78.5899 35.3778C78.1723 36.6306 77.5877 37.7998 76.8361 38.8854C76.1262 39.9711 75.2911 40.9942 74.3307 41.9546C73.412 42.8733 72.4516 43.7919 71.4494 44.7106L61.1772 53.8554H79.2789V63.0002H47.2094Z" fill="#2149D8"/>
<path d="M37.5815 40.7016C37.5815 43.8334 37.2683 46.8191 36.642 49.6586C36.0156 52.4981 35.0134 55.0035 33.6354 57.1749C32.2575 59.3045 30.4619 61.0165 28.2488 62.311C26.0774 63.5637 23.4258 64.1901 20.294 64.1901C17.1622 64.1901 14.4898 63.5637 12.2766 62.311C10.0635 61.0165 8.24705 59.3045 6.82731 57.1749C5.44932 55.0035 4.44714 52.4981 3.82079 49.6586C3.19443 46.8191 2.88125 43.8334 2.88125 40.7016C2.88125 37.5698 3.19443 34.6051 3.82079 31.8074C4.44714 28.9679 5.44932 26.5042 6.82731 24.4163C8.24705 22.2867 10.0635 20.5955 12.2766 19.3428C14.4898 18.0901 17.1622 17.4637 20.294 17.4637C23.4258 17.4637 26.0774 18.0901 28.2488 19.3428C30.4619 20.5955 32.2575 22.2867 33.6354 24.4163C35.0134 26.5042 36.0156 28.9679 36.642 31.8074C37.2683 34.6051 37.5815 37.5698 37.5815 40.7016ZM26.8081 40.7016C26.8081 39.3237 26.7246 37.7995 26.5576 36.1292C26.3906 34.4589 26.0774 32.9139 25.6181 31.4942C25.1587 30.0327 24.4906 28.8217 23.6137 27.8613C22.7786 26.8591 21.672 26.358 20.294 26.358C18.916 26.358 17.7886 26.8591 16.9117 27.8613C16.0348 28.8217 15.3458 30.0327 14.8447 31.4942C14.3854 32.9139 14.0722 34.4589 13.9052 36.1292C13.7381 37.7995 13.6546 39.3237 13.6546 40.7016C13.6546 42.1214 13.7381 43.6873 13.9052 45.3993C14.0722 47.0696 14.3854 48.6355 14.8447 50.097C15.3458 51.5168 16.0348 52.7277 16.9117 53.7299C17.7886 54.6903 18.916 55.1705 20.294 55.1705C21.672 55.1705 22.7786 54.6903 23.6137 53.7299C24.4906 52.7277 25.1587 51.5168 25.6181 50.097C26.0774 48.6355 26.3906 47.0696 26.5576 45.3993C26.7246 43.6873 26.8081 42.1214 26.8081 40.7016ZM44.7523 63V54.231L62.0398 38.572C63.1255 37.5281 64.0024 36.4633 64.6705 35.3776C65.3386 34.2919 65.6727 33.0809 65.6727 31.7447C65.6727 30.1579 65.1716 28.8843 64.1694 27.9239C63.1673 26.9218 61.831 26.4207 60.1607 26.4207C58.4069 26.4207 56.9663 27.047 55.8389 28.2997C54.7532 29.5107 54.1059 31.1184 53.8972 33.1227L43.8128 31.7447C44.0633 29.4898 44.6688 27.4855 45.6292 25.7317C46.6314 23.9779 47.8841 22.4955 49.3874 21.2845C50.8906 20.0318 52.6027 19.0923 54.5235 18.4659C56.4861 17.7978 58.5531 17.4637 60.7245 17.4637C62.7706 17.4637 64.754 17.7352 66.6749 18.278C68.5957 18.8209 70.3078 19.656 71.811 20.7834C73.3143 21.9109 74.5044 23.3306 75.3813 25.0427C76.2999 26.7547 76.7592 28.7591 76.7592 31.0557C76.7592 32.6425 76.5505 34.0831 76.1329 35.3776C75.7153 36.6303 75.1307 37.7995 74.3791 38.8852C73.6692 39.9709 72.8341 40.9939 71.8736 41.9544C70.955 42.873 69.9946 43.7917 68.9924 44.7103L58.7201 53.8552H76.8219V63H44.7523Z" fill="white"/>
<path d="M33.6354 57.1749L34.5791 57.7855L34.5844 57.7771L33.6354 57.1749ZM28.2488 62.311L28.8104 63.2845L28.8162 63.2811L28.2488 62.311ZM12.2766 62.311L11.7092 63.2811L11.7161 63.2852L11.723 63.2891L12.2766 62.311ZM6.82731 57.1749L5.87836 57.7771L5.88515 57.7878L5.89216 57.7983L6.82731 57.1749ZM3.82079 31.8074L4.91754 32.0529L4.9183 32.0495L3.82079 31.8074ZM6.82731 24.4163L5.89215 23.7929L5.88929 23.7972L6.82731 24.4163ZM12.2766 19.3428L12.8303 20.3209L12.8303 20.3209L12.2766 19.3428ZM28.2488 19.3428L27.6871 20.3164L27.6951 20.3209L28.2488 19.3428ZM33.6354 24.4163L32.6918 25.0269L32.6974 25.0354L33.6354 24.4163ZM36.642 31.8074L35.5444 32.0495L35.5452 32.0529L36.642 31.8074ZM25.6181 31.4942L24.5458 31.8312L24.5487 31.8401L25.6181 31.4942ZM23.6137 27.8613L22.7503 28.5808L22.7666 28.6003L22.7837 28.6191L23.6137 27.8613ZM16.9117 27.8613L17.7417 28.6191L17.7497 28.6103L17.7575 28.6014L16.9117 27.8613ZM14.8447 31.4942L13.7815 31.1297L13.7784 31.1389L13.7754 31.1482L14.8447 31.4942ZM13.9052 36.1292L15.0235 36.2411L15.0235 36.2411L13.9052 36.1292ZM13.9052 45.3993L12.7866 45.5085L12.7868 45.5112L13.9052 45.3993ZM14.8447 50.097L13.7725 50.434L13.7784 50.4526L13.7849 50.4711L14.8447 50.097ZM16.9117 53.7299L16.0659 54.47L16.0737 54.4789L16.0817 54.4877L16.9117 53.7299ZM23.6137 53.7299L22.7679 52.9898L22.7656 52.9924L23.6137 53.7299ZM25.6181 50.097L26.6874 50.443L26.6903 50.434L25.6181 50.097ZM26.5576 45.3993L27.6759 45.5112L27.6762 45.5085L26.5576 45.3993ZM36.4576 40.7016C36.4576 43.7582 36.152 46.6623 35.5445 49.4165L37.7395 49.9007C38.3847 46.9758 38.7054 43.9086 38.7054 40.7016H36.4576ZM35.5445 49.4165C34.9426 52.1447 33.9859 54.5252 32.6865 56.5727L34.5844 57.7771C36.041 55.4818 37.0886 52.8514 37.7395 49.9007L35.5445 49.4165ZM32.6919 56.5643C31.4105 58.5446 29.7444 60.1342 27.6813 61.3409L28.8162 63.2811C31.1794 61.8989 33.1045 60.0643 34.579 57.7854L32.6919 56.5643ZM27.6871 61.3375C25.7242 62.47 23.2772 63.0662 20.294 63.0662V65.314C23.5744 65.314 26.4306 64.6575 28.8104 63.2845L27.6871 61.3375ZM20.294 63.0662C17.3117 63.0662 14.8396 62.4703 12.8303 61.3329L11.723 63.2891C14.1399 64.6572 17.0127 65.314 20.294 65.314V63.0662ZM12.8441 61.3409C10.778 60.1324 9.08737 58.5388 7.76245 56.5514L5.89216 57.7983C7.40674 60.0702 9.34902 61.9007 11.7092 63.2811L12.8441 61.3409ZM7.77625 56.5727C6.4769 54.5252 5.52012 52.1447 4.9183 49.4165L2.72327 49.9007C3.37417 52.8514 4.42174 55.4818 5.87836 57.7771L7.77625 56.5727ZM4.9183 49.4165C4.31077 46.6623 4.00515 43.7582 4.00515 40.7016H1.75735C1.75735 43.9086 2.07809 46.9758 2.72327 49.9007L4.9183 49.4165ZM4.00515 40.7016C4.00515 37.6449 4.3108 34.763 4.91754 32.0529L2.72404 31.5618C2.07806 34.4472 1.75735 37.4948 1.75735 40.7016H4.00515ZM4.9183 32.0495C5.51976 29.3229 6.47437 26.9914 7.76532 25.0354L5.88929 23.7972C4.42427 26.017 3.37453 28.6129 2.72327 31.5653L4.9183 32.0495ZM7.76245 25.0397C9.08521 23.0556 10.7713 21.4863 12.8303 20.3209L11.723 18.3647C9.35565 19.7047 7.4089 21.5178 5.89216 23.7929L7.76245 25.0397ZM12.8303 20.3209C14.8396 19.1835 17.3117 18.5876 20.294 18.5876V16.3398C17.0127 16.3398 14.1399 16.9967 11.723 18.3647L12.8303 20.3209ZM20.294 18.5876C23.2772 18.5876 25.7242 19.1839 27.6871 20.3163L28.8104 18.3693C26.4306 16.9963 23.5744 16.3398 20.294 16.3398V18.5876ZM27.6951 20.3209C29.751 21.4846 31.4126 23.0498 32.6919 25.0269L34.579 23.8058C33.1023 21.5236 31.1728 19.7065 28.8024 18.3647L27.6951 20.3209ZM32.6974 25.0354C33.9884 26.9914 34.943 29.3229 35.5445 32.0495L37.7395 31.5653C37.0882 28.6129 36.0385 26.017 34.5735 23.7972L32.6974 25.0354ZM35.5452 32.0529C36.152 34.763 36.4576 37.6449 36.4576 40.7016H38.7054C38.7054 37.4948 38.3847 34.4472 37.7387 31.5618L35.5452 32.0529ZM27.932 40.7016C27.932 39.2793 27.8459 37.7172 27.6759 36.0174L25.4393 36.2411C25.6034 37.8819 25.6842 39.368 25.6842 40.7016H27.932ZM27.6759 36.0174C27.5019 34.2773 27.1742 32.6528 26.6874 31.1482L24.5487 31.8401C24.9806 33.175 25.2792 34.6406 25.4393 36.2411L27.6759 36.0174ZM26.6903 31.1572C26.1905 29.567 25.449 28.2045 24.4437 27.1035L22.7837 28.6191C23.5323 29.4389 24.127 30.4983 24.5459 31.8311L26.6903 31.1572ZM24.4771 27.1418C23.415 25.8673 21.984 25.2341 20.294 25.2341V27.4819C21.36 27.4819 22.1421 27.8509 22.7503 28.5808L24.4771 27.1418ZM20.294 25.2341C18.6048 25.2341 17.1645 25.8656 16.0659 27.1212L17.7575 28.6014C18.4126 27.8526 19.2272 27.4819 20.294 27.4819V25.2341ZM16.0817 27.1035C15.0833 28.1969 14.3233 29.5494 13.7815 31.1297L15.9078 31.8587C16.3682 30.5159 16.9862 29.4465 17.7417 28.6191L16.0817 27.1035ZM13.7754 31.1482C13.2886 32.6528 12.9608 34.2773 12.7868 36.0174L15.0235 36.2411C15.1835 34.6406 15.4821 33.175 15.914 31.8401L13.7754 31.1482ZM12.7868 36.0174C12.6169 37.7172 12.5307 39.2793 12.5307 40.7016H14.7785C14.7785 39.368 14.8594 37.8819 15.0235 36.2411L12.7868 36.0174ZM12.5307 40.7016C12.5307 42.1645 12.6167 43.7674 12.7866 45.5085L15.0237 45.2902C14.8595 43.6071 14.7785 42.0783 14.7785 40.7016H12.5307ZM12.7868 45.5112C12.9608 47.2507 13.2881 48.8926 13.7725 50.434L15.9169 49.76C15.4827 48.3784 15.1836 46.8886 15.0235 45.2875L12.7868 45.5112ZM13.7849 50.4711C14.3273 52.0078 15.0836 53.3474 16.0659 54.47L17.7575 52.9898C16.986 52.1081 16.3643 51.0257 15.9045 49.723L13.7849 50.4711ZM16.0817 54.4877C17.1854 55.6965 18.6214 56.2944 20.294 56.2944V54.0466C19.2106 54.0466 18.3917 53.6841 17.7417 52.9721L16.0817 54.4877ZM20.294 56.2944C21.9669 56.2944 23.3941 55.6953 24.4618 54.4674L22.7656 52.9924C22.1631 53.6853 21.3771 54.0466 20.294 54.0466V56.2944ZM24.4595 54.47C25.4484 53.3399 26.1868 51.9904 26.6874 50.443L24.5487 49.7511C24.1307 51.0431 23.5329 52.1156 22.7679 52.9898L24.4595 54.47ZM26.6903 50.434C27.1747 48.8926 27.502 47.2507 27.6759 45.5112L25.4393 45.2875C25.2792 46.8886 24.9801 48.3784 24.5459 49.76L26.6903 50.434ZM27.6762 45.5085C27.846 43.7674 27.932 42.1645 27.932 40.7016H25.6842C25.6842 42.0783 25.6032 43.6071 25.439 45.2902L27.6762 45.5085ZM44.7523 63H43.6284V64.1239H44.7523V63ZM44.7523 54.231L43.9978 53.398L43.6284 53.7326V54.231H44.7523ZM62.0398 38.572L62.7943 39.405L62.8067 39.3938L62.8188 39.3822L62.0398 38.572ZM64.1694 27.9239L63.3747 28.7186L63.3832 28.7271L63.3918 28.7354L64.1694 27.9239ZM55.8389 28.2997L55.0035 27.5479L55.0021 27.5495L55.8389 28.2997ZM53.8972 33.1227L53.745 34.2363L54.8948 34.3934L55.015 33.2391L53.8972 33.1227ZM43.8128 31.7447L42.6958 31.6206L42.5747 32.7099L43.6606 32.8583L43.8128 31.7447ZM45.6292 25.7317L44.6534 25.1741L44.6484 25.1829L44.6435 25.1918L45.6292 25.7317ZM49.3874 21.2845L50.0924 22.1598L50.0997 22.1539L50.1069 22.1479L49.3874 21.2845ZM54.5235 18.4659L54.872 19.5344L54.8788 19.5322L54.8857 19.5299L54.5235 18.4659ZM71.811 20.7834L71.1367 21.6826L71.1367 21.6826L71.811 20.7834ZM75.3813 25.0427L74.3809 25.555L74.3858 25.5646L74.3909 25.5741L75.3813 25.0427ZM76.1329 35.3776L77.1992 35.733L77.2025 35.7226L76.1329 35.3776ZM74.3791 38.8852L73.455 38.2455L73.4466 38.2577L73.4384 38.2701L74.3791 38.8852ZM68.9924 44.7103L69.7397 45.5498L69.7458 45.5443L69.7518 45.5388L68.9924 44.7103ZM58.7201 53.8552L57.9728 53.0157L55.7674 54.9791H58.7201V53.8552ZM76.8219 53.8552H77.9458V52.7313H76.8219V53.8552ZM76.8219 63V64.1239H77.9458V63H76.8219ZM45.8762 63V54.231H43.6284V63H45.8762ZM45.5068 55.064L62.7943 39.405L61.2853 37.739L43.9978 53.398L45.5068 55.064ZM62.8188 39.3822C63.961 38.2839 64.9017 37.1463 65.6277 35.9666L63.7133 34.7886C63.1031 35.7802 62.29 36.7723 61.2608 37.7619L62.8188 39.3822ZM65.6277 35.9666C66.4102 34.6951 66.7966 33.2784 66.7966 31.7447H64.5488C64.5488 32.8835 64.2671 33.8887 63.7133 34.7886L65.6277 35.9666ZM66.7966 31.7447C66.7966 29.8995 66.2028 28.3159 64.9471 27.1125L63.3918 28.7354C64.1404 29.4528 64.5488 30.4163 64.5488 31.7447H66.7966ZM64.9642 27.1292C63.7139 25.879 62.0718 25.2968 60.1607 25.2968V27.5446C61.5902 27.5446 62.6206 27.9646 63.3747 28.7186L64.9642 27.1292ZM60.1607 25.2968C58.103 25.2968 56.3537 26.0477 55.0035 27.5479L56.6743 29.0516C57.5789 28.0464 58.7109 27.5446 60.1607 27.5446V25.2968ZM55.0021 27.5495C53.7238 28.9752 53.0067 30.8234 52.7793 33.0063L55.015 33.2391C55.2052 31.4133 55.7826 30.0462 56.6757 29.05L55.0021 27.5495ZM54.0493 32.0092L43.965 30.6312L43.6606 32.8583L53.745 34.2363L54.0493 32.0092ZM44.9298 31.8688C45.1663 29.7402 45.7339 27.8805 46.615 26.2715L44.6435 25.1918C43.6037 27.0905 42.9603 29.2394 42.6958 31.6206L44.9298 31.8688ZM46.605 26.2893C47.5409 24.6516 48.7035 23.2786 50.0924 22.1598L48.6823 20.4093C47.0647 21.7123 45.7219 23.3041 44.6534 25.1741L46.605 26.2893ZM50.1069 22.1479C51.497 20.9895 53.0822 20.1181 54.872 19.5344L54.1751 17.3974C52.1232 18.0665 50.2843 19.0741 48.6679 20.4211L50.1069 22.1479ZM54.8857 19.5299C56.7262 18.9033 58.6704 18.5876 60.7245 18.5876V16.3398C58.4358 16.3398 56.246 16.6923 54.1613 17.402L54.8857 19.5299ZM60.7245 18.5876C62.6698 18.5876 64.5503 18.8455 66.3692 19.3595L66.9805 17.1965C64.9578 16.6248 62.8713 16.3398 60.7245 16.3398V18.5876ZM66.3692 19.3595C68.1653 19.8672 69.7508 20.6432 71.1367 21.6826L72.4854 19.8843C70.8647 18.6688 69.0261 17.7746 66.9805 17.1965L66.3692 19.3595ZM71.1367 21.6826C72.5 22.7051 73.58 23.9913 74.3809 25.555L76.3816 24.5303C75.4287 22.67 74.1286 21.1167 72.4854 19.8843L71.1367 21.6826ZM74.3909 25.5741C75.2072 27.0954 75.6353 28.9108 75.6353 31.0557H77.8831C77.8831 28.6074 77.3926 26.4141 76.3716 24.5113L74.3909 25.5741ZM75.6353 31.0557C75.6353 32.5444 75.4395 33.8664 75.0633 35.0326L77.2025 35.7226C77.6615 34.2999 77.8831 32.7406 77.8831 31.0557H75.6353ZM75.0667 35.0222C74.6828 36.1739 74.146 37.2473 73.455 38.2455L75.3031 39.5249C76.1154 38.3517 76.7479 37.0868 77.1991 35.733L75.0667 35.0222ZM73.4384 38.2701C72.7728 39.2881 71.9872 40.2514 71.0789 41.1596L72.6684 42.7491C73.6809 41.7365 74.5656 40.6537 75.3198 39.5003L73.4384 38.2701ZM71.0789 41.1596C70.1723 42.0663 69.2237 42.9737 68.233 43.8818L69.7518 45.5388C70.7655 44.6097 71.7377 43.6798 72.6684 42.7491L71.0789 41.1596ZM68.2451 43.8709L57.9728 53.0157L59.4674 54.6946L69.7397 45.5498L68.2451 43.8709ZM58.7201 54.9791H76.8219V52.7313H58.7201V54.9791ZM75.698 53.8552V63H77.9458V53.8552H75.698ZM76.8219 61.8761H44.7523V64.1239H76.8219V61.8761Z" fill="#2149D8"/>
</svg>
