<svg width="95" height="85" viewBox="0 0 95 85" fill="none" xmlns="http://www.w3.org/2000/svg">
<rect width="95" height="85" fill="white"/>
<path d="M40.0385 40.7019C40.0385 43.8337 39.7254 46.8193 39.099 49.6588C38.4726 52.4983 37.4705 55.0037 36.0925 57.1751C34.7145 59.3047 32.9189 61.0168 30.7058 62.3112C28.5344 63.564 25.8828 64.1903 22.751 64.1903C19.6193 64.1903 16.9468 63.564 14.7337 62.3112C12.5205 61.0168 10.7041 59.3047 9.28434 57.1751C7.90635 55.0037 6.90418 52.4983 6.27782 49.6588C5.65146 46.8193 5.33828 43.8337 5.33828 40.7019C5.33828 37.5701 5.65146 34.6053 6.27782 31.8076C6.90418 28.9681 7.90635 26.5044 9.28434 24.4166C10.7041 22.2869 12.5205 20.5958 14.7337 19.3431C16.9468 18.0903 19.6193 17.464 22.751 17.464C25.8828 17.464 28.5344 18.0903 30.7058 19.3431C32.9189 20.5958 34.7145 22.2869 36.0925 24.4166C37.4705 26.5044 38.4726 28.9681 39.099 31.8076C39.7254 34.6053 40.0385 37.5701 40.0385 40.7019ZM29.2652 40.7019C29.2652 39.3239 29.1817 37.7998 29.0146 36.1295C28.8476 34.4592 28.5344 32.9142 28.0751 31.4944C27.6158 30.0329 26.9476 28.822 26.0707 27.8615C25.2356 26.8594 24.129 26.3583 22.751 26.3583C21.3731 26.3583 20.2456 26.8594 19.3687 27.8615C18.4918 28.822 17.8028 30.0329 17.3017 31.4944C16.8424 32.9142 16.5292 34.4592 16.3622 36.1295C16.1952 37.7998 16.1116 39.3239 16.1116 40.7019C16.1116 42.1216 16.1952 43.6875 16.3622 45.3996C16.5292 47.0699 16.8424 48.6358 17.3017 50.0973C17.8028 51.517 18.4918 52.728 19.3687 53.7301C20.2456 54.6906 21.3731 55.1708 22.751 55.1708C24.129 55.1708 25.2356 54.6906 26.0707 53.7301C26.9476 52.728 27.6158 51.517 28.0751 50.0973C28.5344 48.6358 28.8476 47.0699 29.0146 45.3996C29.1817 43.6875 29.2652 42.1216 29.2652 40.7019ZM60.6761 63.0002V30.4296L52.4081 36.8185L46.9588 29.3648L61.553 18.6541H71.1989V63.0002H60.6761Z" fill="#2149D8"/>
<path d="M37.5815 40.7016C37.5815 43.8334 37.2683 46.8191 36.642 49.6586C36.0156 52.4981 35.0134 55.0035 33.6354 57.1749C32.2575 59.3045 30.4619 61.0165 28.2488 62.311C26.0774 63.5637 23.4258 64.1901 20.294 64.1901C17.1622 64.1901 14.4898 63.5637 12.2766 62.311C10.0635 61.0165 8.24705 59.3045 6.82731 57.1749C5.44932 55.0035 4.44714 52.4981 3.82079 49.6586C3.19443 46.8191 2.88125 43.8334 2.88125 40.7016C2.88125 37.5698 3.19443 34.6051 3.82079 31.8074C4.44714 28.9679 5.44932 26.5042 6.82731 24.4163C8.24705 22.2867 10.0635 20.5955 12.2766 19.3428C14.4898 18.0901 17.1622 17.4637 20.294 17.4637C23.4258 17.4637 26.0774 18.0901 28.2488 19.3428C30.4619 20.5955 32.2575 22.2867 33.6354 24.4163C35.0134 26.5042 36.0156 28.9679 36.642 31.8074C37.2683 34.6051 37.5815 37.5698 37.5815 40.7016ZM26.8081 40.7016C26.8081 39.3237 26.7246 37.7995 26.5576 36.1292C26.3906 34.4589 26.0774 32.9139 25.6181 31.4942C25.1587 30.0327 24.4906 28.8217 23.6137 27.8613C22.7786 26.8591 21.672 26.358 20.294 26.358C18.916 26.358 17.7886 26.8591 16.9117 27.8613C16.0348 28.8217 15.3458 30.0327 14.8447 31.4942C14.3854 32.9139 14.0722 34.4589 13.9052 36.1292C13.7381 37.7995 13.6546 39.3237 13.6546 40.7016C13.6546 42.1214 13.7381 43.6873 13.9052 45.3993C14.0722 47.0696 14.3854 48.6355 14.8447 50.097C15.3458 51.5168 16.0348 52.7277 16.9117 53.7299C17.7886 54.6903 18.916 55.1705 20.294 55.1705C21.672 55.1705 22.7786 54.6903 23.6137 53.7299C24.4906 52.7277 25.1587 51.5168 25.6181 50.097C26.0774 48.6355 26.3906 47.0696 26.5576 45.3993C26.7246 43.6873 26.8081 42.1214 26.8081 40.7016ZM58.219 63V30.4294L49.9511 36.8182L44.5018 29.3646L59.0959 18.6538H68.7419V63H58.219Z" fill="white"/>
<path d="M33.6354 57.1749L34.5791 57.7855L34.5844 57.7771L33.6354 57.1749ZM28.2488 62.311L28.8104 63.2845L28.8162 63.2811L28.2488 62.311ZM12.2766 62.311L11.7092 63.2811L11.7161 63.2852L11.723 63.2891L12.2766 62.311ZM6.82731 57.1749L5.87836 57.7771L5.88515 57.7878L5.89216 57.7983L6.82731 57.1749ZM3.82079 31.8074L4.91754 32.0529L4.9183 32.0495L3.82079 31.8074ZM6.82731 24.4163L5.89215 23.7929L5.88929 23.7972L6.82731 24.4163ZM12.2766 19.3428L12.8303 20.3209L12.8303 20.3209L12.2766 19.3428ZM28.2488 19.3428L27.6871 20.3164L27.6951 20.3209L28.2488 19.3428ZM33.6354 24.4163L32.6918 25.0269L32.6974 25.0354L33.6354 24.4163ZM36.642 31.8074L35.5444 32.0495L35.5452 32.0529L36.642 31.8074ZM25.6181 31.4942L24.5458 31.8312L24.5487 31.8401L25.6181 31.4942ZM23.6137 27.8613L22.7503 28.5808L22.7666 28.6003L22.7837 28.6191L23.6137 27.8613ZM16.9117 27.8613L17.7417 28.6191L17.7497 28.6103L17.7575 28.6014L16.9117 27.8613ZM14.8447 31.4942L13.7815 31.1297L13.7784 31.1389L13.7754 31.1482L14.8447 31.4942ZM13.9052 36.1292L15.0235 36.2411L15.0235 36.2411L13.9052 36.1292ZM13.9052 45.3993L12.7866 45.5085L12.7868 45.5112L13.9052 45.3993ZM14.8447 50.097L13.7725 50.434L13.7784 50.4526L13.7849 50.4711L14.8447 50.097ZM16.9117 53.7299L16.0659 54.47L16.0737 54.4789L16.0817 54.4877L16.9117 53.7299ZM23.6137 53.7299L22.7679 52.9898L22.7656 52.9924L23.6137 53.7299ZM25.6181 50.097L26.6874 50.443L26.6903 50.434L25.6181 50.097ZM26.5576 45.3993L27.6759 45.5112L27.6762 45.5085L26.5576 45.3993ZM36.4576 40.7016C36.4576 43.7582 36.152 46.6623 35.5445 49.4165L37.7395 49.9007C38.3847 46.9758 38.7054 43.9086 38.7054 40.7016H36.4576ZM35.5445 49.4165C34.9426 52.1447 33.9859 54.5252 32.6865 56.5727L34.5844 57.7771C36.041 55.4818 37.0886 52.8514 37.7395 49.9007L35.5445 49.4165ZM32.6919 56.5643C31.4105 58.5446 29.7444 60.1342 27.6813 61.3409L28.8162 63.2811C31.1794 61.8989 33.1045 60.0643 34.579 57.7854L32.6919 56.5643ZM27.6871 61.3375C25.7242 62.47 23.2772 63.0662 20.294 63.0662V65.314C23.5744 65.314 26.4306 64.6575 28.8104 63.2845L27.6871 61.3375ZM20.294 63.0662C17.3117 63.0662 14.8396 62.4703 12.8303 61.3329L11.723 63.2891C14.1399 64.6572 17.0127 65.314 20.294 65.314V63.0662ZM12.8441 61.3409C10.778 60.1324 9.08737 58.5388 7.76245 56.5514L5.89216 57.7983C7.40674 60.0702 9.34902 61.9007 11.7092 63.2811L12.8441 61.3409ZM7.77625 56.5727C6.4769 54.5252 5.52012 52.1447 4.9183 49.4165L2.72327 49.9007C3.37417 52.8514 4.42174 55.4818 5.87836 57.7771L7.77625 56.5727ZM4.9183 49.4165C4.31077 46.6623 4.00515 43.7582 4.00515 40.7016H1.75735C1.75735 43.9086 2.07809 46.9758 2.72327 49.9007L4.9183 49.4165ZM4.00515 40.7016C4.00515 37.6449 4.3108 34.763 4.91754 32.0529L2.72404 31.5618C2.07806 34.4472 1.75735 37.4948 1.75735 40.7016H4.00515ZM4.9183 32.0495C5.51976 29.3229 6.47437 26.9914 7.76532 25.0354L5.88929 23.7972C4.42427 26.017 3.37453 28.6129 2.72327 31.5653L4.9183 32.0495ZM7.76245 25.0397C9.08521 23.0556 10.7713 21.4863 12.8303 20.3209L11.723 18.3647C9.35565 19.7047 7.4089 21.5178 5.89216 23.7929L7.76245 25.0397ZM12.8303 20.3209C14.8396 19.1835 17.3117 18.5876 20.294 18.5876V16.3398C17.0127 16.3398 14.1399 16.9967 11.723 18.3647L12.8303 20.3209ZM20.294 18.5876C23.2772 18.5876 25.7242 19.1839 27.6871 20.3163L28.8104 18.3693C26.4306 16.9963 23.5744 16.3398 20.294 16.3398V18.5876ZM27.6951 20.3209C29.751 21.4846 31.4126 23.0498 32.6919 25.0269L34.579 23.8058C33.1023 21.5236 31.1728 19.7065 28.8024 18.3647L27.6951 20.3209ZM32.6974 25.0354C33.9884 26.9914 34.943 29.3229 35.5445 32.0495L37.7395 31.5653C37.0882 28.6129 36.0385 26.017 34.5735 23.7972L32.6974 25.0354ZM35.5452 32.0529C36.152 34.763 36.4576 37.6449 36.4576 40.7016H38.7054C38.7054 37.4948 38.3847 34.4472 37.7387 31.5618L35.5452 32.0529ZM27.932 40.7016C27.932 39.2793 27.8459 37.7172 27.6759 36.0174L25.4393 36.2411C25.6034 37.8819 25.6842 39.368 25.6842 40.7016H27.932ZM27.6759 36.0174C27.5019 34.2773 27.1742 32.6528 26.6874 31.1482L24.5487 31.8401C24.9806 33.175 25.2792 34.6406 25.4393 36.2411L27.6759 36.0174ZM26.6903 31.1572C26.1905 29.567 25.449 28.2045 24.4437 27.1035L22.7837 28.6191C23.5323 29.4389 24.127 30.4983 24.5459 31.8311L26.6903 31.1572ZM24.4771 27.1418C23.415 25.8673 21.984 25.2341 20.294 25.2341V27.4819C21.36 27.4819 22.1421 27.8509 22.7503 28.5808L24.4771 27.1418ZM20.294 25.2341C18.6048 25.2341 17.1645 25.8656 16.0659 27.1212L17.7575 28.6014C18.4126 27.8526 19.2272 27.4819 20.294 27.4819V25.2341ZM16.0817 27.1035C15.0833 28.1969 14.3233 29.5494 13.7815 31.1297L15.9078 31.8587C16.3682 30.5159 16.9862 29.4465 17.7417 28.6191L16.0817 27.1035ZM13.7754 31.1482C13.2886 32.6528 12.9608 34.2773 12.7868 36.0174L15.0235 36.2411C15.1835 34.6406 15.4821 33.175 15.914 31.8401L13.7754 31.1482ZM12.7868 36.0174C12.6169 37.7172 12.5307 39.2793 12.5307 40.7016H14.7785C14.7785 39.368 14.8594 37.8819 15.0235 36.2411L12.7868 36.0174ZM12.5307 40.7016C12.5307 42.1645 12.6167 43.7674 12.7866 45.5085L15.0237 45.2902C14.8595 43.6071 14.7785 42.0783 14.7785 40.7016H12.5307ZM12.7868 45.5112C12.9608 47.2507 13.2881 48.8926 13.7725 50.434L15.9169 49.76C15.4827 48.3784 15.1836 46.8886 15.0235 45.2875L12.7868 45.5112ZM13.7849 50.4711C14.3273 52.0078 15.0836 53.3474 16.0659 54.47L17.7575 52.9898C16.986 52.1081 16.3643 51.0257 15.9045 49.723L13.7849 50.4711ZM16.0817 54.4877C17.1854 55.6965 18.6214 56.2944 20.294 56.2944V54.0466C19.2106 54.0466 18.3917 53.6841 17.7417 52.9721L16.0817 54.4877ZM20.294 56.2944C21.9669 56.2944 23.3941 55.6953 24.4618 54.4674L22.7656 52.9924C22.1631 53.6853 21.3771 54.0466 20.294 54.0466V56.2944ZM24.4595 54.47C25.4484 53.3399 26.1868 51.9904 26.6874 50.443L24.5487 49.7511C24.1307 51.0431 23.5329 52.1156 22.7679 52.9898L24.4595 54.47ZM26.6903 50.434C27.1747 48.8926 27.502 47.2507 27.6759 45.5112L25.4393 45.2875C25.2792 46.8886 24.9801 48.3784 24.5459 49.76L26.6903 50.434ZM27.6762 45.5085C27.846 43.7674 27.932 42.1645 27.932 40.7016H25.6842C25.6842 42.0783 25.6032 43.6071 25.439 45.2902L27.6762 45.5085ZM58.219 63H57.0951V64.1239H58.219V63ZM58.219 30.4294H59.3429V28.1405L57.5318 29.54L58.219 30.4294ZM49.9511 36.8182L49.0438 37.4815L49.725 38.4133L50.6383 37.7075L49.9511 36.8182ZM44.5018 29.3646L43.8368 28.4585L42.9324 29.1222L43.5945 30.0279L44.5018 29.3646ZM59.0959 18.6538V17.5299H58.7278L58.431 17.7478L59.0959 18.6538ZM68.7419 18.6538H69.8658V17.5299H68.7419V18.6538ZM68.7419 63V64.1239H69.8658V63H68.7419ZM59.3429 63V30.4294H57.0951V63H59.3429ZM57.5318 29.54L49.2639 35.9289L50.6383 37.7075L58.9062 31.3187L57.5318 29.54ZM50.8584 36.1549L45.4091 28.7012L43.5945 30.0279L49.0438 37.4815L50.8584 36.1549ZM45.1668 30.2706L59.7609 19.5599L58.431 17.7478L43.8368 28.4585L45.1668 30.2706ZM59.0959 19.7777H68.7419V17.5299H59.0959V19.7777ZM67.618 18.6538V63H69.8658V18.6538H67.618ZM68.7419 61.8761H58.219V64.1239H68.7419V61.8761Z" fill="#2149D8"/>
</svg>
