<svg width="321" height="129" viewBox="0 0 321 129" fill="none" xmlns="http://www.w3.org/2000/svg">
<g clip-path="url(#clip0)">
<rect width="321" height="129" fill="white"/>
<path d="M10.008 58.768C9.784 58.4587 9.48 58.208 9.096 58.016C8.712 57.8133 8.28 57.712 7.8 57.712C7.544 57.712 7.28267 57.7493 7.016 57.824C6.76 57.888 6.52533 58 6.312 58.16C6.09867 58.3093 5.92267 58.5013 5.784 58.736C5.656 58.96 5.592 59.232 5.592 59.552C5.592 59.8613 5.65067 60.1227 5.768 60.336C5.896 60.5387 6.06133 60.7147 6.264 60.864C6.47733 61.0027 6.72267 61.1253 7 61.232C7.288 61.328 7.592 61.4293 7.912 61.536C8.296 61.6533 8.68533 61.7867 9.08 61.936C9.47467 62.0853 9.832 62.2827 10.152 62.528C10.472 62.7733 10.7333 63.0827 10.936 63.456C11.1387 63.8187 11.24 64.2827 11.24 64.848C11.24 65.4347 11.128 65.9467 10.904 66.384C10.6907 66.8107 10.4027 67.168 10.04 67.456C9.67733 67.7333 9.256 67.9413 8.776 68.08C8.30667 68.2187 7.82133 68.288 7.32 68.288C6.60533 68.288 5.912 68.1493 5.24 67.872C4.57867 67.5947 4.02933 67.184 3.592 66.64L4.824 65.6C5.09067 65.9947 5.448 66.3147 5.896 66.56C6.344 66.8053 6.82933 66.928 7.352 66.928C7.61867 66.928 7.88533 66.8907 8.152 66.816C8.41867 66.7413 8.65867 66.624 8.872 66.464C9.096 66.304 9.27733 66.1067 9.416 65.872C9.55467 65.6267 9.624 65.3333 9.624 64.992C9.624 64.6507 9.54933 64.368 9.4 64.144C9.26133 63.9093 9.06933 63.712 8.824 63.552C8.57867 63.392 8.29067 63.2587 7.96 63.152C7.64 63.0347 7.29867 62.9173 6.936 62.8C6.57333 62.6933 6.216 62.5653 5.864 62.416C5.512 62.256 5.19733 62.0587 4.92 61.824C4.64267 61.5787 4.41867 61.28 4.248 60.928C4.07733 60.576 3.992 60.1387 3.992 59.616C3.992 59.0507 4.104 58.5653 4.328 58.16C4.56267 57.7547 4.86133 57.4187 5.224 57.152C5.59733 56.8853 6.01333 56.6933 6.472 56.576C6.94133 56.448 7.41067 56.384 7.88 56.384C8.54133 56.384 9.16 56.5013 9.736 56.736C10.312 56.9707 10.776 57.2853 11.128 57.68L10.008 58.768ZM14.9254 68H13.4214V60.416H14.9254V68ZM15.1814 57.68C15.1814 57.9573 15.08 58.1867 14.8774 58.368C14.6854 58.5493 14.4507 58.64 14.1734 58.64C13.896 58.64 13.6614 58.5493 13.4694 58.368C13.2774 58.176 13.1814 57.9467 13.1814 57.68C13.1814 57.4027 13.2774 57.1733 13.4694 56.992C13.6614 56.8 13.896 56.704 14.1734 56.704C14.4507 56.704 14.6854 56.8 14.8774 56.992C15.08 57.1733 15.1814 57.4027 15.1814 57.68ZM19.018 61.664C19.21 61.2587 19.514 60.9173 19.93 60.64C20.3567 60.352 20.858 60.208 21.434 60.208C21.946 60.208 22.4047 60.3253 22.81 60.56C23.226 60.7947 23.5513 61.184 23.786 61.728C24.042 61.2373 24.3993 60.864 24.858 60.608C25.3167 60.3413 25.818 60.208 26.362 60.208C26.8527 60.208 27.274 60.2933 27.626 60.464C27.978 60.624 28.2713 60.8427 28.506 61.12C28.7407 61.3973 28.9113 61.7227 29.018 62.096C29.1353 62.4693 29.194 62.8693 29.194 63.296V68H27.69V63.792C27.69 63.4827 27.6633 63.1893 27.61 62.912C27.5567 62.6347 27.466 62.3893 27.338 62.176C27.21 61.9627 27.0393 61.792 26.826 61.664C26.6127 61.536 26.3407 61.472 26.01 61.472C25.6687 61.472 25.3753 61.5467 25.13 61.696C24.8847 61.8347 24.682 62.0213 24.522 62.256C24.3727 62.48 24.2607 62.736 24.186 63.024C24.122 63.312 24.09 63.6053 24.09 63.904V68H22.586V63.488C22.586 63.1893 22.5593 62.9173 22.506 62.672C22.4527 62.4267 22.362 62.2187 22.234 62.048C22.106 61.8667 21.9407 61.728 21.738 61.632C21.5353 61.5253 21.2847 61.472 20.986 61.472C20.4313 61.472 19.9673 61.7013 19.594 62.16C19.2313 62.608 19.05 63.2107 19.05 63.968V68H17.546V62.048C17.546 61.8453 17.5407 61.584 17.53 61.264C17.5193 60.944 17.5033 60.6613 17.482 60.416H18.906C18.9273 60.608 18.9433 60.8267 18.954 61.072C18.9647 61.3067 18.97 61.504 18.97 61.664H19.018ZM33.2375 71.84H31.7335V60.416H33.2055V61.6H33.2535C33.4988 61.1947 33.8562 60.864 34.3255 60.608C34.8055 60.3413 35.3602 60.208 35.9895 60.208C36.5548 60.208 37.0668 60.3093 37.5255 60.512C37.9948 60.7147 38.3948 60.9973 38.7255 61.36C39.0668 61.7227 39.3282 62.1493 39.5095 62.64C39.6908 63.12 39.7815 63.6373 39.7815 64.192C39.7815 64.7467 39.6908 65.2693 39.5095 65.76C39.3282 66.2507 39.0722 66.6773 38.7415 67.04C38.4108 67.4027 38.0108 67.6907 37.5415 67.904C37.0722 68.1067 36.5442 68.208 35.9575 68.208C35.4135 68.208 34.9015 68.0907 34.4215 67.856C33.9415 67.6213 33.5628 67.2907 33.2855 66.864H33.2375V71.84ZM38.2295 64.192C38.2295 63.84 38.1762 63.4987 38.0695 63.168C37.9628 62.8373 37.8028 62.544 37.5895 62.288C37.3762 62.032 37.1095 61.8293 36.7895 61.68C36.4802 61.5307 36.1175 61.456 35.7015 61.456C35.3175 61.456 34.9655 61.5307 34.6455 61.68C34.3362 61.8293 34.0695 62.032 33.8455 62.288C33.6215 62.544 33.4455 62.8373 33.3175 63.168C33.2002 63.4987 33.1415 63.8453 33.1415 64.208C33.1415 64.5707 33.2002 64.9173 33.3175 65.248C33.4455 65.5787 33.6215 65.872 33.8455 66.128C34.0695 66.3733 34.3362 66.5707 34.6455 66.72C34.9655 66.8693 35.3175 66.944 35.7015 66.944C36.1175 66.944 36.4802 66.8693 36.7895 66.72C37.1095 66.56 37.3762 66.352 37.5895 66.096C37.8028 65.84 37.9628 65.5467 38.0695 65.216C38.1762 64.8853 38.2295 64.544 38.2295 64.192ZM43.4101 68H41.9061V55.904H43.4101V68ZM51.5824 63.536C51.5717 63.2373 51.5184 62.96 51.4224 62.704C51.337 62.4373 51.2037 62.208 51.0224 62.016C50.8517 61.824 50.633 61.6747 50.3664 61.568C50.1104 61.4507 49.8064 61.392 49.4544 61.392C49.1344 61.392 48.8304 61.4507 48.5424 61.568C48.265 61.6747 48.0197 61.824 47.8064 62.016C47.6037 62.208 47.433 62.4373 47.2944 62.704C47.1664 62.96 47.0917 63.2373 47.0704 63.536H51.5824ZM53.1024 64.144C53.1024 64.2293 53.1024 64.3147 53.1024 64.4C53.1024 64.4853 53.097 64.5707 53.0864 64.656H47.0704C47.081 64.976 47.1504 65.28 47.2784 65.568C47.417 65.8453 47.5984 66.0907 47.8224 66.304C48.0464 66.5067 48.3024 66.6667 48.5904 66.784C48.889 66.9013 49.2037 66.96 49.5344 66.96C50.0464 66.96 50.489 66.848 50.8624 66.624C51.2357 66.4 51.529 66.128 51.7424 65.808L52.7984 66.656C52.393 67.1893 51.913 67.584 51.3584 67.84C50.8144 68.0853 50.2064 68.208 49.5344 68.208C48.9584 68.208 48.425 68.112 47.9344 67.92C47.4437 67.728 47.0224 67.4613 46.6704 67.12C46.3184 66.768 46.041 66.3467 45.8384 65.856C45.6357 65.3653 45.5344 64.8213 45.5344 64.224C45.5344 63.6373 45.6304 63.0987 45.8224 62.608C46.025 62.1067 46.3024 61.68 46.6544 61.328C47.0064 60.976 47.4224 60.704 47.9024 60.512C48.3824 60.3093 48.8997 60.208 49.4544 60.208C50.009 60.208 50.5104 60.2987 50.9584 60.48C51.417 60.6613 51.801 60.9227 52.1104 61.264C52.4304 61.6053 52.6757 62.0213 52.8464 62.512C53.017 62.992 53.1024 63.536 53.1024 64.144ZM55.2023 62.048C55.2023 61.8453 55.1969 61.584 55.1863 61.264C55.1756 60.944 55.1596 60.6613 55.1383 60.416H56.5623C56.5836 60.608 56.5996 60.832 56.6103 61.088C56.6209 61.3333 56.6263 61.536 56.6263 61.696H56.6743C56.8876 61.248 57.1969 60.8907 57.6023 60.624C58.0183 60.3467 58.4823 60.208 58.9943 60.208C59.2289 60.208 59.4263 60.2293 59.5863 60.272L59.5223 61.664C59.3089 61.6107 59.0796 61.584 58.8343 61.584C58.4716 61.584 58.1569 61.6533 57.8903 61.792C57.6236 61.92 57.3996 62.096 57.2183 62.32C57.0476 62.544 56.9196 62.8053 56.8343 63.104C56.7489 63.392 56.7063 63.696 56.7063 64.016V68H55.2023V62.048ZM64.9991 62.048C64.9991 61.8453 64.9938 61.584 64.9831 61.264C64.9725 60.944 64.9565 60.6613 64.9351 60.416H66.3591C66.3805 60.608 66.3965 60.832 66.4071 61.088C66.4178 61.3333 66.4231 61.536 66.4231 61.696H66.4711C66.6845 61.248 66.9938 60.8907 67.3991 60.624C67.8151 60.3467 68.2791 60.208 68.7911 60.208C69.0258 60.208 69.2231 60.2293 69.3831 60.272L69.3191 61.664C69.1058 61.6107 68.8765 61.584 68.6311 61.584C68.2685 61.584 67.9538 61.6533 67.6871 61.792C67.4205 61.92 67.1965 62.096 67.0151 62.32C66.8445 62.544 66.7165 62.8053 66.6311 63.104C66.5458 63.392 66.5031 63.696 66.5031 64.016V68H64.9991V62.048ZM76.0668 63.536C76.0561 63.2373 76.0028 62.96 75.9068 62.704C75.8214 62.4373 75.6881 62.208 75.5068 62.016C75.3361 61.824 75.1174 61.6747 74.8508 61.568C74.5948 61.4507 74.2908 61.392 73.9388 61.392C73.6188 61.392 73.3148 61.4507 73.0268 61.568C72.7494 61.6747 72.5041 61.824 72.2908 62.016C72.0881 62.208 71.9174 62.4373 71.7788 62.704C71.6508 62.96 71.5761 63.2373 71.5548 63.536H76.0668ZM77.5868 64.144C77.5868 64.2293 77.5868 64.3147 77.5868 64.4C77.5868 64.4853 77.5814 64.5707 77.5708 64.656H71.5548C71.5654 64.976 71.6348 65.28 71.7628 65.568C71.9014 65.8453 72.0828 66.0907 72.3068 66.304C72.5308 66.5067 72.7868 66.6667 73.0748 66.784C73.3734 66.9013 73.6881 66.96 74.0188 66.96C74.5308 66.96 74.9734 66.848 75.3468 66.624C75.7201 66.4 76.0134 66.128 76.2268 65.808L77.2828 66.656C76.8774 67.1893 76.3974 67.584 75.8428 67.84C75.2988 68.0853 74.6908 68.208 74.0188 68.208C73.4428 68.208 72.9094 68.112 72.4188 67.92C71.9281 67.728 71.5068 67.4613 71.1548 67.12C70.8028 66.768 70.5254 66.3467 70.3228 65.856C70.1201 65.3653 70.0188 64.8213 70.0188 64.224C70.0188 63.6373 70.1148 63.0987 70.3068 62.608C70.5094 62.1067 70.7868 61.68 71.1388 61.328C71.4908 60.976 71.9068 60.704 72.3868 60.512C72.8668 60.3093 73.3841 60.208 73.9388 60.208C74.4934 60.208 74.9948 60.2987 75.4428 60.48C75.9014 60.6613 76.2854 60.9227 76.5948 61.264C76.9148 61.6053 77.1601 62.0213 77.3308 62.512C77.5014 62.992 77.5868 63.536 77.5868 64.144ZM83.3986 61.648H81.3826V65.6C81.3826 66.0587 81.468 66.3893 81.6386 66.592C81.8093 66.784 82.0813 66.88 82.4546 66.88C82.5933 66.88 82.7426 66.864 82.9026 66.832C83.0626 66.8 83.2066 66.752 83.3346 66.688L83.3826 67.92C83.2013 67.984 82.9986 68.032 82.7746 68.064C82.5613 68.1067 82.3373 68.128 82.1026 68.128C81.388 68.128 80.8386 67.9307 80.4546 67.536C80.0813 67.1413 79.8946 66.5493 79.8946 65.76V61.648H78.4386V60.416H79.8946V58.24H81.3826V60.416H83.3986V61.648ZM90.2963 68C90.2749 67.808 90.2589 67.5947 90.2483 67.36C90.2376 67.1147 90.2323 66.912 90.2323 66.752H90.2003C90.0083 67.1573 89.6829 67.504 89.2243 67.792C88.7763 68.0693 88.2749 68.208 87.7203 68.208C87.2296 68.208 86.8029 68.128 86.4403 67.968C86.0883 67.808 85.7949 67.5893 85.5603 67.312C85.3363 67.024 85.1656 66.6933 85.0483 66.32C84.9416 65.9467 84.8883 65.5467 84.8883 65.12V60.416H86.3923V64.608C86.3923 64.9173 86.4136 65.216 86.4563 65.504C86.5096 65.7813 86.6003 66.0267 86.7283 66.24C86.8563 66.4533 87.0323 66.624 87.2563 66.752C87.4803 66.88 87.7683 66.944 88.1203 66.944C88.7283 66.944 89.2189 66.72 89.5923 66.272C89.9656 65.8133 90.1523 65.2053 90.1523 64.448V60.416H91.6562V66.368C91.6562 66.5707 91.6616 66.832 91.6723 67.152C91.6829 67.472 91.6989 67.7547 91.7203 68H90.2963ZM94.2648 62.048C94.2648 61.8453 94.2594 61.584 94.2488 61.264C94.2381 60.944 94.2221 60.6613 94.2008 60.416H95.6248C95.6461 60.608 95.6621 60.832 95.6728 61.088C95.6834 61.3333 95.6888 61.536 95.6888 61.696H95.7368C95.9501 61.248 96.2594 60.8907 96.6648 60.624C97.0808 60.3467 97.5448 60.208 98.0568 60.208C98.2914 60.208 98.4888 60.2293 98.6488 60.272L98.5848 61.664C98.3714 61.6107 98.1421 61.584 97.8968 61.584C97.5341 61.584 97.2194 61.6533 96.9528 61.792C96.6861 61.92 96.4621 62.096 96.2808 62.32C96.1101 62.544 95.9821 62.8053 95.8968 63.104C95.8114 63.392 95.7688 63.696 95.7688 64.016V68H94.2648V62.048ZM101.422 60.416C101.443 60.608 101.459 60.8267 101.47 61.072C101.48 61.3067 101.486 61.504 101.486 61.664H101.534C101.63 61.4613 101.758 61.2747 101.918 61.104C102.088 60.9227 102.28 60.768 102.494 60.64C102.707 60.5013 102.942 60.3947 103.198 60.32C103.454 60.2453 103.72 60.208 103.998 60.208C104.488 60.208 104.91 60.2933 105.262 60.464C105.614 60.624 105.907 60.8427 106.142 61.12C106.376 61.3973 106.547 61.7227 106.654 62.096C106.771 62.4693 106.83 62.8693 106.83 63.296V68H105.326V63.792C105.326 63.4827 105.299 63.1893 105.246 62.912C105.203 62.6347 105.118 62.3893 104.99 62.176C104.862 61.9627 104.686 61.792 104.462 61.664C104.238 61.536 103.95 61.472 103.598 61.472C103 61.472 102.51 61.7013 102.126 62.16C101.752 62.608 101.566 63.2107 101.566 63.968V68H100.062V62.048C100.062 61.8453 100.056 61.584 100.046 61.264C100.035 60.944 100.019 60.6613 99.9976 60.416H101.422ZM5.8 97.84H4.296V86.416H5.768V87.6H5.816C6.06133 87.1947 6.41867 86.864 6.888 86.608C7.368 86.3413 7.92267 86.208 8.552 86.208C9.11733 86.208 9.62933 86.3093 10.088 86.512C10.5573 86.7147 10.9573 86.9973 11.288 87.36C11.6293 87.7227 11.8907 88.1493 12.072 88.64C12.2533 89.12 12.344 89.6373 12.344 90.192C12.344 90.7467 12.2533 91.2693 12.072 91.76C11.8907 92.2507 11.6347 92.6773 11.304 93.04C10.9733 93.4027 10.5733 93.6907 10.104 93.904C9.63467 94.1067 9.10667 94.208 8.52 94.208C7.976 94.208 7.464 94.0907 6.984 93.856C6.504 93.6213 6.12533 93.2907 5.848 92.864H5.8V97.84ZM10.792 90.192C10.792 89.84 10.7387 89.4987 10.632 89.168C10.5253 88.8373 10.3653 88.544 10.152 88.288C9.93867 88.032 9.672 87.8293 9.352 87.68C9.04267 87.5307 8.68 87.456 8.264 87.456C7.88 87.456 7.528 87.5307 7.208 87.68C6.89867 87.8293 6.632 88.032 6.408 88.288C6.184 88.544 6.008 88.8373 5.88 89.168C5.76267 89.4987 5.704 89.8453 5.704 90.208C5.704 90.5707 5.76267 90.9173 5.88 91.248C6.008 91.5787 6.184 91.872 6.408 92.128C6.632 92.3733 6.89867 92.5707 7.208 92.72C7.528 92.8693 7.88 92.944 8.264 92.944C8.68 92.944 9.04267 92.8693 9.352 92.72C9.672 92.56 9.93867 92.352 10.152 92.096C10.3653 91.84 10.5253 91.5467 10.632 91.216C10.7387 90.8853 10.792 90.544 10.792 90.192ZM14.4366 88.048C14.4366 87.8453 14.4313 87.584 14.4206 87.264C14.41 86.944 14.394 86.6613 14.3726 86.416H15.7966C15.818 86.608 15.834 86.832 15.8446 87.088C15.8553 87.3333 15.8606 87.536 15.8606 87.696H15.9086C16.122 87.248 16.4313 86.8907 16.8366 86.624C17.2526 86.3467 17.7166 86.208 18.2286 86.208C18.4633 86.208 18.6606 86.2293 18.8206 86.272L18.7566 87.664C18.5433 87.6107 18.314 87.584 18.0686 87.584C17.706 87.584 17.3913 87.6533 17.1246 87.792C16.858 87.92 16.634 88.096 16.4526 88.32C16.282 88.544 16.154 88.8053 16.0686 89.104C15.9833 89.392 15.9406 89.696 15.9406 90.016V94H14.4366V88.048ZM27.6323 90.192C27.6323 90.7787 27.5256 91.3173 27.3123 91.808C27.1096 92.2987 26.8216 92.7253 26.4483 93.088C26.0856 93.44 25.6536 93.7173 25.1523 93.92C24.6509 94.112 24.1123 94.208 23.5363 94.208C22.9603 94.208 22.4216 94.112 21.9203 93.92C21.4189 93.7173 20.9869 93.44 20.6243 93.088C20.2616 92.7253 19.9736 92.2987 19.7603 91.808C19.5576 91.3173 19.4563 90.7787 19.4563 90.192C19.4563 89.6053 19.5576 89.072 19.7603 88.592C19.9736 88.1013 20.2616 87.68 20.6243 87.328C20.9869 86.976 21.4189 86.704 21.9203 86.512C22.4216 86.3093 22.9603 86.208 23.5363 86.208C24.1123 86.208 24.6509 86.3093 25.1523 86.512C25.6536 86.704 26.0856 86.976 26.4483 87.328C26.8216 87.68 27.1096 88.1013 27.3123 88.592C27.5256 89.072 27.6323 89.6053 27.6323 90.192ZM26.0643 90.192C26.0643 89.8293 26.0056 89.4827 25.8883 89.152C25.7816 88.8213 25.6216 88.5333 25.4083 88.288C25.1949 88.032 24.9283 87.8293 24.6083 87.68C24.2989 87.5307 23.9416 87.456 23.5363 87.456C23.1309 87.456 22.7683 87.5307 22.4483 87.68C22.1389 87.8293 21.8776 88.032 21.6643 88.288C21.4509 88.5333 21.2856 88.8213 21.1683 89.152C21.0616 89.4827 21.0082 89.8293 21.0082 90.192C21.0082 90.5547 21.0616 90.9013 21.1683 91.232C21.2856 91.5627 21.4509 91.856 21.6643 92.112C21.8776 92.368 22.1389 92.5707 22.4483 92.72C22.7683 92.8693 23.1309 92.944 23.5363 92.944C23.9416 92.944 24.2989 92.8693 24.6083 92.72C24.9283 92.5707 25.1949 92.368 25.4083 92.112C25.6216 91.856 25.7816 91.5627 25.8883 91.232C26.0056 90.9013 26.0643 90.5547 26.0643 90.192ZM35.0299 88.336C34.8699 88.0907 34.6299 87.888 34.3099 87.728C33.9899 87.5573 33.6485 87.472 33.2859 87.472C32.8912 87.472 32.5392 87.5467 32.2299 87.696C31.9312 87.8453 31.6752 88.048 31.4619 88.304C31.2485 88.5493 31.0832 88.8373 30.9659 89.168C30.8592 89.4987 30.8059 89.8453 30.8059 90.208C30.8059 90.5707 30.8592 90.9173 30.9659 91.248C31.0832 91.5787 31.2485 91.872 31.4619 92.128C31.6752 92.3733 31.9365 92.5707 32.2459 92.72C32.5552 92.8693 32.9072 92.944 33.3019 92.944C33.6859 92.944 34.0325 92.8693 34.3419 92.72C34.6619 92.5707 34.9232 92.368 35.1259 92.112L36.1339 93.024C35.8139 93.3973 35.4139 93.6907 34.9339 93.904C34.4539 94.1067 33.9099 94.208 33.3019 94.208C32.7152 94.208 32.1712 94.112 31.6699 93.92C31.1792 93.728 30.7525 93.4613 30.3899 93.12C30.0272 92.768 29.7392 92.3467 29.5259 91.856C29.3232 91.3653 29.2219 90.816 29.2219 90.208C29.2219 89.6107 29.3232 89.0667 29.5259 88.576C29.7285 88.0853 30.0112 87.664 30.3739 87.312C30.7365 86.96 31.1632 86.688 31.6539 86.496C32.1552 86.304 32.6939 86.208 33.2699 86.208C33.8032 86.208 34.3312 86.3147 34.8539 86.528C35.3872 86.7413 35.8085 87.0507 36.1179 87.456L35.0299 88.336ZM43.1761 89.536C43.1655 89.2373 43.1121 88.96 43.0161 88.704C42.9308 88.4373 42.7975 88.208 42.6161 88.016C42.4455 87.824 42.2268 87.6747 41.9601 87.568C41.7041 87.4507 41.4001 87.392 41.0481 87.392C40.7281 87.392 40.4241 87.4507 40.1361 87.568C39.8588 87.6747 39.6135 87.824 39.4001 88.016C39.1975 88.208 39.0268 88.4373 38.8881 88.704C38.7601 88.96 38.6855 89.2373 38.6641 89.536H43.1761ZM44.6961 90.144C44.6961 90.2293 44.6961 90.3147 44.6961 90.4C44.6961 90.4853 44.6908 90.5707 44.6801 90.656H38.6641C38.6748 90.976 38.7441 91.28 38.8721 91.568C39.0108 91.8453 39.1921 92.0907 39.4161 92.304C39.6401 92.5067 39.8961 92.6667 40.1841 92.784C40.4828 92.9013 40.7975 92.96 41.1281 92.96C41.6401 92.96 42.0828 92.848 42.4561 92.624C42.8295 92.4 43.1228 92.128 43.3361 91.808L44.3921 92.656C43.9868 93.1893 43.5068 93.584 42.9521 93.84C42.4081 94.0853 41.8001 94.208 41.1281 94.208C40.5521 94.208 40.0188 94.112 39.5281 93.92C39.0375 93.728 38.6161 93.4613 38.2641 93.12C37.9121 92.768 37.6348 92.3467 37.4321 91.856C37.2295 91.3653 37.1281 90.8213 37.1281 90.224C37.1281 89.6373 37.2241 89.0987 37.4161 88.608C37.6188 88.1067 37.8961 87.68 38.2481 87.328C38.6001 86.976 39.0161 86.704 39.4961 86.512C39.9761 86.3093 40.4935 86.208 41.0481 86.208C41.6028 86.208 42.1041 86.2987 42.5521 86.48C43.0108 86.6613 43.3948 86.9227 43.7041 87.264C44.0241 87.6053 44.2695 88.0213 44.4401 88.512C44.6108 88.992 44.6961 89.536 44.6961 90.144ZM50.892 88.336C50.7213 88.0587 50.4813 87.8347 50.172 87.664C49.8627 87.4827 49.516 87.392 49.132 87.392C48.9613 87.392 48.7907 87.4133 48.62 87.456C48.4493 87.488 48.2947 87.5467 48.156 87.632C48.028 87.7067 47.9213 87.808 47.836 87.936C47.7613 88.0533 47.724 88.2027 47.724 88.384C47.724 88.704 47.868 88.944 48.156 89.104C48.444 89.2533 48.876 89.392 49.452 89.52C49.8147 89.6053 50.1507 89.7067 50.46 89.824C50.7693 89.9413 51.036 90.0907 51.26 90.272C51.4947 90.4427 51.676 90.6507 51.804 90.896C51.932 91.1413 51.996 91.4293 51.996 91.76C51.996 92.208 51.9107 92.5867 51.74 92.896C51.5693 93.2053 51.34 93.4613 51.052 93.664C50.7747 93.856 50.4547 93.9947 50.092 94.08C49.7293 94.1653 49.356 94.208 48.972 94.208C48.396 94.208 47.8307 94.096 47.276 93.872C46.732 93.648 46.2787 93.3067 45.916 92.848L46.988 91.936C47.1907 92.2347 47.468 92.4853 47.82 92.688C48.1827 92.8907 48.5773 92.992 49.004 92.992C49.196 92.992 49.3773 92.976 49.548 92.944C49.7293 92.9013 49.8893 92.8373 50.028 92.752C50.1773 92.6667 50.2947 92.5547 50.38 92.416C50.4653 92.2773 50.508 92.1013 50.508 91.888C50.508 91.536 50.3373 91.2747 49.996 91.104C49.6653 90.9333 49.1747 90.7733 48.524 90.624C48.268 90.56 48.0067 90.4853 47.74 90.4C47.484 90.304 47.2493 90.176 47.036 90.016C46.8227 89.856 46.6467 89.6587 46.508 89.424C46.38 89.1787 46.316 88.88 46.316 88.528C46.316 88.1227 46.396 87.776 46.556 87.488C46.7267 87.1893 46.9453 86.9493 47.212 86.768C47.4787 86.576 47.7827 86.4373 48.124 86.352C48.4653 86.256 48.8173 86.208 49.18 86.208C49.724 86.208 50.2467 86.3147 50.748 86.528C51.26 86.7413 51.6547 87.0507 51.932 87.456L50.892 88.336ZM58.0014 88.336C57.8307 88.0587 57.5907 87.8347 57.2814 87.664C56.972 87.4827 56.6254 87.392 56.2414 87.392C56.0707 87.392 55.9 87.4133 55.7294 87.456C55.5587 87.488 55.404 87.5467 55.2654 87.632C55.1374 87.7067 55.0307 87.808 54.9454 87.936C54.8707 88.0533 54.8334 88.2027 54.8334 88.384C54.8334 88.704 54.9774 88.944 55.2654 89.104C55.5534 89.2533 55.9854 89.392 56.5614 89.52C56.924 89.6053 57.26 89.7067 57.5694 89.824C57.8787 89.9413 58.1454 90.0907 58.3694 90.272C58.604 90.4427 58.7854 90.6507 58.9134 90.896C59.0414 91.1413 59.1054 91.4293 59.1054 91.76C59.1054 92.208 59.02 92.5867 58.8494 92.896C58.6787 93.2053 58.4494 93.4613 58.1614 93.664C57.884 93.856 57.564 93.9947 57.2014 94.08C56.8387 94.1653 56.4654 94.208 56.0814 94.208C55.5054 94.208 54.94 94.096 54.3854 93.872C53.8414 93.648 53.388 93.3067 53.0254 92.848L54.0974 91.936C54.3 92.2347 54.5774 92.4853 54.9294 92.688C55.292 92.8907 55.6867 92.992 56.1134 92.992C56.3054 92.992 56.4867 92.976 56.6574 92.944C56.8387 92.9013 56.9987 92.8373 57.1374 92.752C57.2867 92.6667 57.404 92.5547 57.4894 92.416C57.5747 92.2773 57.6174 92.1013 57.6174 91.888C57.6174 91.536 57.4467 91.2747 57.1054 91.104C56.7747 90.9333 56.284 90.7733 55.6334 90.624C55.3774 90.56 55.116 90.4853 54.8494 90.4C54.5934 90.304 54.3587 90.176 54.1454 90.016C53.932 89.856 53.756 89.6587 53.6174 89.424C53.4894 89.1787 53.4254 88.88 53.4254 88.528C53.4254 88.1227 53.5054 87.776 53.6654 87.488C53.836 87.1893 54.0547 86.9493 54.3214 86.768C54.588 86.576 54.892 86.4373 55.2334 86.352C55.5747 86.256 55.9267 86.208 56.2894 86.208C56.8334 86.208 57.356 86.3147 57.8574 86.528C58.3694 86.7413 58.764 87.0507 59.0414 87.456L58.0014 88.336Z" fill="black"/>
<path d="M185.96 68H184.376V56.672H185.96V68ZM190 60.416C190.021 60.608 190.037 60.8267 190.048 61.072C190.058 61.3067 190.064 61.504 190.064 61.664H190.112C190.208 61.4613 190.336 61.2747 190.496 61.104C190.666 60.9227 190.858 60.768 191.072 60.64C191.285 60.5013 191.52 60.3947 191.776 60.32C192.032 60.2453 192.298 60.208 192.576 60.208C193.066 60.208 193.488 60.2933 193.84 60.464C194.192 60.624 194.485 60.8427 194.72 61.12C194.954 61.3973 195.125 61.7227 195.232 62.096C195.349 62.4693 195.408 62.8693 195.408 63.296V68H193.904V63.792C193.904 63.4827 193.877 63.1893 193.824 62.912C193.781 62.6347 193.696 62.3893 193.568 62.176C193.44 61.9627 193.264 61.792 193.04 61.664C192.816 61.536 192.528 61.472 192.176 61.472C191.578 61.472 191.088 61.7013 190.704 62.16C190.33 62.608 190.144 63.2107 190.144 63.968V68H188.64V62.048C188.64 61.8453 188.634 61.584 188.624 61.264C188.613 60.944 188.597 60.6613 188.576 60.416H190ZM201.52 68H199.888L196.8 60.416H198.464L200.688 66.384H200.72L202.96 60.416H204.56L201.52 68ZM213.695 64.192C213.695 64.7787 213.588 65.3173 213.375 65.808C213.172 66.2987 212.884 66.7253 212.511 67.088C212.148 67.44 211.716 67.7173 211.215 67.92C210.713 68.112 210.175 68.208 209.599 68.208C209.023 68.208 208.484 68.112 207.983 67.92C207.481 67.7173 207.049 67.44 206.687 67.088C206.324 66.7253 206.036 66.2987 205.823 65.808C205.62 65.3173 205.519 64.7787 205.519 64.192C205.519 63.6053 205.62 63.072 205.823 62.592C206.036 62.1013 206.324 61.68 206.687 61.328C207.049 60.976 207.481 60.704 207.983 60.512C208.484 60.3093 209.023 60.208 209.599 60.208C210.175 60.208 210.713 60.3093 211.215 60.512C211.716 60.704 212.148 60.976 212.511 61.328C212.884 61.68 213.172 62.1013 213.375 62.592C213.588 63.072 213.695 63.6053 213.695 64.192ZM212.127 64.192C212.127 63.8293 212.068 63.4827 211.951 63.152C211.844 62.8213 211.684 62.5333 211.471 62.288C211.257 62.032 210.991 61.8293 210.671 61.68C210.361 61.5307 210.004 61.456 209.599 61.456C209.193 61.456 208.831 61.5307 208.511 61.68C208.201 61.8293 207.94 62.032 207.727 62.288C207.513 62.5333 207.348 62.8213 207.231 63.152C207.124 63.4827 207.071 63.8293 207.071 64.192C207.071 64.5547 207.124 64.9013 207.231 65.232C207.348 65.5627 207.513 65.856 207.727 66.112C207.94 66.368 208.201 66.5707 208.511 66.72C208.831 66.8693 209.193 66.944 209.599 66.944C210.004 66.944 210.361 66.8693 210.671 66.72C210.991 66.5707 211.257 66.368 211.471 66.112C211.684 65.856 211.844 65.5627 211.951 65.232C212.068 64.9013 212.127 64.5547 212.127 64.192ZM217.316 68H215.812V55.904H217.316V68ZM223.505 68H221.873L218.785 60.416H220.449L222.673 66.384H222.705L224.945 60.416H226.545L223.505 68ZM233.551 63.536C233.54 63.2373 233.487 62.96 233.391 62.704C233.306 62.4373 233.172 62.208 232.991 62.016C232.82 61.824 232.602 61.6747 232.335 61.568C232.079 61.4507 231.775 61.392 231.423 61.392C231.103 61.392 230.799 61.4507 230.511 61.568C230.234 61.6747 229.988 61.824 229.775 62.016C229.572 62.208 229.402 62.4373 229.263 62.704C229.135 62.96 229.06 63.2373 229.039 63.536H233.551ZM235.071 64.144C235.071 64.2293 235.071 64.3147 235.071 64.4C235.071 64.4853 235.066 64.5707 235.055 64.656H229.039C229.05 64.976 229.119 65.28 229.247 65.568C229.386 65.8453 229.567 66.0907 229.791 66.304C230.015 66.5067 230.271 66.6667 230.559 66.784C230.858 66.9013 231.172 66.96 231.503 66.96C232.015 66.96 232.458 66.848 232.831 66.624C233.204 66.4 233.498 66.128 233.711 65.808L234.767 66.656C234.362 67.1893 233.882 67.584 233.327 67.84C232.783 68.0853 232.175 68.208 231.503 68.208C230.927 68.208 230.394 68.112 229.903 67.92C229.412 67.728 228.991 67.4613 228.639 67.12C228.287 66.768 228.01 66.3467 227.807 65.856C227.604 65.3653 227.503 64.8213 227.503 64.224C227.503 63.6373 227.599 63.0987 227.791 62.608C227.994 62.1067 228.271 61.68 228.623 61.328C228.975 60.976 229.391 60.704 229.871 60.512C230.351 60.3093 230.868 60.208 231.423 60.208C231.978 60.208 232.479 60.2987 232.927 60.48C233.386 60.6613 233.77 60.9227 234.079 61.264C234.399 61.6053 234.644 62.0213 234.815 62.512C234.986 62.992 235.071 63.536 235.071 64.144ZM248.851 64.192C248.851 64.7787 248.744 65.3173 248.531 65.808C248.328 66.2987 248.04 66.7253 247.667 67.088C247.304 67.44 246.872 67.7173 246.371 67.92C245.87 68.112 245.331 68.208 244.755 68.208C244.179 68.208 243.64 68.112 243.139 67.92C242.638 67.7173 242.206 67.44 241.843 67.088C241.48 66.7253 241.192 66.2987 240.979 65.808C240.776 65.3173 240.675 64.7787 240.675 64.192C240.675 63.6053 240.776 63.072 240.979 62.592C241.192 62.1013 241.48 61.68 241.843 61.328C242.206 60.976 242.638 60.704 243.139 60.512C243.64 60.3093 244.179 60.208 244.755 60.208C245.331 60.208 245.87 60.3093 246.371 60.512C246.872 60.704 247.304 60.976 247.667 61.328C248.04 61.68 248.328 62.1013 248.531 62.592C248.744 63.072 248.851 63.6053 248.851 64.192ZM247.283 64.192C247.283 63.8293 247.224 63.4827 247.107 63.152C247 62.8213 246.84 62.5333 246.627 62.288C246.414 62.032 246.147 61.8293 245.827 61.68C245.518 61.5307 245.16 61.456 244.755 61.456C244.35 61.456 243.987 61.5307 243.667 61.68C243.358 61.8293 243.096 62.032 242.883 62.288C242.67 62.5333 242.504 62.8213 242.387 63.152C242.28 63.4827 242.227 63.8293 242.227 64.192C242.227 64.5547 242.28 64.9013 242.387 65.232C242.504 65.5627 242.67 65.856 242.883 66.112C243.096 66.368 243.358 66.5707 243.667 66.72C243.987 66.8693 244.35 66.944 244.755 66.944C245.16 66.944 245.518 66.8693 245.827 66.72C246.147 66.5707 246.414 66.368 246.627 66.112C246.84 65.856 247 65.5627 247.107 65.232C247.224 64.9013 247.283 64.5547 247.283 64.192ZM254.649 61.648H252.633V65.6C252.633 66.0587 252.718 66.3893 252.889 66.592C253.059 66.784 253.331 66.88 253.705 66.88C253.843 66.88 253.993 66.864 254.153 66.832C254.313 66.8 254.457 66.752 254.585 66.688L254.633 67.92C254.451 67.984 254.249 68.032 254.025 68.064C253.811 68.1067 253.587 68.128 253.353 68.128C252.638 68.128 252.089 67.9307 251.705 67.536C251.331 67.1413 251.145 66.5493 251.145 65.76V61.648H249.689V60.416H251.145V58.24H252.633V60.416H254.649V61.648ZM257.77 61.568C257.952 61.1947 258.261 60.8747 258.698 60.608C259.136 60.3413 259.626 60.208 260.17 60.208C260.661 60.208 261.082 60.2933 261.434 60.464C261.786 60.624 262.08 60.8427 262.314 61.12C262.549 61.3973 262.72 61.7227 262.826 62.096C262.944 62.4693 263.002 62.8693 263.002 63.296V68H261.498V63.808C261.498 63.4987 261.472 63.2053 261.418 62.928C261.376 62.6507 261.29 62.4053 261.162 62.192C261.034 61.9787 260.858 61.808 260.634 61.68C260.421 61.552 260.138 61.488 259.786 61.488C259.189 61.488 258.698 61.7173 258.314 62.176C257.93 62.624 257.738 63.2267 257.738 63.984V68H256.234V55.904H257.738V61.568H257.77ZM271.098 63.536C271.087 63.2373 271.034 62.96 270.938 62.704C270.853 62.4373 270.719 62.208 270.538 62.016C270.367 61.824 270.149 61.6747 269.882 61.568C269.626 61.4507 269.322 61.392 268.97 61.392C268.65 61.392 268.346 61.4507 268.058 61.568C267.781 61.6747 267.535 61.824 267.322 62.016C267.119 62.208 266.949 62.4373 266.81 62.704C266.682 62.96 266.607 63.2373 266.586 63.536H271.098ZM272.618 64.144C272.618 64.2293 272.618 64.3147 272.618 64.4C272.618 64.4853 272.613 64.5707 272.602 64.656H266.586C266.597 64.976 266.666 65.28 266.794 65.568C266.933 65.8453 267.114 66.0907 267.338 66.304C267.562 66.5067 267.818 66.6667 268.106 66.784C268.405 66.9013 268.719 66.96 269.05 66.96C269.562 66.96 270.005 66.848 270.378 66.624C270.751 66.4 271.045 66.128 271.258 65.808L272.314 66.656C271.909 67.1893 271.429 67.584 270.874 67.84C270.33 68.0853 269.722 68.208 269.05 68.208C268.474 68.208 267.941 68.112 267.45 67.92C266.959 67.728 266.538 67.4613 266.186 67.12C265.834 66.768 265.557 66.3467 265.354 65.856C265.151 65.3653 265.05 64.8213 265.05 64.224C265.05 63.6373 265.146 63.0987 265.338 62.608C265.541 62.1067 265.818 61.68 266.17 61.328C266.522 60.976 266.938 60.704 267.418 60.512C267.898 60.3093 268.415 60.208 268.97 60.208C269.525 60.208 270.026 60.2987 270.474 60.48C270.933 60.6613 271.317 60.9227 271.626 61.264C271.946 61.6053 272.191 62.0213 272.362 62.512C272.533 62.992 272.618 63.536 272.618 64.144ZM274.718 62.048C274.718 61.8453 274.713 61.584 274.702 61.264C274.691 60.944 274.675 60.6613 274.654 60.416H276.078C276.099 60.608 276.115 60.832 276.126 61.088C276.137 61.3333 276.142 61.536 276.142 61.696H276.19C276.403 61.248 276.713 60.8907 277.118 60.624C277.534 60.3467 277.998 60.208 278.51 60.208C278.745 60.208 278.942 60.2293 279.102 60.272L279.038 61.664C278.825 61.6107 278.595 61.584 278.35 61.584C277.987 61.584 277.673 61.6533 277.406 61.792C277.139 61.92 276.915 62.096 276.734 62.32C276.563 62.544 276.435 62.8053 276.35 63.104C276.265 63.392 276.222 63.696 276.222 64.016V68H274.718V62.048ZM284.611 62.336C284.44 62.0587 284.2 61.8347 283.891 61.664C283.581 61.4827 283.235 61.392 282.851 61.392C282.68 61.392 282.509 61.4133 282.339 61.456C282.168 61.488 282.013 61.5467 281.875 61.632C281.747 61.7067 281.64 61.808 281.555 61.936C281.48 62.0533 281.443 62.2027 281.443 62.384C281.443 62.704 281.587 62.944 281.875 63.104C282.163 63.2533 282.595 63.392 283.171 63.52C283.533 63.6053 283.869 63.7067 284.179 63.824C284.488 63.9413 284.755 64.0907 284.979 64.272C285.213 64.4427 285.395 64.6507 285.523 64.896C285.651 65.1413 285.715 65.4293 285.715 65.76C285.715 66.208 285.629 66.5867 285.459 66.896C285.288 67.2053 285.059 67.4613 284.771 67.664C284.493 67.856 284.173 67.9947 283.811 68.08C283.448 68.1653 283.075 68.208 282.691 68.208C282.115 68.208 281.549 68.096 280.995 67.872C280.451 67.648 279.997 67.3067 279.635 66.848L280.707 65.936C280.909 66.2347 281.187 66.4853 281.539 66.688C281.901 66.8907 282.296 66.992 282.723 66.992C282.915 66.992 283.096 66.976 283.267 66.944C283.448 66.9013 283.608 66.8373 283.747 66.752C283.896 66.6667 284.013 66.5547 284.099 66.416C284.184 66.2773 284.227 66.1013 284.227 65.888C284.227 65.536 284.056 65.2747 283.715 65.104C283.384 64.9333 282.893 64.7733 282.243 64.624C281.987 64.56 281.725 64.4853 281.459 64.4C281.203 64.304 280.968 64.176 280.755 64.016C280.541 63.856 280.365 63.6587 280.227 63.424C280.099 63.1787 280.035 62.88 280.035 62.528C280.035 62.1227 280.115 61.776 280.275 61.488C280.445 61.1893 280.664 60.9493 280.931 60.768C281.197 60.576 281.501 60.4373 281.843 60.352C282.184 60.256 282.536 60.208 282.899 60.208C283.443 60.208 283.965 60.3147 284.467 60.528C284.979 60.7413 285.373 61.0507 285.651 61.456L284.611 62.336ZM293.144 68H291.64V60.416H293.144V68ZM293.4 57.68C293.4 57.9573 293.299 58.1867 293.096 58.368C292.904 58.5493 292.669 58.64 292.392 58.64C292.115 58.64 291.88 58.5493 291.688 58.368C291.496 58.176 291.4 57.9467 291.4 57.68C291.4 57.4027 291.496 57.1733 291.688 56.992C291.88 56.8 292.115 56.704 292.392 56.704C292.669 56.704 292.904 56.8 293.096 56.992C293.299 57.1733 293.4 57.4027 293.4 57.68ZM297.125 60.416C297.146 60.608 297.162 60.8267 297.173 61.072C297.183 61.3067 297.189 61.504 297.189 61.664H297.237C297.333 61.4613 297.461 61.2747 297.621 61.104C297.791 60.9227 297.983 60.768 298.197 60.64C298.41 60.5013 298.645 60.3947 298.901 60.32C299.157 60.2453 299.423 60.208 299.701 60.208C300.191 60.208 300.613 60.2933 300.965 60.464C301.317 60.624 301.61 60.8427 301.845 61.12C302.079 61.3973 302.25 61.7227 302.357 62.096C302.474 62.4693 302.533 62.8693 302.533 63.296V68H301.029V63.792C301.029 63.4827 301.002 63.1893 300.949 62.912C300.906 62.6347 300.821 62.3893 300.693 62.176C300.565 61.9627 300.389 61.792 300.165 61.664C299.941 61.536 299.653 61.472 299.301 61.472C298.703 61.472 298.213 61.7013 297.829 62.16C297.455 62.608 297.269 63.2107 297.269 63.968V68H295.765V62.048C295.765 61.8453 295.759 61.584 295.749 61.264C295.738 60.944 295.722 60.6613 295.701 60.416H297.125ZM188.008 87.648H185.992V91.6C185.992 92.0587 186.077 92.3893 186.248 92.592C186.419 92.784 186.691 92.88 187.064 92.88C187.203 92.88 187.352 92.864 187.512 92.832C187.672 92.8 187.816 92.752 187.944 92.688L187.992 93.92C187.811 93.984 187.608 94.032 187.384 94.064C187.171 94.1067 186.947 94.128 186.712 94.128C185.997 94.128 185.448 93.9307 185.064 93.536C184.691 93.1413 184.504 92.5493 184.504 91.76V87.648H183.048V86.416H184.504V84.24H185.992V86.416H188.008V87.648ZM191.13 87.568C191.311 87.1947 191.62 86.8747 192.058 86.608C192.495 86.3413 192.986 86.208 193.53 86.208C194.02 86.208 194.442 86.2933 194.794 86.464C195.146 86.624 195.439 86.8427 195.674 87.12C195.908 87.3973 196.079 87.7227 196.186 88.096C196.303 88.4693 196.362 88.8693 196.362 89.296V94H194.858V89.808C194.858 89.4987 194.831 89.2053 194.778 88.928C194.735 88.6507 194.65 88.4053 194.522 88.192C194.394 87.9787 194.218 87.808 193.994 87.68C193.78 87.552 193.498 87.488 193.146 87.488C192.548 87.488 192.058 87.7173 191.674 88.176C191.29 88.624 191.098 89.2267 191.098 89.984V94H189.594V81.904H191.098V87.568H191.13ZM204.457 89.536C204.447 89.2373 204.393 88.96 204.297 88.704C204.212 88.4373 204.079 88.208 203.897 88.016C203.727 87.824 203.508 87.6747 203.241 87.568C202.985 87.4507 202.681 87.392 202.329 87.392C202.009 87.392 201.705 87.4507 201.417 87.568C201.14 87.6747 200.895 87.824 200.681 88.016C200.479 88.208 200.308 88.4373 200.169 88.704C200.041 88.96 199.967 89.2373 199.945 89.536H204.457ZM205.977 90.144C205.977 90.2293 205.977 90.3147 205.977 90.4C205.977 90.4853 205.972 90.5707 205.961 90.656H199.945C199.956 90.976 200.025 91.28 200.153 91.568C200.292 91.8453 200.473 92.0907 200.697 92.304C200.921 92.5067 201.177 92.6667 201.465 92.784C201.764 92.9013 202.079 92.96 202.409 92.96C202.921 92.96 203.364 92.848 203.737 92.624C204.111 92.4 204.404 92.128 204.617 91.808L205.673 92.656C205.268 93.1893 204.788 93.584 204.233 93.84C203.689 94.0853 203.081 94.208 202.409 94.208C201.833 94.208 201.3 94.112 200.809 93.92C200.319 93.728 199.897 93.4613 199.545 93.12C199.193 92.768 198.916 92.3467 198.713 91.856C198.511 91.3653 198.409 90.8213 198.409 90.224C198.409 89.6373 198.505 89.0987 198.697 88.608C198.9 88.1067 199.177 87.68 199.529 87.328C199.881 86.976 200.297 86.704 200.777 86.512C201.257 86.3093 201.775 86.208 202.329 86.208C202.884 86.208 203.385 86.2987 203.833 86.48C204.292 86.6613 204.676 86.9227 204.985 87.264C205.305 87.6053 205.551 88.0213 205.721 88.512C205.892 88.992 205.977 89.536 205.977 90.144ZM212.077 88.048C212.077 87.8453 212.072 87.584 212.061 87.264C212.051 86.944 212.035 86.6613 212.013 86.416H213.437C213.459 86.608 213.475 86.832 213.485 87.088C213.496 87.3333 213.501 87.536 213.501 87.696H213.549C213.763 87.248 214.072 86.8907 214.477 86.624C214.893 86.3467 215.357 86.208 215.869 86.208C216.104 86.208 216.301 86.2293 216.461 86.272L216.397 87.664C216.184 87.6107 215.955 87.584 215.709 87.584C215.347 87.584 215.032 87.6533 214.765 87.792C214.499 87.92 214.275 88.096 214.093 88.32C213.923 88.544 213.795 88.8053 213.709 89.104C213.624 89.392 213.581 89.696 213.581 90.016V94H212.077V88.048ZM223.145 89.536C223.134 89.2373 223.081 88.96 222.985 88.704C222.9 88.4373 222.766 88.208 222.585 88.016C222.414 87.824 222.196 87.6747 221.929 87.568C221.673 87.4507 221.369 87.392 221.017 87.392C220.697 87.392 220.393 87.4507 220.105 87.568C219.828 87.6747 219.582 87.824 219.369 88.016C219.166 88.208 218.996 88.4373 218.857 88.704C218.729 88.96 218.654 89.2373 218.633 89.536H223.145ZM224.665 90.144C224.665 90.2293 224.665 90.3147 224.665 90.4C224.665 90.4853 224.66 90.5707 224.649 90.656H218.633C218.644 90.976 218.713 91.28 218.841 91.568C218.98 91.8453 219.161 92.0907 219.385 92.304C219.609 92.5067 219.865 92.6667 220.153 92.784C220.452 92.9013 220.766 92.96 221.097 92.96C221.609 92.96 222.052 92.848 222.425 92.624C222.798 92.4 223.092 92.128 223.305 91.808L224.361 92.656C223.956 93.1893 223.476 93.584 222.921 93.84C222.377 94.0853 221.769 94.208 221.097 94.208C220.521 94.208 219.988 94.112 219.497 93.92C219.006 93.728 218.585 93.4613 218.233 93.12C217.881 92.768 217.604 92.3467 217.401 91.856C217.198 91.3653 217.097 90.8213 217.097 90.224C217.097 89.6373 217.193 89.0987 217.385 88.608C217.588 88.1067 217.865 87.68 218.217 87.328C218.569 86.976 218.985 86.704 219.465 86.512C219.945 86.3093 220.462 86.208 221.017 86.208C221.572 86.208 222.073 86.2987 222.521 86.48C222.98 86.6613 223.364 86.9227 223.673 87.264C223.993 87.6053 224.238 88.0213 224.409 88.512C224.58 88.992 224.665 89.536 224.665 90.144ZM230.477 87.648H228.461V91.6C228.461 92.0587 228.546 92.3893 228.717 92.592C228.887 92.784 229.159 92.88 229.533 92.88C229.671 92.88 229.821 92.864 229.981 92.832C230.141 92.8 230.285 92.752 230.413 92.688L230.461 93.92C230.279 93.984 230.077 94.032 229.853 94.064C229.639 94.1067 229.415 94.128 229.181 94.128C228.466 94.128 227.917 93.9307 227.533 93.536C227.159 93.1413 226.973 92.5493 226.973 91.76V87.648H225.517V86.416H226.973V84.24H228.461V86.416H230.477V87.648ZM237.374 94C237.353 93.808 237.337 93.5947 237.326 93.36C237.316 93.1147 237.31 92.912 237.31 92.752H237.278C237.086 93.1573 236.761 93.504 236.302 93.792C235.854 94.0693 235.353 94.208 234.798 94.208C234.308 94.208 233.881 94.128 233.518 93.968C233.166 93.808 232.873 93.5893 232.638 93.312C232.414 93.024 232.244 92.6933 232.126 92.32C232.02 91.9467 231.966 91.5467 231.966 91.12V86.416H233.47V90.608C233.47 90.9173 233.492 91.216 233.534 91.504C233.588 91.7813 233.678 92.0267 233.806 92.24C233.934 92.4533 234.11 92.624 234.334 92.752C234.558 92.88 234.846 92.944 235.198 92.944C235.806 92.944 236.297 92.72 236.67 92.272C237.044 91.8133 237.23 91.2053 237.23 90.448V86.416H238.734V92.368C238.734 92.5707 238.74 92.832 238.75 93.152C238.761 93.472 238.777 93.7547 238.798 94H237.374ZM241.343 88.048C241.343 87.8453 241.338 87.584 241.327 87.264C241.316 86.944 241.3 86.6613 241.279 86.416H242.703C242.724 86.608 242.74 86.832 242.751 87.088C242.762 87.3333 242.767 87.536 242.767 87.696H242.815C243.028 87.248 243.338 86.8907 243.743 86.624C244.159 86.3467 244.623 86.208 245.135 86.208C245.37 86.208 245.567 86.2293 245.727 86.272L245.663 87.664C245.45 87.6107 245.22 87.584 244.975 87.584C244.612 87.584 244.298 87.6533 244.031 87.792C243.764 87.92 243.54 88.096 243.359 88.32C243.188 88.544 243.06 88.8053 242.975 89.104C242.89 89.392 242.847 89.696 242.847 90.016V94H241.343V88.048ZM248.5 86.416C248.521 86.608 248.537 86.8267 248.548 87.072C248.558 87.3067 248.564 87.504 248.564 87.664H248.612C248.708 87.4613 248.836 87.2747 248.996 87.104C249.166 86.9227 249.358 86.768 249.572 86.64C249.785 86.5013 250.02 86.3947 250.276 86.32C250.532 86.2453 250.798 86.208 251.076 86.208C251.566 86.208 251.988 86.2933 252.34 86.464C252.692 86.624 252.985 86.8427 253.22 87.12C253.454 87.3973 253.625 87.7227 253.732 88.096C253.849 88.4693 253.908 88.8693 253.908 89.296V94H252.404V89.792C252.404 89.4827 252.377 89.1893 252.324 88.912C252.281 88.6347 252.196 88.3893 252.068 88.176C251.94 87.9627 251.764 87.792 251.54 87.664C251.316 87.536 251.028 87.472 250.676 87.472C250.078 87.472 249.588 87.7013 249.204 88.16C248.83 88.608 248.644 89.2107 248.644 89.968V94H247.14V88.048C247.14 87.8453 247.134 87.584 247.124 87.264C247.113 86.944 247.097 86.6613 247.076 86.416H248.5ZM261.956 97.84H260.452V86.416H261.924V87.6H261.972C262.218 87.1947 262.575 86.864 263.044 86.608C263.524 86.3413 264.079 86.208 264.708 86.208C265.274 86.208 265.786 86.3093 266.244 86.512C266.714 86.7147 267.114 86.9973 267.444 87.36C267.786 87.7227 268.047 88.1493 268.228 88.64C268.41 89.12 268.5 89.6373 268.5 90.192C268.5 90.7467 268.41 91.2693 268.228 91.76C268.047 92.2507 267.791 92.6773 267.46 93.04C267.13 93.4027 266.73 93.6907 266.26 93.904C265.791 94.1067 265.263 94.208 264.676 94.208C264.132 94.208 263.62 94.0907 263.14 93.856C262.66 93.6213 262.282 93.2907 262.004 92.864H261.956V97.84ZM266.948 90.192C266.948 89.84 266.895 89.4987 266.788 89.168C266.682 88.8373 266.522 88.544 266.308 88.288C266.095 88.032 265.828 87.8293 265.508 87.68C265.199 87.5307 264.836 87.456 264.42 87.456C264.036 87.456 263.684 87.5307 263.364 87.68C263.055 87.8293 262.788 88.032 262.564 88.288C262.34 88.544 262.164 88.8373 262.036 89.168C261.919 89.4987 261.86 89.8453 261.86 90.208C261.86 90.5707 261.919 90.9173 262.036 91.248C262.164 91.5787 262.34 91.872 262.564 92.128C262.788 92.3733 263.055 92.5707 263.364 92.72C263.684 92.8693 264.036 92.944 264.42 92.944C264.836 92.944 265.199 92.8693 265.508 92.72C265.828 92.56 266.095 92.352 266.308 92.096C266.522 91.84 266.682 91.5467 266.788 91.216C266.895 90.8853 266.948 90.544 266.948 90.192ZM270.593 88.048C270.593 87.8453 270.588 87.584 270.577 87.264C270.566 86.944 270.55 86.6613 270.529 86.416H271.953C271.974 86.608 271.99 86.832 272.001 87.088C272.012 87.3333 272.017 87.536 272.017 87.696H272.065C272.278 87.248 272.588 86.8907 272.993 86.624C273.409 86.3467 273.873 86.208 274.385 86.208C274.62 86.208 274.817 86.2293 274.977 86.272L274.913 87.664C274.7 87.6107 274.47 87.584 274.225 87.584C273.862 87.584 273.548 87.6533 273.281 87.792C273.014 87.92 272.79 88.096 272.609 88.32C272.438 88.544 272.31 88.8053 272.225 89.104C272.14 89.392 272.097 89.696 272.097 90.016V94H270.593V88.048ZM283.789 90.192C283.789 90.7787 283.682 91.3173 283.469 91.808C283.266 92.2987 282.978 92.7253 282.605 93.088C282.242 93.44 281.81 93.7173 281.309 93.92C280.807 94.112 280.269 94.208 279.693 94.208C279.117 94.208 278.578 94.112 278.077 93.92C277.575 93.7173 277.143 93.44 276.781 93.088C276.418 92.7253 276.13 92.2987 275.917 91.808C275.714 91.3173 275.613 90.7787 275.613 90.192C275.613 89.6053 275.714 89.072 275.917 88.592C276.13 88.1013 276.418 87.68 276.781 87.328C277.143 86.976 277.575 86.704 278.077 86.512C278.578 86.3093 279.117 86.208 279.693 86.208C280.269 86.208 280.807 86.3093 281.309 86.512C281.81 86.704 282.242 86.976 282.605 87.328C282.978 87.68 283.266 88.1013 283.469 88.592C283.682 89.072 283.789 89.6053 283.789 90.192ZM282.221 90.192C282.221 89.8293 282.162 89.4827 282.045 89.152C281.938 88.8213 281.778 88.5333 281.565 88.288C281.351 88.032 281.085 87.8293 280.765 87.68C280.455 87.5307 280.098 87.456 279.693 87.456C279.287 87.456 278.925 87.5307 278.605 87.68C278.295 87.8293 278.034 88.032 277.821 88.288C277.607 88.5333 277.442 88.8213 277.325 89.152C277.218 89.4827 277.164 89.8293 277.164 90.192C277.164 90.5547 277.218 90.9013 277.325 91.232C277.442 91.5627 277.607 91.856 277.821 92.112C278.034 92.368 278.295 92.5707 278.605 92.72C278.925 92.8693 279.287 92.944 279.693 92.944C280.098 92.944 280.455 92.8693 280.765 92.72C281.085 92.5707 281.351 92.368 281.565 92.112C281.778 91.856 281.938 91.5627 282.045 91.232C282.162 90.9013 282.221 90.5547 282.221 90.192ZM291.186 88.336C291.026 88.0907 290.786 87.888 290.466 87.728C290.146 87.5573 289.805 87.472 289.442 87.472C289.047 87.472 288.695 87.5467 288.386 87.696C288.087 87.8453 287.831 88.048 287.618 88.304C287.405 88.5493 287.239 88.8373 287.122 89.168C287.015 89.4987 286.962 89.8453 286.962 90.208C286.962 90.5707 287.015 90.9173 287.122 91.248C287.239 91.5787 287.405 91.872 287.618 92.128C287.831 92.3733 288.093 92.5707 288.402 92.72C288.711 92.8693 289.063 92.944 289.458 92.944C289.842 92.944 290.189 92.8693 290.498 92.72C290.818 92.5707 291.079 92.368 291.282 92.112L292.29 93.024C291.97 93.3973 291.57 93.6907 291.09 93.904C290.61 94.1067 290.066 94.208 289.458 94.208C288.871 94.208 288.327 94.112 287.826 93.92C287.335 93.728 286.909 93.4613 286.546 93.12C286.183 92.768 285.895 92.3467 285.682 91.856C285.479 91.3653 285.378 90.816 285.378 90.208C285.378 89.6107 285.479 89.0667 285.682 88.576C285.885 88.0853 286.167 87.664 286.53 87.312C286.893 86.96 287.319 86.688 287.81 86.496C288.311 86.304 288.85 86.208 289.426 86.208C289.959 86.208 290.487 86.3147 291.01 86.528C291.543 86.7413 291.965 87.0507 292.274 87.456L291.186 88.336ZM299.332 89.536C299.322 89.2373 299.268 88.96 299.172 88.704C299.087 88.4373 298.954 88.208 298.772 88.016C298.602 87.824 298.383 87.6747 298.116 87.568C297.86 87.4507 297.556 87.392 297.204 87.392C296.884 87.392 296.58 87.4507 296.292 87.568C296.015 87.6747 295.77 87.824 295.556 88.016C295.354 88.208 295.183 88.4373 295.044 88.704C294.916 88.96 294.842 89.2373 294.82 89.536H299.332ZM300.852 90.144C300.852 90.2293 300.852 90.3147 300.852 90.4C300.852 90.4853 300.847 90.5707 300.836 90.656H294.82C294.831 90.976 294.9 91.28 295.028 91.568C295.167 91.8453 295.348 92.0907 295.572 92.304C295.796 92.5067 296.052 92.6667 296.34 92.784C296.639 92.9013 296.954 92.96 297.284 92.96C297.796 92.96 298.239 92.848 298.612 92.624C298.986 92.4 299.279 92.128 299.492 91.808L300.548 92.656C300.143 93.1893 299.663 93.584 299.108 93.84C298.564 94.0853 297.956 94.208 297.284 94.208C296.708 94.208 296.175 94.112 295.684 93.92C295.194 93.728 294.772 93.4613 294.42 93.12C294.068 92.768 293.791 92.3467 293.588 91.856C293.386 91.3653 293.284 90.8213 293.284 90.224C293.284 89.6373 293.38 89.0987 293.572 88.608C293.775 88.1067 294.052 87.68 294.404 87.328C294.756 86.976 295.172 86.704 295.652 86.512C296.132 86.3093 296.65 86.208 297.204 86.208C297.759 86.208 298.26 86.2987 298.708 86.48C299.167 86.6613 299.551 86.9227 299.86 87.264C300.18 87.6053 300.426 88.0213 300.596 88.512C300.767 88.992 300.852 89.536 300.852 90.144ZM307.048 88.336C306.878 88.0587 306.638 87.8347 306.328 87.664C306.019 87.4827 305.672 87.392 305.288 87.392C305.118 87.392 304.947 87.4133 304.776 87.456C304.606 87.488 304.451 87.5467 304.312 87.632C304.184 87.7067 304.078 87.808 303.992 87.936C303.918 88.0533 303.88 88.2027 303.88 88.384C303.88 88.704 304.024 88.944 304.312 89.104C304.6 89.2533 305.032 89.392 305.608 89.52C305.971 89.6053 306.307 89.7067 306.616 89.824C306.926 89.9413 307.192 90.0907 307.416 90.272C307.651 90.4427 307.832 90.6507 307.96 90.896C308.088 91.1413 308.152 91.4293 308.152 91.76C308.152 92.208 308.067 92.5867 307.896 92.896C307.726 93.2053 307.496 93.4613 307.208 93.664C306.931 93.856 306.611 93.9947 306.248 94.08C305.886 94.1653 305.512 94.208 305.128 94.208C304.552 94.208 303.987 94.096 303.432 93.872C302.888 93.648 302.435 93.3067 302.072 92.848L303.144 91.936C303.347 92.2347 303.624 92.4853 303.976 92.688C304.339 92.8907 304.734 92.992 305.16 92.992C305.352 92.992 305.534 92.976 305.704 92.944C305.886 92.9013 306.046 92.8373 306.184 92.752C306.334 92.6667 306.451 92.5547 306.536 92.416C306.622 92.2773 306.664 92.1013 306.664 91.888C306.664 91.536 306.494 91.2747 306.152 91.104C305.822 90.9333 305.331 90.7733 304.68 90.624C304.424 90.56 304.163 90.4853 303.896 90.4C303.64 90.304 303.406 90.176 303.192 90.016C302.979 89.856 302.803 89.6587 302.664 89.424C302.536 89.1787 302.472 88.88 302.472 88.528C302.472 88.1227 302.552 87.776 302.712 87.488C302.883 87.1893 303.102 86.9493 303.368 86.768C303.635 86.576 303.939 86.4373 304.28 86.352C304.622 86.256 304.974 86.208 305.336 86.208C305.88 86.208 306.403 86.3147 306.904 86.528C307.416 86.7413 307.811 87.0507 308.088 87.456L307.048 88.336ZM314.158 88.336C313.987 88.0587 313.747 87.8347 313.438 87.664C313.128 87.4827 312.782 87.392 312.398 87.392C312.227 87.392 312.056 87.4133 311.886 87.456C311.715 87.488 311.56 87.5467 311.422 87.632C311.294 87.7067 311.187 87.808 311.102 87.936C311.027 88.0533 310.99 88.2027 310.99 88.384C310.99 88.704 311.134 88.944 311.422 89.104C311.71 89.2533 312.142 89.392 312.718 89.52C313.08 89.6053 313.416 89.7067 313.726 89.824C314.035 89.9413 314.302 90.0907 314.526 90.272C314.76 90.4427 314.942 90.6507 315.07 90.896C315.198 91.1413 315.262 91.4293 315.262 91.76C315.262 92.208 315.176 92.5867 315.006 92.896C314.835 93.2053 314.606 93.4613 314.318 93.664C314.04 93.856 313.72 93.9947 313.358 94.08C312.995 94.1653 312.622 94.208 312.238 94.208C311.662 94.208 311.096 94.096 310.542 93.872C309.998 93.648 309.544 93.3067 309.182 92.848L310.254 91.936C310.456 92.2347 310.734 92.4853 311.086 92.688C311.448 92.8907 311.843 92.992 312.27 92.992C312.462 92.992 312.643 92.976 312.814 92.944C312.995 92.9013 313.155 92.8373 313.294 92.752C313.443 92.6667 313.56 92.5547 313.646 92.416C313.731 92.2773 313.774 92.1013 313.774 91.888C313.774 91.536 313.603 91.2747 313.262 91.104C312.931 90.9333 312.44 90.7733 311.79 90.624C311.534 90.56 311.272 90.4853 311.006 90.4C310.75 90.304 310.515 90.176 310.302 90.016C310.088 89.856 309.912 89.6587 309.774 89.424C309.646 89.1787 309.582 88.88 309.582 88.528C309.582 88.1227 309.662 87.776 309.822 87.488C309.992 87.1893 310.211 86.9493 310.478 86.768C310.744 86.576 311.048 86.4373 311.39 86.352C311.731 86.256 312.083 86.208 312.446 86.208C312.99 86.208 313.512 86.3147 314.014 86.528C314.526 86.7413 314.92 87.0507 315.198 87.456L314.158 88.336ZM184.904 115.392C184.904 116.565 185.091 117.712 185.464 118.832C185.837 119.941 186.339 120.933 186.968 121.808L185.88 122.512C185.176 121.563 184.611 120.475 184.184 119.248C183.757 118.021 183.544 116.736 183.544 115.392C183.544 114.048 183.757 112.763 184.184 111.536C184.611 110.309 185.176 109.221 185.88 108.272L186.968 108.976C186.339 109.851 185.837 110.848 185.464 111.968C185.091 113.077 184.904 114.219 184.904 115.392ZM192.911 113.648H191.151V120H189.647V113.648H188.143V112.416H189.647V110.832C189.647 110.384 189.695 109.973 189.791 109.6C189.898 109.216 190.063 108.885 190.287 108.608C190.522 108.331 190.815 108.112 191.167 107.952C191.53 107.792 191.967 107.712 192.479 107.712C192.842 107.712 193.156 107.749 193.423 107.824L193.247 109.12C193.13 109.088 193.012 109.061 192.895 109.04C192.778 109.019 192.644 109.008 192.495 109.008C192.207 109.008 191.972 109.061 191.791 109.168C191.62 109.264 191.487 109.397 191.391 109.568C191.295 109.739 191.231 109.936 191.199 110.16C191.167 110.373 191.151 110.597 191.151 110.832V112.416H192.911V113.648ZM194.296 114.048C194.296 113.845 194.291 113.584 194.28 113.264C194.269 112.944 194.253 112.661 194.232 112.416H195.656C195.677 112.608 195.693 112.832 195.704 113.088C195.715 113.333 195.72 113.536 195.72 113.696H195.768C195.981 113.248 196.291 112.891 196.696 112.624C197.112 112.347 197.576 112.208 198.088 112.208C198.323 112.208 198.52 112.229 198.68 112.272L198.616 113.664C198.403 113.611 198.173 113.584 197.928 113.584C197.565 113.584 197.251 113.653 196.984 113.792C196.717 113.92 196.493 114.096 196.312 114.32C196.141 114.544 196.013 114.805 195.928 115.104C195.843 115.392 195.8 115.696 195.8 116.016V120H194.296V114.048ZM201.613 120H200.109V112.416H201.613V120ZM201.869 109.68C201.869 109.957 201.768 110.187 201.565 110.368C201.373 110.549 201.138 110.64 200.861 110.64C200.584 110.64 200.349 110.549 200.157 110.368C199.965 110.176 199.869 109.947 199.869 109.68C199.869 109.403 199.965 109.173 200.157 108.992C200.349 108.8 200.584 108.704 200.861 108.704C201.138 108.704 201.373 108.8 201.565 108.992C201.768 109.173 201.869 109.403 201.869 109.68ZM209.786 115.536C209.775 115.237 209.722 114.96 209.626 114.704C209.54 114.437 209.407 114.208 209.226 114.016C209.055 113.824 208.836 113.675 208.57 113.568C208.314 113.451 208.01 113.392 207.658 113.392C207.338 113.392 207.034 113.451 206.746 113.568C206.468 113.675 206.223 113.824 206.01 114.016C205.807 114.208 205.636 114.437 205.498 114.704C205.37 114.96 205.295 115.237 205.274 115.536H209.786ZM211.306 116.144C211.306 116.229 211.306 116.315 211.306 116.4C211.306 116.485 211.3 116.571 211.29 116.656H205.274C205.284 116.976 205.354 117.28 205.482 117.568C205.62 117.845 205.802 118.091 206.026 118.304C206.25 118.507 206.506 118.667 206.794 118.784C207.092 118.901 207.407 118.96 207.738 118.96C208.25 118.96 208.692 118.848 209.066 118.624C209.439 118.4 209.732 118.128 209.946 117.808L211.002 118.656C210.596 119.189 210.116 119.584 209.562 119.84C209.018 120.085 208.41 120.208 207.738 120.208C207.162 120.208 206.628 120.112 206.138 119.92C205.647 119.728 205.226 119.461 204.874 119.12C204.522 118.768 204.244 118.347 204.042 117.856C203.839 117.365 203.738 116.821 203.738 116.224C203.738 115.637 203.834 115.099 204.026 114.608C204.228 114.107 204.506 113.68 204.858 113.328C205.21 112.976 205.626 112.704 206.106 112.512C206.586 112.309 207.103 112.208 207.658 112.208C208.212 112.208 208.714 112.299 209.162 112.48C209.62 112.661 210.004 112.923 210.314 113.264C210.634 113.605 210.879 114.021 211.05 114.512C211.22 114.992 211.306 115.536 211.306 116.144ZM214.765 112.416C214.787 112.608 214.803 112.827 214.813 113.072C214.824 113.307 214.829 113.504 214.829 113.664H214.877C214.973 113.461 215.101 113.275 215.261 113.104C215.432 112.923 215.624 112.768 215.837 112.64C216.051 112.501 216.285 112.395 216.541 112.32C216.797 112.245 217.064 112.208 217.341 112.208C217.832 112.208 218.253 112.293 218.605 112.464C218.957 112.624 219.251 112.843 219.485 113.12C219.72 113.397 219.891 113.723 219.997 114.096C220.115 114.469 220.173 114.869 220.173 115.296V120H218.669V115.792C218.669 115.483 218.643 115.189 218.589 114.912C218.547 114.635 218.461 114.389 218.333 114.176C218.205 113.963 218.029 113.792 217.805 113.664C217.581 113.536 217.293 113.472 216.941 113.472C216.344 113.472 215.853 113.701 215.469 114.16C215.096 114.608 214.909 115.211 214.909 115.968V120H213.405V114.048C213.405 113.845 213.4 113.584 213.389 113.264C213.379 112.944 213.363 112.661 213.341 112.416H214.765ZM228.766 118.8C228.478 119.259 228.083 119.611 227.582 119.856C227.091 120.091 226.574 120.208 226.03 120.208C225.443 120.208 224.915 120.107 224.446 119.904C223.977 119.691 223.577 119.403 223.246 119.04C222.915 118.677 222.659 118.251 222.478 117.76C222.297 117.269 222.206 116.747 222.206 116.192C222.206 115.637 222.297 115.12 222.478 114.64C222.659 114.149 222.915 113.723 223.246 113.36C223.587 112.997 223.993 112.715 224.462 112.512C224.931 112.309 225.449 112.208 226.014 112.208C226.633 112.208 227.171 112.341 227.63 112.608C228.089 112.864 228.451 113.179 228.718 113.552H228.75V107.904H230.254V120H228.798V118.8H228.766ZM223.774 116.192C223.774 116.544 223.827 116.885 223.934 117.216C224.041 117.547 224.201 117.84 224.414 118.096C224.627 118.352 224.889 118.56 225.198 118.72C225.507 118.869 225.87 118.944 226.286 118.944C226.67 118.944 227.017 118.869 227.326 118.72C227.646 118.571 227.918 118.373 228.142 118.128C228.366 117.872 228.537 117.579 228.654 117.248C228.782 116.917 228.846 116.571 228.846 116.208C228.846 115.845 228.782 115.499 228.654 115.168C228.537 114.837 228.366 114.544 228.142 114.288C227.918 114.032 227.646 113.829 227.326 113.68C227.017 113.531 226.67 113.456 226.286 113.456C225.87 113.456 225.507 113.531 225.198 113.68C224.889 113.829 224.627 114.032 224.414 114.288C224.201 114.544 224.041 114.837 223.934 115.168C223.827 115.499 223.774 115.84 223.774 116.192ZM236.97 114.336C236.799 114.059 236.559 113.835 236.25 113.664C235.941 113.483 235.594 113.392 235.21 113.392C235.039 113.392 234.869 113.413 234.698 113.456C234.527 113.488 234.373 113.547 234.234 113.632C234.106 113.707 233.999 113.808 233.914 113.936C233.839 114.053 233.802 114.203 233.802 114.384C233.802 114.704 233.946 114.944 234.234 115.104C234.522 115.253 234.954 115.392 235.53 115.52C235.893 115.605 236.229 115.707 236.538 115.824C236.847 115.941 237.114 116.091 237.338 116.272C237.573 116.443 237.754 116.651 237.882 116.896C238.01 117.141 238.074 117.429 238.074 117.76C238.074 118.208 237.989 118.587 237.818 118.896C237.647 119.205 237.418 119.461 237.13 119.664C236.853 119.856 236.533 119.995 236.17 120.08C235.807 120.165 235.434 120.208 235.05 120.208C234.474 120.208 233.909 120.096 233.354 119.872C232.81 119.648 232.357 119.307 231.994 118.848L233.066 117.936C233.269 118.235 233.546 118.485 233.898 118.688C234.261 118.891 234.655 118.992 235.082 118.992C235.274 118.992 235.455 118.976 235.626 118.944C235.807 118.901 235.967 118.837 236.106 118.752C236.255 118.667 236.373 118.555 236.458 118.416C236.543 118.277 236.586 118.101 236.586 117.888C236.586 117.536 236.415 117.275 236.074 117.104C235.743 116.933 235.253 116.773 234.602 116.624C234.346 116.56 234.085 116.485 233.818 116.4C233.562 116.304 233.327 116.176 233.114 116.016C232.901 115.856 232.725 115.659 232.586 115.424C232.458 115.179 232.394 114.88 232.394 114.528C232.394 114.123 232.474 113.776 232.634 113.488C232.805 113.189 233.023 112.949 233.29 112.768C233.557 112.576 233.861 112.437 234.202 112.352C234.543 112.256 234.895 112.208 235.258 112.208C235.802 112.208 236.325 112.315 236.826 112.528C237.338 112.741 237.733 113.051 238.01 113.456L236.97 114.336ZM240.512 122.128H239.232L240.336 118.128H241.84L240.512 122.128ZM251.751 114.336C251.581 114.059 251.341 113.835 251.031 113.664C250.722 113.483 250.375 113.392 249.991 113.392C249.821 113.392 249.65 113.413 249.479 113.456C249.309 113.488 249.154 113.547 249.015 113.632C248.887 113.707 248.781 113.808 248.695 113.936C248.621 114.053 248.583 114.203 248.583 114.384C248.583 114.704 248.727 114.944 249.015 115.104C249.303 115.253 249.735 115.392 250.311 115.52C250.674 115.605 251.01 115.707 251.319 115.824C251.629 115.941 251.895 116.091 252.119 116.272C252.354 116.443 252.535 116.651 252.663 116.896C252.791 117.141 252.855 117.429 252.855 117.76C252.855 118.208 252.77 118.587 252.599 118.896C252.429 119.205 252.199 119.461 251.911 119.664C251.634 119.856 251.314 119.995 250.951 120.08C250.589 120.165 250.215 120.208 249.831 120.208C249.255 120.208 248.69 120.096 248.135 119.872C247.591 119.648 247.138 119.307 246.775 118.848L247.847 117.936C248.05 118.235 248.327 118.485 248.679 118.688C249.042 118.891 249.437 118.992 249.863 118.992C250.055 118.992 250.237 118.976 250.407 118.944C250.589 118.901 250.749 118.837 250.887 118.752C251.037 118.667 251.154 118.555 251.239 118.416C251.325 118.277 251.367 118.101 251.367 117.888C251.367 117.536 251.197 117.275 250.855 117.104C250.525 116.933 250.034 116.773 249.383 116.624C249.127 116.56 248.866 116.485 248.599 116.4C248.343 116.304 248.109 116.176 247.895 116.016C247.682 115.856 247.506 115.659 247.367 115.424C247.239 115.179 247.175 114.88 247.175 114.528C247.175 114.123 247.255 113.776 247.415 113.488C247.586 113.189 247.805 112.949 248.071 112.768C248.338 112.576 248.642 112.437 248.983 112.352C249.325 112.256 249.677 112.208 250.039 112.208C250.583 112.208 251.106 112.315 251.607 112.528C252.119 112.741 252.514 113.051 252.791 113.456L251.751 114.336ZM260.317 115.536C260.306 115.237 260.253 114.96 260.157 114.704C260.071 114.437 259.938 114.208 259.757 114.016C259.586 113.824 259.367 113.675 259.101 113.568C258.845 113.451 258.541 113.392 258.189 113.392C257.869 113.392 257.565 113.451 257.277 113.568C256.999 113.675 256.754 113.824 256.541 114.016C256.338 114.208 256.167 114.437 256.029 114.704C255.901 114.96 255.826 115.237 255.805 115.536H260.317ZM261.837 116.144C261.837 116.229 261.837 116.315 261.837 116.4C261.837 116.485 261.831 116.571 261.821 116.656H255.805C255.815 116.976 255.885 117.28 256.013 117.568C256.151 117.845 256.333 118.091 256.557 118.304C256.781 118.507 257.037 118.667 257.325 118.784C257.623 118.901 257.938 118.96 258.269 118.96C258.781 118.96 259.223 118.848 259.597 118.624C259.97 118.4 260.263 118.128 260.477 117.808L261.533 118.656C261.127 119.189 260.647 119.584 260.093 119.84C259.549 120.085 258.941 120.208 258.269 120.208C257.693 120.208 257.159 120.112 256.669 119.92C256.178 119.728 255.757 119.461 255.405 119.12C255.053 118.768 254.775 118.347 254.573 117.856C254.37 117.365 254.269 116.821 254.269 116.224C254.269 115.637 254.365 115.099 254.557 114.608C254.759 114.107 255.037 113.68 255.389 113.328C255.741 112.976 256.157 112.704 256.637 112.512C257.117 112.309 257.634 112.208 258.189 112.208C258.743 112.208 259.245 112.299 259.693 112.48C260.151 112.661 260.535 112.923 260.845 113.264C261.165 113.605 261.41 114.021 261.581 114.512C261.751 114.992 261.837 115.536 261.837 116.144ZM263.937 114.048C263.937 113.845 263.931 113.584 263.921 113.264C263.91 112.944 263.894 112.661 263.873 112.416H265.297C265.318 112.608 265.334 112.832 265.345 113.088C265.355 113.333 265.361 113.536 265.361 113.696H265.409C265.622 113.248 265.931 112.891 266.337 112.624C266.753 112.347 267.217 112.208 267.729 112.208C267.963 112.208 268.161 112.229 268.321 112.272L268.257 113.664C268.043 113.611 267.814 113.584 267.569 113.584C267.206 113.584 266.891 113.653 266.625 113.792C266.358 113.92 266.134 114.096 265.953 114.32C265.782 114.544 265.654 114.805 265.569 115.104C265.483 115.392 265.441 115.696 265.441 116.016V120H263.937V114.048ZM273.302 120H271.67L268.582 112.416H270.246L272.47 118.384H272.502L274.742 112.416H276.342L273.302 120ZM279.316 120H277.812V112.416H279.316V120ZM279.572 109.68C279.572 109.957 279.471 110.187 279.268 110.368C279.076 110.549 278.841 110.64 278.564 110.64C278.287 110.64 278.052 110.549 277.86 110.368C277.668 110.176 277.572 109.947 277.572 109.68C277.572 109.403 277.668 109.173 277.86 108.992C278.052 108.8 278.287 108.704 278.564 108.704C278.841 108.704 279.076 108.8 279.268 108.992C279.471 109.173 279.572 109.403 279.572 109.68ZM287.249 114.336C287.089 114.091 286.849 113.888 286.529 113.728C286.209 113.557 285.867 113.472 285.505 113.472C285.11 113.472 284.758 113.547 284.449 113.696C284.15 113.845 283.894 114.048 283.681 114.304C283.467 114.549 283.302 114.837 283.185 115.168C283.078 115.499 283.025 115.845 283.025 116.208C283.025 116.571 283.078 116.917 283.185 117.248C283.302 117.579 283.467 117.872 283.681 118.128C283.894 118.373 284.155 118.571 284.465 118.72C284.774 118.869 285.126 118.944 285.521 118.944C285.905 118.944 286.251 118.869 286.561 118.72C286.881 118.571 287.142 118.368 287.345 118.112L288.353 119.024C288.033 119.397 287.633 119.691 287.153 119.904C286.673 120.107 286.129 120.208 285.521 120.208C284.934 120.208 284.39 120.112 283.889 119.92C283.398 119.728 282.971 119.461 282.609 119.12C282.246 118.768 281.958 118.347 281.745 117.856C281.542 117.365 281.441 116.816 281.441 116.208C281.441 115.611 281.542 115.067 281.745 114.576C281.947 114.085 282.23 113.664 282.593 113.312C282.955 112.96 283.382 112.688 283.873 112.496C284.374 112.304 284.913 112.208 285.489 112.208C286.022 112.208 286.55 112.315 287.073 112.528C287.606 112.741 288.027 113.051 288.337 113.456L287.249 114.336ZM295.395 115.536C295.384 115.237 295.331 114.96 295.235 114.704C295.15 114.437 295.016 114.208 294.835 114.016C294.664 113.824 294.446 113.675 294.179 113.568C293.923 113.451 293.619 113.392 293.267 113.392C292.947 113.392 292.643 113.451 292.355 113.568C292.078 113.675 291.832 113.824 291.619 114.016C291.416 114.208 291.246 114.437 291.107 114.704C290.979 114.96 290.904 115.237 290.883 115.536H295.395ZM296.915 116.144C296.915 116.229 296.915 116.315 296.915 116.4C296.915 116.485 296.91 116.571 296.899 116.656H290.883C290.894 116.976 290.963 117.28 291.091 117.568C291.23 117.845 291.411 118.091 291.635 118.304C291.859 118.507 292.115 118.667 292.403 118.784C292.702 118.901 293.016 118.96 293.347 118.96C293.859 118.96 294.302 118.848 294.675 118.624C295.048 118.4 295.342 118.128 295.555 117.808L296.611 118.656C296.206 119.189 295.726 119.584 295.171 119.84C294.627 120.085 294.019 120.208 293.347 120.208C292.771 120.208 292.238 120.112 291.747 119.92C291.256 119.728 290.835 119.461 290.483 119.12C290.131 118.768 289.854 118.347 289.651 117.856C289.448 117.365 289.347 116.821 289.347 116.224C289.347 115.637 289.443 115.099 289.635 114.608C289.838 114.107 290.115 113.68 290.467 113.328C290.819 112.976 291.235 112.704 291.715 112.512C292.195 112.309 292.712 112.208 293.267 112.208C293.822 112.208 294.323 112.299 294.771 112.48C295.23 112.661 295.614 112.923 295.923 113.264C296.243 113.605 296.488 114.021 296.659 114.512C296.83 114.992 296.915 115.536 296.915 116.144ZM300.855 115.392C300.855 114.219 300.668 113.077 300.295 111.968C299.921 110.848 299.42 109.851 298.791 108.976L299.879 108.272C300.583 109.221 301.148 110.309 301.575 111.536C302.001 112.763 302.215 114.048 302.215 115.392C302.215 116.736 302.001 118.021 301.575 119.248C301.148 120.475 300.583 121.563 299.879 122.512L298.791 121.808C299.42 120.933 299.921 119.941 300.295 118.832C300.668 117.712 300.855 116.565 300.855 115.392Z" fill="black"/>
<circle cx="21.5" cy="21.5" r="21.5" fill="#6DC4B9"/>
<path d="M12 22.2308L20.8889 31L32 13" stroke="white" stroke-width="5" stroke-linecap="round" stroke-linejoin="round"/>
<circle cx="196.5" cy="21.5" r="21.5" fill="#F18A88"/>
<path d="M188.589 13.8627L204.374 30.1363M205.155 13.6473L188.843 29.9308" stroke="white" stroke-width="5" stroke-linecap="round"/>
</g>
<defs>
<clipPath id="clip0">
<rect width="321" height="129" fill="white"/>
</clipPath>
</defs>
</svg>
