<svg width="642" height="105" viewBox="0 0 642 105" fill="none" xmlns="http://www.w3.org/2000/svg">
<rect width="642" height="105" fill="white"/>
<path d="M12.92 58.008C12.5787 57.6347 12.1413 57.336 11.608 57.112C11.0853 56.888 10.4987 56.776 9.848 56.776C9.18667 56.776 8.58933 56.8987 8.056 57.144C7.52267 57.3787 7.06933 57.704 6.696 58.12C6.32267 58.536 6.03467 59.0213 5.832 59.576C5.62933 60.12 5.528 60.7013 5.528 61.32C5.528 61.9493 5.62933 62.5413 5.832 63.096C6.03467 63.6507 6.32267 64.136 6.696 64.552C7.06933 64.9573 7.528 65.2773 8.072 65.512C8.616 65.7467 9.224 65.864 9.896 65.864C10.4293 65.864 10.92 65.816 11.368 65.72C11.816 65.624 12.2053 65.4853 12.536 65.304V62.152H10.024V60.808H14.104V66.296C13.5067 66.616 12.856 66.8613 12.152 67.032C11.448 67.2027 10.68 67.288 9.848 67.288C8.96267 67.288 8.14667 67.144 7.4 66.856C6.664 66.5573 6.02933 66.1467 5.496 65.624C4.96267 65.0907 4.54667 64.4613 4.248 63.736C3.94933 63 3.8 62.1947 3.8 61.32C3.8 60.4347 3.94933 59.6293 4.248 58.904C4.55733 58.168 4.97867 57.544 5.512 57.032C6.056 56.5093 6.696 56.104 7.432 55.816C8.168 55.528 8.968 55.384 9.832 55.384C10.7387 55.384 11.544 55.5173 12.248 55.784C12.9627 56.0507 13.5547 56.408 14.024 56.856L12.92 58.008ZM22.3011 62.536C22.2905 62.2373 22.2371 61.96 22.1411 61.704C22.0558 61.4373 21.9225 61.208 21.7411 61.016C21.5705 60.824 21.3518 60.6747 21.0851 60.568C20.8291 60.4507 20.5251 60.392 20.1731 60.392C19.8531 60.392 19.5491 60.4507 19.2611 60.568C18.9838 60.6747 18.7385 60.824 18.5251 61.016C18.3225 61.208 18.1518 61.4373 18.0131 61.704C17.8851 61.96 17.8105 62.2373 17.7891 62.536H22.3011ZM23.8211 63.144C23.8211 63.2293 23.8211 63.3147 23.8211 63.4C23.8211 63.4853 23.8158 63.5707 23.8051 63.656H17.7891C17.7998 63.976 17.8691 64.28 17.9971 64.568C18.1358 64.8453 18.3171 65.0907 18.5411 65.304C18.7651 65.5067 19.0211 65.6667 19.3091 65.784C19.6078 65.9013 19.9225 65.96 20.2531 65.96C20.7651 65.96 21.2078 65.848 21.5811 65.624C21.9545 65.4 22.2478 65.128 22.4611 64.808L23.5171 65.656C23.1118 66.1893 22.6318 66.584 22.0771 66.84C21.5331 67.0853 20.9251 67.208 20.2531 67.208C19.6771 67.208 19.1438 67.112 18.6531 66.92C18.1625 66.728 17.7411 66.4613 17.3891 66.12C17.0371 65.768 16.7598 65.3467 16.5571 64.856C16.3545 64.3653 16.2531 63.8213 16.2531 63.224C16.2531 62.6373 16.3491 62.0987 16.5411 61.608C16.7438 61.1067 17.0211 60.68 17.3731 60.328C17.7251 59.976 18.1411 59.704 18.6211 59.512C19.1011 59.3093 19.6185 59.208 20.1731 59.208C20.7278 59.208 21.2291 59.2987 21.6771 59.48C22.1358 59.6613 22.5198 59.9227 22.8291 60.264C23.1491 60.6053 23.3945 61.0213 23.5651 61.512C23.7358 61.992 23.8211 62.536 23.8211 63.144ZM29.633 60.648H27.617V64.6C27.617 65.0587 27.7023 65.3893 27.873 65.592C28.0437 65.784 28.3157 65.88 28.689 65.88C28.8277 65.88 28.977 65.864 29.137 65.832C29.297 65.8 29.441 65.752 29.569 65.688L29.617 66.92C29.4357 66.984 29.233 67.032 29.009 67.064C28.7957 67.1067 28.5717 67.128 28.337 67.128C27.6223 67.128 27.073 66.9307 26.689 66.536C26.3157 66.1413 26.129 65.5493 26.129 64.76V60.648H24.673V59.416H26.129V57.24H27.617V59.416H29.633V60.648ZM42.8666 63.192C42.8666 63.7787 42.76 64.3173 42.5466 64.808C42.344 65.2987 42.056 65.7253 41.6826 66.088C41.32 66.44 40.888 66.7173 40.3866 66.92C39.8853 67.112 39.3466 67.208 38.7706 67.208C38.1946 67.208 37.656 67.112 37.1546 66.92C36.6533 66.7173 36.2213 66.44 35.8586 66.088C35.496 65.7253 35.208 65.2987 34.9946 64.808C34.792 64.3173 34.6906 63.7787 34.6906 63.192C34.6906 62.6053 34.792 62.072 34.9946 61.592C35.208 61.1013 35.496 60.68 35.8586 60.328C36.2213 59.976 36.6533 59.704 37.1546 59.512C37.656 59.3093 38.1946 59.208 38.7706 59.208C39.3466 59.208 39.8853 59.3093 40.3866 59.512C40.888 59.704 41.32 59.976 41.6826 60.328C42.056 60.68 42.344 61.1013 42.5466 61.592C42.76 62.072 42.8666 62.6053 42.8666 63.192ZM41.2986 63.192C41.2986 62.8293 41.24 62.4827 41.1226 62.152C41.016 61.8213 40.856 61.5333 40.6426 61.288C40.4293 61.032 40.1626 60.8293 39.8426 60.68C39.5333 60.5307 39.176 60.456 38.7706 60.456C38.3653 60.456 38.0026 60.5307 37.6826 60.68C37.3733 60.8293 37.112 61.032 36.8986 61.288C36.6853 61.5333 36.52 61.8213 36.4026 62.152C36.296 62.4827 36.2426 62.8293 36.2426 63.192C36.2426 63.5547 36.296 63.9013 36.4026 64.232C36.52 64.5627 36.6853 64.856 36.8986 65.112C37.112 65.368 37.3733 65.5707 37.6826 65.72C38.0026 65.8693 38.3653 65.944 38.7706 65.944C39.176 65.944 39.5333 65.8693 39.8426 65.72C40.1626 65.5707 40.4293 65.368 40.6426 65.112C40.856 64.856 41.016 64.5627 41.1226 64.232C41.24 63.9013 41.2986 63.5547 41.2986 63.192ZM46.4563 70.84H44.9523V59.416H46.4243V60.6H46.4723C46.7176 60.1947 47.0749 59.864 47.5443 59.608C48.0243 59.3413 48.5789 59.208 49.2083 59.208C49.7736 59.208 50.2856 59.3093 50.7443 59.512C51.2136 59.7147 51.6136 59.9973 51.9443 60.36C52.2856 60.7227 52.5469 61.1493 52.7283 61.64C52.9096 62.12 53.0003 62.6373 53.0003 63.192C53.0003 63.7467 52.9096 64.2693 52.7283 64.76C52.5469 65.2507 52.2909 65.6773 51.9603 66.04C51.6296 66.4027 51.2296 66.6907 50.7603 66.904C50.2909 67.1067 49.7629 67.208 49.1763 67.208C48.6323 67.208 48.1203 67.0907 47.6403 66.856C47.1603 66.6213 46.7816 66.2907 46.5043 65.864H46.4563V70.84ZM51.4483 63.192C51.4483 62.84 51.3949 62.4987 51.2883 62.168C51.1816 61.8373 51.0216 61.544 50.8083 61.288C50.5949 61.032 50.3283 60.8293 50.0083 60.68C49.6989 60.5307 49.3363 60.456 48.9203 60.456C48.5363 60.456 48.1843 60.5307 47.8643 60.68C47.5549 60.8293 47.2883 61.032 47.0643 61.288C46.8403 61.544 46.6643 61.8373 46.5363 62.168C46.4189 62.4987 46.3603 62.8453 46.3603 63.208C46.3603 63.5707 46.4189 63.9173 46.5363 64.248C46.6643 64.5787 46.8403 64.872 47.0643 65.128C47.2883 65.3733 47.5549 65.5707 47.8643 65.72C48.1843 65.8693 48.5363 65.944 48.9203 65.944C49.3363 65.944 49.6989 65.8693 50.0083 65.72C50.3283 65.56 50.5949 65.352 50.8083 65.096C51.0216 64.84 51.1816 64.5467 51.2883 64.216C51.3949 63.8853 51.4483 63.544 51.4483 63.192ZM56.6129 67H55.1089V59.416H56.6129V67ZM56.8689 56.68C56.8689 56.9573 56.7675 57.1867 56.5649 57.368C56.3729 57.5493 56.1382 57.64 55.8609 57.64C55.5835 57.64 55.3489 57.5493 55.1569 57.368C54.9649 57.176 54.8689 56.9467 54.8689 56.68C54.8689 56.4027 54.9649 56.1733 55.1569 55.992C55.3489 55.8 55.5835 55.704 55.8609 55.704C56.1382 55.704 56.3729 55.8 56.5649 55.992C56.7675 56.1733 56.8689 56.4027 56.8689 56.68ZM60.5935 59.416C60.6148 59.608 60.6308 59.8267 60.6415 60.072C60.6522 60.3067 60.6575 60.504 60.6575 60.664H60.7055C60.8015 60.4613 60.9295 60.2747 61.0895 60.104C61.2602 59.9227 61.4522 59.768 61.6655 59.64C61.8788 59.5013 62.1135 59.3947 62.3695 59.32C62.6255 59.2453 62.8922 59.208 63.1695 59.208C63.6602 59.208 64.0815 59.2933 64.4335 59.464C64.7855 59.624 65.0788 59.8427 65.3135 60.12C65.5482 60.3973 65.7188 60.7227 65.8255 61.096C65.9428 61.4693 66.0015 61.8693 66.0015 62.296V67H64.4975V62.792C64.4975 62.4827 64.4708 62.1893 64.4175 61.912C64.3748 61.6347 64.2895 61.3893 64.1615 61.176C64.0335 60.9627 63.8575 60.792 63.6335 60.664C63.4095 60.536 63.1215 60.472 62.7695 60.472C62.1722 60.472 61.6815 60.7013 61.2975 61.16C60.9242 61.608 60.7375 62.2107 60.7375 62.968V67H59.2335V61.048C59.2335 60.8453 59.2282 60.584 59.2175 60.264C59.2068 59.944 59.1908 59.6613 59.1695 59.416H60.5935ZM70.066 67H68.562V59.416H70.066V67ZM70.322 56.68C70.322 56.9573 70.2207 57.1867 70.018 57.368C69.826 57.5493 69.5913 57.64 69.314 57.64C69.0367 57.64 68.802 57.5493 68.61 57.368C68.418 57.176 68.322 56.9467 68.322 56.68C68.322 56.4027 68.418 56.1733 68.61 55.992C68.802 55.8 69.0367 55.704 69.314 55.704C69.5913 55.704 69.826 55.8 70.018 55.992C70.2207 56.1733 70.322 56.4027 70.322 56.68ZM80.3666 63.192C80.3666 63.7787 80.26 64.3173 80.0466 64.808C79.844 65.2987 79.556 65.7253 79.1826 66.088C78.82 66.44 78.388 66.7173 77.8866 66.92C77.3853 67.112 76.8466 67.208 76.2706 67.208C75.6946 67.208 75.156 67.112 74.6546 66.92C74.1533 66.7173 73.7213 66.44 73.3586 66.088C72.996 65.7253 72.708 65.2987 72.4946 64.808C72.292 64.3173 72.1906 63.7787 72.1906 63.192C72.1906 62.6053 72.292 62.072 72.4946 61.592C72.708 61.1013 72.996 60.68 73.3586 60.328C73.7213 59.976 74.1533 59.704 74.6546 59.512C75.156 59.3093 75.6946 59.208 76.2706 59.208C76.8466 59.208 77.3853 59.3093 77.8866 59.512C78.388 59.704 78.82 59.976 79.1826 60.328C79.556 60.68 79.844 61.1013 80.0466 61.592C80.26 62.072 80.3666 62.6053 80.3666 63.192ZM78.7986 63.192C78.7986 62.8293 78.74 62.4827 78.6226 62.152C78.516 61.8213 78.356 61.5333 78.1426 61.288C77.9293 61.032 77.6626 60.8293 77.3426 60.68C77.0333 60.5307 76.676 60.456 76.2706 60.456C75.8653 60.456 75.5026 60.5307 75.1826 60.68C74.8733 60.8293 74.612 61.032 74.3986 61.288C74.1853 61.5333 74.02 61.8213 73.9026 62.152C73.796 62.4827 73.7426 62.8293 73.7426 63.192C73.7426 63.5547 73.796 63.9013 73.9026 64.232C74.02 64.5627 74.1853 64.856 74.3986 65.112C74.612 65.368 74.8733 65.5707 75.1826 65.72C75.5026 65.8693 75.8653 65.944 76.2706 65.944C76.676 65.944 77.0333 65.8693 77.3426 65.72C77.6626 65.5707 77.9293 65.368 78.1426 65.112C78.356 64.856 78.516 64.5627 78.6226 64.232C78.74 63.9013 78.7986 63.5547 78.7986 63.192ZM83.8123 59.416C83.8336 59.608 83.8496 59.8267 83.8603 60.072C83.8709 60.3067 83.8763 60.504 83.8763 60.664H83.9243C84.0203 60.4613 84.1483 60.2747 84.3083 60.104C84.4789 59.9227 84.6709 59.768 84.8843 59.64C85.0976 59.5013 85.3323 59.3947 85.5883 59.32C85.8443 59.2453 86.1109 59.208 86.3883 59.208C86.8789 59.208 87.3003 59.2933 87.6523 59.464C88.0043 59.624 88.2976 59.8427 88.5323 60.12C88.7669 60.3973 88.9376 60.7227 89.0443 61.096C89.1616 61.4693 89.2203 61.8693 89.2203 62.296V67H87.7163V62.792C87.7163 62.4827 87.6896 62.1893 87.6363 61.912C87.5936 61.6347 87.5083 61.3893 87.3803 61.176C87.2523 60.9627 87.0763 60.792 86.8523 60.664C86.6283 60.536 86.3403 60.472 85.9883 60.472C85.3909 60.472 84.9003 60.7013 84.5163 61.16C84.1429 61.608 83.9563 62.2107 83.9563 62.968V67H82.4523V61.048C82.4523 60.8453 82.4469 60.584 82.4363 60.264C82.4256 59.944 82.4096 59.6613 82.3883 59.416H83.8123ZM95.8608 61.336C95.6901 61.0587 95.4501 60.8347 95.1408 60.664C94.8314 60.4827 94.4848 60.392 94.1008 60.392C93.9301 60.392 93.7594 60.4133 93.5888 60.456C93.4181 60.488 93.2634 60.5467 93.1248 60.632C92.9968 60.7067 92.8901 60.808 92.8048 60.936C92.7301 61.0533 92.6928 61.2027 92.6928 61.384C92.6928 61.704 92.8368 61.944 93.1248 62.104C93.4128 62.2533 93.8448 62.392 94.4208 62.52C94.7834 62.6053 95.1194 62.7067 95.4288 62.824C95.7381 62.9413 96.0048 63.0907 96.2288 63.272C96.4634 63.4427 96.6448 63.6507 96.7728 63.896C96.9008 64.1413 96.9648 64.4293 96.9648 64.76C96.9648 65.208 96.8794 65.5867 96.7088 65.896C96.5381 66.2053 96.3088 66.4613 96.0208 66.664C95.7434 66.856 95.4234 66.9947 95.0608 67.08C94.6981 67.1653 94.3248 67.208 93.9408 67.208C93.3648 67.208 92.7994 67.096 92.2448 66.872C91.7008 66.648 91.2474 66.3067 90.8848 65.848L91.9568 64.936C92.1594 65.2347 92.4368 65.4853 92.7888 65.688C93.1514 65.8907 93.5461 65.992 93.9728 65.992C94.1648 65.992 94.3461 65.976 94.5168 65.944C94.6981 65.9013 94.8581 65.8373 94.9968 65.752C95.1461 65.6667 95.2634 65.5547 95.3488 65.416C95.4341 65.2773 95.4768 65.1013 95.4768 64.888C95.4768 64.536 95.3061 64.2747 94.9648 64.104C94.6341 63.9333 94.1434 63.7733 93.4928 63.624C93.2368 63.56 92.9754 63.4853 92.7088 63.4C92.4528 63.304 92.2181 63.176 92.0048 63.016C91.7914 62.856 91.6154 62.6587 91.4768 62.424C91.3488 62.1787 91.2848 61.88 91.2848 61.528C91.2848 61.1227 91.3648 60.776 91.5247 60.488C91.6954 60.1893 91.9141 59.9493 92.1808 59.768C92.4474 59.576 92.7514 59.4373 93.0928 59.352C93.4341 59.256 93.7861 59.208 94.1488 59.208C94.6928 59.208 95.2154 59.3147 95.7168 59.528C96.2288 59.7413 96.6234 60.0507 96.9008 60.456L95.8608 61.336ZM106.442 60.648H104.682V67H103.178V60.648H101.674V59.416H103.178V57.832C103.178 57.384 103.226 56.9733 103.322 56.6C103.429 56.216 103.594 55.8853 103.818 55.608C104.053 55.3307 104.346 55.112 104.698 54.952C105.061 54.792 105.498 54.712 106.01 54.712C106.373 54.712 106.687 54.7493 106.954 54.824L106.778 56.12C106.661 56.088 106.543 56.0613 106.426 56.04C106.309 56.0187 106.175 56.008 106.026 56.008C105.738 56.008 105.503 56.0613 105.322 56.168C105.151 56.264 105.018 56.3973 104.922 56.568C104.826 56.7387 104.762 56.936 104.73 57.16C104.698 57.3733 104.682 57.5973 104.682 57.832V59.416H106.442V60.648ZM107.827 61.048C107.827 60.8453 107.822 60.584 107.811 60.264C107.801 59.944 107.785 59.6613 107.763 59.416H109.187C109.209 59.608 109.225 59.832 109.235 60.088C109.246 60.3333 109.251 60.536 109.251 60.696H109.299C109.513 60.248 109.822 59.8907 110.227 59.624C110.643 59.3467 111.107 59.208 111.619 59.208C111.854 59.208 112.051 59.2293 112.211 59.272L112.147 60.664C111.934 60.6107 111.705 60.584 111.459 60.584C111.097 60.584 110.782 60.6533 110.515 60.792C110.249 60.92 110.025 61.096 109.843 61.32C109.673 61.544 109.545 61.8053 109.459 62.104C109.374 62.392 109.331 62.696 109.331 63.016V67H107.827V61.048ZM121.023 63.192C121.023 63.7787 120.916 64.3173 120.703 64.808C120.5 65.2987 120.212 65.7253 119.839 66.088C119.476 66.44 119.044 66.7173 118.543 66.92C118.042 67.112 117.503 67.208 116.927 67.208C116.351 67.208 115.812 67.112 115.311 66.92C114.81 66.7173 114.378 66.44 114.015 66.088C113.652 65.7253 113.364 65.2987 113.151 64.808C112.948 64.3173 112.847 63.7787 112.847 63.192C112.847 62.6053 112.948 62.072 113.151 61.592C113.364 61.1013 113.652 60.68 114.015 60.328C114.378 59.976 114.81 59.704 115.311 59.512C115.812 59.3093 116.351 59.208 116.927 59.208C117.503 59.208 118.042 59.3093 118.543 59.512C119.044 59.704 119.476 59.976 119.839 60.328C120.212 60.68 120.5 61.1013 120.703 61.592C120.916 62.072 121.023 62.6053 121.023 63.192ZM119.455 63.192C119.455 62.8293 119.396 62.4827 119.279 62.152C119.172 61.8213 119.012 61.5333 118.799 61.288C118.586 61.032 118.319 60.8293 117.999 60.68C117.69 60.5307 117.332 60.456 116.927 60.456C116.522 60.456 116.159 60.5307 115.839 60.68C115.53 60.8293 115.268 61.032 115.055 61.288C114.842 61.5333 114.676 61.8213 114.559 62.152C114.452 62.4827 114.399 62.8293 114.399 63.192C114.399 63.5547 114.452 63.9013 114.559 64.232C114.676 64.5627 114.842 64.856 115.055 65.112C115.268 65.368 115.53 65.5707 115.839 65.72C116.159 65.8693 116.522 65.944 116.927 65.944C117.332 65.944 117.69 65.8693 117.999 65.72C118.319 65.5707 118.586 65.368 118.799 65.112C119.012 64.856 119.172 64.5627 119.279 64.232C119.396 63.9013 119.455 63.5547 119.455 63.192ZM124.581 60.664C124.773 60.2587 125.077 59.9173 125.493 59.64C125.919 59.352 126.421 59.208 126.997 59.208C127.509 59.208 127.967 59.3253 128.373 59.56C128.789 59.7947 129.114 60.184 129.349 60.728C129.605 60.2373 129.962 59.864 130.421 59.608C130.879 59.3413 131.381 59.208 131.925 59.208C132.415 59.208 132.837 59.2933 133.189 59.464C133.541 59.624 133.834 59.8427 134.069 60.12C134.303 60.3973 134.474 60.7227 134.581 61.096C134.698 61.4693 134.757 61.8693 134.757 62.296V67H133.253V62.792C133.253 62.4827 133.226 62.1893 133.173 61.912C133.119 61.6347 133.029 61.3893 132.901 61.176C132.773 60.9627 132.602 60.792 132.389 60.664C132.175 60.536 131.903 60.472 131.573 60.472C131.231 60.472 130.938 60.5467 130.693 60.696C130.447 60.8347 130.245 61.0213 130.085 61.256C129.935 61.48 129.823 61.736 129.749 62.024C129.685 62.312 129.653 62.6053 129.653 62.904V67H128.149V62.488C128.149 62.1893 128.122 61.9173 128.069 61.672C128.015 61.4267 127.925 61.2187 127.797 61.048C127.669 60.8667 127.503 60.728 127.301 60.632C127.098 60.5253 126.847 60.472 126.549 60.472C125.994 60.472 125.53 60.7013 125.157 61.16C124.794 61.608 124.613 62.2107 124.613 62.968V67H123.109V61.048C123.109 60.8453 123.103 60.584 123.093 60.264C123.082 59.944 123.066 59.6613 123.045 59.416H124.469C124.49 59.608 124.506 59.8267 124.517 60.072C124.527 60.3067 124.533 60.504 124.533 60.664H124.581ZM7.864 86.648H6.104V93H4.6V86.648H3.096V85.416H4.6V83.832C4.6 83.384 4.648 82.9733 4.744 82.6C4.85067 82.216 5.016 81.8853 5.24 81.608C5.47467 81.3307 5.768 81.112 6.12 80.952C6.48267 80.792 6.92 80.712 7.432 80.712C7.79467 80.712 8.10933 80.7493 8.376 80.824L8.2 82.12C8.08267 82.088 7.96533 82.0613 7.848 82.04C7.73067 82.0187 7.59733 82.008 7.448 82.008C7.16 82.008 6.92533 82.0613 6.744 82.168C6.57333 82.264 6.44 82.3973 6.344 82.568C6.248 82.7387 6.184 82.936 6.152 83.16C6.12 83.3733 6.104 83.5973 6.104 83.832V85.416H7.864V86.648ZM9.24913 87.048C9.24913 86.8453 9.24379 86.584 9.23313 86.264C9.22246 85.944 9.20646 85.6613 9.18513 85.416H10.6091C10.6305 85.608 10.6465 85.832 10.6571 86.088C10.6678 86.3333 10.6731 86.536 10.6731 86.696H10.7211C10.9345 86.248 11.2438 85.8907 11.6491 85.624C12.0651 85.3467 12.5291 85.208 13.0411 85.208C13.2758 85.208 13.4731 85.2293 13.6331 85.272L13.5691 86.664C13.3558 86.6107 13.1265 86.584 12.8811 86.584C12.5185 86.584 12.2038 86.6533 11.9371 86.792C11.6705 86.92 11.4465 87.096 11.2651 87.32C11.0945 87.544 10.9665 87.8053 10.8811 88.104C10.7958 88.392 10.7531 88.696 10.7531 89.016V93H9.24913V87.048ZM16.566 93H15.062V85.416H16.566V93ZM16.822 82.68C16.822 82.9573 16.7207 83.1867 16.518 83.368C16.326 83.5493 16.0913 83.64 15.814 83.64C15.5367 83.64 15.302 83.5493 15.11 83.368C14.918 83.176 14.822 82.9467 14.822 82.68C14.822 82.4027 14.918 82.1733 15.11 81.992C15.302 81.8 15.5367 81.704 15.814 81.704C16.0913 81.704 16.326 81.8 16.518 81.992C16.7207 82.1733 16.822 82.4027 16.822 82.68ZM24.7386 88.536C24.728 88.2373 24.6746 87.96 24.5786 87.704C24.4933 87.4373 24.36 87.208 24.1786 87.016C24.008 86.824 23.7893 86.6747 23.5226 86.568C23.2666 86.4507 22.9626 86.392 22.6106 86.392C22.2906 86.392 21.9866 86.4507 21.6986 86.568C21.4213 86.6747 21.176 86.824 20.9626 87.016C20.76 87.208 20.5893 87.4373 20.4506 87.704C20.3226 87.96 20.248 88.2373 20.2266 88.536H24.7386ZM26.2586 89.144C26.2586 89.2293 26.2586 89.3147 26.2586 89.4C26.2586 89.4853 26.2533 89.5707 26.2426 89.656H20.2266C20.2373 89.976 20.3066 90.28 20.4346 90.568C20.5733 90.8453 20.7546 91.0907 20.9786 91.304C21.2026 91.5067 21.4586 91.6667 21.7466 91.784C22.0453 91.9013 22.36 91.96 22.6906 91.96C23.2026 91.96 23.6453 91.848 24.0186 91.624C24.392 91.4 24.6853 91.128 24.8986 90.808L25.9546 91.656C25.5493 92.1893 25.0693 92.584 24.5146 92.84C23.9706 93.0853 23.3626 93.208 22.6906 93.208C22.1146 93.208 21.5813 93.112 21.0906 92.92C20.6 92.728 20.1786 92.4613 19.8266 92.12C19.4746 91.768 19.1973 91.3467 18.9946 90.856C18.792 90.3653 18.6906 89.8213 18.6906 89.224C18.6906 88.6373 18.7866 88.0987 18.9786 87.608C19.1813 87.1067 19.4586 86.68 19.8106 86.328C20.1626 85.976 20.5786 85.704 21.0586 85.512C21.5386 85.3093 22.056 85.208 22.6106 85.208C23.1653 85.208 23.6666 85.2987 24.1146 85.48C24.5733 85.6613 24.9573 85.9227 25.2666 86.264C25.5866 86.6053 25.832 87.0213 26.0026 87.512C26.1733 87.992 26.2586 88.536 26.2586 89.144ZM29.7185 85.416C29.7398 85.608 29.7558 85.8267 29.7665 86.072C29.7772 86.3067 29.7825 86.504 29.7825 86.664H29.8305C29.9265 86.4613 30.0545 86.2747 30.2145 86.104C30.3852 85.9227 30.5772 85.768 30.7905 85.64C31.0038 85.5013 31.2385 85.3947 31.4945 85.32C31.7505 85.2453 32.0172 85.208 32.2945 85.208C32.7852 85.208 33.2065 85.2933 33.5585 85.464C33.9105 85.624 34.2038 85.8427 34.4385 86.12C34.6732 86.3973 34.8438 86.7227 34.9505 87.096C35.0678 87.4693 35.1265 87.8693 35.1265 88.296V93H33.6225V88.792C33.6225 88.4827 33.5958 88.1893 33.5425 87.912C33.4998 87.6347 33.4145 87.3893 33.2865 87.176C33.1585 86.9627 32.9825 86.792 32.7585 86.664C32.5345 86.536 32.2465 86.472 31.8945 86.472C31.2972 86.472 30.8065 86.7013 30.4225 87.16C30.0492 87.608 29.8625 88.2107 29.8625 88.968V93H28.3585V87.048C28.3585 86.8453 28.3532 86.584 28.3425 86.264C28.3318 85.944 28.3158 85.6613 28.2945 85.416H29.7185ZM43.719 91.8C43.431 92.2587 43.0363 92.6107 42.535 92.856C42.0443 93.0907 41.527 93.208 40.983 93.208C40.3963 93.208 39.8683 93.1067 39.399 92.904C38.9297 92.6907 38.5297 92.4027 38.199 92.04C37.8683 91.6773 37.6123 91.2507 37.431 90.76C37.2497 90.2693 37.159 89.7467 37.159 89.192C37.159 88.6373 37.2497 88.12 37.431 87.64C37.6123 87.1493 37.8683 86.7227 38.199 86.36C38.5403 85.9973 38.9457 85.7147 39.415 85.512C39.8843 85.3093 40.4017 85.208 40.967 85.208C41.5857 85.208 42.1243 85.3413 42.583 85.608C43.0417 85.864 43.4043 86.1787 43.671 86.552H43.703V80.904H45.207V93H43.751V91.8H43.719ZM38.727 89.192C38.727 89.544 38.7803 89.8853 38.887 90.216C38.9937 90.5467 39.1537 90.84 39.367 91.096C39.5803 91.352 39.8417 91.56 40.151 91.72C40.4603 91.8693 40.823 91.944 41.239 91.944C41.623 91.944 41.9697 91.8693 42.279 91.72C42.599 91.5707 42.871 91.3733 43.095 91.128C43.319 90.872 43.4897 90.5787 43.607 90.248C43.735 89.9173 43.799 89.5707 43.799 89.208C43.799 88.8453 43.735 88.4987 43.607 88.168C43.4897 87.8373 43.319 87.544 43.095 87.288C42.871 87.032 42.599 86.8293 42.279 86.68C41.9697 86.5307 41.623 86.456 41.239 86.456C40.823 86.456 40.4603 86.5307 40.151 86.68C39.8417 86.8293 39.5803 87.032 39.367 87.288C39.1537 87.544 38.9937 87.8373 38.887 88.168C38.7803 88.4987 38.727 88.84 38.727 89.192ZM51.9233 87.336C51.7526 87.0587 51.5126 86.8347 51.2033 86.664C50.8939 86.4827 50.5473 86.392 50.1633 86.392C49.9926 86.392 49.8219 86.4133 49.6513 86.456C49.4806 86.488 49.3259 86.5467 49.1873 86.632C49.0593 86.7067 48.9526 86.808 48.8673 86.936C48.7926 87.0533 48.7553 87.2027 48.7553 87.384C48.7553 87.704 48.8993 87.944 49.1873 88.104C49.4753 88.2533 49.9073 88.392 50.4833 88.52C50.8459 88.6053 51.1819 88.7067 51.4913 88.824C51.8006 88.9413 52.0673 89.0907 52.2913 89.272C52.5259 89.4427 52.7073 89.6507 52.8353 89.896C52.9633 90.1413 53.0273 90.4293 53.0273 90.76C53.0273 91.208 52.9419 91.5867 52.7713 91.896C52.6006 92.2053 52.3713 92.4613 52.0833 92.664C51.8059 92.856 51.4859 92.9947 51.1233 93.08C50.7606 93.1653 50.3873 93.208 50.0033 93.208C49.4273 93.208 48.8619 93.096 48.3073 92.872C47.7633 92.648 47.3099 92.3067 46.9473 91.848L48.0193 90.936C48.2219 91.2347 48.4993 91.4853 48.8513 91.688C49.2139 91.8907 49.6086 91.992 50.0353 91.992C50.2273 91.992 50.4086 91.976 50.5793 91.944C50.7606 91.9013 50.9206 91.8373 51.0593 91.752C51.2086 91.6667 51.3259 91.5547 51.4113 91.416C51.4966 91.2773 51.5393 91.1013 51.5393 90.888C51.5393 90.536 51.3686 90.2747 51.0273 90.104C50.6966 89.9333 50.2059 89.7733 49.5553 89.624C49.2993 89.56 49.0379 89.4853 48.7713 89.4C48.5153 89.304 48.2806 89.176 48.0673 89.016C47.8539 88.856 47.6779 88.6587 47.5393 88.424C47.4113 88.1787 47.3473 87.88 47.3473 87.528C47.3473 87.1227 47.4273 86.776 47.5872 86.488C47.7579 86.1893 47.9766 85.9493 48.2433 85.768C48.5099 85.576 48.8139 85.4373 49.1553 85.352C49.4966 85.256 49.8486 85.208 50.2113 85.208C50.7553 85.208 51.2779 85.3147 51.7793 85.528C52.2913 85.7413 52.6859 86.0507 52.9633 86.456L51.9233 87.336ZM66.4406 90.328L69.0326 93H66.9366L65.5286 91.512C65.102 92.0453 64.6166 92.4613 64.0726 92.76C63.5393 93.0587 62.878 93.208 62.0886 93.208C61.598 93.208 61.1286 93.1387 60.6806 93C60.2326 92.8613 59.838 92.6587 59.4966 92.392C59.166 92.1147 58.8993 91.7787 58.6966 91.384C58.5046 90.9787 58.4086 90.5147 58.4086 89.992C58.4086 89.5653 58.478 89.1867 58.6166 88.856C58.766 88.5147 58.958 88.2107 59.1926 87.944C59.4273 87.6773 59.6993 87.4427 60.0086 87.24C60.318 87.0373 60.6326 86.8613 60.9526 86.712C60.59 86.3387 60.2806 85.944 60.0246 85.528C59.7793 85.1013 59.6566 84.632 59.6566 84.12C59.6566 83.6613 59.7366 83.2613 59.8966 82.92C60.0673 82.5787 60.2913 82.296 60.5686 82.072C60.8566 81.8373 61.182 81.6667 61.5446 81.56C61.9073 81.4427 62.286 81.384 62.6806 81.384C63.0753 81.384 63.4486 81.4427 63.8006 81.56C64.1526 81.6667 64.462 81.832 64.7286 82.056C64.9953 82.28 65.2086 82.5573 65.3686 82.888C65.5286 83.2187 65.6086 83.6027 65.6086 84.04C65.6086 84.4133 65.5393 84.7493 65.4006 85.048C65.2726 85.3467 65.0966 85.6187 64.8726 85.864C64.6486 86.1093 64.3873 86.328 64.0886 86.52C63.8006 86.712 63.4966 86.8827 63.1766 87.032L65.4326 89.352L66.8566 86.952H68.6166L66.4406 90.328ZM64.1526 84.072C64.1526 83.6667 64.014 83.3253 63.7366 83.048C63.47 82.7707 63.1233 82.632 62.6966 82.632C62.2593 82.632 61.8966 82.7707 61.6086 83.048C61.3206 83.3253 61.1766 83.688 61.1766 84.136C61.1766 84.3173 61.2086 84.4987 61.2726 84.68C61.3473 84.8613 61.438 85.0427 61.5446 85.224C61.6513 85.3947 61.7686 85.5547 61.8966 85.704C62.0353 85.8533 62.1686 85.9867 62.2966 86.104C62.5313 85.9973 62.7606 85.88 62.9846 85.752C63.2086 85.624 63.406 85.4747 63.5766 85.304C63.7473 85.1333 63.886 84.9467 63.9926 84.744C64.0993 84.5413 64.1526 84.3173 64.1526 84.072ZM61.8326 87.688C61.278 87.9227 60.8353 88.216 60.5046 88.568C60.174 88.92 60.0086 89.384 60.0086 89.96C60.0086 90.2587 60.0673 90.5307 60.1846 90.776C60.302 91.0213 60.4566 91.2293 60.6486 91.4C60.8513 91.5707 61.0806 91.704 61.3366 91.8C61.5926 91.8853 61.854 91.928 62.1206 91.928C62.6646 91.928 63.1233 91.8107 63.4966 91.576C63.87 91.3307 64.2113 90.9733 64.5206 90.504L61.8326 87.688ZM78.0671 86.648H76.3071V93H74.8031V86.648H73.2991V85.416H74.8031V83.832C74.8031 83.384 74.8511 82.9733 74.9471 82.6C75.0538 82.216 75.2191 81.8853 75.4431 81.608C75.6778 81.3307 75.9711 81.112 76.3231 80.952C76.6858 80.792 77.1231 80.712 77.6351 80.712C77.9978 80.712 78.3125 80.7493 78.5791 80.824L78.4031 82.12C78.2858 82.088 78.1685 82.0613 78.0511 82.04C77.9338 82.0187 77.8005 82.008 77.6511 82.008C77.3631 82.008 77.1285 82.0613 76.9471 82.168C76.7765 82.264 76.6431 82.3973 76.5471 82.568C76.4511 82.7387 76.3871 82.936 76.3551 83.16C76.3231 83.3733 76.3071 83.5973 76.3071 83.832V85.416H78.0671V86.648ZM84.1723 88.088C84.1723 87.5227 84.0016 87.1067 83.6603 86.84C83.3189 86.5627 82.8656 86.424 82.3003 86.424C81.8736 86.424 81.4683 86.5093 81.0843 86.68C80.7109 86.84 80.3963 87.048 80.1403 87.304L79.3403 86.344C79.7136 85.992 80.1669 85.7147 80.7003 85.512C81.2443 85.3093 81.8256 85.208 82.4443 85.208C82.9883 85.208 83.4576 85.288 83.8523 85.448C84.2576 85.5973 84.5883 85.8053 84.8443 86.072C85.1003 86.3387 85.2923 86.6533 85.4203 87.016C85.5483 87.3787 85.6123 87.768 85.6123 88.184V91.496C85.6123 91.752 85.6176 92.024 85.6283 92.312C85.6496 92.5893 85.6816 92.8187 85.7243 93H84.3643C84.2789 92.6373 84.2363 92.2747 84.2363 91.912H84.1883C83.9109 92.3173 83.5589 92.632 83.1323 92.856C82.7163 93.08 82.2203 93.192 81.6443 93.192C81.3456 93.192 81.0309 93.1493 80.7003 93.064C80.3803 92.9893 80.0869 92.8613 79.8203 92.68C79.5536 92.4987 79.3296 92.2587 79.1483 91.96C78.9776 91.6613 78.8923 91.2933 78.8923 90.856C78.8923 90.28 79.0469 89.8267 79.3563 89.496C79.6656 89.1547 80.0709 88.8987 80.5723 88.728C81.0736 88.5467 81.6389 88.4293 82.2682 88.376C82.8976 88.3227 83.5323 88.296 84.1723 88.296V88.088ZM83.8043 89.384C83.4309 89.384 83.0416 89.4 82.6363 89.432C82.2416 89.464 81.8789 89.528 81.5483 89.624C81.2283 89.72 80.9616 89.864 80.7483 90.056C80.5349 90.248 80.4283 90.504 80.4283 90.824C80.4283 91.048 80.4709 91.2347 80.5563 91.384C80.6523 91.5333 80.7749 91.656 80.9243 91.752C81.0736 91.848 81.2389 91.9173 81.4203 91.96C81.6016 91.992 81.7883 92.008 81.9803 92.008C82.6843 92.008 83.2229 91.8 83.5963 91.384C83.9803 90.9573 84.1723 90.424 84.1723 89.784V89.384H83.8043ZM89.5961 86.664C89.7881 86.2587 90.0921 85.9173 90.5081 85.64C90.9348 85.352 91.4361 85.208 92.0121 85.208C92.5241 85.208 92.9828 85.3253 93.3881 85.56C93.8041 85.7947 94.1295 86.184 94.3641 86.728C94.6201 86.2373 94.9775 85.864 95.4361 85.608C95.8948 85.3413 96.3961 85.208 96.9401 85.208C97.4308 85.208 97.8521 85.2933 98.2041 85.464C98.5561 85.624 98.8495 85.8427 99.0841 86.12C99.3188 86.3973 99.4895 86.7227 99.5961 87.096C99.7135 87.4693 99.7721 87.8693 99.7721 88.296V93H98.2681V88.792C98.2681 88.4827 98.2415 88.1893 98.1881 87.912C98.1348 87.6347 98.0441 87.3893 97.9161 87.176C97.7881 86.9627 97.6175 86.792 97.4041 86.664C97.1908 86.536 96.9188 86.472 96.5881 86.472C96.2468 86.472 95.9535 86.5467 95.7081 86.696C95.4628 86.8347 95.2601 87.0213 95.1001 87.256C94.9508 87.48 94.8388 87.736 94.7641 88.024C94.7001 88.312 94.6681 88.6053 94.6681 88.904V93H93.1641V88.488C93.1641 88.1893 93.1375 87.9173 93.0841 87.672C93.0308 87.4267 92.9401 87.2187 92.8121 87.048C92.6841 86.8667 92.5188 86.728 92.3161 86.632C92.1135 86.5253 91.8628 86.472 91.5641 86.472C91.0095 86.472 90.5455 86.7013 90.1721 87.16C89.8095 87.608 89.6281 88.2107 89.6281 88.968V93H88.1241V87.048C88.1241 86.8453 88.1188 86.584 88.1081 86.264C88.0975 85.944 88.0815 85.6613 88.0601 85.416H89.4841C89.5055 85.608 89.5215 85.8267 89.5321 86.072C89.5428 86.3067 89.5481 86.504 89.5481 86.664H89.5961ZM103.832 93H102.328V85.416H103.832V93ZM104.088 82.68C104.088 82.9573 103.986 83.1867 103.784 83.368C103.592 83.5493 103.357 83.64 103.08 83.64C102.802 83.64 102.568 83.5493 102.376 83.368C102.184 83.176 102.088 82.9467 102.088 82.68C102.088 82.4027 102.184 82.1733 102.376 81.992C102.568 81.8 102.802 81.704 103.08 81.704C103.357 81.704 103.592 81.8 103.784 81.992C103.986 82.1733 104.088 82.4027 104.088 82.68ZM107.988 93H106.484V80.904H107.988V93ZM113.489 91.368H113.521L115.617 85.416H117.217L113.536 94.792C113.409 95.112 113.27 95.3947 113.121 95.64C112.971 95.896 112.795 96.1093 112.593 96.28C112.39 96.4613 112.15 96.6 111.873 96.696C111.606 96.792 111.286 96.84 110.913 96.84C110.753 96.84 110.587 96.8293 110.417 96.808C110.257 96.7973 110.091 96.7707 109.921 96.728L110.065 95.4C110.321 95.4853 110.571 95.528 110.817 95.528C111.211 95.528 111.505 95.416 111.697 95.192C111.889 94.9787 112.065 94.6693 112.225 94.264L112.705 93L109.457 85.416H111.137L113.489 91.368Z" fill="black"/>
<path d="M185.232 64.376H185.264L188.608 55.672H191.072V67H189.488V57.528H189.456L185.696 67H184.688L180.944 57.528H180.912V67H179.376V55.672H181.84L185.232 64.376ZM198.469 62.088C198.469 61.5227 198.298 61.1067 197.957 60.84C197.616 60.5627 197.162 60.424 196.597 60.424C196.17 60.424 195.765 60.5093 195.381 60.68C195.008 60.84 194.693 61.048 194.437 61.304L193.637 60.344C194.01 59.992 194.464 59.7147 194.997 59.512C195.541 59.3093 196.122 59.208 196.741 59.208C197.285 59.208 197.754 59.288 198.149 59.448C198.554 59.5973 198.885 59.8053 199.141 60.072C199.397 60.3387 199.589 60.6533 199.717 61.016C199.845 61.3787 199.909 61.768 199.909 62.184V65.496C199.909 65.752 199.914 66.024 199.925 66.312C199.946 66.5893 199.978 66.8187 200.021 67H198.661C198.576 66.6373 198.533 66.2747 198.533 65.912H198.485C198.208 66.3173 197.856 66.632 197.429 66.856C197.013 67.08 196.517 67.192 195.941 67.192C195.642 67.192 195.328 67.1493 194.997 67.064C194.677 66.9893 194.384 66.8613 194.117 66.68C193.85 66.4987 193.626 66.2587 193.445 65.96C193.274 65.6613 193.189 65.2933 193.189 64.856C193.189 64.28 193.344 63.8267 193.653 63.496C193.962 63.1547 194.368 62.8987 194.869 62.728C195.37 62.5467 195.936 62.4293 196.565 62.376C197.194 62.3227 197.829 62.296 198.469 62.296V62.088ZM198.101 63.384C197.728 63.384 197.338 63.4 196.933 63.432C196.538 63.464 196.176 63.528 195.845 63.624C195.525 63.72 195.258 63.864 195.045 64.056C194.832 64.248 194.725 64.504 194.725 64.824C194.725 65.048 194.768 65.2347 194.853 65.384C194.949 65.5333 195.072 65.656 195.221 65.752C195.37 65.848 195.536 65.9173 195.717 65.96C195.898 65.992 196.085 66.008 196.277 66.008C196.981 66.008 197.52 65.8 197.893 65.384C198.277 64.9573 198.469 64.424 198.469 63.784V63.384H198.101ZM205.977 60.648H203.961V64.6C203.961 65.0587 204.046 65.3893 204.217 65.592C204.387 65.784 204.659 65.88 205.033 65.88C205.171 65.88 205.321 65.864 205.481 65.832C205.641 65.8 205.785 65.752 205.913 65.688L205.961 66.92C205.779 66.984 205.577 67.032 205.353 67.064C205.139 67.1067 204.915 67.128 204.681 67.128C203.966 67.128 203.417 66.9307 203.033 66.536C202.659 66.1413 202.473 65.5493 202.473 64.76V60.648H201.017V59.416H202.473V57.24H203.961V59.416H205.977V60.648ZM212.842 61.336C212.682 61.0907 212.442 60.888 212.122 60.728C211.802 60.5573 211.461 60.472 211.098 60.472C210.704 60.472 210.352 60.5467 210.042 60.696C209.744 60.8453 209.488 61.048 209.274 61.304C209.061 61.5493 208.896 61.8373 208.778 62.168C208.672 62.4987 208.618 62.8453 208.618 63.208C208.618 63.5707 208.672 63.9173 208.778 64.248C208.896 64.5787 209.061 64.872 209.274 65.128C209.488 65.3733 209.749 65.5707 210.058 65.72C210.368 65.8693 210.72 65.944 211.114 65.944C211.498 65.944 211.845 65.8693 212.154 65.72C212.474 65.5707 212.736 65.368 212.938 65.112L213.946 66.024C213.626 66.3973 213.226 66.6907 212.746 66.904C212.266 67.1067 211.722 67.208 211.114 67.208C210.528 67.208 209.984 67.112 209.482 66.92C208.992 66.728 208.565 66.4613 208.202 66.12C207.84 65.768 207.552 65.3467 207.338 64.856C207.136 64.3653 207.034 63.816 207.034 63.208C207.034 62.6107 207.136 62.0667 207.338 61.576C207.541 61.0853 207.824 60.664 208.186 60.312C208.549 59.96 208.976 59.688 209.466 59.496C209.968 59.304 210.506 59.208 211.082 59.208C211.616 59.208 212.144 59.3147 212.666 59.528C213.2 59.7413 213.621 60.0507 213.93 60.456L212.842 61.336ZM217.005 60.568C217.186 60.1947 217.495 59.8747 217.933 59.608C218.37 59.3413 218.861 59.208 219.405 59.208C219.895 59.208 220.317 59.2933 220.669 59.464C221.021 59.624 221.314 59.8427 221.549 60.12C221.783 60.3973 221.954 60.7227 222.061 61.096C222.178 61.4693 222.237 61.8693 222.237 62.296V67H220.733V62.808C220.733 62.4987 220.706 62.2053 220.653 61.928C220.61 61.6507 220.525 61.4053 220.397 61.192C220.269 60.9787 220.093 60.808 219.869 60.68C219.655 60.552 219.373 60.488 219.021 60.488C218.423 60.488 217.933 60.7173 217.549 61.176C217.165 61.624 216.973 62.2267 216.973 62.984V67H215.469V54.904H216.973V60.568H217.005ZM232.876 61.336C232.706 61.0587 232.466 60.8347 232.156 60.664C231.847 60.4827 231.5 60.392 231.116 60.392C230.946 60.392 230.775 60.4133 230.604 60.456C230.434 60.488 230.279 60.5467 230.14 60.632C230.012 60.7067 229.906 60.808 229.82 60.936C229.746 61.0533 229.708 61.2027 229.708 61.384C229.708 61.704 229.852 61.944 230.14 62.104C230.428 62.2533 230.86 62.392 231.436 62.52C231.799 62.6053 232.135 62.7067 232.444 62.824C232.754 62.9413 233.02 63.0907 233.244 63.272C233.479 63.4427 233.66 63.6507 233.788 63.896C233.916 64.1413 233.98 64.4293 233.98 64.76C233.98 65.208 233.895 65.5867 233.724 65.896C233.554 66.2053 233.324 66.4613 233.036 66.664C232.759 66.856 232.439 66.9947 232.076 67.08C231.714 67.1653 231.34 67.208 230.956 67.208C230.38 67.208 229.815 67.096 229.26 66.872C228.716 66.648 228.263 66.3067 227.9 65.848L228.972 64.936C229.175 65.2347 229.452 65.4853 229.804 65.688C230.167 65.8907 230.562 65.992 230.988 65.992C231.18 65.992 231.362 65.976 231.532 65.944C231.714 65.9013 231.874 65.8373 232.012 65.752C232.162 65.6667 232.279 65.5547 232.364 65.416C232.45 65.2773 232.492 65.1013 232.492 64.888C232.492 64.536 232.322 64.2747 231.98 64.104C231.65 63.9333 231.159 63.7733 230.508 63.624C230.252 63.56 229.991 63.4853 229.724 63.4C229.468 63.304 229.234 63.176 229.02 63.016C228.807 62.856 228.631 62.6587 228.492 62.424C228.364 62.1787 228.3 61.88 228.3 61.528C228.3 61.1227 228.38 60.776 228.54 60.488C228.711 60.1893 228.93 59.9493 229.196 59.768C229.463 59.576 229.767 59.4373 230.108 59.352C230.45 59.256 230.802 59.208 231.164 59.208C231.708 59.208 232.231 59.3147 232.732 59.528C233.244 59.7413 233.639 60.0507 233.916 60.456L232.876 61.336ZM239.602 60.648H237.586V64.6C237.586 65.0587 237.671 65.3893 237.842 65.592C238.012 65.784 238.284 65.88 238.658 65.88C238.796 65.88 238.946 65.864 239.106 65.832C239.266 65.8 239.41 65.752 239.538 65.688L239.586 66.92C239.404 66.984 239.202 67.032 238.978 67.064C238.764 67.1067 238.54 67.128 238.306 67.128C237.591 67.128 237.042 66.9307 236.658 66.536C236.284 66.1413 236.098 65.5493 236.098 64.76V60.648H234.642V59.416H236.098V57.24H237.586V59.416H239.602V60.648ZM244.035 65.368H244.067L246.163 59.416H247.763L244.083 68.792C243.955 69.112 243.817 69.3947 243.667 69.64C243.518 69.896 243.342 70.1093 243.139 70.28C242.937 70.4613 242.697 70.6 242.419 70.696C242.153 70.792 241.833 70.84 241.459 70.84C241.299 70.84 241.134 70.8293 240.963 70.808C240.803 70.7973 240.638 70.7707 240.467 70.728L240.611 69.4C240.867 69.4853 241.118 69.528 241.363 69.528C241.758 69.528 242.051 69.416 242.243 69.192C242.435 68.9787 242.611 68.6693 242.771 68.264L243.251 67L240.003 59.416H241.683L244.035 65.368ZM250.754 67H249.25V54.904H250.754V67ZM258.926 62.536C258.915 62.2373 258.862 61.96 258.766 61.704C258.681 61.4373 258.547 61.208 258.366 61.016C258.195 60.824 257.977 60.6747 257.71 60.568C257.454 60.4507 257.15 60.392 256.798 60.392C256.478 60.392 256.174 60.4507 255.886 60.568C255.609 60.6747 255.363 60.824 255.15 61.016C254.947 61.208 254.777 61.4373 254.638 61.704C254.51 61.96 254.435 62.2373 254.414 62.536H258.926ZM260.446 63.144C260.446 63.2293 260.446 63.3147 260.446 63.4C260.446 63.4853 260.441 63.5707 260.43 63.656H254.414C254.425 63.976 254.494 64.28 254.622 64.568C254.761 64.8453 254.942 65.0907 255.166 65.304C255.39 65.5067 255.646 65.6667 255.934 65.784C256.233 65.9013 256.547 65.96 256.878 65.96C257.39 65.96 257.833 65.848 258.206 65.624C258.579 65.4 258.873 65.128 259.086 64.808L260.142 65.656C259.737 66.1893 259.257 66.584 258.702 66.84C258.158 67.0853 257.55 67.208 256.878 67.208C256.302 67.208 255.769 67.112 255.278 66.92C254.787 66.728 254.366 66.4613 254.014 66.12C253.662 65.768 253.385 65.3467 253.182 64.856C252.979 64.3653 252.878 63.8213 252.878 63.224C252.878 62.6373 252.974 62.0987 253.166 61.608C253.369 61.1067 253.646 60.68 253.998 60.328C254.35 59.976 254.766 59.704 255.246 59.512C255.726 59.3093 256.243 59.208 256.798 59.208C257.353 59.208 257.854 59.2987 258.302 59.48C258.761 59.6613 259.145 59.9227 259.454 60.264C259.774 60.6053 260.019 61.0213 260.19 61.512C260.361 61.992 260.446 62.536 260.446 63.144ZM266.642 61.336C266.471 61.0587 266.231 60.8347 265.922 60.664C265.613 60.4827 265.266 60.392 264.882 60.392C264.711 60.392 264.541 60.4133 264.37 60.456C264.199 60.488 264.045 60.5467 263.906 60.632C263.778 60.7067 263.671 60.808 263.586 60.936C263.511 61.0533 263.474 61.2027 263.474 61.384C263.474 61.704 263.618 61.944 263.906 62.104C264.194 62.2533 264.626 62.392 265.202 62.52C265.565 62.6053 265.901 62.7067 266.21 62.824C266.519 62.9413 266.786 63.0907 267.01 63.272C267.245 63.4427 267.426 63.6507 267.554 63.896C267.682 64.1413 267.746 64.4293 267.746 64.76C267.746 65.208 267.661 65.5867 267.49 65.896C267.319 66.2053 267.09 66.4613 266.802 66.664C266.525 66.856 266.205 66.9947 265.842 67.08C265.479 67.1653 265.106 67.208 264.722 67.208C264.146 67.208 263.581 67.096 263.026 66.872C262.482 66.648 262.029 66.3067 261.666 65.848L262.738 64.936C262.941 65.2347 263.218 65.4853 263.57 65.688C263.933 65.8907 264.327 65.992 264.754 65.992C264.946 65.992 265.127 65.976 265.298 65.944C265.479 65.9013 265.639 65.8373 265.778 65.752C265.927 65.6667 266.045 65.5547 266.13 65.416C266.215 65.2773 266.258 65.1013 266.258 64.888C266.258 64.536 266.087 64.2747 265.746 64.104C265.415 63.9333 264.925 63.7733 264.274 63.624C264.018 63.56 263.757 63.4853 263.49 63.4C263.234 63.304 262.999 63.176 262.786 63.016C262.573 62.856 262.397 62.6587 262.258 62.424C262.13 62.1787 262.066 61.88 262.066 61.528C262.066 61.1227 262.146 60.776 262.306 60.488C262.477 60.1893 262.695 59.9493 262.962 59.768C263.229 59.576 263.533 59.4373 263.874 59.352C264.215 59.256 264.567 59.208 264.93 59.208C265.474 59.208 265.997 59.3147 266.498 59.528C267.01 59.7413 267.405 60.0507 267.682 60.456L266.642 61.336ZM179.856 85.416L181.568 91.208H181.6L183.408 85.416H184.992L186.832 91.208H186.864L188.576 85.416H190.16L187.648 93H186.08L184.208 87.304H184.176L182.32 93H180.752L178.224 85.416H179.856ZM193.191 93H191.687V85.416H193.191V93ZM193.447 82.68C193.447 82.9573 193.346 83.1867 193.143 83.368C192.951 83.5493 192.716 83.64 192.439 83.64C192.162 83.64 191.927 83.5493 191.735 83.368C191.543 83.176 191.447 82.9467 191.447 82.68C191.447 82.4027 191.543 82.1733 191.735 81.992C191.927 81.8 192.162 81.704 192.439 81.704C192.716 81.704 192.951 81.8 193.143 81.992C193.346 82.1733 193.447 82.4027 193.447 82.68ZM199.524 86.648H197.508V90.6C197.508 91.0587 197.593 91.3893 197.764 91.592C197.934 91.784 198.206 91.88 198.58 91.88C198.718 91.88 198.868 91.864 199.028 91.832C199.188 91.8 199.332 91.752 199.46 91.688L199.508 92.92C199.326 92.984 199.124 93.032 198.9 93.064C198.686 93.1067 198.462 93.128 198.228 93.128C197.513 93.128 196.964 92.9307 196.58 92.536C196.206 92.1413 196.02 91.5493 196.02 90.76V86.648H194.564V85.416H196.02V83.24H197.508V85.416H199.524V86.648ZM202.645 86.568C202.827 86.1947 203.136 85.8747 203.573 85.608C204.011 85.3413 204.501 85.208 205.045 85.208C205.536 85.208 205.957 85.2933 206.309 85.464C206.661 85.624 206.955 85.8427 207.189 86.12C207.424 86.3973 207.595 86.7227 207.701 87.096C207.819 87.4693 207.877 87.8693 207.877 88.296V93H206.373V88.808C206.373 88.4987 206.347 88.2053 206.293 87.928C206.251 87.6507 206.165 87.4053 206.037 87.192C205.909 86.9787 205.733 86.808 205.509 86.68C205.296 86.552 205.013 86.488 204.661 86.488C204.064 86.488 203.573 86.7173 203.189 87.176C202.805 87.624 202.613 88.2267 202.613 88.984V93H201.109V80.904H202.613V86.568H202.645ZM217.989 86.648H216.229V93H214.725V86.648H213.221V85.416H214.725V83.832C214.725 83.384 214.773 82.9733 214.869 82.6C214.976 82.216 215.141 81.8853 215.365 81.608C215.6 81.3307 215.893 81.112 216.245 80.952C216.608 80.792 217.045 80.712 217.557 80.712C217.92 80.712 218.234 80.7493 218.501 80.824L218.325 82.12C218.208 82.088 218.09 82.0613 217.973 82.04C217.856 82.0187 217.722 82.008 217.573 82.008C217.285 82.008 217.05 82.0613 216.869 82.168C216.698 82.264 216.565 82.3973 216.469 82.568C216.373 82.7387 216.309 82.936 216.277 83.16C216.245 83.3733 216.229 83.5973 216.229 83.832V85.416H217.989V86.648ZM219.374 87.048C219.374 86.8453 219.369 86.584 219.358 86.264C219.347 85.944 219.331 85.6613 219.31 85.416H220.734C220.755 85.608 220.771 85.832 220.782 86.088C220.793 86.3333 220.798 86.536 220.798 86.696H220.846C221.059 86.248 221.369 85.8907 221.774 85.624C222.19 85.3467 222.654 85.208 223.166 85.208C223.401 85.208 223.598 85.2293 223.758 85.272L223.694 86.664C223.481 86.6107 223.251 86.584 223.006 86.584C222.643 86.584 222.329 86.6533 222.062 86.792C221.795 86.92 221.571 87.096 221.39 87.32C221.219 87.544 221.091 87.8053 221.006 88.104C220.921 88.392 220.878 88.696 220.878 89.016V93H219.374V87.048ZM226.691 93H225.187V85.416H226.691V93ZM226.947 82.68C226.947 82.9573 226.846 83.1867 226.643 83.368C226.451 83.5493 226.216 83.64 225.939 83.64C225.662 83.64 225.427 83.5493 225.235 83.368C225.043 83.176 224.947 82.9467 224.947 82.68C224.947 82.4027 225.043 82.1733 225.235 81.992C225.427 81.8 225.662 81.704 225.939 81.704C226.216 81.704 226.451 81.8 226.643 81.992C226.846 82.1733 226.947 82.4027 226.947 82.68ZM234.864 88.536C234.853 88.2373 234.8 87.96 234.704 87.704C234.618 87.4373 234.485 87.208 234.304 87.016C234.133 86.824 233.914 86.6747 233.648 86.568C233.392 86.4507 233.088 86.392 232.736 86.392C232.416 86.392 232.112 86.4507 231.824 86.568C231.546 86.6747 231.301 86.824 231.088 87.016C230.885 87.208 230.714 87.4373 230.576 87.704C230.448 87.96 230.373 88.2373 230.352 88.536H234.864ZM236.384 89.144C236.384 89.2293 236.384 89.3147 236.384 89.4C236.384 89.4853 236.378 89.5707 236.368 89.656H230.352C230.362 89.976 230.432 90.28 230.56 90.568C230.698 90.8453 230.88 91.0907 231.104 91.304C231.328 91.5067 231.584 91.6667 231.872 91.784C232.17 91.9013 232.485 91.96 232.816 91.96C233.328 91.96 233.77 91.848 234.144 91.624C234.517 91.4 234.81 91.128 235.024 90.808L236.08 91.656C235.674 92.1893 235.194 92.584 234.64 92.84C234.096 93.0853 233.488 93.208 232.816 93.208C232.24 93.208 231.706 93.112 231.216 92.92C230.725 92.728 230.304 92.4613 229.952 92.12C229.6 91.768 229.322 91.3467 229.12 90.856C228.917 90.3653 228.816 89.8213 228.816 89.224C228.816 88.6373 228.912 88.0987 229.104 87.608C229.306 87.1067 229.584 86.68 229.936 86.328C230.288 85.976 230.704 85.704 231.184 85.512C231.664 85.3093 232.181 85.208 232.736 85.208C233.29 85.208 233.792 85.2987 234.24 85.48C234.698 85.6613 235.082 85.9227 235.392 86.264C235.712 86.6053 235.957 87.0213 236.128 87.512C236.298 87.992 236.384 88.536 236.384 89.144ZM239.844 85.416C239.865 85.608 239.881 85.8267 239.892 86.072C239.902 86.3067 239.908 86.504 239.908 86.664H239.956C240.052 86.4613 240.18 86.2747 240.34 86.104C240.51 85.9227 240.702 85.768 240.916 85.64C241.129 85.5013 241.364 85.3947 241.62 85.32C241.876 85.2453 242.142 85.208 242.42 85.208C242.91 85.208 243.332 85.2933 243.684 85.464C244.036 85.624 244.329 85.8427 244.564 86.12C244.798 86.3973 244.969 86.7227 245.076 87.096C245.193 87.4693 245.252 87.8693 245.252 88.296V93H243.748V88.792C243.748 88.4827 243.721 88.1893 243.668 87.912C243.625 87.6347 243.54 87.3893 243.412 87.176C243.284 86.9627 243.108 86.792 242.884 86.664C242.66 86.536 242.372 86.472 242.02 86.472C241.422 86.472 240.932 86.7013 240.548 87.16C240.174 87.608 239.988 88.2107 239.988 88.968V93H238.484V87.048C238.484 86.8453 238.478 86.584 238.468 86.264C238.457 85.944 238.441 85.6613 238.42 85.416H239.844ZM253.844 91.8C253.556 92.2587 253.161 92.6107 252.66 92.856C252.169 93.0907 251.652 93.208 251.108 93.208C250.521 93.208 249.993 93.1067 249.524 92.904C249.055 92.6907 248.655 92.4027 248.324 92.04C247.993 91.6773 247.737 91.2507 247.556 90.76C247.375 90.2693 247.284 89.7467 247.284 89.192C247.284 88.6373 247.375 88.12 247.556 87.64C247.737 87.1493 247.993 86.7227 248.324 86.36C248.665 85.9973 249.071 85.7147 249.54 85.512C250.009 85.3093 250.527 85.208 251.092 85.208C251.711 85.208 252.249 85.3413 252.708 85.608C253.167 85.864 253.529 86.1787 253.796 86.552H253.828V80.904H255.332V93H253.876V91.8H253.844ZM248.852 89.192C248.852 89.544 248.905 89.8853 249.012 90.216C249.119 90.5467 249.279 90.84 249.492 91.096C249.705 91.352 249.967 91.56 250.276 91.72C250.585 91.8693 250.948 91.944 251.364 91.944C251.748 91.944 252.095 91.8693 252.404 91.72C252.724 91.5707 252.996 91.3733 253.22 91.128C253.444 90.872 253.615 90.5787 253.732 90.248C253.86 89.9173 253.924 89.5707 253.924 89.208C253.924 88.8453 253.86 88.4987 253.732 88.168C253.615 87.8373 253.444 87.544 253.22 87.288C252.996 87.032 252.724 86.8293 252.404 86.68C252.095 86.5307 251.748 86.456 251.364 86.456C250.948 86.456 250.585 86.5307 250.276 86.68C249.967 86.8293 249.705 87.032 249.492 87.288C249.279 87.544 249.119 87.8373 249.012 88.168C248.905 88.4987 248.852 88.84 248.852 89.192ZM262.048 87.336C261.878 87.0587 261.638 86.8347 261.328 86.664C261.019 86.4827 260.672 86.392 260.288 86.392C260.118 86.392 259.947 86.4133 259.776 86.456C259.606 86.488 259.451 86.5467 259.312 86.632C259.184 86.7067 259.078 86.808 258.992 86.936C258.918 87.0533 258.88 87.2027 258.88 87.384C258.88 87.704 259.024 87.944 259.312 88.104C259.6 88.2533 260.032 88.392 260.608 88.52C260.971 88.6053 261.307 88.7067 261.616 88.824C261.926 88.9413 262.192 89.0907 262.416 89.272C262.651 89.4427 262.832 89.6507 262.96 89.896C263.088 90.1413 263.152 90.4293 263.152 90.76C263.152 91.208 263.067 91.5867 262.896 91.896C262.726 92.2053 262.496 92.4613 262.208 92.664C261.931 92.856 261.611 92.9947 261.248 93.08C260.886 93.1653 260.512 93.208 260.128 93.208C259.552 93.208 258.987 93.096 258.432 92.872C257.888 92.648 257.435 92.3067 257.072 91.848L258.144 90.936C258.347 91.2347 258.624 91.4853 258.976 91.688C259.339 91.8907 259.734 91.992 260.16 91.992C260.352 91.992 260.534 91.976 260.704 91.944C260.886 91.9013 261.046 91.8373 261.184 91.752C261.334 91.6667 261.451 91.5547 261.536 91.416C261.622 91.2773 261.664 91.1013 261.664 90.888C261.664 90.536 261.494 90.2747 261.152 90.104C260.822 89.9333 260.331 89.7733 259.68 89.624C259.424 89.56 259.163 89.4853 258.896 89.4C258.64 89.304 258.406 89.176 258.192 89.016C257.979 88.856 257.803 88.6587 257.664 88.424C257.536 88.1787 257.472 87.88 257.472 87.528C257.472 87.1227 257.552 86.776 257.712 86.488C257.883 86.1893 258.102 85.9493 258.368 85.768C258.635 85.576 258.939 85.4373 259.28 85.352C259.622 85.256 259.974 85.208 260.336 85.208C260.88 85.208 261.403 85.3147 261.904 85.528C262.416 85.7413 262.811 86.0507 263.088 86.456L262.048 87.336Z" fill="black"/>
<path d="M412 21L422 30.5L434.5 11" stroke="white" stroke-width="3"/>
<path d="M363.008 58.768C362.784 58.4587 362.48 58.208 362.096 58.016C361.712 57.8133 361.28 57.712 360.8 57.712C360.544 57.712 360.283 57.7493 360.016 57.824C359.76 57.888 359.525 58 359.312 58.16C359.099 58.3093 358.923 58.5013 358.784 58.736C358.656 58.96 358.592 59.232 358.592 59.552C358.592 59.8613 358.651 60.1227 358.768 60.336C358.896 60.5387 359.061 60.7147 359.264 60.864C359.477 61.0027 359.723 61.1253 360 61.232C360.288 61.328 360.592 61.4293 360.912 61.536C361.296 61.6533 361.685 61.7867 362.08 61.936C362.475 62.0853 362.832 62.2827 363.152 62.528C363.472 62.7733 363.733 63.0827 363.936 63.456C364.139 63.8187 364.24 64.2827 364.24 64.848C364.24 65.4347 364.128 65.9467 363.904 66.384C363.691 66.8107 363.403 67.168 363.04 67.456C362.677 67.7333 362.256 67.9413 361.776 68.08C361.307 68.2187 360.821 68.288 360.32 68.288C359.605 68.288 358.912 68.1493 358.24 67.872C357.579 67.5947 357.029 67.184 356.592 66.64L357.824 65.6C358.091 65.9947 358.448 66.3147 358.896 66.56C359.344 66.8053 359.829 66.928 360.352 66.928C360.619 66.928 360.885 66.8907 361.152 66.816C361.419 66.7413 361.659 66.624 361.872 66.464C362.096 66.304 362.277 66.1067 362.416 65.872C362.555 65.6267 362.624 65.3333 362.624 64.992C362.624 64.6507 362.549 64.368 362.4 64.144C362.261 63.9093 362.069 63.712 361.824 63.552C361.579 63.392 361.291 63.2587 360.96 63.152C360.64 63.0347 360.299 62.9173 359.936 62.8C359.573 62.6933 359.216 62.5653 358.864 62.416C358.512 62.256 358.197 62.0587 357.92 61.824C357.643 61.5787 357.419 61.28 357.248 60.928C357.077 60.576 356.992 60.1387 356.992 59.616C356.992 59.0507 357.104 58.5653 357.328 58.16C357.563 57.7547 357.861 57.4187 358.224 57.152C358.597 56.8853 359.013 56.6933 359.472 56.576C359.941 56.448 360.411 56.384 360.88 56.384C361.541 56.384 362.16 56.5013 362.736 56.736C363.312 56.9707 363.776 57.2853 364.128 57.68L363.008 58.768ZM367.973 61.568C368.155 61.1947 368.464 60.8747 368.901 60.608C369.339 60.3413 369.829 60.208 370.373 60.208C370.864 60.208 371.285 60.2933 371.637 60.464C371.989 60.624 372.283 60.8427 372.517 61.12C372.752 61.3973 372.923 61.7227 373.029 62.096C373.147 62.4693 373.205 62.8693 373.205 63.296V68H371.701V63.808C371.701 63.4987 371.675 63.2053 371.621 62.928C371.579 62.6507 371.493 62.4053 371.365 62.192C371.237 61.9787 371.061 61.808 370.837 61.68C370.624 61.552 370.341 61.488 369.989 61.488C369.392 61.488 368.901 61.7173 368.517 62.176C368.133 62.624 367.941 63.2267 367.941 63.984V68H366.437V55.904H367.941V61.568H367.973ZM383.429 64.192C383.429 64.7787 383.322 65.3173 383.109 65.808C382.906 66.2987 382.618 66.7253 382.245 67.088C381.882 67.44 381.45 67.7173 380.949 67.92C380.448 68.112 379.909 68.208 379.333 68.208C378.757 68.208 378.218 68.112 377.717 67.92C377.216 67.7173 376.784 67.44 376.421 67.088C376.058 66.7253 375.77 66.2987 375.557 65.808C375.354 65.3173 375.253 64.7787 375.253 64.192C375.253 63.6053 375.354 63.072 375.557 62.592C375.77 62.1013 376.058 61.68 376.421 61.328C376.784 60.976 377.216 60.704 377.717 60.512C378.218 60.3093 378.757 60.208 379.333 60.208C379.909 60.208 380.448 60.3093 380.949 60.512C381.45 60.704 381.882 60.976 382.245 61.328C382.618 61.68 382.906 62.1013 383.109 62.592C383.322 63.072 383.429 63.6053 383.429 64.192ZM381.861 64.192C381.861 63.8293 381.802 63.4827 381.685 63.152C381.578 62.8213 381.418 62.5333 381.205 62.288C380.992 62.032 380.725 61.8293 380.405 61.68C380.096 61.5307 379.738 61.456 379.333 61.456C378.928 61.456 378.565 61.5307 378.245 61.68C377.936 61.8293 377.674 62.032 377.461 62.288C377.248 62.5333 377.082 62.8213 376.965 63.152C376.858 63.4827 376.805 63.8293 376.805 64.192C376.805 64.5547 376.858 64.9013 376.965 65.232C377.082 65.5627 377.248 65.856 377.461 66.112C377.674 66.368 377.936 66.5707 378.245 66.72C378.565 66.8693 378.928 66.944 379.333 66.944C379.738 66.944 380.096 66.8693 380.405 66.72C380.725 66.5707 380.992 66.368 381.205 66.112C381.418 65.856 381.578 65.5627 381.685 65.232C381.802 64.9013 381.861 64.5547 381.861 64.192ZM387.019 71.84H385.515V60.416H386.987V61.6H387.035C387.28 61.1947 387.637 60.864 388.107 60.608C388.587 60.3413 389.141 60.208 389.771 60.208C390.336 60.208 390.848 60.3093 391.307 60.512C391.776 60.7147 392.176 60.9973 392.507 61.36C392.848 61.7227 393.109 62.1493 393.291 62.64C393.472 63.12 393.563 63.6373 393.563 64.192C393.563 64.7467 393.472 65.2693 393.291 65.76C393.109 66.2507 392.853 66.6773 392.523 67.04C392.192 67.4027 391.792 67.6907 391.323 67.904C390.853 68.1067 390.325 68.208 389.739 68.208C389.195 68.208 388.683 68.0907 388.203 67.856C387.723 67.6213 387.344 67.2907 387.067 66.864H387.019V71.84ZM392.011 64.192C392.011 63.84 391.957 63.4987 391.851 63.168C391.744 62.8373 391.584 62.544 391.371 62.288C391.157 62.032 390.891 61.8293 390.571 61.68C390.261 61.5307 389.899 61.456 389.483 61.456C389.099 61.456 388.747 61.5307 388.427 61.68C388.117 61.8293 387.851 62.032 387.627 62.288C387.403 62.544 387.227 62.8373 387.099 63.168C386.981 63.4987 386.923 63.8453 386.923 64.208C386.923 64.5707 386.981 64.9173 387.099 65.248C387.227 65.5787 387.403 65.872 387.627 66.128C387.851 66.3733 388.117 66.5707 388.427 66.72C388.747 66.8693 389.099 66.944 389.483 66.944C389.899 66.944 390.261 66.8693 390.571 66.72C390.891 66.56 391.157 66.352 391.371 66.096C391.584 65.84 391.744 65.5467 391.851 65.216C391.957 64.8853 392.011 64.544 392.011 64.192ZM407.335 64.192C407.335 64.7787 407.229 65.3173 407.015 65.808C406.813 66.2987 406.525 66.7253 406.151 67.088C405.789 67.44 405.357 67.7173 404.855 67.92C404.354 68.112 403.815 68.208 403.239 68.208C402.663 68.208 402.125 68.112 401.623 67.92C401.122 67.7173 400.69 67.44 400.327 67.088C399.965 66.7253 399.677 66.2987 399.463 65.808C399.261 65.3173 399.159 64.7787 399.159 64.192C399.159 63.6053 399.261 63.072 399.463 62.592C399.677 62.1013 399.965 61.68 400.327 61.328C400.69 60.976 401.122 60.704 401.623 60.512C402.125 60.3093 402.663 60.208 403.239 60.208C403.815 60.208 404.354 60.3093 404.855 60.512C405.357 60.704 405.789 60.976 406.151 61.328C406.525 61.68 406.813 62.1013 407.015 62.592C407.229 63.072 407.335 63.6053 407.335 64.192ZM405.767 64.192C405.767 63.8293 405.709 63.4827 405.591 63.152C405.485 62.8213 405.325 62.5333 405.111 62.288C404.898 62.032 404.631 61.8293 404.311 61.68C404.002 61.5307 403.645 61.456 403.239 61.456C402.834 61.456 402.471 61.5307 402.151 61.68C401.842 61.8293 401.581 62.032 401.367 62.288C401.154 62.5333 400.989 62.8213 400.871 63.152C400.765 63.4827 400.711 63.8293 400.711 64.192C400.711 64.5547 400.765 64.9013 400.871 65.232C400.989 65.5627 401.154 65.856 401.367 66.112C401.581 66.368 401.842 66.5707 402.151 66.72C402.471 66.8693 402.834 66.944 403.239 66.944C403.645 66.944 404.002 66.8693 404.311 66.72C404.631 66.5707 404.898 66.368 405.111 66.112C405.325 65.856 405.485 65.5627 405.591 65.232C405.709 64.9013 405.767 64.5547 405.767 64.192ZM410.781 60.416C410.802 60.608 410.818 60.8267 410.829 61.072C410.84 61.3067 410.845 61.504 410.845 61.664H410.893C410.989 61.4613 411.117 61.2747 411.277 61.104C411.448 60.9227 411.64 60.768 411.853 60.64C412.066 60.5013 412.301 60.3947 412.557 60.32C412.813 60.2453 413.08 60.208 413.357 60.208C413.848 60.208 414.269 60.2933 414.621 60.464C414.973 60.624 415.266 60.8427 415.501 61.12C415.736 61.3973 415.906 61.7227 416.013 62.096C416.13 62.4693 416.189 62.8693 416.189 63.296V68H414.685V63.792C414.685 63.4827 414.658 63.1893 414.605 62.912C414.562 62.6347 414.477 62.3893 414.349 62.176C414.221 61.9627 414.045 61.792 413.821 61.664C413.597 61.536 413.309 61.472 412.957 61.472C412.36 61.472 411.869 61.7013 411.485 62.16C411.112 62.608 410.925 63.2107 410.925 63.968V68H409.421V62.048C409.421 61.8453 409.416 61.584 409.405 61.264C409.394 60.944 409.378 60.6613 409.357 60.416H410.781ZM420.27 68H418.766V55.904H420.27V68ZM424.41 68H422.906V60.416H424.41V68ZM424.666 57.68C424.666 57.9573 424.564 58.1867 424.362 58.368C424.17 58.5493 423.935 58.64 423.658 58.64C423.38 58.64 423.146 58.5493 422.954 58.368C422.762 58.176 422.666 57.9467 422.666 57.68C422.666 57.4027 422.762 57.1733 422.954 56.992C423.146 56.8 423.38 56.704 423.658 56.704C423.935 56.704 424.17 56.8 424.362 56.992C424.564 57.1733 424.666 57.4027 424.666 57.68ZM428.39 60.416C428.412 60.608 428.428 60.8267 428.438 61.072C428.449 61.3067 428.454 61.504 428.454 61.664H428.502C428.598 61.4613 428.726 61.2747 428.886 61.104C429.057 60.9227 429.249 60.768 429.462 60.64C429.676 60.5013 429.91 60.3947 430.166 60.32C430.422 60.2453 430.689 60.208 430.966 60.208C431.457 60.208 431.878 60.2933 432.23 60.464C432.582 60.624 432.876 60.8427 433.11 61.12C433.345 61.3973 433.516 61.7227 433.622 62.096C433.74 62.4693 433.798 62.8693 433.798 63.296V68H432.294V63.792C432.294 63.4827 432.268 63.1893 432.214 62.912C432.172 62.6347 432.086 62.3893 431.958 62.176C431.83 61.9627 431.654 61.792 431.43 61.664C431.206 61.536 430.918 61.472 430.566 61.472C429.969 61.472 429.478 61.7013 429.094 62.16C428.721 62.608 428.534 63.2107 428.534 63.968V68H427.03V62.048C427.03 61.8453 427.025 61.584 427.014 61.264C427.004 60.944 426.988 60.6613 426.966 60.416H428.39ZM441.895 63.536C441.884 63.2373 441.831 62.96 441.735 62.704C441.65 62.4373 441.516 62.208 441.335 62.016C441.164 61.824 440.946 61.6747 440.679 61.568C440.423 61.4507 440.119 61.392 439.767 61.392C439.447 61.392 439.143 61.4507 438.855 61.568C438.578 61.6747 438.332 61.824 438.119 62.016C437.916 62.208 437.746 62.4373 437.607 62.704C437.479 62.96 437.404 63.2373 437.383 63.536H441.895ZM443.415 64.144C443.415 64.2293 443.415 64.3147 443.415 64.4C443.415 64.4853 443.41 64.5707 443.399 64.656H437.383C437.394 64.976 437.463 65.28 437.591 65.568C437.73 65.8453 437.911 66.0907 438.135 66.304C438.359 66.5067 438.615 66.6667 438.903 66.784C439.202 66.9013 439.516 66.96 439.847 66.96C440.359 66.96 440.802 66.848 441.175 66.624C441.548 66.4 441.842 66.128 442.055 65.808L443.111 66.656C442.706 67.1893 442.226 67.584 441.671 67.84C441.127 68.0853 440.519 68.208 439.847 68.208C439.271 68.208 438.738 68.112 438.247 67.92C437.756 67.728 437.335 67.4613 436.983 67.12C436.631 66.768 436.354 66.3467 436.151 65.856C435.948 65.3653 435.847 64.8213 435.847 64.224C435.847 63.6373 435.943 63.0987 436.135 62.608C436.338 62.1067 436.615 61.68 436.967 61.328C437.319 60.976 437.735 60.704 438.215 60.512C438.695 60.3093 439.212 60.208 439.767 60.208C440.322 60.208 440.823 60.2987 441.271 60.48C441.73 60.6613 442.114 60.9227 442.423 61.264C442.743 61.6053 442.988 62.0213 443.159 62.512C443.33 62.992 443.415 63.536 443.415 64.144ZM357.856 86.416L359.568 92.208H359.6L361.408 86.416H362.992L364.832 92.208H364.864L366.576 86.416H368.16L365.648 94H364.08L362.208 88.304H362.176L360.32 94H358.752L356.224 86.416H357.856ZM371.191 94H369.687V86.416H371.191V94ZM371.447 83.68C371.447 83.9573 371.346 84.1867 371.143 84.368C370.951 84.5493 370.716 84.64 370.439 84.64C370.162 84.64 369.927 84.5493 369.735 84.368C369.543 84.176 369.447 83.9467 369.447 83.68C369.447 83.4027 369.543 83.1733 369.735 82.992C369.927 82.8 370.162 82.704 370.439 82.704C370.716 82.704 370.951 82.8 371.143 82.992C371.346 83.1733 371.447 83.4027 371.447 83.68ZM377.524 87.648H375.508V91.6C375.508 92.0587 375.593 92.3893 375.764 92.592C375.934 92.784 376.206 92.88 376.58 92.88C376.718 92.88 376.868 92.864 377.028 92.832C377.188 92.8 377.332 92.752 377.46 92.688L377.508 93.92C377.326 93.984 377.124 94.032 376.9 94.064C376.686 94.1067 376.462 94.128 376.228 94.128C375.513 94.128 374.964 93.9307 374.58 93.536C374.206 93.1413 374.02 92.5493 374.02 91.76V87.648H372.564V86.416H374.02V84.24H375.508V86.416H377.524V87.648ZM380.645 87.568C380.827 87.1947 381.136 86.8747 381.573 86.608C382.011 86.3413 382.501 86.208 383.045 86.208C383.536 86.208 383.957 86.2933 384.309 86.464C384.661 86.624 384.955 86.8427 385.189 87.12C385.424 87.3973 385.595 87.7227 385.701 88.096C385.819 88.4693 385.877 88.8693 385.877 89.296V94H384.373V89.808C384.373 89.4987 384.347 89.2053 384.293 88.928C384.251 88.6507 384.165 88.4053 384.037 88.192C383.909 87.9787 383.733 87.808 383.509 87.68C383.296 87.552 383.013 87.488 382.661 87.488C382.064 87.488 381.573 87.7173 381.189 88.176C380.805 88.624 380.613 89.2267 380.613 89.984V94H379.109V81.904H380.613V87.568H380.645ZM395.989 87.648H394.229V94H392.725V87.648H391.221V86.416H392.725V84.832C392.725 84.384 392.773 83.9733 392.869 83.6C392.976 83.216 393.141 82.8853 393.365 82.608C393.6 82.3307 393.893 82.112 394.245 81.952C394.608 81.792 395.045 81.712 395.557 81.712C395.92 81.712 396.234 81.7493 396.501 81.824L396.325 83.12C396.208 83.088 396.09 83.0613 395.973 83.04C395.856 83.0187 395.722 83.008 395.573 83.008C395.285 83.008 395.05 83.0613 394.869 83.168C394.698 83.264 394.565 83.3973 394.469 83.568C394.373 83.7387 394.309 83.936 394.277 84.16C394.245 84.3733 394.229 84.5973 394.229 84.832V86.416H395.989V87.648ZM397.374 88.048C397.374 87.8453 397.369 87.584 397.358 87.264C397.347 86.944 397.331 86.6613 397.31 86.416H398.734C398.755 86.608 398.771 86.832 398.782 87.088C398.793 87.3333 398.798 87.536 398.798 87.696H398.846C399.059 87.248 399.369 86.8907 399.774 86.624C400.19 86.3467 400.654 86.208 401.166 86.208C401.401 86.208 401.598 86.2293 401.758 86.272L401.694 87.664C401.481 87.6107 401.251 87.584 401.006 87.584C400.643 87.584 400.329 87.6533 400.062 87.792C399.795 87.92 399.571 88.096 399.39 88.32C399.219 88.544 399.091 88.8053 399.006 89.104C398.921 89.392 398.878 89.696 398.878 90.016V94H397.374V88.048ZM404.691 94H403.187V86.416H404.691V94ZM404.947 83.68C404.947 83.9573 404.846 84.1867 404.643 84.368C404.451 84.5493 404.216 84.64 403.939 84.64C403.662 84.64 403.427 84.5493 403.235 84.368C403.043 84.176 402.947 83.9467 402.947 83.68C402.947 83.4027 403.043 83.1733 403.235 82.992C403.427 82.8 403.662 82.704 403.939 82.704C404.216 82.704 404.451 82.8 404.643 82.992C404.846 83.1733 404.947 83.4027 404.947 83.68ZM412.864 89.536C412.853 89.2373 412.8 88.96 412.704 88.704C412.618 88.4373 412.485 88.208 412.304 88.016C412.133 87.824 411.914 87.6747 411.648 87.568C411.392 87.4507 411.088 87.392 410.736 87.392C410.416 87.392 410.112 87.4507 409.824 87.568C409.546 87.6747 409.301 87.824 409.088 88.016C408.885 88.208 408.714 88.4373 408.576 88.704C408.448 88.96 408.373 89.2373 408.352 89.536H412.864ZM414.384 90.144C414.384 90.2293 414.384 90.3147 414.384 90.4C414.384 90.4853 414.378 90.5707 414.368 90.656H408.352C408.362 90.976 408.432 91.28 408.56 91.568C408.698 91.8453 408.88 92.0907 409.104 92.304C409.328 92.5067 409.584 92.6667 409.872 92.784C410.17 92.9013 410.485 92.96 410.816 92.96C411.328 92.96 411.77 92.848 412.144 92.624C412.517 92.4 412.81 92.128 413.024 91.808L414.08 92.656C413.674 93.1893 413.194 93.584 412.64 93.84C412.096 94.0853 411.488 94.208 410.816 94.208C410.24 94.208 409.706 94.112 409.216 93.92C408.725 93.728 408.304 93.4613 407.952 93.12C407.6 92.768 407.322 92.3467 407.12 91.856C406.917 91.3653 406.816 90.8213 406.816 90.224C406.816 89.6373 406.912 89.0987 407.104 88.608C407.306 88.1067 407.584 87.68 407.936 87.328C408.288 86.976 408.704 86.704 409.184 86.512C409.664 86.3093 410.181 86.208 410.736 86.208C411.29 86.208 411.792 86.2987 412.24 86.48C412.698 86.6613 413.082 86.9227 413.392 87.264C413.712 87.6053 413.957 88.0213 414.128 88.512C414.298 88.992 414.384 89.536 414.384 90.144ZM417.844 86.416C417.865 86.608 417.881 86.8267 417.892 87.072C417.902 87.3067 417.908 87.504 417.908 87.664H417.956C418.052 87.4613 418.18 87.2747 418.34 87.104C418.51 86.9227 418.702 86.768 418.916 86.64C419.129 86.5013 419.364 86.3947 419.62 86.32C419.876 86.2453 420.142 86.208 420.42 86.208C420.91 86.208 421.332 86.2933 421.684 86.464C422.036 86.624 422.329 86.8427 422.564 87.12C422.798 87.3973 422.969 87.7227 423.076 88.096C423.193 88.4693 423.252 88.8693 423.252 89.296V94H421.748V89.792C421.748 89.4827 421.721 89.1893 421.668 88.912C421.625 88.6347 421.54 88.3893 421.412 88.176C421.284 87.9627 421.108 87.792 420.884 87.664C420.66 87.536 420.372 87.472 420.02 87.472C419.422 87.472 418.932 87.7013 418.548 88.16C418.174 88.608 417.988 89.2107 417.988 89.968V94H416.484V88.048C416.484 87.8453 416.478 87.584 416.468 87.264C416.457 86.944 416.441 86.6613 416.42 86.416H417.844ZM431.844 92.8C431.556 93.2587 431.161 93.6107 430.66 93.856C430.169 94.0907 429.652 94.208 429.108 94.208C428.521 94.208 427.993 94.1067 427.524 93.904C427.055 93.6907 426.655 93.4027 426.324 93.04C425.993 92.6773 425.737 92.2507 425.556 91.76C425.375 91.2693 425.284 90.7467 425.284 90.192C425.284 89.6373 425.375 89.12 425.556 88.64C425.737 88.1493 425.993 87.7227 426.324 87.36C426.665 86.9973 427.071 86.7147 427.54 86.512C428.009 86.3093 428.527 86.208 429.092 86.208C429.711 86.208 430.249 86.3413 430.708 86.608C431.167 86.864 431.529 87.1787 431.796 87.552H431.828V81.904H433.332V94H431.876V92.8H431.844ZM426.852 90.192C426.852 90.544 426.905 90.8853 427.012 91.216C427.119 91.5467 427.279 91.84 427.492 92.096C427.705 92.352 427.967 92.56 428.276 92.72C428.585 92.8693 428.948 92.944 429.364 92.944C429.748 92.944 430.095 92.8693 430.404 92.72C430.724 92.5707 430.996 92.3733 431.22 92.128C431.444 91.872 431.615 91.5787 431.732 91.248C431.86 90.9173 431.924 90.5707 431.924 90.208C431.924 89.8453 431.86 89.4987 431.732 89.168C431.615 88.8373 431.444 88.544 431.22 88.288C430.996 88.032 430.724 87.8293 430.404 87.68C430.095 87.5307 429.748 87.456 429.364 87.456C428.948 87.456 428.585 87.5307 428.276 87.68C427.967 87.8293 427.705 88.032 427.492 88.288C427.279 88.544 427.119 88.8373 427.012 89.168C426.905 89.4987 426.852 89.84 426.852 90.192ZM440.048 88.336C439.878 88.0587 439.638 87.8347 439.328 87.664C439.019 87.4827 438.672 87.392 438.288 87.392C438.118 87.392 437.947 87.4133 437.776 87.456C437.606 87.488 437.451 87.5467 437.312 87.632C437.184 87.7067 437.078 87.808 436.992 87.936C436.918 88.0533 436.88 88.2027 436.88 88.384C436.88 88.704 437.024 88.944 437.312 89.104C437.6 89.2533 438.032 89.392 438.608 89.52C438.971 89.6053 439.307 89.7067 439.616 89.824C439.926 89.9413 440.192 90.0907 440.416 90.272C440.651 90.4427 440.832 90.6507 440.96 90.896C441.088 91.1413 441.152 91.4293 441.152 91.76C441.152 92.208 441.067 92.5867 440.896 92.896C440.726 93.2053 440.496 93.4613 440.208 93.664C439.931 93.856 439.611 93.9947 439.248 94.08C438.886 94.1653 438.512 94.208 438.128 94.208C437.552 94.208 436.987 94.096 436.432 93.872C435.888 93.648 435.435 93.3067 435.072 92.848L436.144 91.936C436.347 92.2347 436.624 92.4853 436.976 92.688C437.339 92.8907 437.734 92.992 438.16 92.992C438.352 92.992 438.534 92.976 438.704 92.944C438.886 92.9013 439.046 92.8373 439.184 92.752C439.334 92.6667 439.451 92.5547 439.536 92.416C439.622 92.2773 439.664 92.1013 439.664 91.888C439.664 91.536 439.494 91.2747 439.152 91.104C438.822 90.9333 438.331 90.7733 437.68 90.624C437.424 90.56 437.163 90.4853 436.896 90.4C436.64 90.304 436.406 90.176 436.192 90.016C435.979 89.856 435.803 89.6587 435.664 89.424C435.536 89.1787 435.472 88.88 435.472 88.528C435.472 88.1227 435.552 87.776 435.712 87.488C435.883 87.1893 436.102 86.9493 436.368 86.768C436.635 86.576 436.939 86.4373 437.28 86.352C437.622 86.256 437.974 86.208 438.336 86.208C438.88 86.208 439.403 86.3147 439.904 86.528C440.416 86.7413 440.811 87.0507 441.088 87.456L440.048 88.336Z" fill="black"/>
<path d="M537.376 57.672H540.832C541.44 57.672 541.995 57.736 542.496 57.864C542.997 57.9813 543.424 58.168 543.776 58.424C544.128 58.68 544.4 59.0053 544.592 59.4C544.784 59.7947 544.88 60.2693 544.88 60.824C544.88 61.3893 544.773 61.8747 544.56 62.28C544.357 62.6853 544.069 63.016 543.696 63.272C543.333 63.528 542.896 63.72 542.384 63.848C541.883 63.9653 541.339 64.024 540.752 64.024H538.96V69H537.376V57.672ZM538.96 62.68H540.64C541.024 62.68 541.376 62.648 541.696 62.584C542.027 62.5093 542.309 62.4027 542.544 62.264C542.779 62.1147 542.96 61.9227 543.088 61.688C543.216 61.4533 543.28 61.1653 543.28 60.824C543.28 60.4827 543.211 60.2 543.072 59.976C542.944 59.7413 542.763 59.5547 542.528 59.416C542.304 59.2667 542.032 59.1653 541.712 59.112C541.392 59.048 541.045 59.016 540.672 59.016H538.96V62.68ZM551.317 64.536C551.306 64.2373 551.253 63.96 551.157 63.704C551.071 63.4373 550.938 63.208 550.757 63.016C550.586 62.824 550.367 62.6747 550.101 62.568C549.845 62.4507 549.541 62.392 549.189 62.392C548.869 62.392 548.565 62.4507 548.277 62.568C547.999 62.6747 547.754 62.824 547.541 63.016C547.338 63.208 547.167 63.4373 547.029 63.704C546.901 63.96 546.826 64.2373 546.805 64.536H551.317ZM552.837 65.144C552.837 65.2293 552.837 65.3147 552.837 65.4C552.837 65.4853 552.831 65.5707 552.821 65.656H546.805C546.815 65.976 546.885 66.28 547.013 66.568C547.151 66.8453 547.333 67.0907 547.557 67.304C547.781 67.5067 548.037 67.6667 548.325 67.784C548.623 67.9013 548.938 67.96 549.269 67.96C549.781 67.96 550.223 67.848 550.597 67.624C550.97 67.4 551.263 67.128 551.477 66.808L552.533 67.656C552.127 68.1893 551.647 68.584 551.093 68.84C550.549 69.0853 549.941 69.208 549.269 69.208C548.693 69.208 548.159 69.112 547.669 68.92C547.178 68.728 546.757 68.4613 546.405 68.12C546.053 67.768 545.775 67.3467 545.573 66.856C545.37 66.3653 545.269 65.8213 545.269 65.224C545.269 64.6373 545.365 64.0987 545.557 63.608C545.759 63.1067 546.037 62.68 546.389 62.328C546.741 61.976 547.157 61.704 547.637 61.512C548.117 61.3093 548.634 61.208 549.189 61.208C549.743 61.208 550.245 61.2987 550.693 61.48C551.151 61.6613 551.535 61.9227 551.845 62.264C552.165 62.6053 552.41 63.0213 552.581 63.512C552.751 63.992 552.837 64.536 552.837 65.144ZM554.937 63.048C554.937 62.8453 554.931 62.584 554.921 62.264C554.91 61.944 554.894 61.6613 554.873 61.416H556.297C556.318 61.608 556.334 61.832 556.345 62.088C556.355 62.3333 556.361 62.536 556.361 62.696H556.409C556.622 62.248 556.931 61.8907 557.337 61.624C557.753 61.3467 558.217 61.208 558.729 61.208C558.963 61.208 559.161 61.2293 559.321 61.272L559.257 62.664C559.043 62.6107 558.814 62.584 558.569 62.584C558.206 62.584 557.891 62.6533 557.625 62.792C557.358 62.92 557.134 63.096 556.953 63.32C556.782 63.544 556.654 63.8053 556.569 64.104C556.483 64.392 556.441 64.696 556.441 65.016V69H554.937V63.048ZM564.302 62.648H562.542V69H561.038V62.648H559.534V61.416H561.038V59.832C561.038 59.384 561.086 58.9733 561.182 58.6C561.288 58.216 561.454 57.8853 561.678 57.608C561.912 57.3307 562.206 57.112 562.558 56.952C562.92 56.792 563.358 56.712 563.87 56.712C564.232 56.712 564.547 56.7493 564.814 56.824L564.638 58.12C564.52 58.088 564.403 58.0613 564.286 58.04C564.168 58.0187 564.035 58.008 563.886 58.008C563.598 58.008 563.363 58.0613 563.182 58.168C563.011 58.264 562.878 58.3973 562.782 58.568C562.686 58.7387 562.622 58.936 562.59 59.16C562.558 59.3733 562.542 59.5973 562.542 59.832V61.416H564.302V62.648ZM571.239 64.536C571.228 64.2373 571.175 63.96 571.079 63.704C570.993 63.4373 570.86 63.208 570.679 63.016C570.508 62.824 570.289 62.6747 570.023 62.568C569.767 62.4507 569.463 62.392 569.111 62.392C568.791 62.392 568.487 62.4507 568.199 62.568C567.921 62.6747 567.676 62.824 567.463 63.016C567.26 63.208 567.089 63.4373 566.951 63.704C566.823 63.96 566.748 64.2373 566.727 64.536H571.239ZM572.759 65.144C572.759 65.2293 572.759 65.3147 572.759 65.4C572.759 65.4853 572.753 65.5707 572.743 65.656H566.727C566.737 65.976 566.807 66.28 566.935 66.568C567.073 66.8453 567.255 67.0907 567.479 67.304C567.703 67.5067 567.959 67.6667 568.247 67.784C568.545 67.9013 568.86 67.96 569.191 67.96C569.703 67.96 570.145 67.848 570.519 67.624C570.892 67.4 571.185 67.128 571.399 66.808L572.455 67.656C572.049 68.1893 571.569 68.584 571.015 68.84C570.471 69.0853 569.863 69.208 569.191 69.208C568.615 69.208 568.081 69.112 567.591 68.92C567.1 68.728 566.679 68.4613 566.327 68.12C565.975 67.768 565.697 67.3467 565.495 66.856C565.292 66.3653 565.191 65.8213 565.191 65.224C565.191 64.6373 565.287 64.0987 565.479 63.608C565.681 63.1067 565.959 62.68 566.311 62.328C566.663 61.976 567.079 61.704 567.559 61.512C568.039 61.3093 568.556 61.208 569.111 61.208C569.665 61.208 570.167 61.2987 570.615 61.48C571.073 61.6613 571.457 61.9227 571.767 62.264C572.087 62.6053 572.332 63.0213 572.503 63.512C572.673 63.992 572.759 64.536 572.759 65.144ZM580.171 63.336C580.011 63.0907 579.771 62.888 579.451 62.728C579.131 62.5573 578.789 62.472 578.427 62.472C578.032 62.472 577.68 62.5467 577.371 62.696C577.072 62.8453 576.816 63.048 576.603 63.304C576.389 63.5493 576.224 63.8373 576.107 64.168C576 64.4987 575.947 64.8453 575.947 65.208C575.947 65.5707 576 65.9173 576.107 66.248C576.224 66.5787 576.389 66.872 576.603 67.128C576.816 67.3733 577.077 67.5707 577.387 67.72C577.696 67.8693 578.048 67.944 578.443 67.944C578.827 67.944 579.173 67.8693 579.483 67.72C579.803 67.5707 580.064 67.368 580.267 67.112L581.275 68.024C580.955 68.3973 580.555 68.6907 580.075 68.904C579.595 69.1067 579.051 69.208 578.443 69.208C577.856 69.208 577.312 69.112 576.811 68.92C576.32 68.728 575.893 68.4613 575.531 68.12C575.168 67.768 574.88 67.3467 574.667 66.856C574.464 66.3653 574.363 65.816 574.363 65.208C574.363 64.6107 574.464 64.0667 574.667 63.576C574.869 63.0853 575.152 62.664 575.515 62.312C575.877 61.96 576.304 61.688 576.795 61.496C577.296 61.304 577.835 61.208 578.411 61.208C578.944 61.208 579.472 61.3147 579.995 61.528C580.528 61.7413 580.949 62.0507 581.259 62.456L580.171 63.336ZM586.477 62.648H584.461V66.6C584.461 67.0587 584.546 67.3893 584.717 67.592C584.887 67.784 585.159 67.88 585.533 67.88C585.671 67.88 585.821 67.864 585.981 67.832C586.141 67.8 586.285 67.752 586.413 67.688L586.461 68.92C586.279 68.984 586.077 69.032 585.853 69.064C585.639 69.1067 585.415 69.128 585.181 69.128C584.466 69.128 583.917 68.9307 583.533 68.536C583.159 68.1413 582.973 67.5493 582.973 66.76V62.648H581.517V61.416H582.973V59.24H584.461V61.416H586.477V62.648ZM589.566 69H588.062V56.904H589.566V69ZM595.067 67.368H595.099L597.195 61.416H598.795L595.115 70.792C594.987 71.112 594.848 71.3947 594.699 71.64C594.549 71.896 594.373 72.1093 594.171 72.28C593.968 72.4613 593.728 72.6 593.451 72.696C593.184 72.792 592.864 72.84 592.491 72.84C592.331 72.84 592.165 72.8293 591.995 72.808C591.835 72.7973 591.669 72.7707 591.499 72.728L591.643 71.4C591.899 71.4853 592.149 71.528 592.395 71.528C592.789 71.528 593.083 71.416 593.275 71.192C593.467 70.9787 593.643 70.6693 593.803 70.264L594.283 69L591.035 61.416H592.715L595.067 67.368ZM538.768 88.664C538.96 88.2587 539.264 87.9173 539.68 87.64C540.107 87.352 540.608 87.208 541.184 87.208C541.696 87.208 542.155 87.3253 542.56 87.56C542.976 87.7947 543.301 88.184 543.536 88.728C543.792 88.2373 544.149 87.864 544.608 87.608C545.067 87.3413 545.568 87.208 546.112 87.208C546.603 87.208 547.024 87.2933 547.376 87.464C547.728 87.624 548.021 87.8427 548.256 88.12C548.491 88.3973 548.661 88.7227 548.768 89.096C548.885 89.4693 548.944 89.8693 548.944 90.296V95H547.44V90.792C547.44 90.4827 547.413 90.1893 547.36 89.912C547.307 89.6347 547.216 89.3893 547.088 89.176C546.96 88.9627 546.789 88.792 546.576 88.664C546.363 88.536 546.091 88.472 545.76 88.472C545.419 88.472 545.125 88.5467 544.88 88.696C544.635 88.8347 544.432 89.0213 544.272 89.256C544.123 89.48 544.011 89.736 543.936 90.024C543.872 90.312 543.84 90.6053 543.84 90.904V95H542.336V90.488C542.336 90.1893 542.309 89.9173 542.256 89.672C542.203 89.4267 542.112 89.2187 541.984 89.048C541.856 88.8667 541.691 88.728 541.488 88.632C541.285 88.5253 541.035 88.472 540.736 88.472C540.181 88.472 539.717 88.7013 539.344 89.16C538.981 89.608 538.8 90.2107 538.8 90.968V95H537.296V89.048C537.296 88.8453 537.291 88.584 537.28 88.264C537.269 87.944 537.253 87.6613 537.232 87.416H538.656C538.677 87.608 538.693 87.8267 538.704 88.072C538.715 88.3067 538.72 88.504 538.72 88.664H538.768ZM556.204 90.088C556.204 89.5227 556.033 89.1067 555.692 88.84C555.35 88.5627 554.897 88.424 554.332 88.424C553.905 88.424 553.5 88.5093 553.116 88.68C552.742 88.84 552.428 89.048 552.172 89.304L551.372 88.344C551.745 87.992 552.198 87.7147 552.732 87.512C553.276 87.3093 553.857 87.208 554.476 87.208C555.02 87.208 555.489 87.288 555.884 87.448C556.289 87.5973 556.62 87.8053 556.876 88.072C557.132 88.3387 557.324 88.6533 557.452 89.016C557.58 89.3787 557.644 89.768 557.644 90.184V93.496C557.644 93.752 557.649 94.024 557.66 94.312C557.681 94.5893 557.713 94.8187 557.756 95H556.396C556.31 94.6373 556.268 94.2747 556.268 93.912H556.22C555.942 94.3173 555.59 94.632 555.164 94.856C554.748 95.08 554.252 95.192 553.676 95.192C553.377 95.192 553.062 95.1493 552.732 95.064C552.412 94.9893 552.118 94.8613 551.852 94.68C551.585 94.4987 551.361 94.2587 551.18 93.96C551.009 93.6613 550.924 93.2933 550.924 92.856C550.924 92.28 551.078 91.8267 551.388 91.496C551.697 91.1547 552.102 90.8987 552.604 90.728C553.105 90.5467 553.67 90.4293 554.299 90.376C554.929 90.3227 555.564 90.296 556.204 90.296V90.088ZM555.836 91.384C555.462 91.384 555.073 91.4 554.668 91.432C554.273 91.464 553.91 91.528 553.58 91.624C553.26 91.72 552.993 91.864 552.78 92.056C552.566 92.248 552.46 92.504 552.46 92.824C552.46 93.048 552.502 93.2347 552.588 93.384C552.684 93.5333 552.806 93.656 552.956 93.752C553.105 93.848 553.27 93.9173 553.452 93.96C553.633 93.992 553.82 94.008 554.012 94.008C554.716 94.008 555.254 93.8 555.628 93.384C556.012 92.9573 556.204 92.424 556.204 91.784V91.384H555.836ZM563.711 88.648H561.695V92.6C561.695 93.0587 561.78 93.3893 561.951 93.592C562.122 93.784 562.394 93.88 562.767 93.88C562.906 93.88 563.055 93.864 563.215 93.832C563.375 93.8 563.519 93.752 563.647 93.688L563.695 94.92C563.514 94.984 563.311 95.032 563.087 95.064C562.874 95.1067 562.65 95.128 562.415 95.128C561.7 95.128 561.151 94.9307 560.767 94.536C560.394 94.1413 560.207 93.5493 560.207 92.76V88.648H558.751V87.416H560.207V85.24H561.695V87.416H563.711V88.648ZM570.577 89.336C570.417 89.0907 570.177 88.888 569.857 88.728C569.537 88.5573 569.195 88.472 568.833 88.472C568.438 88.472 568.086 88.5467 567.777 88.696C567.478 88.8453 567.222 89.048 567.009 89.304C566.795 89.5493 566.63 89.8373 566.513 90.168C566.406 90.4987 566.353 90.8453 566.353 91.208C566.353 91.5707 566.406 91.9173 566.513 92.248C566.63 92.5787 566.795 92.872 567.009 93.128C567.222 93.3733 567.483 93.5707 567.793 93.72C568.102 93.8693 568.454 93.944 568.849 93.944C569.233 93.944 569.579 93.8693 569.889 93.72C570.209 93.5707 570.47 93.368 570.673 93.112L571.681 94.024C571.361 94.3973 570.961 94.6907 570.481 94.904C570.001 95.1067 569.457 95.208 568.849 95.208C568.262 95.208 567.718 95.112 567.217 94.92C566.726 94.728 566.299 94.4613 565.937 94.12C565.574 93.768 565.286 93.3467 565.073 92.856C564.87 92.3653 564.769 91.816 564.769 91.208C564.769 90.6107 564.87 90.0667 565.073 89.576C565.275 89.0853 565.558 88.664 565.921 88.312C566.283 87.96 566.71 87.688 567.201 87.496C567.702 87.304 568.241 87.208 568.817 87.208C569.35 87.208 569.878 87.3147 570.401 87.528C570.934 87.7413 571.355 88.0507 571.665 88.456L570.577 89.336ZM574.739 88.568C574.92 88.1947 575.23 87.8747 575.667 87.608C576.104 87.3413 576.595 87.208 577.139 87.208C577.63 87.208 578.051 87.2933 578.403 87.464C578.755 87.624 579.048 87.8427 579.283 88.12C579.518 88.3973 579.688 88.7227 579.795 89.096C579.912 89.4693 579.971 89.8693 579.971 90.296V95H578.467V90.808C578.467 90.4987 578.44 90.2053 578.387 89.928C578.344 89.6507 578.259 89.4053 578.131 89.192C578.003 88.9787 577.827 88.808 577.603 88.68C577.39 88.552 577.107 88.488 576.755 88.488C576.158 88.488 575.667 88.7173 575.283 89.176C574.899 89.624 574.707 90.2267 574.707 90.984V95H573.203V82.904H574.707V88.568H574.739ZM590.083 88.648H588.323V95H586.819V88.648H585.315V87.416H586.819V85.832C586.819 85.384 586.867 84.9733 586.963 84.6C587.069 84.216 587.235 83.8853 587.459 83.608C587.693 83.3307 587.987 83.112 588.339 82.952C588.701 82.792 589.139 82.712 589.651 82.712C590.013 82.712 590.328 82.7493 590.595 82.824L590.419 84.12C590.301 84.088 590.184 84.0613 590.067 84.04C589.949 84.0187 589.816 84.008 589.667 84.008C589.379 84.008 589.144 84.0613 588.963 84.168C588.792 84.264 588.659 84.3973 588.563 84.568C588.467 84.7387 588.403 84.936 588.371 85.16C588.339 85.3733 588.323 85.5973 588.323 85.832V87.416H590.083V88.648ZM591.468 89.048C591.468 88.8453 591.463 88.584 591.452 88.264C591.441 87.944 591.425 87.6613 591.404 87.416H592.828C592.849 87.608 592.865 87.832 592.876 88.088C592.887 88.3333 592.892 88.536 592.892 88.696H592.94C593.153 88.248 593.463 87.8907 593.868 87.624C594.284 87.3467 594.748 87.208 595.26 87.208C595.495 87.208 595.692 87.2293 595.852 87.272L595.788 88.664C595.575 88.6107 595.345 88.584 595.1 88.584C594.737 88.584 594.423 88.6533 594.156 88.792C593.889 88.92 593.665 89.096 593.484 89.32C593.313 89.544 593.185 89.8053 593.1 90.104C593.015 90.392 592.972 90.696 592.972 91.016V95H591.468V89.048ZM598.785 95H597.281V87.416H598.785V95ZM599.041 84.68C599.041 84.9573 598.939 85.1867 598.737 85.368C598.545 85.5493 598.31 85.64 598.033 85.64C597.755 85.64 597.521 85.5493 597.329 85.368C597.137 85.176 597.041 84.9467 597.041 84.68C597.041 84.4027 597.137 84.1733 597.329 83.992C597.521 83.8 597.755 83.704 598.033 83.704C598.31 83.704 598.545 83.8 598.737 83.992C598.939 84.1733 599.041 84.4027 599.041 84.68ZM606.957 90.536C606.947 90.2373 606.893 89.96 606.797 89.704C606.712 89.4373 606.579 89.208 606.397 89.016C606.227 88.824 606.008 88.6747 605.741 88.568C605.485 88.4507 605.181 88.392 604.829 88.392C604.509 88.392 604.205 88.4507 603.917 88.568C603.64 88.6747 603.395 88.824 603.181 89.016C602.979 89.208 602.808 89.4373 602.669 89.704C602.541 89.96 602.467 90.2373 602.445 90.536H606.957ZM608.477 91.144C608.477 91.2293 608.477 91.3147 608.477 91.4C608.477 91.4853 608.472 91.5707 608.461 91.656H602.445C602.456 91.976 602.525 92.28 602.653 92.568C602.792 92.8453 602.973 93.0907 603.197 93.304C603.421 93.5067 603.677 93.6667 603.965 93.784C604.264 93.9013 604.579 93.96 604.909 93.96C605.421 93.96 605.864 93.848 606.237 93.624C606.611 93.4 606.904 93.128 607.117 92.808L608.173 93.656C607.768 94.1893 607.288 94.584 606.733 94.84C606.189 95.0853 605.581 95.208 604.909 95.208C604.333 95.208 603.8 95.112 603.309 94.92C602.819 94.728 602.397 94.4613 602.045 94.12C601.693 93.768 601.416 93.3467 601.213 92.856C601.011 92.3653 600.909 91.8213 600.909 91.224C600.909 90.6373 601.005 90.0987 601.197 89.608C601.4 89.1067 601.677 88.68 602.029 88.328C602.381 87.976 602.797 87.704 603.277 87.512C603.757 87.3093 604.275 87.208 604.829 87.208C605.384 87.208 605.885 87.2987 606.333 87.48C606.792 87.6613 607.176 87.9227 607.485 88.264C607.805 88.6053 608.051 89.0213 608.221 89.512C608.392 89.992 608.477 90.536 608.477 91.144ZM611.937 87.416C611.959 87.608 611.975 87.8267 611.985 88.072C611.996 88.3067 612.001 88.504 612.001 88.664H612.049C612.145 88.4613 612.273 88.2747 612.433 88.104C612.604 87.9227 612.796 87.768 613.009 87.64C613.223 87.5013 613.457 87.3947 613.713 87.32C613.969 87.2453 614.236 87.208 614.513 87.208C615.004 87.208 615.425 87.2933 615.777 87.464C616.129 87.624 616.423 87.8427 616.657 88.12C616.892 88.3973 617.063 88.7227 617.169 89.096C617.287 89.4693 617.345 89.8693 617.345 90.296V95H615.841V90.792C615.841 90.4827 615.815 90.1893 615.761 89.912C615.719 89.6347 615.633 89.3893 615.505 89.176C615.377 88.9627 615.201 88.792 614.977 88.664C614.753 88.536 614.465 88.472 614.113 88.472C613.516 88.472 613.025 88.7013 612.641 89.16C612.268 89.608 612.081 90.2107 612.081 90.968V95H610.577V89.048C610.577 88.8453 610.572 88.584 610.561 88.264C610.551 87.944 610.535 87.6613 610.513 87.416H611.937ZM625.938 93.8C625.65 94.2587 625.255 94.6107 624.754 94.856C624.263 95.0907 623.746 95.208 623.202 95.208C622.615 95.208 622.087 95.1067 621.618 94.904C621.148 94.6907 620.748 94.4027 620.418 94.04C620.087 93.6773 619.831 93.2507 619.65 92.76C619.468 92.2693 619.378 91.7467 619.378 91.192C619.378 90.6373 619.468 90.12 619.65 89.64C619.831 89.1493 620.087 88.7227 620.418 88.36C620.759 87.9973 621.164 87.7147 621.634 87.512C622.103 87.3093 622.62 87.208 623.186 87.208C623.804 87.208 624.343 87.3413 624.802 87.608C625.26 87.864 625.623 88.1787 625.89 88.552H625.922V82.904H627.426V95H625.97V93.8H625.938ZM620.946 91.192C620.946 91.544 620.999 91.8853 621.106 92.216C621.212 92.5467 621.372 92.84 621.586 93.096C621.799 93.352 622.06 93.56 622.37 93.72C622.679 93.8693 623.042 93.944 623.458 93.944C623.842 93.944 624.188 93.8693 624.498 93.72C624.818 93.5707 625.09 93.3733 625.314 93.128C625.538 92.872 625.708 92.5787 625.826 92.248C625.954 91.9173 626.018 91.5707 626.018 91.208C626.018 90.8453 625.954 90.4987 625.826 90.168C625.708 89.8373 625.538 89.544 625.314 89.288C625.09 89.032 624.818 88.8293 624.498 88.68C624.188 88.5307 623.842 88.456 623.458 88.456C623.042 88.456 622.679 88.5307 622.37 88.68C622.06 88.8293 621.799 89.032 621.586 89.288C621.372 89.544 621.212 89.8373 621.106 90.168C620.999 90.4987 620.946 90.84 620.946 91.192ZM634.142 89.336C633.971 89.0587 633.731 88.8347 633.422 88.664C633.113 88.4827 632.766 88.392 632.382 88.392C632.211 88.392 632.041 88.4133 631.87 88.456C631.699 88.488 631.545 88.5467 631.406 88.632C631.278 88.7067 631.171 88.808 631.086 88.936C631.011 89.0533 630.974 89.2027 630.974 89.384C630.974 89.704 631.118 89.944 631.406 90.104C631.694 90.2533 632.126 90.392 632.702 90.52C633.065 90.6053 633.401 90.7067 633.71 90.824C634.019 90.9413 634.286 91.0907 634.51 91.272C634.745 91.4427 634.926 91.6507 635.054 91.896C635.182 92.1413 635.246 92.4293 635.246 92.76C635.246 93.208 635.161 93.5867 634.99 93.896C634.819 94.2053 634.59 94.4613 634.302 94.664C634.025 94.856 633.705 94.9947 633.342 95.08C632.979 95.1653 632.606 95.208 632.222 95.208C631.646 95.208 631.081 95.096 630.526 94.872C629.982 94.648 629.529 94.3067 629.166 93.848L630.238 92.936C630.441 93.2347 630.718 93.4853 631.07 93.688C631.433 93.8907 631.827 93.992 632.254 93.992C632.446 93.992 632.627 93.976 632.798 93.944C632.979 93.9013 633.139 93.8373 633.278 93.752C633.427 93.6667 633.545 93.5547 633.63 93.416C633.715 93.2773 633.758 93.1013 633.758 92.888C633.758 92.536 633.587 92.2747 633.246 92.104C632.915 91.9333 632.425 91.7733 631.774 91.624C631.518 91.56 631.257 91.4853 630.99 91.4C630.734 91.304 630.499 91.176 630.286 91.016C630.073 90.856 629.897 90.6587 629.758 90.424C629.63 90.1787 629.566 89.88 629.566 89.528C629.566 89.1227 629.646 88.776 629.806 88.488C629.977 88.1893 630.195 87.9493 630.462 87.768C630.729 87.576 631.033 87.4373 631.374 87.352C631.715 87.256 632.067 87.208 632.43 87.208C632.974 87.208 633.497 87.3147 633.998 87.528C634.51 87.7413 634.905 88.0507 635.182 88.456L634.142 89.336Z" fill="black"/>
<circle cx="21.5" cy="21.5" r="21.5" fill="#6DC4B9"/>
<path d="M12 22.2308L20.8889 31L32 13" stroke="white" stroke-width="5" stroke-linecap="round" stroke-linejoin="round"/>
<circle cx="199.5" cy="21.5" r="21.5" fill="#6DC4B9"/>
<path d="M190 22.2308L198.889 31L210 13" stroke="white" stroke-width="5" stroke-linecap="round" stroke-linejoin="round"/>
<circle cx="378.5" cy="21.5" r="21.5" fill="#6DC4B9"/>
<path d="M369 22.2308L377.889 31L389 13" stroke="white" stroke-width="5" stroke-linecap="round" stroke-linejoin="round"/>
<circle cx="556.5" cy="21.5" r="21.5" fill="#F18A88"/>
<path d="M548.589 13.8627L564.374 30.1363M565.155 13.6473L548.843 29.9308" stroke="white" stroke-width="5" stroke-linecap="round"/>
</svg>
