<svg width="647" height="683" viewBox="0 0 647 683" fill="none" xmlns="http://www.w3.org/2000/svg">
<path d="M300 322C300 347 297.5 370.833 292.5 393.5C287.5 416.167 279.5 436.167 268.5 453.5C257.5 470.5 243.167 484.167 225.5 494.5C208.167 504.5 187 509.5 162 509.5C137 509.5 115.667 504.5 98 494.5C80.3333 484.167 65.8333 470.5 54.5 453.5C43.5 436.167 35.5 416.167 30.5 393.5C25.5 370.833 23 347 23 322C23 297 25.5 273.333 30.5 251C35.5 228.333 43.5 208.667 54.5 192C65.8333 175 80.3333 161.5 98 151.5C115.667 141.5 137 136.5 162 136.5C187 136.5 208.167 141.5 225.5 151.5C243.167 161.5 257.5 175 268.5 192C279.5 208.667 287.5 228.333 292.5 251C297.5 273.333 300 297 300 322ZM214 322C214 311 213.333 298.833 212 285.5C210.667 272.167 208.167 259.833 204.5 248.5C200.833 236.833 195.5 227.167 188.5 219.5C181.833 211.5 173 207.5 162 207.5C151 207.5 142 211.5 135 219.5C128 227.167 122.5 236.833 118.5 248.5C114.833 259.833 112.333 272.167 111 285.5C109.667 298.833 109 311 109 322C109 333.333 109.667 345.833 111 359.5C112.333 372.833 114.833 385.333 118.5 397C122.5 408.333 128 418 135 426C142 433.667 151 437.5 162 437.5C173 437.5 181.833 433.667 188.5 426C195.5 418 200.833 408.333 204.5 397C208.167 385.333 210.667 372.833 212 359.5C213.333 345.833 214 333.333 214 322ZM357.242 500V430L495.242 305C503.909 296.667 510.909 288.167 516.242 279.5C521.576 270.833 524.242 261.167 524.242 250.5C524.242 237.833 520.242 227.667 512.242 220C504.242 212 493.576 208 480.242 208C466.242 208 454.742 213 445.742 223C437.076 232.667 431.909 245.5 430.242 261.5L349.742 250.5C351.742 232.5 356.576 216.5 364.242 202.5C372.242 188.5 382.242 176.667 394.242 167C406.242 157 419.909 149.5 435.242 144.5C450.909 139.167 467.409 136.5 484.742 136.5C501.076 136.5 516.909 138.667 532.242 143C547.576 147.333 561.242 154 573.242 163C585.242 172 594.742 183.333 601.742 197C609.076 210.667 612.742 226.667 612.742 245C612.742 257.667 611.076 269.167 607.742 279.5C604.409 289.5 599.742 298.833 593.742 307.5C588.076 316.167 581.409 324.333 573.742 332C566.409 339.333 558.742 346.667 550.742 354L468.742 427H613.242V500H357.242Z" fill="url(#paint0_linear)"/>
<defs>
<linearGradient id="paint0_linear" x1="319.945" y1="-401.544" x2="319.945" y2="1069.53" gradientUnits="userSpaceOnUse">
<stop stop-color="#2047DB"/>
<stop offset="1" stop-color="#204BD3"/>
</linearGradient>
</defs>
</svg>
