<svg width="647" height="691" viewBox="0 0 647 691" fill="none" xmlns="http://www.w3.org/2000/svg">
<path d="M300 322C300 347 297.5 370.833 292.5 393.5C287.5 416.167 279.5 436.167 268.5 453.5C257.5 470.5 243.167 484.167 225.5 494.5C208.167 504.5 187 509.5 162 509.5C137 509.5 115.667 504.5 98 494.5C80.3333 484.167 65.8333 470.5 54.5 453.5C43.5 436.167 35.5 416.167 30.5 393.5C25.5 370.833 23 347 23 322C23 297 25.5 273.333 30.5 251C35.5 228.333 43.5 208.667 54.5 192C65.8333 175 80.3333 161.5 98 151.5C115.667 141.5 137 136.5 162 136.5C187 136.5 208.167 141.5 225.5 151.5C243.167 161.5 257.5 175 268.5 192C279.5 208.667 287.5 228.333 292.5 251C297.5 273.333 300 297 300 322ZM214 322C214 311 213.333 298.833 212 285.5C210.667 272.167 208.167 259.833 204.5 248.5C200.833 236.833 195.5 227.167 188.5 219.5C181.833 211.5 173 207.5 162 207.5C151 207.5 142 211.5 135 219.5C128 227.167 122.5 236.833 118.5 248.5C114.833 259.833 112.333 272.167 111 285.5C109.667 298.833 109 311 109 322C109 333.333 109.667 345.833 111 359.5C112.333 372.833 114.833 385.333 118.5 397C122.5 408.333 128 418 135 426C142 433.667 151 437.5 162 437.5C173 437.5 181.833 433.667 188.5 426C195.5 418 200.833 408.333 204.5 397C208.167 385.333 210.667 372.833 212 359.5C213.333 345.833 214 333.333 214 322ZM614.742 397C614.742 416.333 610.742 433.167 602.742 447.5C595.076 461.5 584.909 473.167 572.242 482.5C559.576 491.5 545.242 498.167 529.242 502.5C513.576 507.167 497.576 509.5 481.242 509.5C465.242 509.5 449.576 507.667 434.242 504C419.242 500.333 405.409 494.833 392.742 487.5C380.409 479.833 369.576 470.167 360.242 458.5C350.909 446.5 343.909 432.167 339.242 415.5L417.242 395C420.576 406.667 427.409 417 437.742 426C448.076 434.667 461.242 439 477.242 439C483.242 439 489.242 438.167 495.242 436.5C501.576 434.833 507.076 432.333 511.742 429C516.742 425.333 520.742 420.667 523.742 415C527.076 409.333 528.742 402.333 528.742 394C528.742 385 526.576 377.5 522.242 371.5C518.242 365.5 512.742 360.833 505.742 357.5C499.076 353.833 491.409 351.333 482.742 350C474.076 348.333 465.409 347.5 456.742 347.5H434.242V286H458.742C466.742 286 474.409 285.5 481.742 284.5C489.076 283.167 495.576 281 501.242 278C507.242 274.667 511.909 270.333 515.242 265C518.909 259.667 520.742 252.667 520.742 244C520.742 231.333 516.242 221.667 507.242 215C498.242 208.333 487.909 205 476.242 205C464.242 205 453.742 208.667 444.742 216C436.076 223 430.409 232.5 427.742 244.5L349.742 226.5C354.076 211.5 360.576 198.5 369.242 187.5C377.909 176.167 388.076 166.833 399.742 159.5C411.742 151.833 424.742 146.167 438.742 142.5C452.742 138.5 467.076 136.5 481.742 136.5C497.409 136.5 512.576 138.5 527.242 142.5C542.242 146.5 555.576 152.667 567.242 161C578.909 169.333 588.242 179.833 595.242 192.5C602.576 204.833 606.242 219.5 606.242 236.5C606.242 256.167 600.576 272.833 589.242 286.5C578.242 299.833 564.076 308.833 546.742 313.5V315C556.742 317.333 565.909 321.167 574.242 326.5C582.576 331.5 589.742 337.667 595.742 345C601.742 352 606.409 360 609.742 369C613.076 377.667 614.742 387 614.742 397Z" fill="url(#paint0_linear)"/>
<defs>
<linearGradient id="paint0_linear" x1="319.945" y1="-406.247" x2="319.945" y2="1082.06" gradientUnits="userSpaceOnUse">
<stop stop-color="#2047DB"/>
<stop offset="1" stop-color="#204BD3"/>
</linearGradient>
</defs>
</svg>
