<svg width="872" height="660" viewBox="0 0 872 660" fill="none" xmlns="http://www.w3.org/2000/svg">
<path d="M571.578 542.329C680.873 538.783 726.961 421.819 740.16 353.357C761.448 242.941 655.585 147.593 546.936 145.391C405.825 142.531 447.034 195.449 355.209 127.584C263.384 59.7179 195.024 98.6852 127.851 157.947C68.0208 210.731 47.2309 272.828 61.7843 351.275C78.2026 439.775 157.899 494.783 222.214 516.761C286.529 538.74 330.545 457.554 408.369 469.715C486.193 481.876 462.282 545.876 571.578 542.329Z" fill="#F18A88"/>
<path opacity="0.16" d="M729.499 463.068C833.629 429.679 845.867 304.559 839.782 235.103C829.967 123.082 702.01 60.4285 596.924 88.1127C460.442 124.068 514.585 163.654 407.667 123.578C300.749 83.5022 245.698 139.726 197.357 215.139C154.3 282.31 151.34 347.728 186.853 419.175C226.917 499.777 318.644 530.815 386.521 534.309C454.398 537.804 474.457 447.658 552.632 438.006C630.807 428.354 625.368 496.458 729.499 463.068Z" fill="#F18A88"/>
<path d="M185 210.682H189.36L201.56 239.002H195.8L193.16 232.522H180.88L178.32 239.002H172.68L185 210.682ZM191.4 228.202L187.04 216.682L182.6 228.202H191.4ZM204.882 223.642H201.242V219.802H204.882V216.962C204.882 215.815 205.002 214.722 205.242 213.682C205.509 212.615 205.936 211.682 206.522 210.882C207.136 210.082 207.936 209.455 208.922 209.002C209.909 208.522 211.149 208.282 212.642 208.282C213.176 208.282 213.616 208.309 213.962 208.362C214.336 208.389 214.709 208.455 215.082 208.562L214.762 212.642C214.496 212.562 214.202 212.495 213.882 212.442C213.589 212.389 213.269 212.362 212.922 212.362C212.229 212.362 211.669 212.495 211.242 212.762C210.816 213.029 210.482 213.375 210.242 213.802C210.029 214.229 209.882 214.695 209.802 215.202C209.722 215.709 209.682 216.202 209.682 216.682V219.802H214.122V223.642H209.682V239.002H204.882V223.642ZM229.752 219.802H234.552V239.002H229.752V219.802ZM229.072 213.282C229.072 212.509 229.352 211.842 229.912 211.282C230.498 210.695 231.232 210.402 232.112 210.402C232.992 210.402 233.725 210.682 234.312 211.242C234.925 211.775 235.232 212.455 235.232 213.282C235.232 214.109 234.925 214.802 234.312 215.362C233.725 215.895 232.992 216.162 232.112 216.162C231.232 216.162 230.498 215.882 229.912 215.322C229.352 214.735 229.072 214.055 229.072 213.282ZM216.992 223.642H213.352V219.802H216.992V216.962C216.992 215.815 217.112 214.722 217.352 213.682C217.618 212.615 218.045 211.682 218.632 210.882C219.245 210.082 220.045 209.455 221.032 209.002C222.018 208.522 223.258 208.282 224.752 208.282C225.285 208.282 225.725 208.309 226.072 208.362C226.445 208.389 226.818 208.455 227.192 208.562L226.872 212.642C226.605 212.562 226.312 212.495 225.992 212.442C225.698 212.389 225.378 212.362 225.032 212.362C224.338 212.362 223.778 212.495 223.352 212.762C222.925 213.029 222.592 213.375 222.352 213.802C222.138 214.229 221.992 214.695 221.912 215.202C221.832 215.709 221.792 216.202 221.792 216.682V219.802H226.232V223.642H221.792V239.002H216.992V223.642ZM239.943 219.802H244.503V222.882H244.583C245.009 221.922 245.743 221.082 246.783 220.362C247.849 219.615 249.103 219.242 250.543 219.242C251.796 219.242 252.863 219.469 253.743 219.922C254.649 220.349 255.383 220.922 255.943 221.642C256.529 222.362 256.956 223.189 257.223 224.122C257.489 225.055 257.622 226.015 257.622 227.002V239.002H252.823V228.362C252.823 227.802 252.783 227.215 252.703 226.602C252.623 225.989 252.449 225.442 252.183 224.962C251.916 224.455 251.543 224.042 251.063 223.722C250.609 223.402 249.996 223.242 249.223 223.242C248.449 223.242 247.783 223.402 247.223 223.722C246.663 224.015 246.196 224.402 245.823 224.882C245.476 225.362 245.209 225.922 245.023 226.562C244.836 227.175 244.743 227.802 244.743 228.442V239.002H239.943V219.802ZM263.304 219.802H268.104V239.002H263.304V219.802ZM262.624 213.282C262.624 212.509 262.904 211.842 263.464 211.282C264.05 210.695 264.784 210.402 265.664 210.402C266.544 210.402 267.277 210.682 267.864 211.242C268.477 211.775 268.784 212.455 268.784 213.282C268.784 214.109 268.477 214.802 267.864 215.362C267.277 215.895 266.544 216.162 265.664 216.162C264.784 216.162 264.05 215.882 263.464 215.322C262.904 214.735 262.624 214.055 262.624 213.282ZM271.167 223.642V219.802H274.527V214.242H279.247V219.802H284.047V223.642H279.247V232.562C279.247 233.415 279.394 234.122 279.687 234.682C280.007 235.242 280.7 235.522 281.767 235.522C282.087 235.522 282.434 235.495 282.807 235.442C283.18 235.362 283.514 235.255 283.807 235.122L283.967 238.882C283.54 239.042 283.034 239.162 282.447 239.242C281.86 239.349 281.3 239.402 280.767 239.402C279.487 239.402 278.447 239.229 277.647 238.882C276.847 238.509 276.207 238.015 275.727 237.402C275.274 236.762 274.954 236.042 274.767 235.242C274.607 234.415 274.527 233.535 274.527 232.602V223.642H271.167ZM284.641 219.802H289.961L295.321 233.762H295.401L300.161 219.802H305.161L296.081 243.122C295.734 244.002 295.361 244.775 294.961 245.442C294.561 246.135 294.081 246.709 293.521 247.162C292.961 247.642 292.294 248.002 291.521 248.242C290.774 248.482 289.867 248.602 288.801 248.602C288.401 248.602 287.987 248.575 287.561 248.522C287.161 248.495 286.747 248.429 286.321 248.322L286.721 244.162C287.041 244.269 287.347 244.335 287.641 244.362C287.961 244.415 288.254 244.442 288.521 244.442C289.027 244.442 289.454 244.375 289.801 244.242C290.147 244.135 290.441 243.949 290.681 243.682C290.921 243.442 291.134 243.135 291.321 242.762C291.507 242.389 291.707 241.949 291.921 241.442L292.881 239.002L284.641 219.802ZM318.268 210.682H328.308C330.148 210.682 332.002 210.922 333.868 211.402C335.735 211.882 337.415 212.682 338.908 213.802C340.402 214.895 341.615 216.349 342.548 218.162C343.482 219.949 343.948 222.175 343.948 224.842C343.948 227.322 343.482 229.455 342.548 231.242C341.615 233.029 340.402 234.495 338.908 235.642C337.415 236.789 335.735 237.642 333.868 238.202C332.002 238.735 330.148 239.002 328.308 239.002H318.268V210.682ZM327.508 234.602C328.815 234.602 330.122 234.455 331.428 234.162C332.735 233.842 333.908 233.322 334.948 232.602C336.015 231.855 336.882 230.855 337.548 229.602C338.215 228.349 338.548 226.762 338.548 224.842C338.548 222.815 338.215 221.162 337.548 219.882C336.882 218.602 336.015 217.602 334.948 216.882C333.908 216.162 332.735 215.669 331.428 215.402C330.122 215.135 328.815 215.002 327.508 215.002H323.308V234.602H327.508ZM348.655 219.802H353.455V239.002H348.655V219.802ZM347.975 213.282C347.975 212.509 348.255 211.842 348.815 211.282C349.402 210.695 350.135 210.402 351.015 210.402C351.895 210.402 352.629 210.682 353.215 211.242C353.829 211.775 354.135 212.455 354.135 213.282C354.135 214.109 353.829 214.802 353.215 215.362C352.629 215.895 351.895 216.162 351.015 216.162C350.135 216.162 349.402 215.882 348.815 215.322C348.255 214.735 347.975 214.055 347.975 213.282ZM371.198 236.562H371.078C370.598 237.415 369.825 238.122 368.758 238.682C367.692 239.215 366.478 239.482 365.118 239.482C364.345 239.482 363.532 239.375 362.678 239.162C361.852 238.975 361.078 238.655 360.358 238.202C359.665 237.722 359.078 237.109 358.598 236.362C358.145 235.589 357.918 234.642 357.918 233.522C357.918 232.082 358.318 230.935 359.118 230.082C359.945 229.229 360.998 228.575 362.278 228.122C363.558 227.669 364.972 227.375 366.518 227.242C368.092 227.082 369.625 227.002 371.118 227.002V226.522C371.118 225.322 370.678 224.442 369.798 223.882C368.945 223.295 367.918 223.002 366.718 223.002C365.705 223.002 364.732 223.215 363.798 223.642C362.865 224.069 362.092 224.589 361.478 225.202L358.998 222.282C360.092 221.269 361.345 220.509 362.758 220.002C364.198 219.495 365.652 219.242 367.118 219.242C368.825 219.242 370.225 219.482 371.318 219.962C372.438 220.442 373.318 221.069 373.958 221.842C374.598 222.615 375.038 223.482 375.278 224.442C375.545 225.402 375.678 226.362 375.678 227.322V239.002H371.198V236.562ZM371.118 230.242H370.038C369.265 230.242 368.452 230.282 367.598 230.362C366.745 230.415 365.958 230.562 365.238 230.802C364.518 231.015 363.918 231.335 363.438 231.762C362.958 232.162 362.718 232.722 362.718 233.442C362.718 233.895 362.812 234.282 362.998 234.602C363.212 234.895 363.478 235.135 363.798 235.322C364.118 235.509 364.478 235.642 364.878 235.722C365.278 235.802 365.678 235.842 366.078 235.842C367.732 235.842 368.985 235.402 369.838 234.522C370.692 233.642 371.118 232.442 371.118 230.922V230.242ZM400.791 219.802V237.282C400.791 239.015 400.577 240.575 400.151 241.962C399.724 243.375 399.057 244.562 398.151 245.522C397.271 246.509 396.151 247.269 394.791 247.802C393.431 248.335 391.817 248.602 389.951 248.602C389.177 248.602 388.351 248.535 387.471 248.402C386.617 248.269 385.764 248.069 384.911 247.802C384.084 247.535 383.284 247.202 382.511 246.802C381.737 246.402 381.044 245.949 380.431 245.442L383.191 241.722C384.124 242.602 385.177 243.269 386.351 243.722C387.524 244.202 388.711 244.442 389.911 244.442C391.057 244.442 392.017 244.269 392.791 243.922C393.591 243.602 394.217 243.149 394.671 242.562C395.151 241.975 395.484 241.282 395.671 240.482C395.884 239.682 395.991 238.802 395.991 237.842V236.442H395.911C395.217 237.375 394.324 238.095 393.231 238.602C392.164 239.082 390.964 239.322 389.631 239.322C388.191 239.322 386.884 239.055 385.711 238.522C384.537 237.989 383.537 237.269 382.711 236.362C381.911 235.455 381.284 234.402 380.831 233.202C380.377 231.975 380.151 230.682 380.151 229.322C380.151 227.935 380.364 226.629 380.791 225.402C381.244 224.175 381.871 223.109 382.671 222.202C383.497 221.295 384.484 220.575 385.631 220.042C386.804 219.509 388.111 219.242 389.551 219.242C390.911 219.242 392.177 219.522 393.351 220.082C394.524 220.642 395.457 221.509 396.151 222.682H396.231V219.802H400.791ZM390.551 223.162C389.671 223.162 388.884 223.322 388.191 223.642C387.524 223.962 386.951 224.402 386.471 224.962C386.017 225.495 385.657 226.135 385.391 226.882C385.151 227.629 385.031 228.429 385.031 229.282C385.031 230.055 385.151 230.802 385.391 231.522C385.657 232.242 386.017 232.895 386.471 233.482C386.951 234.042 387.524 234.495 388.191 234.842C388.884 235.189 389.657 235.362 390.511 235.362C391.391 235.362 392.177 235.202 392.871 234.882C393.591 234.535 394.191 234.082 394.671 233.522C395.177 232.962 395.564 232.322 395.831 231.602C396.097 230.855 396.231 230.082 396.231 229.282C396.231 228.455 396.097 227.669 395.831 226.922C395.564 226.175 395.177 225.522 394.671 224.962C394.191 224.402 393.604 223.962 392.911 223.642C392.217 223.322 391.431 223.162 390.551 223.162ZM406.544 219.802H411.144V223.002H411.224C411.757 221.882 412.504 220.975 413.464 220.282C414.424 219.589 415.544 219.242 416.824 219.242C417.011 219.242 417.211 219.255 417.424 219.282C417.637 219.282 417.824 219.309 417.984 219.362V223.762C417.664 223.682 417.384 223.629 417.144 223.602C416.931 223.575 416.717 223.562 416.504 223.562C415.411 223.562 414.531 223.762 413.864 224.162C413.197 224.562 412.677 225.042 412.304 225.602C411.931 226.162 411.677 226.735 411.544 227.322C411.411 227.909 411.344 228.375 411.344 228.722V239.002H406.544V219.802ZM432.527 236.562H432.407C431.927 237.415 431.153 238.122 430.087 238.682C429.02 239.215 427.807 239.482 426.447 239.482C425.673 239.482 424.86 239.375 424.007 239.162C423.18 238.975 422.407 238.655 421.687 238.202C420.993 237.722 420.407 237.109 419.927 236.362C419.473 235.589 419.247 234.642 419.247 233.522C419.247 232.082 419.647 230.935 420.447 230.082C421.273 229.229 422.327 228.575 423.607 228.122C424.887 227.669 426.3 227.375 427.847 227.242C429.42 227.082 430.953 227.002 432.447 227.002V226.522C432.447 225.322 432.007 224.442 431.127 223.882C430.273 223.295 429.247 223.002 428.047 223.002C427.033 223.002 426.06 223.215 425.127 223.642C424.193 224.069 423.42 224.589 422.807 225.202L420.327 222.282C421.42 221.269 422.673 220.509 424.087 220.002C425.527 219.495 426.98 219.242 428.447 219.242C430.153 219.242 431.553 219.482 432.647 219.962C433.767 220.442 434.647 221.069 435.287 221.842C435.927 222.615 436.367 223.482 436.607 224.442C436.873 225.402 437.007 226.362 437.007 227.322V239.002H432.527V236.562ZM432.447 230.242H431.367C430.593 230.242 429.78 230.282 428.927 230.362C428.073 230.415 427.287 230.562 426.567 230.802C425.847 231.015 425.247 231.335 424.767 231.762C424.287 232.162 424.047 232.722 424.047 233.442C424.047 233.895 424.14 234.282 424.327 234.602C424.54 234.895 424.807 235.135 425.127 235.322C425.447 235.509 425.807 235.642 426.207 235.722C426.607 235.802 427.007 235.842 427.407 235.842C429.06 235.842 430.313 235.402 431.167 234.522C432.02 233.642 432.447 232.442 432.447 230.922V230.242ZM465.519 219.242C466.772 219.242 467.839 219.469 468.719 219.922C469.625 220.349 470.359 220.922 470.919 221.642C471.505 222.362 471.932 223.189 472.199 224.122C472.465 225.055 472.599 226.015 472.599 227.002V239.002H467.799V228.362C467.799 227.802 467.759 227.215 467.679 226.602C467.599 225.989 467.425 225.442 467.159 224.962C466.892 224.455 466.519 224.042 466.039 223.722C465.585 223.402 464.972 223.242 464.199 223.242C463.452 223.242 462.812 223.402 462.279 223.722C461.745 224.042 461.305 224.455 460.959 224.962C460.612 225.469 460.359 226.042 460.199 226.682C460.039 227.295 459.959 227.909 459.959 228.522V239.002H455.159V227.402C455.159 226.202 454.865 225.215 454.279 224.442C453.719 223.642 452.825 223.242 451.599 223.242C450.879 223.242 450.252 223.402 449.719 223.722C449.185 224.015 448.745 224.402 448.399 224.882C448.079 225.362 447.825 225.922 447.639 226.562C447.479 227.175 447.399 227.802 447.399 228.442V239.002H442.599V219.802H447.159V222.882H447.239C447.452 222.402 447.732 221.949 448.079 221.522C448.452 221.095 448.879 220.709 449.359 220.362C449.865 220.015 450.439 219.749 451.079 219.562C451.719 219.349 452.425 219.242 453.199 219.242C454.692 219.242 455.932 219.575 456.919 220.242C457.905 220.909 458.665 221.789 459.199 222.882C459.839 221.709 460.692 220.815 461.759 220.202C462.825 219.562 464.079 219.242 465.519 219.242Z" fill="white"/>
<path d="M185 210.682V209.682H184.345L184.083 210.283L185 210.682ZM189.36 210.682L190.278 210.286L190.018 209.682H189.36V210.682ZM201.56 239.002V240.002H203.08L202.478 238.606L201.56 239.002ZM195.8 239.002L194.874 239.379L195.128 240.002H195.8V239.002ZM193.16 232.522L194.086 232.145L193.832 231.522H193.16V232.522ZM180.88 232.522V231.522H180.2L179.95 232.155L180.88 232.522ZM178.32 239.002V240.002H179L179.25 239.369L178.32 239.002ZM172.68 239.002L171.763 238.603L171.154 240.002H172.68V239.002ZM191.4 228.202V229.202H192.848L192.335 227.848L191.4 228.202ZM187.04 216.682L187.975 216.328L187.048 213.879L186.107 216.322L187.04 216.682ZM182.6 228.202L181.667 227.842L181.143 229.202H182.6V228.202ZM185 211.682H189.36V209.682H185V211.682ZM188.442 211.078L200.642 239.398L202.478 238.606L190.278 210.286L188.442 211.078ZM201.56 238.002H195.8V240.002H201.56V238.002ZM196.726 238.625L194.086 232.145L192.234 232.899L194.874 239.379L196.726 238.625ZM193.16 231.522H180.88V233.522H193.16V231.522ZM179.95 232.155L177.39 238.635L179.25 239.369L181.81 232.889L179.95 232.155ZM178.32 238.002H172.68V240.002H178.32V238.002ZM173.597 239.401L185.917 211.081L184.083 210.283L171.763 238.603L173.597 239.401ZM192.335 227.848L187.975 216.328L186.105 217.036L190.465 228.556L192.335 227.848ZM186.107 216.322L181.667 227.842L183.533 228.562L187.973 217.042L186.107 216.322ZM182.6 229.202H191.4V227.202H182.6V229.202ZM204.882 223.642H205.882V222.642H204.882V223.642ZM201.242 223.642H200.242V224.642H201.242V223.642ZM201.242 219.802V218.802H200.242V219.802H201.242ZM204.882 219.802V220.802H205.882V219.802H204.882ZM205.242 213.682L204.272 213.439L204.27 213.448L204.268 213.457L205.242 213.682ZM206.522 210.882L205.729 210.274L205.722 210.282L205.716 210.291L206.522 210.882ZM208.922 209.002L209.34 209.911L209.35 209.906L209.36 209.901L208.922 209.002ZM213.962 208.362L213.81 209.35L213.85 209.357L213.891 209.359L213.962 208.362ZM215.082 208.562L216.079 208.64L216.143 207.825L215.357 207.6L215.082 208.562ZM214.762 212.642L214.475 213.6L215.662 213.956L215.759 212.72L214.762 212.642ZM213.882 212.442L213.703 213.426L213.711 213.427L213.718 213.428L213.882 212.442ZM211.242 212.762L210.712 211.914L210.712 211.914L211.242 212.762ZM210.242 213.802L209.371 213.312L209.359 213.333L209.348 213.355L210.242 213.802ZM209.802 215.202L210.79 215.358L210.79 215.358L209.802 215.202ZM209.682 219.802H208.682V220.802H209.682V219.802ZM214.122 219.802H215.122V218.802H214.122V219.802ZM214.122 223.642V224.642H215.122V223.642H214.122ZM209.682 223.642V222.642H208.682V223.642H209.682ZM209.682 239.002V240.002H210.682V239.002H209.682ZM204.882 239.002H203.882V240.002H204.882V239.002ZM204.882 222.642H201.242V224.642H204.882V222.642ZM202.242 223.642V219.802H200.242V223.642H202.242ZM201.242 220.802H204.882V218.802H201.242V220.802ZM205.882 219.802V216.962H203.882V219.802H205.882ZM205.882 216.962C205.882 215.885 205.995 214.868 206.217 213.907L204.268 213.457C204.01 214.576 203.882 215.745 203.882 216.962H205.882ZM206.212 213.924C206.451 212.97 206.827 212.158 207.329 211.473L205.716 210.291C205.045 211.206 204.567 212.261 204.272 213.439L206.212 213.924ZM207.316 211.49C207.823 210.829 208.489 210.301 209.34 209.911L208.505 208.093C207.382 208.609 206.449 209.334 205.729 210.274L207.316 211.49ZM209.36 209.901C210.17 209.507 211.249 209.282 212.642 209.282V207.282C211.049 207.282 209.648 207.537 208.485 208.103L209.36 209.901ZM212.642 209.282C213.148 209.282 213.532 209.308 213.81 209.35L214.114 207.374C213.699 207.31 213.203 207.282 212.642 207.282V209.282ZM213.891 209.359C214.193 209.381 214.498 209.435 214.807 209.523L215.357 207.6C214.92 207.475 214.478 207.396 214.033 207.364L213.891 209.359ZM214.085 208.484L213.765 212.564L215.759 212.72L216.079 208.64L214.085 208.484ZM215.05 211.684C214.737 211.59 214.402 211.515 214.047 211.456L213.718 213.428C214.003 213.476 214.254 213.534 214.475 213.6L215.05 211.684ZM214.061 211.458C213.7 211.392 213.319 211.362 212.922 211.362V213.362C213.218 213.362 213.478 213.385 213.703 213.426L214.061 211.458ZM212.922 211.362C212.11 211.362 211.347 211.517 210.712 211.914L211.772 213.61C211.991 213.473 212.348 213.362 212.922 213.362V211.362ZM210.712 211.914C210.148 212.267 209.695 212.735 209.371 213.312L211.114 214.292C211.269 214.016 211.483 213.79 211.772 213.61L210.712 211.914ZM209.348 213.355C209.085 213.88 208.909 214.446 208.814 215.046L210.79 215.358C210.855 214.945 210.972 214.577 211.137 214.249L209.348 213.355ZM208.814 215.046C208.727 215.601 208.682 216.146 208.682 216.682H210.682C210.682 216.258 210.718 215.816 210.79 215.358L208.814 215.046ZM208.682 216.682V219.802H210.682V216.682H208.682ZM209.682 220.802H214.122V218.802H209.682V220.802ZM213.122 219.802V223.642H215.122V219.802H213.122ZM214.122 222.642H209.682V224.642H214.122V222.642ZM208.682 223.642V239.002H210.682V223.642H208.682ZM209.682 238.002H204.882V240.002H209.682V238.002ZM205.882 239.002V223.642H203.882V239.002H205.882ZM229.752 219.802V218.802H228.752V219.802H229.752ZM234.552 219.802H235.552V218.802H234.552V219.802ZM234.552 239.002V240.002H235.552V239.002H234.552ZM229.752 239.002H228.752V240.002H229.752V239.002ZM229.912 211.282L230.619 211.989L230.619 211.989L229.912 211.282ZM234.312 211.242L233.621 211.965L233.638 211.981L233.655 211.997L234.312 211.242ZM234.312 215.362L234.984 216.102L234.986 216.1L234.312 215.362ZM229.912 215.322L229.188 216.012L229.204 216.029L229.221 216.045L229.912 215.322ZM216.992 223.642H217.992V222.642H216.992V223.642ZM213.352 223.642H212.352V224.642H213.352V223.642ZM213.352 219.802V218.802H212.352V219.802H213.352ZM216.992 219.802V220.802H217.992V219.802H216.992ZM217.352 213.682L216.381 213.439L216.379 213.448L216.377 213.457L217.352 213.682ZM218.632 210.882L217.838 210.274L217.831 210.282L217.825 210.291L218.632 210.882ZM221.032 209.002L221.449 209.911L221.459 209.906L221.469 209.901L221.032 209.002ZM226.072 208.362L225.92 209.35L225.96 209.357L226 209.359L226.072 208.362ZM227.192 208.562L228.189 208.64L228.252 207.825L227.466 207.6L227.192 208.562ZM226.872 212.642L226.584 213.6L227.772 213.956L227.869 212.72L226.872 212.642ZM225.992 212.442L225.813 213.426L225.82 213.427L225.827 213.428L225.992 212.442ZM223.352 212.762L222.822 211.914L222.822 211.914L223.352 212.762ZM222.352 213.802L221.48 213.312L221.468 213.333L221.457 213.355L222.352 213.802ZM221.912 215.202L222.899 215.358L222.899 215.358L221.912 215.202ZM221.792 219.802H220.792V220.802H221.792V219.802ZM226.232 219.802H227.232V218.802H226.232V219.802ZM226.232 223.642V224.642H227.232V223.642H226.232ZM221.792 223.642V222.642H220.792V223.642H221.792ZM221.792 239.002V240.002H222.792V239.002H221.792ZM216.992 239.002H215.992V240.002H216.992V239.002ZM229.752 220.802H234.552V218.802H229.752V220.802ZM233.552 219.802V239.002H235.552V219.802H233.552ZM234.552 238.002H229.752V240.002H234.552V238.002ZM230.752 239.002V219.802H228.752V239.002H230.752ZM230.072 213.282C230.072 212.781 230.241 212.367 230.619 211.989L229.204 210.575C228.462 211.317 228.072 212.236 228.072 213.282H230.072ZM230.619 211.989C231.006 211.602 231.479 211.402 232.112 211.402V209.402C230.984 209.402 229.991 209.788 229.204 210.575L230.619 211.989ZM232.112 211.402C232.758 211.402 233.237 211.599 233.621 211.965L235.002 210.519C234.213 209.765 233.225 209.402 232.112 209.402V211.402ZM233.655 211.997C234.046 212.336 234.232 212.739 234.232 213.282H236.232C236.232 212.172 235.804 211.214 234.968 210.487L233.655 211.997ZM234.232 213.282C234.232 213.826 234.044 214.252 233.637 214.623L234.986 216.1C235.806 215.352 236.232 214.391 236.232 213.282H234.232ZM233.639 214.622C233.257 214.969 232.772 215.162 232.112 215.162V217.162C233.211 217.162 234.193 216.821 234.984 216.102L233.639 214.622ZM232.112 215.162C231.465 215.162 230.986 214.965 230.602 214.599L229.221 216.045C230.01 216.799 230.998 217.162 232.112 217.162V215.162ZM230.635 214.631C230.243 214.221 230.072 213.785 230.072 213.282H228.072C228.072 214.326 228.46 215.25 229.188 216.012L230.635 214.631ZM216.992 222.642H213.352V224.642H216.992V222.642ZM214.352 223.642V219.802H212.352V223.642H214.352ZM213.352 220.802H216.992V218.802H213.352V220.802ZM217.992 219.802V216.962H215.992V219.802H217.992ZM217.992 216.962C217.992 215.885 218.104 214.868 218.326 213.907L216.377 213.457C216.119 214.576 215.992 215.745 215.992 216.962H217.992ZM218.322 213.924C218.56 212.97 218.936 212.158 219.438 211.473L217.825 210.291C217.154 211.206 216.676 212.261 216.381 213.439L218.322 213.924ZM219.425 211.49C219.932 210.829 220.599 210.301 221.449 209.911L220.614 208.093C219.491 208.609 218.558 209.334 217.838 210.274L219.425 211.49ZM221.469 209.901C222.279 209.507 223.358 209.282 224.752 209.282V207.282C223.158 207.282 221.757 207.537 220.594 208.103L221.469 209.901ZM224.752 209.282C225.257 209.282 225.642 209.308 225.92 209.35L226.224 207.374C225.808 207.31 225.313 207.282 224.752 207.282V209.282ZM226 209.359C226.302 209.381 226.607 209.435 226.917 209.523L227.466 207.6C227.029 207.475 226.588 207.396 226.143 207.364L226 209.359ZM226.195 208.484L225.875 212.564L227.869 212.72L228.189 208.64L226.195 208.484ZM227.159 211.684C226.846 211.59 226.511 211.515 226.156 211.456L225.827 213.428C226.112 213.476 226.364 213.534 226.584 213.6L227.159 211.684ZM226.17 211.458C225.809 211.392 225.429 211.362 225.032 211.362V213.362C225.328 213.362 225.587 213.385 225.813 213.426L226.17 211.458ZM225.032 211.362C224.219 211.362 223.456 211.517 222.822 211.914L223.882 213.61C224.1 213.473 224.457 213.362 225.032 213.362V211.362ZM222.822 211.914C222.257 212.267 221.804 212.735 221.48 213.312L223.223 214.292C223.379 214.016 223.593 213.79 223.882 213.61L222.822 211.914ZM221.457 213.355C221.195 213.88 221.019 214.446 220.924 215.046L222.899 215.358C222.965 214.945 223.082 214.577 223.246 214.249L221.457 213.355ZM220.924 215.046C220.836 215.601 220.792 216.146 220.792 216.682H222.792C222.792 216.258 222.827 215.816 222.899 215.358L220.924 215.046ZM220.792 216.682V219.802H222.792V216.682H220.792ZM221.792 220.802H226.232V218.802H221.792V220.802ZM225.232 219.802V223.642H227.232V219.802H225.232ZM226.232 222.642H221.792V224.642H226.232V222.642ZM220.792 223.642V239.002H222.792V223.642H220.792ZM221.792 238.002H216.992V240.002H221.792V238.002ZM217.992 239.002V223.642H215.992V239.002H217.992ZM239.943 219.802V218.802H238.943V219.802H239.943ZM244.503 219.802H245.503V218.802H244.503V219.802ZM244.503 222.882H243.503V223.882H244.503V222.882ZM244.583 222.882V223.882H245.232L245.496 223.288L244.583 222.882ZM246.783 220.362L247.352 221.184L247.356 221.181L246.783 220.362ZM253.743 219.922L253.285 220.811L253.3 220.819L253.317 220.827L253.743 219.922ZM255.943 221.642L255.153 222.256L255.16 222.265L255.167 222.274L255.943 221.642ZM257.622 239.002V240.002H258.622V239.002H257.622ZM252.823 239.002H251.823V240.002H252.823V239.002ZM252.703 226.602L253.694 226.473L253.694 226.473L252.703 226.602ZM252.183 224.962L251.298 225.428L251.303 225.438L251.308 225.448L252.183 224.962ZM251.063 223.722L250.486 224.539L250.497 224.547L250.508 224.554L251.063 223.722ZM247.223 223.722L247.687 224.608L247.703 224.599L247.719 224.59L247.223 223.722ZM245.823 224.882L245.033 224.268L245.022 224.282L245.012 224.296L245.823 224.882ZM245.023 226.562L245.979 226.853L245.983 226.842L245.023 226.562ZM244.743 239.002V240.002H245.743V239.002H244.743ZM239.943 239.002H238.943V240.002H239.943V239.002ZM239.943 220.802H244.503V218.802H239.943V220.802ZM243.503 219.802V222.882H245.503V219.802H243.503ZM244.503 223.882H244.583V221.882H244.503V223.882ZM245.496 223.288C245.835 222.527 246.432 221.821 247.352 221.184L246.213 219.54C245.053 220.343 244.184 221.317 243.669 222.476L245.496 223.288ZM247.356 221.181C248.237 220.565 249.285 220.242 250.543 220.242V218.242C248.92 218.242 247.461 218.666 246.209 219.543L247.356 221.181ZM250.543 220.242C251.678 220.242 252.579 220.447 253.285 220.811L254.2 219.033C253.146 218.49 251.914 218.242 250.543 218.242V220.242ZM253.317 220.827C254.095 221.193 254.699 221.672 255.153 222.256L256.732 221.028C256.066 220.172 255.203 219.504 254.168 219.017L253.317 220.827ZM255.167 222.274C255.664 222.884 256.03 223.588 256.261 224.397L258.184 223.847C257.882 222.79 257.394 221.84 256.718 221.01L255.167 222.274ZM256.261 224.397C256.502 225.239 256.622 226.107 256.622 227.002H258.622C258.622 225.924 258.477 224.871 258.184 223.847L256.261 224.397ZM256.622 227.002V239.002H258.622V227.002H256.622ZM257.622 238.002H252.823V240.002H257.622V238.002ZM253.823 239.002V228.362H251.823V239.002H253.823ZM253.823 228.362C253.823 227.755 253.779 227.124 253.694 226.473L251.711 226.731C251.786 227.306 251.823 227.849 251.823 228.362H253.823ZM253.694 226.473C253.6 225.75 253.392 225.08 253.057 224.476L251.308 225.448C251.506 225.804 251.645 226.227 251.711 226.731L253.694 226.473ZM253.067 224.496C252.722 223.841 252.235 223.302 251.617 222.89L250.508 224.554C250.85 224.782 251.109 225.07 251.298 225.428L253.067 224.496ZM251.639 222.905C250.962 222.427 250.123 222.242 249.223 222.242V224.242C249.868 224.242 250.256 224.377 250.486 224.539L251.639 222.905ZM249.223 222.242C248.31 222.242 247.465 222.432 246.726 222.854L247.719 224.59C248.1 224.372 248.589 224.242 249.223 224.242V222.242ZM246.758 222.836C246.077 223.193 245.498 223.671 245.033 224.268L246.612 225.496C246.894 225.133 247.248 224.837 247.687 224.608L246.758 222.836ZM245.012 224.296C244.59 224.88 244.277 225.546 244.063 226.282L245.983 226.842C246.141 226.298 246.361 225.844 246.633 225.467L245.012 224.296ZM244.066 226.271C243.85 226.978 243.743 227.703 243.743 228.442H245.743C245.743 227.901 245.821 227.372 245.979 226.853L244.066 226.271ZM243.743 228.442V239.002H245.743V228.442H243.743ZM244.743 238.002H239.943V240.002H244.743V238.002ZM240.943 239.002V219.802H238.943V239.002H240.943ZM263.304 219.802V218.802H262.304V219.802H263.304ZM268.104 219.802H269.104V218.802H268.104V219.802ZM268.104 239.002V240.002H269.104V239.002H268.104ZM263.304 239.002H262.304V240.002H263.304V239.002ZM263.464 211.282L264.171 211.989L264.171 211.989L263.464 211.282ZM267.864 211.242L267.173 211.965L267.19 211.981L267.208 211.997L267.864 211.242ZM267.864 215.362L268.536 216.102L268.538 216.1L267.864 215.362ZM263.464 215.322L262.74 216.012L262.756 216.029L262.773 216.045L263.464 215.322ZM263.304 220.802H268.104V218.802H263.304V220.802ZM267.104 219.802V239.002H269.104V219.802H267.104ZM268.104 238.002H263.304V240.002H268.104V238.002ZM264.304 239.002V219.802H262.304V239.002H264.304ZM263.624 213.282C263.624 212.781 263.793 212.367 264.171 211.989L262.757 210.575C262.014 211.317 261.624 212.236 261.624 213.282H263.624ZM264.171 211.989C264.558 211.602 265.031 211.402 265.664 211.402V209.402C264.536 209.402 263.543 209.788 262.757 210.575L264.171 211.989ZM265.664 211.402C266.311 211.402 266.789 211.599 267.173 211.965L268.554 210.519C267.765 209.765 266.777 209.402 265.664 209.402V211.402ZM267.208 211.997C267.598 212.336 267.784 212.739 267.784 213.282H269.784C269.784 212.172 269.356 211.214 268.52 210.487L267.208 211.997ZM267.784 213.282C267.784 213.826 267.596 214.252 267.189 214.623L268.538 216.1C269.358 215.352 269.784 214.391 269.784 213.282H267.784ZM267.191 214.622C266.809 214.969 266.325 215.162 265.664 215.162V217.162C266.763 217.162 267.745 216.821 268.536 216.102L267.191 214.622ZM265.664 215.162C265.017 215.162 264.538 214.965 264.154 214.599L262.773 216.045C263.563 216.799 264.551 217.162 265.664 217.162V215.162ZM264.187 214.631C263.795 214.221 263.624 213.785 263.624 213.282H261.624C261.624 214.326 262.012 215.25 262.74 216.012L264.187 214.631ZM271.167 223.642H270.167V224.642H271.167V223.642ZM271.167 219.802V218.802H270.167V219.802H271.167ZM274.527 219.802V220.802H275.527V219.802H274.527ZM274.527 214.242V213.242H273.527V214.242H274.527ZM279.247 214.242H280.247V213.242H279.247V214.242ZM279.247 219.802H278.247V220.802H279.247V219.802ZM284.047 219.802H285.047V218.802H284.047V219.802ZM284.047 223.642V224.642H285.047V223.642H284.047ZM279.247 223.642V222.642H278.247V223.642H279.247ZM279.687 234.682L278.801 235.146L278.81 235.162L278.819 235.178L279.687 234.682ZM282.807 235.442L282.948 236.432L282.983 236.427L283.016 236.42L282.807 235.442ZM283.807 235.122L284.806 235.079L284.743 233.598L283.393 234.212L283.807 235.122ZM283.967 238.882L284.318 239.818L284.997 239.564L284.966 238.839L283.967 238.882ZM282.447 239.242L282.312 238.251L282.29 238.254L282.268 238.258L282.447 239.242ZM277.647 238.882L277.224 239.788L277.237 239.794L277.249 239.8L277.647 238.882ZM275.727 237.402L274.911 237.98L274.925 237.999L274.939 238.018L275.727 237.402ZM274.767 235.242L273.785 235.432L273.789 235.451L273.793 235.469L274.767 235.242ZM274.527 223.642H275.527V222.642H274.527V223.642ZM272.167 223.642V219.802H270.167V223.642H272.167ZM271.167 220.802H274.527V218.802H271.167V220.802ZM275.527 219.802V214.242H273.527V219.802H275.527ZM274.527 215.242H279.247V213.242H274.527V215.242ZM278.247 214.242V219.802H280.247V214.242H278.247ZM279.247 220.802H284.047V218.802H279.247V220.802ZM283.047 219.802V223.642H285.047V219.802H283.047ZM284.047 222.642H279.247V224.642H284.047V222.642ZM278.247 223.642V232.562H280.247V223.642H278.247ZM278.247 232.562C278.247 233.523 278.411 234.402 278.801 235.146L280.573 234.218C280.376 233.842 280.247 233.308 280.247 232.562H278.247ZM278.819 235.178C279.412 236.216 280.586 236.522 281.767 236.522V234.522C280.814 234.522 280.602 234.268 280.555 234.186L278.819 235.178ZM281.767 236.522C282.142 236.522 282.536 236.491 282.948 236.432L282.665 234.452C282.331 234.5 282.032 234.522 281.767 234.522V236.522ZM283.016 236.42C283.448 236.327 283.851 236.2 284.221 236.032L283.393 234.212C283.176 234.31 282.913 234.397 282.597 234.464L283.016 236.42ZM282.808 235.164L282.968 238.924L284.966 238.839L284.806 235.079L282.808 235.164ZM283.616 237.946C283.276 238.073 282.845 238.178 282.312 238.251L282.582 240.233C283.222 240.146 283.804 240.011 284.318 239.818L283.616 237.946ZM282.268 238.258C281.734 238.355 281.234 238.402 280.767 238.402V240.402C281.367 240.402 281.987 240.342 282.626 240.226L282.268 238.258ZM280.767 238.402C279.565 238.402 278.675 238.237 278.044 237.964L277.249 239.8C278.219 240.22 279.409 240.402 280.767 240.402V238.402ZM278.07 237.976C277.393 237.66 276.885 237.259 276.514 236.786L274.939 238.018C275.529 238.771 276.301 239.357 277.224 239.788L278.07 237.976ZM276.543 236.824C276.168 236.295 275.899 235.695 275.741 235.015L273.793 235.469C274.008 236.389 274.379 237.229 274.911 237.98L276.543 236.824ZM275.749 235.052C275.602 234.294 275.527 233.478 275.527 232.602H273.527C273.527 233.592 273.612 234.536 273.785 235.432L275.749 235.052ZM275.527 232.602V223.642H273.527V232.602H275.527ZM274.527 222.642H271.167V224.642H274.527V222.642ZM284.641 219.802V218.802H283.123L283.722 220.196L284.641 219.802ZM289.961 219.802L290.894 219.444L290.648 218.802H289.961V219.802ZM295.321 233.762L294.387 234.12L294.633 234.762H295.321V233.762ZM295.401 233.762V234.762H296.116L296.347 234.085L295.401 233.762ZM300.161 219.802V218.802H299.445L299.214 219.479L300.161 219.802ZM305.161 219.802L306.092 220.165L306.623 218.802H305.161V219.802ZM296.081 243.122L297.011 243.488L297.012 243.485L296.081 243.122ZM294.961 245.442L294.103 244.927L294.099 244.935L294.094 244.942L294.961 245.442ZM293.521 247.162L292.891 246.385L292.881 246.394L292.87 246.403L293.521 247.162ZM291.521 248.242L291.224 247.287L291.215 247.29L291.521 248.242ZM287.561 248.522L287.685 247.53L287.656 247.526L287.627 247.524L287.561 248.522ZM286.321 248.322L285.325 248.226L285.243 249.083L286.078 249.292L286.321 248.322ZM286.721 244.162L287.037 243.213L285.845 242.816L285.725 244.066L286.721 244.162ZM287.641 244.362L287.805 243.376L287.768 243.369L287.731 243.366L287.641 244.362ZM289.801 244.242L289.507 243.286L289.474 243.296L289.442 243.309L289.801 244.242ZM290.681 243.682L289.974 242.975L289.955 242.993L289.937 243.013L290.681 243.682ZM291.921 241.442L292.842 241.83L292.847 241.819L292.851 241.808L291.921 241.442ZM292.881 239.002L293.811 239.368L293.962 238.985L293.8 238.608L292.881 239.002ZM284.641 220.802H289.961V218.802H284.641V220.802ZM289.027 220.16L294.387 234.12L296.254 233.404L290.894 219.444L289.027 220.16ZM295.321 234.762H295.401V232.762H295.321V234.762ZM296.347 234.085L301.107 220.125L299.214 219.479L294.454 233.439L296.347 234.085ZM300.161 220.802H305.161V218.802H300.161V220.802ZM304.229 219.439L295.149 242.759L297.012 243.485L306.092 220.165L304.229 219.439ZM295.15 242.755C294.82 243.595 294.469 244.317 294.103 244.927L295.818 245.956C296.252 245.234 296.648 244.409 297.011 243.488L295.15 242.755ZM294.094 244.942C293.749 245.541 293.346 246.017 292.891 246.385L294.15 247.939C294.815 247.401 295.372 246.73 295.827 245.942L294.094 244.942ZM292.87 246.403C292.423 246.786 291.88 247.083 291.224 247.287L291.817 249.197C292.708 248.921 293.498 248.498 294.171 247.921L292.87 246.403ZM291.215 247.29C290.595 247.489 289.798 247.602 288.801 247.602V249.602C289.936 249.602 290.953 249.475 291.827 249.194L291.215 247.29ZM288.801 247.602C288.445 247.602 288.073 247.578 287.685 247.53L287.437 249.514C287.901 249.572 288.356 249.602 288.801 249.602V247.602ZM287.627 247.524C287.292 247.502 286.938 247.445 286.563 247.352L286.078 249.292C286.557 249.412 287.029 249.489 287.494 249.52L287.627 247.524ZM287.316 248.418L287.716 244.258L285.725 244.066L285.325 248.226L287.316 248.418ZM286.404 245.111C286.787 245.238 287.17 245.323 287.55 245.358L287.731 243.366C287.525 243.347 287.294 243.299 287.037 243.213L286.404 245.111ZM287.476 245.348C287.839 245.409 288.189 245.442 288.521 245.442V243.442C288.319 243.442 288.082 243.422 287.805 243.376L287.476 245.348ZM288.521 245.442C289.108 245.442 289.665 245.366 290.16 245.175L289.442 243.309C289.243 243.385 288.946 243.442 288.521 243.442V245.442ZM290.095 245.198C290.612 245.038 291.061 244.754 291.424 244.351L289.937 243.013C289.82 243.144 289.682 243.232 289.507 243.286L290.095 245.198ZM291.388 244.389C291.719 244.058 291.991 243.657 292.215 243.209L290.426 242.315C290.277 242.613 290.122 242.826 289.974 242.975L291.388 244.389ZM292.215 243.209C292.414 242.811 292.623 242.351 292.842 241.83L290.999 241.054C290.792 241.546 290.601 241.966 290.426 242.315L292.215 243.209ZM292.851 241.808L293.811 239.368L291.95 238.636L290.99 241.076L292.851 241.808ZM293.8 238.608L285.56 219.408L283.722 220.196L291.962 239.396L293.8 238.608ZM318.268 210.682V209.682H317.268V210.682H318.268ZM333.868 211.402L334.117 210.433L334.117 210.433L333.868 211.402ZM338.908 213.802L338.308 214.602L338.318 214.609L338.908 213.802ZM342.548 218.162L341.659 218.62L341.662 218.625L342.548 218.162ZM342.548 231.242L343.435 231.705L343.435 231.705L342.548 231.242ZM338.908 235.642L338.299 234.849L338.299 234.849L338.908 235.642ZM333.868 238.202L334.143 239.164L334.156 239.16L333.868 238.202ZM318.268 239.002H317.268V240.002H318.268V239.002ZM331.428 234.162L331.647 235.138L331.657 235.136L331.666 235.133L331.428 234.162ZM334.948 232.602L335.518 233.424L335.522 233.421L334.948 232.602ZM337.548 229.602L336.666 229.132L336.666 229.132L337.548 229.602ZM337.548 219.882L336.662 220.344L336.662 220.344L337.548 219.882ZM334.948 216.882L334.379 217.704L334.389 217.711L334.948 216.882ZM331.428 215.402L331.228 216.382L331.228 216.382L331.428 215.402ZM323.308 215.002V214.002H322.308V215.002H323.308ZM323.308 234.602H322.308V235.602H323.308V234.602ZM318.268 211.682H328.308V209.682H318.268V211.682ZM328.308 211.682C330.061 211.682 331.83 211.91 333.619 212.37L334.117 210.433C332.173 209.934 330.236 209.682 328.308 209.682V211.682ZM333.619 212.37C335.363 212.819 336.923 213.563 338.308 214.602L339.508 213.002C337.907 211.801 336.107 210.945 334.117 210.433L333.619 212.37ZM338.318 214.609C339.673 215.601 340.79 216.93 341.659 218.62L343.438 217.704C342.441 215.767 341.13 214.189 339.499 212.995L338.318 214.609ZM341.662 218.625C342.501 220.23 342.948 222.286 342.948 224.842H344.948C344.948 222.064 344.463 219.667 343.435 217.699L341.662 218.625ZM342.948 224.842C342.948 227.197 342.505 229.164 341.662 230.779L343.435 231.705C344.458 229.746 344.948 227.447 344.948 224.842H342.948ZM341.662 230.779C340.791 232.446 339.669 233.797 338.299 234.849L339.517 236.435C341.134 235.194 342.439 233.611 343.435 231.705L341.662 230.779ZM338.299 234.849C336.906 235.919 335.336 236.718 333.581 237.244L334.156 239.16C336.135 238.566 337.924 237.658 339.517 236.435L338.299 234.849ZM333.594 237.24C331.811 237.75 330.051 238.002 328.308 238.002V240.002C330.246 240.002 332.192 239.721 334.143 239.163L333.594 237.24ZM328.308 238.002H318.268V240.002H328.308V238.002ZM319.268 239.002V210.682H317.268V239.002H319.268ZM327.508 235.602C328.891 235.602 330.271 235.447 331.647 235.138L331.209 233.186C329.973 233.464 328.74 233.602 327.508 233.602V235.602ZM331.666 235.133C333.084 234.786 334.371 234.218 335.518 233.424L334.379 231.78C333.446 232.426 332.386 232.898 331.191 233.191L331.666 235.133ZM335.522 233.421C336.729 232.576 337.697 231.451 338.431 230.072L336.666 229.132C336.066 230.259 335.301 231.135 334.375 231.783L335.522 233.421ZM338.431 230.072C339.197 228.632 339.548 226.871 339.548 224.842H337.548C337.548 226.653 337.233 228.066 336.666 229.132L338.431 230.072ZM339.548 224.842C339.548 222.716 339.2 220.889 338.435 219.42L336.662 220.344C337.23 221.435 337.548 222.915 337.548 224.842H339.548ZM338.435 219.42C337.701 218.011 336.729 216.877 335.508 216.053L334.389 217.711C335.302 218.327 336.062 219.193 336.662 220.344L338.435 219.42ZM335.518 216.06C334.361 215.259 333.06 214.714 331.628 214.422L331.228 216.382C332.41 216.623 333.456 217.065 334.379 217.704L335.518 216.06ZM331.628 214.422C330.257 214.142 328.884 214.002 327.508 214.002V216.002C328.747 216.002 329.986 216.128 331.228 216.382L331.628 214.422ZM327.508 214.002H323.308V216.002H327.508V214.002ZM322.308 215.002V234.602H324.308V215.002H322.308ZM323.308 235.602H327.508V233.602H323.308V235.602ZM348.655 219.802V218.802H347.655V219.802H348.655ZM353.455 219.802H354.455V218.802H353.455V219.802ZM353.455 239.002V240.002H354.455V239.002H353.455ZM348.655 239.002H347.655V240.002H348.655V239.002ZM348.815 211.282L349.522 211.989L349.522 211.989L348.815 211.282ZM353.215 211.242L352.525 211.965L352.542 211.981L352.559 211.997L353.215 211.242ZM353.215 215.362L353.888 216.102L353.89 216.1L353.215 215.362ZM348.815 215.322L348.092 216.012L348.108 216.029L348.125 216.045L348.815 215.322ZM348.655 220.802H353.455V218.802H348.655V220.802ZM352.455 219.802V239.002H354.455V219.802H352.455ZM353.455 238.002H348.655V240.002H353.455V238.002ZM349.655 239.002V219.802H347.655V239.002H349.655ZM348.975 213.282C348.975 212.781 349.145 212.367 349.522 211.989L348.108 210.575C347.366 211.317 346.975 212.236 346.975 213.282H348.975ZM349.522 211.989C349.909 211.602 350.383 211.402 351.015 211.402V209.402C349.888 209.402 348.895 209.788 348.108 210.575L349.522 211.989ZM351.015 211.402C351.662 211.402 352.141 211.599 352.525 211.965L353.906 210.519C353.116 209.765 352.129 209.402 351.015 209.402V211.402ZM352.559 211.997C352.95 212.336 353.135 212.739 353.135 213.282H355.135C355.135 212.172 354.707 211.214 353.871 210.487L352.559 211.997ZM353.135 213.282C353.135 213.826 352.948 214.252 352.541 214.623L353.89 216.1C354.709 215.352 355.135 214.391 355.135 213.282H353.135ZM352.543 214.622C352.161 214.969 351.676 215.162 351.015 215.162V217.162C352.115 217.162 353.097 216.821 353.888 216.102L352.543 214.622ZM351.015 215.162C350.369 215.162 349.89 214.965 349.506 214.599L348.125 216.045C348.914 216.799 349.902 217.162 351.015 217.162V215.162ZM349.539 214.631C349.147 214.221 348.975 213.785 348.975 213.282H346.975C346.975 214.326 347.364 215.25 348.092 216.012L349.539 214.631ZM371.198 236.562H372.198V235.562H371.198V236.562ZM371.078 236.562V235.562H370.494L370.207 236.072L371.078 236.562ZM368.758 238.682L369.206 239.576L369.215 239.572L369.223 239.567L368.758 238.682ZM362.678 239.162L362.921 238.192L362.91 238.189L362.899 238.187L362.678 239.162ZM360.358 238.202L359.789 239.024L359.807 239.037L359.826 239.048L360.358 238.202ZM358.598 236.362L357.736 236.868L357.746 236.885L357.757 236.903L358.598 236.362ZM359.118 230.082L358.4 229.386L358.395 229.392L358.389 229.398L359.118 230.082ZM362.278 228.122L361.945 227.179L361.945 227.179L362.278 228.122ZM366.518 227.242L366.604 228.238L366.612 228.238L366.62 228.237L366.518 227.242ZM371.118 227.002V228.002H372.118V227.002H371.118ZM369.798 223.882L369.232 224.706L369.247 224.716L369.262 224.726L369.798 223.882ZM363.798 223.642L364.214 224.551L364.214 224.551L363.798 223.642ZM361.478 225.202L360.716 225.849L361.418 226.676L362.186 225.909L361.478 225.202ZM358.998 222.282L358.319 221.549L357.616 222.199L358.236 222.929L358.998 222.282ZM362.758 220.002L362.427 219.059L362.421 219.061L362.758 220.002ZM371.318 219.962L370.916 220.878L370.925 220.881L371.318 219.962ZM373.958 221.842L373.188 222.48L373.188 222.48L373.958 221.842ZM375.278 224.442L374.308 224.684L374.311 224.697L374.315 224.71L375.278 224.442ZM375.678 239.002V240.002H376.678V239.002H375.678ZM371.198 239.002H370.198V240.002H371.198V239.002ZM371.118 230.242H372.118V229.242H371.118V230.242ZM367.598 230.362L367.661 231.36L367.676 231.359L367.692 231.358L367.598 230.362ZM365.238 230.802L365.523 231.761L365.539 231.756L365.555 231.751L365.238 230.802ZM363.438 231.762L364.079 232.53L364.091 232.52L364.103 232.509L363.438 231.762ZM362.998 234.602L362.135 235.106L362.16 235.149L362.19 235.19L362.998 234.602ZM363.798 235.322L363.295 236.186L363.295 236.186L363.798 235.322ZM369.838 234.522L370.556 235.218L370.556 235.218L369.838 234.522ZM371.198 235.562H371.078V237.562H371.198V235.562ZM370.207 236.072C369.841 236.722 369.229 237.306 368.294 237.797L369.223 239.567C370.421 238.938 371.356 238.109 371.95 237.052L370.207 236.072ZM368.311 237.788C367.402 238.242 366.345 238.482 365.118 238.482V240.482C366.612 240.482 367.982 240.188 369.206 239.576L368.311 237.788ZM365.118 238.482C364.437 238.482 363.706 238.388 362.921 238.192L362.436 240.132C363.358 240.363 364.253 240.482 365.118 240.482V238.482ZM362.899 238.187C362.183 238.025 361.516 237.749 360.891 237.356L359.826 239.048C360.641 239.562 361.52 239.926 362.458 240.137L362.899 238.187ZM360.928 237.38C360.348 236.979 359.852 236.463 359.44 235.821L357.757 236.903C358.305 237.754 358.982 238.465 359.789 239.024L360.928 237.38ZM359.461 235.856C359.118 235.27 358.918 234.508 358.918 233.522H356.918C356.918 234.776 357.173 235.907 357.736 236.868L359.461 235.856ZM358.918 233.522C358.918 232.274 359.26 231.393 359.848 230.766L358.389 229.398C357.377 230.477 356.918 231.89 356.918 233.522H358.918ZM359.837 230.778C360.542 230.05 361.457 229.474 362.612 229.065L361.945 227.179C360.54 227.677 359.349 228.407 358.4 229.386L359.837 230.778ZM362.612 229.065C363.802 228.643 365.13 228.365 366.604 228.238L366.433 226.246C364.813 226.385 363.315 226.694 361.945 227.179L362.612 229.065ZM366.62 228.237C368.161 228.08 369.661 228.002 371.118 228.002V226.002C369.589 226.002 368.022 226.084 366.417 226.247L366.62 228.237ZM372.118 227.002V226.522H370.118V227.002H372.118ZM372.118 226.522C372.118 225.04 371.551 223.812 370.335 223.038L369.262 224.726C369.806 225.072 370.118 225.603 370.118 226.522H372.118ZM370.365 223.058C369.32 222.339 368.088 222.002 366.718 222.002V224.002C367.749 224.002 368.571 224.251 369.232 224.706L370.365 223.058ZM366.718 222.002C365.56 222.002 364.445 222.247 363.383 222.732L364.214 224.551C365.019 224.184 365.85 224.002 366.718 224.002V222.002ZM363.383 222.732C362.36 223.2 361.483 223.783 360.771 224.495L362.186 225.909C362.701 225.394 363.37 224.937 364.214 224.551L363.383 222.732ZM362.241 224.555L359.761 221.635L358.236 222.929L360.716 225.849L362.241 224.555ZM359.678 223.015C360.672 222.094 361.809 221.405 363.096 220.943L362.421 219.061C360.882 219.612 359.512 220.443 358.319 221.549L359.678 223.015ZM363.09 220.945C364.428 220.475 365.769 220.242 367.118 220.242V218.242C365.534 218.242 363.969 218.516 362.427 219.059L363.09 220.945ZM367.118 220.242C368.742 220.242 369.992 220.472 370.916 220.878L371.72 219.046C370.458 218.492 368.909 218.242 367.118 218.242V220.242ZM370.925 220.881C371.929 221.312 372.669 221.852 373.188 222.48L374.729 221.204C373.968 220.285 372.948 219.572 371.712 219.043L370.925 220.881ZM373.188 222.48C373.734 223.139 374.105 223.872 374.308 224.684L376.249 224.199C375.972 223.092 375.463 222.091 374.729 221.204L373.188 222.48ZM374.315 224.71C374.558 225.586 374.678 226.456 374.678 227.322H376.678C376.678 226.268 376.532 225.218 376.242 224.174L374.315 224.71ZM374.678 227.322V239.002H376.678V227.322H374.678ZM375.678 238.002H371.198V240.002H375.678V238.002ZM372.198 239.002V236.562H370.198V239.002H372.198ZM371.118 229.242H370.038V231.242H371.118V229.242ZM370.038 229.242C369.231 229.242 368.386 229.284 367.505 229.366L367.692 231.358C368.517 231.28 369.299 231.242 370.038 231.242V229.242ZM367.536 229.364C366.607 229.422 365.734 229.583 364.922 229.853L365.555 231.751C366.183 231.541 366.883 231.409 367.661 231.36L367.536 229.364ZM364.954 229.843C364.117 230.091 363.381 230.475 362.774 231.015L364.103 232.509C364.456 232.195 364.92 231.939 365.523 231.761L364.954 229.843ZM362.798 230.994C362.054 231.614 361.718 232.476 361.718 233.442H363.718C363.718 232.968 363.863 232.71 364.079 232.53L362.798 230.994ZM361.718 233.442C361.718 234.033 361.841 234.602 362.135 235.106L363.862 234.098C363.783 233.962 363.718 233.758 363.718 233.442H361.718ZM362.19 235.19C362.486 235.598 362.858 235.931 363.295 236.186L364.302 234.458C364.099 234.34 363.937 234.193 363.807 234.014L362.19 235.19ZM363.295 236.186C363.719 236.433 364.185 236.603 364.682 236.703L365.075 234.741C364.772 234.681 364.518 234.584 364.302 234.458L363.295 236.186ZM364.682 236.703C365.146 236.795 365.611 236.842 366.078 236.842V234.842C365.746 234.842 365.411 234.809 365.075 234.741L364.682 236.703ZM366.078 236.842C367.905 236.842 369.456 236.353 370.556 235.218L369.121 233.826C368.514 234.451 367.559 234.842 366.078 234.842V236.842ZM370.556 235.218C371.632 234.109 372.118 232.636 372.118 230.922H370.118C370.118 232.248 369.752 233.175 369.121 233.826L370.556 235.218ZM372.118 230.922V230.242H370.118V230.922H372.118ZM400.791 219.802H401.791V218.802H400.791V219.802ZM400.151 241.962L399.195 241.668L399.193 241.673L400.151 241.962ZM398.151 245.522L397.424 244.835L397.414 244.846L397.404 244.856L398.151 245.522ZM394.791 247.802L395.156 248.733L395.156 248.733L394.791 247.802ZM387.471 248.402L387.316 249.39L387.321 249.391L387.471 248.402ZM384.911 247.802L384.604 248.754L384.612 248.756L384.911 247.802ZM382.511 246.802L382.97 245.914L382.97 245.914L382.511 246.802ZM380.431 245.442L379.628 244.846L379.062 245.608L379.794 246.213L380.431 245.442ZM383.191 241.722L383.877 240.994L383.058 240.222L382.388 241.126L383.191 241.722ZM386.351 243.722L386.729 242.796L386.72 242.793L386.711 242.789L386.351 243.722ZM392.791 243.922L392.419 242.993L392.4 243.001L392.382 243.009L392.791 243.922ZM394.671 242.562L393.897 241.929L393.888 241.939L393.879 241.951L394.671 242.562ZM395.671 240.482L394.704 240.224L394.7 240.239L394.697 240.255L395.671 240.482ZM395.991 236.442H396.991V235.442H395.991V236.442ZM395.911 236.442V235.442H395.408L395.108 235.846L395.911 236.442ZM393.231 238.602L393.641 239.514L393.651 239.509L393.231 238.602ZM385.711 238.522L385.297 239.432L385.711 238.522ZM382.711 236.362L381.961 237.024L381.966 237.03L381.972 237.036L382.711 236.362ZM380.831 233.202L379.893 233.549L379.895 233.555L380.831 233.202ZM380.791 225.402L379.853 225.055L379.849 225.064L379.846 225.073L380.791 225.402ZM382.671 222.202L381.932 221.528L381.926 221.534L381.921 221.54L382.671 222.202ZM385.631 220.042L385.217 219.132L385.209 219.135L385.631 220.042ZM396.151 222.682L395.29 223.191L395.58 223.682H396.151V222.682ZM396.231 222.682V223.682H397.231V222.682H396.231ZM396.231 219.802V218.802H395.231V219.802H396.231ZM388.191 223.642L387.772 222.734L387.765 222.737L387.758 222.74L388.191 223.642ZM386.471 224.962L385.711 224.311L385.709 224.314L386.471 224.962ZM385.391 226.882L384.449 226.546L384.443 226.561L384.439 226.576L385.391 226.882ZM385.391 231.522L384.442 231.838L384.447 231.854L384.453 231.869L385.391 231.522ZM386.471 233.482L385.679 234.093L385.695 234.113L385.711 234.133L386.471 233.482ZM388.191 234.842L387.729 235.729L387.736 235.733L387.743 235.736L388.191 234.842ZM392.871 234.882L393.29 235.79L393.297 235.786L393.304 235.783L392.871 234.882ZM394.671 233.522L393.929 232.851L393.92 232.861L393.911 232.871L394.671 233.522ZM395.831 231.602L396.768 231.949L396.772 231.938L395.831 231.602ZM394.671 224.962L393.911 225.613L393.92 225.623L393.929 225.633L394.671 224.962ZM392.911 223.642L392.492 224.55L392.492 224.55L392.911 223.642ZM399.791 219.802V237.282H401.791V219.802H399.791ZM399.791 237.282C399.791 238.934 399.587 240.393 399.195 241.668L401.106 242.256C401.567 240.758 401.791 239.096 401.791 237.282H399.791ZM399.193 241.673C398.806 242.955 398.212 244.001 397.424 244.835L398.878 246.209C399.903 245.123 400.642 243.795 401.108 242.251L399.193 241.673ZM397.404 244.856C396.639 245.714 395.655 246.389 394.426 246.871L395.156 248.733C396.646 248.148 397.902 247.303 398.897 246.188L397.404 244.856ZM394.426 246.871C393.209 247.348 391.726 247.602 389.951 247.602V249.602C391.909 249.602 393.652 249.323 395.156 248.733L394.426 246.871ZM389.951 247.602C389.234 247.602 388.458 247.54 387.62 247.413L387.321 249.391C388.243 249.53 389.12 249.602 389.951 249.602V247.602ZM387.625 247.414C386.822 247.288 386.017 247.1 385.209 246.847L384.612 248.756C385.511 249.037 386.413 249.249 387.316 249.39L387.625 247.414ZM385.218 246.85C384.444 246.601 383.695 246.288 382.97 245.914L382.051 247.69C382.873 248.115 383.724 248.47 384.604 248.754L385.218 246.85ZM382.97 245.914C382.254 245.543 381.621 245.128 381.068 244.671L379.794 246.213C380.467 246.769 381.221 247.261 382.051 247.69L382.97 245.914ZM381.234 246.038L383.994 242.318L382.388 241.126L379.628 244.846L381.234 246.038ZM382.505 242.45C383.53 243.417 384.694 244.154 385.99 244.655L386.711 242.789C385.661 242.383 384.718 241.787 383.877 240.994L382.505 242.45ZM385.972 244.648C387.259 245.174 388.574 245.442 389.911 245.442V243.442C388.848 243.442 387.789 243.23 386.729 242.796L385.972 244.648ZM389.911 245.442C391.151 245.442 392.261 245.255 393.2 244.834L392.382 243.009C391.774 243.282 390.963 243.442 389.911 243.442V245.442ZM393.162 244.85C394.101 244.475 394.883 243.923 395.462 243.173L393.879 241.951C393.552 242.374 393.081 242.729 392.419 242.993L393.162 244.85ZM395.445 243.195C396.029 242.481 396.426 241.645 396.644 240.709L394.697 240.255C394.542 240.919 394.272 241.47 393.897 241.929L395.445 243.195ZM396.637 240.74C396.876 239.843 396.991 238.875 396.991 237.842H394.991C394.991 238.728 394.892 239.52 394.704 240.224L396.637 240.74ZM396.991 237.842V236.442H394.991V237.842H396.991ZM395.991 235.442H395.911V237.442H395.991V235.442ZM395.108 235.846C394.518 236.64 393.758 237.255 392.81 237.695L393.651 239.509C394.89 238.935 395.917 238.111 396.713 237.038L395.108 235.846ZM392.82 237.69C391.899 238.104 390.842 238.322 389.631 238.322V240.322C391.086 240.322 392.428 240.06 393.641 239.514L392.82 237.69ZM389.631 238.322C388.317 238.322 387.153 238.079 386.124 237.612L385.297 239.432C386.615 240.031 388.065 240.322 389.631 240.322V238.322ZM386.124 237.612C385.068 237.131 384.18 236.49 383.45 235.688L381.972 237.036C382.894 238.047 384.007 238.846 385.297 239.432L386.124 237.612ZM383.46 235.7C382.745 234.89 382.179 233.942 381.766 232.849L379.895 233.555C380.389 234.862 381.076 236.021 381.961 237.024L383.46 235.7ZM381.769 232.855C381.358 231.744 381.151 230.568 381.151 229.322H379.151C379.151 230.795 379.397 232.207 379.893 233.549L381.769 232.855ZM381.151 229.322C381.151 228.04 381.348 226.845 381.735 225.73L379.846 225.073C379.38 226.413 379.151 227.831 379.151 229.322H381.151ZM381.729 225.749C382.143 224.628 382.709 223.67 383.42 222.864L381.921 221.54C381.033 222.547 380.345 223.722 379.853 225.055L381.729 225.749ZM383.41 222.876C384.144 222.07 385.022 221.428 386.052 220.949L385.209 219.135C383.946 219.723 382.85 220.521 381.932 221.528L383.41 222.876ZM386.044 220.952C387.073 220.485 388.237 220.242 389.551 220.242V218.242C387.985 218.242 386.535 218.533 385.217 219.132L386.044 220.952ZM389.551 220.242C390.769 220.242 391.887 220.492 392.92 220.984L393.781 219.179C392.467 218.552 391.053 218.242 389.551 218.242V220.242ZM392.92 220.984C393.905 221.455 394.692 222.18 395.29 223.191L397.012 222.173C396.222 220.838 395.143 219.829 393.781 219.179L392.92 220.984ZM396.151 223.682H396.231V221.682H396.151V223.682ZM397.231 222.682V219.802H395.231V222.682H397.231ZM396.231 220.802H400.791V218.802H396.231V220.802ZM390.551 222.162C389.548 222.162 388.615 222.345 387.772 222.734L388.61 224.55C389.153 224.299 389.793 224.162 390.551 224.162V222.162ZM387.758 222.74C386.967 223.12 386.282 223.646 385.711 224.311L387.23 225.613C387.619 225.158 388.081 224.804 388.623 224.543L387.758 222.74ZM385.709 224.314C385.167 224.951 384.751 225.7 384.449 226.546L386.332 227.218C386.564 226.57 386.867 226.04 387.233 225.61L385.709 224.314ZM384.439 226.576C384.164 227.43 384.031 228.334 384.031 229.282H386.031C386.031 228.523 386.137 227.827 386.343 227.188L384.439 226.576ZM384.031 229.282C384.031 230.161 384.167 231.014 384.442 231.838L386.339 231.206C386.134 230.59 386.031 229.95 386.031 229.282H384.031ZM384.453 231.869C384.753 232.681 385.162 233.424 385.679 234.093L387.262 232.871C386.873 232.367 386.561 231.803 386.328 231.175L384.453 231.869ZM385.711 234.133C386.276 234.792 386.951 235.325 387.729 235.729L388.652 233.955C388.097 233.666 387.625 233.292 387.23 232.831L385.711 234.133ZM387.743 235.736C388.589 236.159 389.518 236.362 390.511 236.362V234.362C389.797 234.362 389.179 234.218 388.638 233.948L387.743 235.736ZM390.511 236.362C391.513 236.362 392.446 236.179 393.29 235.79L392.452 233.974C391.908 234.225 391.268 234.362 390.511 234.362V236.362ZM393.304 235.783C394.139 235.381 394.853 234.846 395.43 234.173L393.911 232.871C393.529 233.318 393.043 233.689 392.437 233.981L393.304 235.783ZM395.412 234.193C396.006 233.537 396.458 232.787 396.768 231.949L394.893 231.255C394.67 231.857 394.349 232.387 393.929 232.851L395.412 234.193ZM396.772 231.938C397.078 231.083 397.231 230.196 397.231 229.282H395.231C395.231 229.968 395.117 230.628 394.889 231.266L396.772 231.938ZM397.231 229.282C397.231 228.346 397.079 227.445 396.772 226.586L394.889 227.258C395.115 227.892 395.231 228.565 395.231 229.282H397.231ZM396.772 226.586C396.464 225.722 396.011 224.953 395.412 224.291L393.929 225.633C394.343 226.091 394.664 226.629 394.889 227.258L396.772 226.586ZM395.43 224.311C394.853 223.638 394.149 223.112 393.33 222.734L392.492 224.55C393.059 224.812 393.528 225.166 393.911 225.613L395.43 224.311ZM393.33 222.734C392.486 222.345 391.553 222.162 390.551 222.162V224.162C391.308 224.162 391.948 224.299 392.492 224.55L393.33 222.734ZM406.544 219.802V218.802H405.544V219.802H406.544ZM411.144 219.802H412.144V218.802H411.144V219.802ZM411.144 223.002H410.144V224.002H411.144V223.002ZM411.224 223.002V224.002H411.855L412.127 223.432L411.224 223.002ZM413.464 220.282L412.879 219.471L412.879 219.471L413.464 220.282ZM417.424 219.282L417.3 220.274L417.362 220.282H417.424V219.282ZM417.984 219.362H418.984V218.641L418.3 218.413L417.984 219.362ZM417.984 223.762L417.742 224.732L418.984 225.043V223.762H417.984ZM417.144 223.602L417.02 224.594L417.034 224.596L417.144 223.602ZM413.864 224.162L413.35 223.304L413.35 223.304L413.864 224.162ZM411.544 227.322L412.519 227.544L412.519 227.544L411.544 227.322ZM411.344 239.002V240.002H412.344V239.002H411.344ZM406.544 239.002H405.544V240.002H406.544V239.002ZM406.544 220.802H411.144V218.802H406.544V220.802ZM410.144 219.802V223.002H412.144V219.802H410.144ZM411.144 224.002H411.224V222.002H411.144V224.002ZM412.127 223.432C412.592 222.456 413.232 221.683 414.05 221.093L412.879 219.471C411.776 220.268 410.923 221.308 410.321 222.572L412.127 223.432ZM414.05 221.093C414.825 220.532 415.736 220.242 416.824 220.242V218.242C415.352 218.242 414.023 218.645 412.879 219.471L414.05 221.093ZM416.824 220.242C416.964 220.242 417.122 220.252 417.3 220.274L417.548 218.29C417.3 218.259 417.058 218.242 416.824 218.242V220.242ZM417.424 220.282C417.557 220.282 417.633 220.299 417.668 220.311L418.3 218.413C418.015 218.318 417.718 218.282 417.424 218.282V220.282ZM416.984 219.362V223.762H418.984V219.362H416.984ZM418.227 222.792C417.878 222.705 417.552 222.641 417.254 222.608L417.034 224.596C417.216 224.616 417.45 224.659 417.742 224.732L418.227 222.792ZM417.268 222.61C417.014 222.578 416.759 222.562 416.504 222.562V224.562C416.676 224.562 416.848 224.573 417.02 224.594L417.268 222.61ZM416.504 222.562C415.3 222.562 414.222 222.781 413.35 223.304L414.379 225.019C414.839 224.743 415.522 224.562 416.504 224.562V222.562ZM413.35 223.304C412.576 223.769 411.939 224.346 411.472 225.047L413.136 226.157C413.415 225.738 413.819 225.355 414.379 225.019L413.35 223.304ZM411.472 225.047C411.039 225.697 410.732 226.382 410.569 227.1L412.519 227.544C412.623 227.089 412.822 226.627 413.136 226.157L411.472 225.047ZM410.569 227.1C410.429 227.715 410.344 228.266 410.344 228.722H412.344C412.344 228.485 412.392 228.102 412.519 227.544L410.569 227.1ZM410.344 228.722V239.002H412.344V228.722H410.344ZM411.344 238.002H406.544V240.002H411.344V238.002ZM407.544 239.002V219.802H405.544V239.002H407.544ZM432.527 236.562H433.527V235.562H432.527V236.562ZM432.407 236.562V235.562H431.822L431.535 236.072L432.407 236.562ZM430.087 238.682L430.534 239.576L430.543 239.572L430.551 239.567L430.087 238.682ZM424.007 239.162L424.249 238.192L424.238 238.189L424.227 238.187L424.007 239.162ZM421.687 238.202L421.117 239.024L421.135 239.037L421.154 239.048L421.687 238.202ZM419.927 236.362L419.064 236.868L419.074 236.885L419.085 236.903L419.927 236.362ZM420.447 230.082L419.728 229.386L419.723 229.392L419.717 229.398L420.447 230.082ZM423.607 228.122L423.273 227.179L423.273 227.179L423.607 228.122ZM427.847 227.242L427.932 228.238L427.94 228.238L427.948 228.237L427.847 227.242ZM432.447 227.002V228.002H433.447V227.002H432.447ZM431.127 223.882L430.56 224.706L430.575 224.716L430.59 224.726L431.127 223.882ZM425.127 223.642L425.542 224.551L425.542 224.551L425.127 223.642ZM422.807 225.202L422.044 225.849L422.747 226.676L423.514 225.909L422.807 225.202ZM420.327 222.282L419.647 221.549L418.944 222.199L419.564 222.929L420.327 222.282ZM424.087 220.002L423.755 219.059L423.749 219.061L424.087 220.002ZM432.647 219.962L432.245 220.878L432.253 220.881L432.647 219.962ZM435.287 221.842L434.516 222.48L434.516 222.48L435.287 221.842ZM436.607 224.442L435.636 224.684L435.64 224.697L435.643 224.71L436.607 224.442ZM437.007 239.002V240.002H438.007V239.002H437.007ZM432.527 239.002H431.527V240.002H432.527V239.002ZM432.447 230.242H433.447V229.242H432.447V230.242ZM428.927 230.362L428.989 231.36L429.004 231.359L429.02 231.358L428.927 230.362ZM426.567 230.802L426.851 231.761L426.867 231.756L426.883 231.751L426.567 230.802ZM424.767 231.762L425.407 232.53L425.419 232.52L425.431 232.509L424.767 231.762ZM424.327 234.602L423.463 235.106L423.488 235.149L423.518 235.19L424.327 234.602ZM425.127 235.322L424.623 236.186L424.623 236.186L425.127 235.322ZM431.167 234.522L431.884 235.218L431.884 235.218L431.167 234.522ZM432.527 235.562H432.407V237.562H432.527V235.562ZM431.535 236.072C431.169 236.722 430.557 237.306 429.622 237.797L430.551 239.567C431.749 238.938 432.684 238.109 433.278 237.052L431.535 236.072ZM429.639 237.788C428.73 238.242 427.673 238.482 426.447 238.482V240.482C427.94 240.482 429.31 240.188 430.534 239.576L429.639 237.788ZM426.447 238.482C425.765 238.482 425.034 238.388 424.249 238.192L423.764 240.132C424.686 240.363 425.581 240.482 426.447 240.482V238.482ZM424.227 238.187C423.511 238.025 422.844 237.749 422.219 237.356L421.154 239.048C421.969 239.562 422.848 239.926 423.786 240.137L424.227 238.187ZM422.256 237.38C421.676 236.979 421.18 236.463 420.768 235.821L419.085 236.903C419.633 237.754 420.31 238.465 421.117 239.024L422.256 237.38ZM420.789 235.856C420.446 235.27 420.247 234.508 420.247 233.522H418.247C418.247 234.776 418.501 235.907 419.064 236.868L420.789 235.856ZM420.247 233.522C420.247 232.274 420.588 231.393 421.176 230.766L419.717 229.398C418.705 230.477 418.247 231.89 418.247 233.522H420.247ZM421.165 230.778C421.87 230.05 422.785 229.474 423.94 229.065L423.273 227.179C421.868 227.677 420.677 228.407 419.728 229.386L421.165 230.778ZM423.94 229.065C425.13 228.643 426.459 228.365 427.932 228.238L427.761 226.246C426.141 226.385 424.643 226.694 423.273 227.179L423.94 229.065ZM427.948 228.237C429.489 228.08 430.989 228.002 432.447 228.002V226.002C430.918 226.002 429.35 226.084 427.745 226.247L427.948 228.237ZM433.447 227.002V226.522H431.447V227.002H433.447ZM433.447 226.522C433.447 225.04 432.879 223.812 431.663 223.038L430.59 224.726C431.134 225.072 431.447 225.603 431.447 226.522H433.447ZM431.693 223.058C430.648 222.339 429.416 222.002 428.047 222.002V224.002C429.077 224.002 429.899 224.251 430.56 224.706L431.693 223.058ZM428.047 222.002C426.888 222.002 425.773 222.247 424.711 222.732L425.542 224.551C426.347 224.184 427.179 224.002 428.047 224.002V222.002ZM424.711 222.732C423.688 223.2 422.811 223.783 422.099 224.495L423.514 225.909C424.029 225.394 424.698 224.937 425.542 224.551L424.711 222.732ZM423.569 224.555L421.089 221.635L419.564 222.929L422.044 225.849L423.569 224.555ZM421.006 223.015C422 222.094 423.137 221.405 424.424 220.943L423.749 219.061C422.21 219.612 420.84 220.443 419.647 221.549L421.006 223.015ZM424.418 220.945C425.756 220.475 427.098 220.242 428.447 220.242V218.242C426.862 218.242 425.297 218.516 423.755 219.059L424.418 220.945ZM428.447 220.242C430.07 220.242 431.32 220.472 432.245 220.878L433.049 219.046C431.786 218.492 430.237 218.242 428.447 218.242V220.242ZM432.253 220.881C433.257 221.312 433.997 221.852 434.516 222.48L436.057 221.204C435.296 220.285 434.276 219.572 433.04 219.043L432.253 220.881ZM434.516 222.48C435.062 223.139 435.433 223.872 435.636 224.684L437.577 224.199C437.3 223.092 436.791 222.091 436.057 221.204L434.516 222.48ZM435.643 224.71C435.886 225.586 436.007 226.456 436.007 227.322H438.007C438.007 226.268 437.86 225.218 437.57 224.174L435.643 224.71ZM436.007 227.322V239.002H438.007V227.322H436.007ZM437.007 238.002H432.527V240.002H437.007V238.002ZM433.527 239.002V236.562H431.527V239.002H433.527ZM432.447 229.242H431.367V231.242H432.447V229.242ZM431.367 229.242C430.559 229.242 429.714 229.284 428.833 229.366L429.02 231.358C429.845 231.28 430.628 231.242 431.367 231.242V229.242ZM428.864 229.364C427.935 229.422 427.062 229.583 426.25 229.853L426.883 231.751C427.511 231.541 428.211 231.409 428.989 231.36L428.864 229.364ZM426.282 229.843C425.445 230.091 424.709 230.475 424.102 231.015L425.431 232.509C425.784 232.195 426.248 231.939 426.851 231.761L426.282 229.843ZM424.126 230.994C423.382 231.614 423.047 232.476 423.047 233.442H425.047C425.047 232.968 425.191 232.71 425.407 232.53L424.126 230.994ZM423.047 233.442C423.047 234.033 423.169 234.602 423.463 235.106L425.19 234.098C425.111 233.962 425.047 233.758 425.047 233.442H423.047ZM423.518 235.19C423.814 235.598 424.186 235.931 424.623 236.186L425.63 234.458C425.427 234.34 425.265 234.193 425.135 234.014L423.518 235.19ZM424.623 236.186C425.047 236.433 425.513 236.603 426.01 236.703L426.403 234.741C426.1 234.681 425.846 234.584 425.63 234.458L424.623 236.186ZM426.01 236.703C426.474 236.795 426.939 236.842 427.407 236.842V234.842C427.074 234.842 426.739 234.809 426.403 234.741L426.01 236.703ZM427.407 236.842C429.233 236.842 430.784 236.353 431.884 235.218L430.449 233.826C429.842 234.451 428.887 234.842 427.407 234.842V236.842ZM431.884 235.218C432.96 234.109 433.447 232.636 433.447 230.922H431.447C431.447 232.248 431.08 233.175 430.449 233.826L431.884 235.218ZM433.447 230.922V230.242H431.447V230.922H433.447ZM468.719 219.922L468.261 220.811L468.277 220.819L468.293 220.827L468.719 219.922ZM470.919 221.642L470.129 222.256L470.136 222.265L470.144 222.274L470.919 221.642ZM472.599 239.002V240.002H473.599V239.002H472.599ZM467.799 239.002H466.799V240.002H467.799V239.002ZM467.679 226.602L468.67 226.473L468.67 226.473L467.679 226.602ZM467.159 224.962L466.274 225.428L466.279 225.438L466.285 225.448L467.159 224.962ZM466.039 223.722L465.462 224.539L465.473 224.547L465.484 224.554L466.039 223.722ZM462.279 223.722L461.764 222.864L461.764 222.864L462.279 223.722ZM460.199 226.682L461.166 226.934L461.169 226.924L460.199 226.682ZM459.959 239.002V240.002H460.959V239.002H459.959ZM455.159 239.002H454.159V240.002H455.159V239.002ZM454.279 224.442L453.46 225.015L453.47 225.031L453.482 225.046L454.279 224.442ZM449.719 223.722L450.201 224.598L450.217 224.589L450.233 224.579L449.719 223.722ZM448.399 224.882L447.588 224.296L447.577 224.312L447.567 224.327L448.399 224.882ZM447.639 226.562L446.679 226.282L446.675 226.296L446.671 226.31L447.639 226.562ZM447.399 239.002V240.002H448.399V239.002H447.399ZM442.599 239.002H441.599V240.002H442.599V239.002ZM442.599 219.802V218.802H441.599V219.802H442.599ZM447.159 219.802H448.159V218.802H447.159V219.802ZM447.159 222.882H446.159V223.882H447.159V222.882ZM447.239 222.882V223.882H447.889L448.153 223.288L447.239 222.882ZM448.079 221.522L447.326 220.863L447.314 220.877L447.303 220.891L448.079 221.522ZM449.359 220.362L448.794 219.537L448.784 219.544L448.773 219.551L449.359 220.362ZM451.079 219.562L451.359 220.522L451.377 220.517L451.395 220.511L451.079 219.562ZM456.919 220.242L456.359 221.071L456.359 221.071L456.919 220.242ZM459.199 222.882L458.3 223.32L459.149 225.061L460.077 223.361L459.199 222.882ZM461.759 220.202L462.257 221.069L462.265 221.064L462.273 221.059L461.759 220.202ZM465.519 220.242C466.654 220.242 467.555 220.447 468.261 220.811L469.177 219.033C468.122 218.49 466.89 218.242 465.519 218.242V220.242ZM468.293 220.827C469.072 221.193 469.675 221.672 470.129 222.256L471.708 221.028C471.042 220.172 470.179 219.504 469.145 219.017L468.293 220.827ZM470.144 222.274C470.641 222.884 471.006 223.588 471.237 224.397L473.16 223.847C472.858 222.79 472.37 221.84 471.694 221.01L470.144 222.274ZM471.237 224.397C471.478 225.239 471.599 226.107 471.599 227.002H473.599C473.599 225.924 473.453 224.871 473.16 223.847L471.237 224.397ZM471.599 227.002V239.002H473.599V227.002H471.599ZM472.599 238.002H467.799V240.002H472.599V238.002ZM468.799 239.002V228.362H466.799V239.002H468.799ZM468.799 228.362C468.799 227.755 468.755 227.124 468.67 226.473L466.687 226.731C466.762 227.306 466.799 227.849 466.799 228.362H468.799ZM468.67 226.473C468.576 225.75 468.368 225.08 468.033 224.476L466.285 225.448C466.483 225.804 466.621 226.227 466.687 226.731L468.67 226.473ZM468.044 224.496C467.699 223.841 467.211 223.302 466.593 222.89L465.484 224.554C465.826 224.782 466.086 225.07 466.274 225.428L468.044 224.496ZM466.615 222.905C465.939 222.427 465.1 222.242 464.199 222.242V224.242C464.844 224.242 465.232 224.377 465.462 224.539L466.615 222.905ZM464.199 222.242C463.307 222.242 462.482 222.434 461.764 222.864L462.793 224.579C463.143 224.37 463.597 224.242 464.199 224.242V222.242ZM461.764 222.864C461.109 223.258 460.563 223.77 460.133 224.397L461.784 225.527C462.048 225.14 462.382 224.826 462.793 224.579L461.764 222.864ZM460.133 224.397C459.715 225.009 459.415 225.693 459.229 226.439L461.169 226.924C461.302 226.391 461.509 225.928 461.784 225.527L460.133 224.397ZM459.231 226.43C459.05 227.123 458.959 227.821 458.959 228.522H460.959C460.959 227.997 461.027 227.468 461.166 226.934L459.231 226.43ZM458.959 228.522V239.002H460.959V228.522H458.959ZM459.959 238.002H455.159V240.002H459.959V238.002ZM456.159 239.002V227.402H454.159V239.002H456.159ZM456.159 227.402C456.159 226.036 455.823 224.822 455.075 223.838L453.482 225.046C453.908 225.608 454.159 226.368 454.159 227.402H456.159ZM455.098 223.868C454.303 222.733 453.058 222.242 451.599 222.242V224.242C452.593 224.242 453.135 224.551 453.46 225.015L455.098 223.868ZM451.599 222.242C450.727 222.242 449.916 222.437 449.204 222.864L450.233 224.579C450.588 224.367 451.031 224.242 451.599 224.242V222.242ZM449.237 222.846C448.577 223.208 448.024 223.693 447.588 224.296L449.209 225.467C449.467 225.111 449.793 224.822 450.201 224.598L449.237 222.846ZM447.567 224.327C447.182 224.904 446.89 225.559 446.679 226.282L448.599 226.842C448.761 226.285 448.975 225.82 449.231 225.437L447.567 224.327ZM446.671 226.31C446.489 227.006 446.399 227.718 446.399 228.442H448.399C448.399 227.886 448.468 227.344 448.606 226.814L446.671 226.31ZM446.399 228.442V239.002H448.399V228.442H446.399ZM447.399 238.002H442.599V240.002H447.399V238.002ZM443.599 239.002V219.802H441.599V239.002H443.599ZM442.599 220.802H447.159V218.802H442.599V220.802ZM446.159 219.802V222.882H448.159V219.802H446.159ZM447.159 223.882H447.239V221.882H447.159V223.882ZM448.153 223.288C448.328 222.892 448.561 222.514 448.855 222.153L447.303 220.891C446.903 221.383 446.576 221.912 446.325 222.476L448.153 223.288ZM448.831 222.18C449.153 221.813 449.523 221.477 449.944 221.173L448.773 219.551C448.235 219.94 447.751 220.377 447.326 220.863L448.831 222.18ZM449.923 221.187C450.336 220.905 450.811 220.682 451.359 220.522L450.799 218.602C450.066 218.816 449.395 219.125 448.794 219.537L449.923 221.187ZM451.395 220.511C451.919 220.336 452.517 220.242 453.199 220.242V218.242C452.333 218.242 451.518 218.361 450.763 218.613L451.395 220.511ZM453.199 220.242C454.543 220.242 455.575 220.541 456.359 221.071L457.479 219.413C456.289 218.61 454.841 218.242 453.199 218.242V220.242ZM456.359 221.071C457.197 221.637 457.842 222.381 458.3 223.32L460.098 222.444C459.489 221.196 458.614 220.18 457.479 219.413L456.359 221.071ZM460.077 223.361C460.636 222.335 461.364 221.582 462.257 221.069L461.26 219.335C460.02 220.048 459.041 221.082 458.321 222.403L460.077 223.361ZM462.273 221.059C463.161 220.527 464.231 220.242 465.519 220.242V218.242C463.927 218.242 462.489 218.597 461.244 219.344L462.273 221.059Z" fill="#8FA2ED"/>
</svg>
