<svg width="113" height="113" viewBox="0 0 113 113" fill="none" xmlns="http://www.w3.org/2000/svg">
<path d="M113 56.5C113 87.7041 87.7041 113 56.5 113C25.2959 113 0 87.7041 0 56.5C0 25.2959 25.2959 0 56.5 0C87.7041 0 113 25.2959 113 56.5Z" fill="#F18A88"/>
<path d="M96.5859 68.168C96.5859 70.952 96.0339 73.304 94.9299 75.224C93.8259 77.096 92.3619 78.608 90.5379 79.76C88.7139 80.912 86.6259 81.752 84.2739 82.28C81.9699 82.76 79.5939 83 77.1459 83H56.8419V32.024H77.1459C79.1139 32.024 81.1299 32.24 83.1939 32.672C85.2579 33.056 87.1299 33.752 88.8099 34.76C90.4899 35.72 91.8579 37.04 92.9139 38.72C93.9699 40.4 94.4979 42.536 94.4979 45.128C94.4979 47.96 93.7299 50.312 92.1939 52.184C90.6579 54.008 88.6419 55.328 86.1459 56.144V56.288C87.5859 56.528 88.9299 56.984 90.1779 57.656C91.4739 58.28 92.5779 59.096 93.4899 60.104C94.4499 61.112 95.1939 62.288 95.7219 63.632C96.2979 64.976 96.5859 66.488 96.5859 68.168ZM82.6179 46.784C82.6179 45.056 81.9459 43.808 80.6019 43.04C79.3059 42.224 77.3619 41.816 74.7699 41.816H68.7219V52.328H75.3459C77.6499 52.328 79.4259 51.872 80.6739 50.96C81.9699 50 82.6179 48.608 82.6179 46.784ZM84.2739 67.016C84.2739 64.904 83.4819 63.44 81.8979 62.624C80.3139 61.808 78.2019 61.4 75.5619 61.4H68.7219V73.064H75.6339C76.5939 73.064 77.5779 72.992 78.5859 72.848C79.6419 72.656 80.5779 72.344 81.3939 71.912C82.2579 71.48 82.9539 70.88 83.4819 70.112C84.0099 69.296 84.2739 68.264 84.2739 67.016Z" fill="#B7CFFF"/>
<path d="M95 68.168C95 70.952 94.448 73.304 93.344 75.224C92.24 77.096 90.776 78.608 88.952 79.76C87.128 80.912 85.04 81.752 82.688 82.28C80.384 82.76 78.008 83 75.56 83H55.256V32.024H75.56C77.528 32.024 79.544 32.24 81.608 32.672C83.672 33.056 85.544 33.752 87.224 34.76C88.904 35.72 90.272 37.04 91.328 38.72C92.384 40.4 92.912 42.536 92.912 45.128C92.912 47.96 92.144 50.312 90.608 52.184C89.072 54.008 87.056 55.328 84.56 56.144V56.288C86 56.528 87.344 56.984 88.592 57.656C89.888 58.28 90.992 59.096 91.904 60.104C92.864 61.112 93.608 62.288 94.136 63.632C94.712 64.976 95 66.488 95 68.168ZM81.032 46.784C81.032 45.056 80.36 43.808 79.016 43.04C77.72 42.224 75.776 41.816 73.184 41.816H67.136V52.328H73.76C76.064 52.328 77.84 51.872 79.088 50.96C80.384 50 81.032 48.608 81.032 46.784ZM82.688 67.016C82.688 64.904 81.896 63.44 80.312 62.624C78.728 61.808 76.616 61.4 73.976 61.4H67.136V73.064H74.048C75.008 73.064 75.992 72.992 77 72.848C78.056 72.656 78.992 72.344 79.808 71.912C80.672 71.48 81.368 70.88 81.896 70.112C82.424 69.296 82.688 68.264 82.688 67.016Z" fill="white"/>
<path d="M93.344 75.224L94.6423 75.9897L94.6465 75.9825L94.6506 75.9753L93.344 75.224ZM88.952 79.76L88.1471 78.4856L88.1471 78.4856L88.952 79.76ZM82.688 82.28L82.9954 83.7556L83.0068 83.7532L83.0181 83.7506L82.688 82.28ZM55.256 83H53.7488V84.5072H55.256V83ZM55.256 32.024V30.5168H53.7488V32.024H55.256ZM81.608 32.672L81.2992 34.1473L81.3157 34.1507L81.3323 34.1538L81.608 32.672ZM87.224 34.76L86.4485 36.0525L86.4623 36.0607L86.4762 36.0687L87.224 34.76ZM91.328 38.72L90.0519 39.5221L90.0519 39.5221L91.328 38.72ZM90.608 52.184L91.7609 53.1549L91.7671 53.1475L91.7732 53.1401L90.608 52.184ZM84.56 56.144L84.0916 54.7114L83.0528 55.051V56.144H84.56ZM84.56 56.288H83.0528V57.5648L84.3122 57.7747L84.56 56.288ZM88.592 57.656L87.8774 58.9831L87.9074 58.9992L87.9381 59.014L88.592 57.656ZM91.904 60.104L90.7863 61.1152L90.7993 61.1295L90.8125 61.1435L91.904 60.104ZM94.136 63.632L92.7331 64.1831L92.7416 64.2046L92.7506 64.2257L94.136 63.632ZM79.016 43.04L78.2129 44.3155L78.2402 44.3327L78.2682 44.3487L79.016 43.04ZM67.136 41.816V40.3088H65.6288V41.816H67.136ZM67.136 52.328H65.6288V53.8352H67.136V52.328ZM79.088 50.96L79.9773 52.177L79.9852 52.1712L79.088 50.96ZM80.312 62.624L81.0023 61.2841L81.0023 61.2841L80.312 62.624ZM67.136 61.4V59.8928H65.6288V61.4H67.136ZM67.136 73.064H65.6288V74.5712H67.136V73.064ZM77 72.848L77.2132 74.3401L77.2415 74.3361L77.2696 74.3309L77 72.848ZM79.808 71.912L79.1339 70.5639L79.1183 70.5717L79.1028 70.5799L79.808 71.912ZM81.896 70.112L83.138 70.9659L83.15 70.9485L83.1614 70.9308L81.896 70.112ZM93.4928 68.168C93.4928 70.7551 92.9802 72.8329 92.0374 74.4727L94.6506 75.9753C95.9158 73.7751 96.5072 71.1489 96.5072 68.168H93.4928ZM92.0457 74.4583C91.0625 76.1256 89.767 77.4626 88.1471 78.4856L89.7569 81.0344C91.785 79.7534 93.4175 78.0664 94.6423 75.9897L92.0457 74.4583ZM88.1471 78.4856C86.4851 79.5354 84.5612 80.3147 82.3579 80.8094L83.0181 83.7506C85.5188 83.1893 87.7709 82.2886 89.7569 81.0344L88.1471 78.4856ZM82.3806 80.8044C80.1817 81.2625 77.9089 81.4928 75.56 81.4928V84.5072C78.1071 84.5072 80.5863 84.2575 82.9954 83.7556L82.3806 80.8044ZM75.56 81.4928H55.256V84.5072H75.56V81.4928ZM56.7632 83V32.024H53.7488V83H56.7632ZM55.256 33.5312H75.56V30.5168H55.256V33.5312ZM75.56 33.5312C77.4172 33.5312 79.3296 33.735 81.2992 34.1473L81.9168 31.1967C79.7584 30.745 77.6388 30.5168 75.56 30.5168V33.5312ZM81.3323 34.1538C83.2325 34.5073 84.9332 35.1433 86.4485 36.0525L87.9995 33.4675C86.1548 32.3607 84.1115 31.6047 81.8837 31.1902L81.3323 34.1538ZM86.4762 36.0687C87.9355 36.9026 89.1242 38.0462 90.0519 39.5221L92.6041 37.9179C91.4198 36.0338 89.8725 34.5374 87.9718 33.4513L86.4762 36.0687ZM90.0519 39.5221C90.9171 40.8986 91.4048 42.7345 91.4048 45.128H94.4192C94.4192 42.3375 93.8509 39.9014 92.6041 37.9179L90.0519 39.5221ZM91.4048 45.128C91.4048 47.6733 90.7213 49.6698 89.4428 51.2279L91.7732 53.1401C93.5667 50.9542 94.4192 48.2467 94.4192 45.128H91.4048ZM89.4551 51.2131C88.1179 52.8011 86.3488 53.9734 84.0916 54.7114L85.0284 57.5766C87.7632 56.6826 90.0261 55.2149 91.7609 53.1549L89.4551 51.2131ZM83.0528 56.144V56.288H86.0672V56.144H83.0528ZM84.3122 57.7747C85.5939 57.9883 86.7795 58.3919 87.8774 58.9831L89.3066 56.3289C87.9085 55.5761 86.4062 55.0677 84.8078 54.8013L84.3122 57.7747ZM87.9381 59.014C89.0689 59.5585 90.0125 60.26 90.7863 61.1152L93.0217 59.0928C91.9715 57.932 90.7071 57.0015 89.2459 56.298L87.9381 59.014ZM90.8125 61.1435C91.6331 62.0051 92.2737 63.0136 92.7331 64.1831L95.5389 63.0809C94.9423 61.5624 94.0949 60.2189 92.9955 59.0645L90.8125 61.1435ZM92.7506 64.2257C93.2351 65.3562 93.4928 66.6619 93.4928 68.168H96.5072C96.5072 66.3141 96.1889 64.5958 95.5214 63.0383L92.7506 64.2257ZM82.5392 46.784C82.5392 44.5912 81.64 42.8034 79.7638 41.7313L78.2682 44.3487C79.08 44.8126 79.5248 45.5208 79.5248 46.784H82.5392ZM79.8191 41.7645C78.1684 40.7252 75.8855 40.3088 73.184 40.3088V43.3232C75.6665 43.3232 77.2716 43.7228 78.2129 44.3155L79.8191 41.7645ZM73.184 40.3088H67.136V43.3232H73.184V40.3088ZM65.6288 41.816V52.328H68.6432V41.816H65.6288ZM67.136 53.8352H73.76V50.8208H67.136V53.8352ZM73.76 53.8352C76.2347 53.8352 78.3724 53.3497 79.9773 52.1769L78.1987 49.7431C77.3076 50.3943 75.8933 50.8208 73.76 50.8208V53.8352ZM79.9852 52.1712C81.7191 50.8867 82.5392 49.0138 82.5392 46.784H79.5248C79.5248 48.2022 79.0489 49.1133 78.1908 49.7488L79.9852 52.1712ZM84.1952 67.016C84.1952 65.7754 83.9627 64.6205 83.4197 63.6168C82.869 62.5989 82.0439 61.8207 81.0023 61.2841L79.6217 63.9639C80.1641 64.2433 80.527 64.6051 80.7683 65.0512C81.0173 65.5115 81.1808 66.1446 81.1808 67.016H84.1952ZM81.0023 61.2841C79.1268 60.3179 76.7495 59.8928 73.976 59.8928V62.9072C76.4825 62.9072 78.3292 63.2981 79.6217 63.9639L81.0023 61.2841ZM73.976 59.8928H67.136V62.9072H73.976V59.8928ZM65.6288 61.4V73.064H68.6432V61.4H65.6288ZM67.136 74.5712H74.048V71.5568H67.136V74.5712ZM74.048 74.5712C75.0835 74.5712 76.1388 74.4936 77.2132 74.3401L76.7868 71.3559C75.8452 71.4904 74.9325 71.5568 74.048 71.5568V74.5712ZM77.2696 74.3309C78.4536 74.1157 79.5405 73.7591 80.5132 73.2441L79.1028 70.5799C78.4435 70.9289 77.6584 71.1963 76.7304 71.3651L77.2696 74.3309ZM80.4821 73.2601C81.5655 72.7184 82.4602 71.9519 83.138 70.9659L80.654 69.2581C80.2758 69.8081 79.7785 70.2416 79.1339 70.5639L80.4821 73.2601ZM83.1614 70.9308C83.8865 69.8103 84.1952 68.4729 84.1952 67.016H81.1808C81.1808 68.0551 80.9615 68.7817 80.6306 69.2932L83.1614 70.9308Z" fill="#8FA2ED"/>
</svg>
