<svg width="113" height="113" viewBox="0 0 113 113" fill="none" xmlns="http://www.w3.org/2000/svg">
<path d="M113 56.5C113 87.7041 87.7041 113 56.5 113C25.2959 113 0 87.7041 0 56.5C0 25.2959 25.2959 0 56.5 0C87.7041 0 113 25.2959 113 56.5Z" fill="#F18A88"/>
<path d="M80.7125 83L76.7525 72.992H57.0245L53.2805 83H39.8885L61.2725 32.024H73.2245L94.3925 83H80.7125ZM67.0325 45.632L60.5525 63.128H73.3685L67.0325 45.632Z" fill="#B7CFFF"/>
<path d="M78.816 83L74.856 72.992H55.128L51.384 83H37.992L59.376 32.024H71.328L92.496 83H78.816ZM65.136 45.632L58.656 63.128H71.472L65.136 45.632Z" fill="white"/>
<path d="M78.816 83L77.4145 83.5546L77.7914 84.5072H78.816V83ZM74.856 72.992L76.2575 72.4374L75.8806 71.4848H74.856V72.992ZM55.128 72.992V71.4848H54.0826L53.7163 72.4639L55.128 72.992ZM51.384 83V84.5072H52.4294L52.7957 83.5281L51.384 83ZM37.992 83L36.6021 82.4169L35.7252 84.5072H37.992V83ZM59.376 32.024V30.5168H58.3738L57.9861 31.4409L59.376 32.024ZM71.328 32.024L72.72 31.446L72.3341 30.5168H71.328V32.024ZM92.496 83V84.5072H94.7539L93.888 82.422L92.496 83ZM65.136 45.632L66.5532 45.1188L65.1519 41.2493L63.7226 45.1085L65.136 45.632ZM58.656 63.128L57.2426 62.6045L56.4905 64.6352H58.656V63.128ZM71.472 63.128V64.6352H73.6209L72.8892 62.6148L71.472 63.128ZM80.2175 82.4454L76.2575 72.4374L73.4545 73.5466L77.4145 83.5546L80.2175 82.4454ZM74.856 71.4848H55.128V74.4992H74.856V71.4848ZM53.7163 72.4639L49.9723 82.4719L52.7957 83.5281L56.5397 73.5201L53.7163 72.4639ZM51.384 81.4928H37.992V84.5072H51.384V81.4928ZM39.3819 83.5831L60.7659 32.6071L57.9861 31.4409L36.6021 82.4169L39.3819 83.5831ZM59.376 33.5312H71.328V30.5168H59.376V33.5312ZM69.936 32.602L91.104 83.578L93.888 82.422L72.72 31.446L69.936 32.602ZM92.496 81.4928H78.816V84.5072H92.496V81.4928ZM63.7226 45.1085L57.2426 62.6045L60.0694 63.6515L66.5494 46.1555L63.7226 45.1085ZM58.656 64.6352H71.472V61.6208H58.656V64.6352ZM72.8892 62.6148L66.5532 45.1188L63.7188 46.1452L70.0548 63.6412L72.8892 62.6148Z" fill="#8FA2ED"/>
</svg>
