<svg width="79" height="69" viewBox="0 0 79 69" fill="none" xmlns="http://www.w3.org/2000/svg">
<path d="M69 34.5C69 53.5538 53.5538 69 34.5 69C15.4462 69 0 53.5538 0 34.5C0 15.4462 15.4462 0 34.5 0C53.5538 0 69 15.4462 69 34.5Z" fill="#F18A88"/>
<path d="M35 35.32C35 36.82 34.85 38.25 34.55 39.61C34.25 40.97 33.77 42.17 33.11 43.21C32.45 44.23 31.59 45.05 30.53 45.67C29.49 46.27 28.22 46.57 26.72 46.57C25.22 46.57 23.94 46.27 22.88 45.67C21.82 45.05 20.95 44.23 20.27 43.21C19.61 42.17 19.13 40.97 18.83 39.61C18.53 38.25 18.38 36.82 18.38 35.32C18.38 33.82 18.53 32.4 18.83 31.06C19.13 29.7 19.61 28.52 20.27 27.52C20.95 26.5 21.82 25.69 22.88 25.09C23.94 24.49 25.22 24.19 26.72 24.19C28.22 24.19 29.49 24.49 30.53 25.09C31.59 25.69 32.45 26.5 33.11 27.52C33.77 28.52 34.25 29.7 34.55 31.06C34.85 32.4 35 33.82 35 35.32ZM29.84 35.32C29.84 34.66 29.8 33.93 29.72 33.13C29.64 32.33 29.49 31.59 29.27 30.91C29.05 30.21 28.73 29.63 28.31 29.17C27.91 28.69 27.38 28.45 26.72 28.45C26.06 28.45 25.52 28.69 25.1 29.17C24.68 29.63 24.35 30.21 24.11 30.91C23.89 31.59 23.74 32.33 23.66 33.13C23.58 33.93 23.54 34.66 23.54 35.32C23.54 36 23.58 36.75 23.66 37.57C23.74 38.37 23.89 39.12 24.11 39.82C24.35 40.5 24.68 41.08 25.1 41.56C25.52 42.02 26.06 42.25 26.72 42.25C27.38 42.25 27.91 42.02 28.31 41.56C28.73 41.08 29.05 40.5 29.27 39.82C29.49 39.12 29.64 38.37 29.72 37.57C29.8 36.75 29.84 36 29.84 35.32ZM44.8845 46V30.4L40.9245 33.46L38.3145 29.89L45.3045 24.76H49.9245V46H44.8845Z" fill="white"/>
</svg>
