<svg width="69" height="69" viewBox="0 0 69 69" fill="none" xmlns="http://www.w3.org/2000/svg">
<path d="M69 34.5C69 53.5538 53.5538 69 34.5 69C15.4462 69 0 53.5538 0 34.5C0 15.4462 15.4462 0 34.5 0C53.5538 0 69 15.4462 69 34.5Z" fill="#F18A88"/>
<path d="M33 35.32C33 36.82 32.85 38.25 32.55 39.61C32.25 40.97 31.77 42.17 31.11 43.21C30.45 44.23 29.59 45.05 28.53 45.67C27.49 46.27 26.22 46.57 24.72 46.57C23.22 46.57 21.94 46.27 20.88 45.67C19.82 45.05 18.95 44.23 18.27 43.21C17.61 42.17 17.13 40.97 16.83 39.61C16.53 38.25 16.38 36.82 16.38 35.32C16.38 33.82 16.53 32.4 16.83 31.06C17.13 29.7 17.61 28.52 18.27 27.52C18.95 26.5 19.82 25.69 20.88 25.09C21.94 24.49 23.22 24.19 24.72 24.19C26.22 24.19 27.49 24.49 28.53 25.09C29.59 25.69 30.45 26.5 31.11 27.52C31.77 28.52 32.25 29.7 32.55 31.06C32.85 32.4 33 33.82 33 35.32ZM27.84 35.32C27.84 34.66 27.8 33.93 27.72 33.13C27.64 32.33 27.49 31.59 27.27 30.91C27.05 30.21 26.73 29.63 26.31 29.17C25.91 28.69 25.38 28.45 24.72 28.45C24.06 28.45 23.52 28.69 23.1 29.17C22.68 29.63 22.35 30.21 22.11 30.91C21.89 31.59 21.74 32.33 21.66 33.13C21.58 33.93 21.54 34.66 21.54 35.32C21.54 36 21.58 36.75 21.66 37.57C21.74 38.37 21.89 39.12 22.11 39.82C22.35 40.5 22.68 41.08 23.1 41.56C23.52 42.02 24.06 42.25 24.72 42.25C25.38 42.25 25.91 42.02 26.31 41.56C26.73 41.08 27.05 40.5 27.27 39.82C27.49 39.12 27.64 38.37 27.72 37.57C27.8 36.75 27.84 36 27.84 35.32ZM51.8845 39.82C51.8845 40.98 51.6445 41.99 51.1645 42.85C50.7045 43.69 50.0945 44.39 49.3345 44.95C48.5745 45.49 47.7145 45.89 46.7545 46.15C45.8145 46.43 44.8545 46.57 43.8745 46.57C42.9145 46.57 41.9745 46.46 41.0545 46.24C40.1545 46.02 39.3245 45.69 38.5645 45.25C37.8245 44.79 37.1745 44.21 36.6145 43.51C36.0545 42.79 35.6345 41.93 35.3545 40.93L40.0345 39.7C40.2345 40.4 40.6445 41.02 41.2645 41.56C41.8845 42.08 42.6745 42.34 43.6345 42.34C43.9945 42.34 44.3545 42.29 44.7145 42.19C45.0945 42.09 45.4245 41.94 45.7045 41.74C46.0045 41.52 46.2445 41.24 46.4245 40.9C46.6245 40.56 46.7245 40.14 46.7245 39.64C46.7245 39.1 46.5945 38.65 46.3345 38.29C46.0945 37.93 45.7645 37.65 45.3445 37.45C44.9445 37.23 44.4845 37.08 43.9645 37C43.4445 36.9 42.9245 36.85 42.4045 36.85H41.0545V33.16H42.5245C43.0045 33.16 43.4645 33.13 43.9045 33.07C44.3445 32.99 44.7345 32.86 45.0745 32.68C45.4345 32.48 45.7145 32.22 45.9145 31.9C46.1345 31.58 46.2445 31.16 46.2445 30.64C46.2445 29.88 45.9745 29.3 45.4345 28.9C44.8945 28.5 44.2745 28.3 43.5745 28.3C42.8545 28.3 42.2245 28.52 41.6845 28.96C41.1645 29.38 40.8245 29.95 40.6645 30.67L35.9845 29.59C36.2445 28.69 36.6345 27.91 37.1545 27.25C37.6745 26.57 38.2845 26.01 38.9845 25.57C39.7045 25.11 40.4845 24.77 41.3245 24.55C42.1645 24.31 43.0245 24.19 43.9045 24.19C44.8445 24.19 45.7545 24.31 46.6345 24.55C47.5345 24.79 48.3345 25.16 49.0345 25.66C49.7345 26.16 50.2945 26.79 50.7145 27.55C51.1545 28.29 51.3745 29.17 51.3745 30.19C51.3745 31.37 51.0345 32.37 50.3545 33.19C49.6945 33.99 48.8445 34.53 47.8045 34.81V34.9C48.4045 35.04 48.9545 35.27 49.4545 35.59C49.9545 35.89 50.3845 36.26 50.7445 36.7C51.1045 37.12 51.3845 37.6 51.5845 38.14C51.7845 38.66 51.8845 39.22 51.8845 39.82Z" fill="white"/>
</svg>
