<svg width="69" height="69" viewBox="0 0 69 69" fill="none" xmlns="http://www.w3.org/2000/svg">
<path d="M69 34.5C69 53.5538 53.5538 69 34.5 69C15.4462 69 0 53.5538 0 34.5C0 15.4462 15.4462 0 34.5 0C53.5538 0 69 15.4462 69 34.5Z" fill="#F18A88"/>
<path d="M33 35.32C33 36.82 32.85 38.25 32.55 39.61C32.25 40.97 31.77 42.17 31.11 43.21C30.45 44.23 29.59 45.05 28.53 45.67C27.49 46.27 26.22 46.57 24.72 46.57C23.22 46.57 21.94 46.27 20.88 45.67C19.82 45.05 18.95 44.23 18.27 43.21C17.61 42.17 17.13 40.97 16.83 39.61C16.53 38.25 16.38 36.82 16.38 35.32C16.38 33.82 16.53 32.4 16.83 31.06C17.13 29.7 17.61 28.52 18.27 27.52C18.95 26.5 19.82 25.69 20.88 25.09C21.94 24.49 23.22 24.19 24.72 24.19C26.22 24.19 27.49 24.49 28.53 25.09C29.59 25.69 30.45 26.5 31.11 27.52C31.77 28.52 32.25 29.7 32.55 31.06C32.85 32.4 33 33.82 33 35.32ZM27.84 35.32C27.84 34.66 27.8 33.93 27.72 33.13C27.64 32.33 27.49 31.59 27.27 30.91C27.05 30.21 26.73 29.63 26.31 29.17C25.91 28.69 25.38 28.45 24.72 28.45C24.06 28.45 23.52 28.69 23.1 29.17C22.68 29.63 22.35 30.21 22.11 30.91C21.89 31.59 21.74 32.33 21.66 33.13C21.58 33.93 21.54 34.66 21.54 35.32C21.54 36 21.58 36.75 21.66 37.57C21.74 38.37 21.89 39.12 22.11 39.82C22.35 40.5 22.68 41.08 23.1 41.56C23.52 42.02 24.06 42.25 24.72 42.25C25.38 42.25 25.91 42.02 26.31 41.56C26.73 41.08 27.05 40.5 27.27 39.82C27.49 39.12 27.64 38.37 27.72 37.57C27.8 36.75 27.84 36 27.84 35.32ZM49.8445 41.86V46H45.1345V41.86H35.1445V37.63L43.7845 24.76H49.8145V37.78H52.7545V41.86H49.8445ZM45.1645 29.92H45.0745L40.0345 37.78H45.1645V29.92Z" fill="white"/>
</svg>
