<svg width="69" height="69" viewBox="0 0 69 69" fill="none" xmlns="http://www.w3.org/2000/svg">
<path d="M69 34.5C69 53.5538 53.5538 69 34.5 69C15.4462 69 0 53.5538 0 34.5C0 15.4462 15.4462 0 34.5 0C53.5538 0 69 15.4462 69 34.5Z" fill="#F18A88"/>
<path d="M33 35.32C33 36.82 32.85 38.25 32.55 39.61C32.25 40.97 31.77 42.17 31.11 43.21C30.45 44.23 29.59 45.05 28.53 45.67C27.49 46.27 26.22 46.57 24.72 46.57C23.22 46.57 21.94 46.27 20.88 45.67C19.82 45.05 18.95 44.23 18.27 43.21C17.61 42.17 17.13 40.97 16.83 39.61C16.53 38.25 16.38 36.82 16.38 35.32C16.38 33.82 16.53 32.4 16.83 31.06C17.13 29.7 17.61 28.52 18.27 27.52C18.95 26.5 19.82 25.69 20.88 25.09C21.94 24.49 23.22 24.19 24.72 24.19C26.22 24.19 27.49 24.49 28.53 25.09C29.59 25.69 30.45 26.5 31.11 27.52C31.77 28.52 32.25 29.7 32.55 31.06C32.85 32.4 33 33.82 33 35.32ZM27.84 35.32C27.84 34.66 27.8 33.93 27.72 33.13C27.64 32.33 27.49 31.59 27.27 30.91C27.05 30.21 26.73 29.63 26.31 29.17C25.91 28.69 25.38 28.45 24.72 28.45C24.06 28.45 23.52 28.69 23.1 29.17C22.68 29.63 22.35 30.21 22.11 30.91C21.89 31.59 21.74 32.33 21.66 33.13C21.58 33.93 21.54 34.66 21.54 35.32C21.54 36 21.58 36.75 21.66 37.57C21.74 38.37 21.89 39.12 22.11 39.82C22.35 40.5 22.68 41.08 23.1 41.56C23.52 42.02 24.06 42.25 24.72 42.25C25.38 42.25 25.91 42.02 26.31 41.56C26.73 41.08 27.05 40.5 27.27 39.82C27.49 39.12 27.64 38.37 27.72 37.57C27.8 36.75 27.84 36 27.84 35.32ZM51.8545 38.98C51.8545 40.28 51.6245 41.41 51.1645 42.37C50.7045 43.31 50.0845 44.09 49.3045 44.71C48.5445 45.33 47.6745 45.79 46.6945 46.09C45.7145 46.41 44.7045 46.57 43.6645 46.57C42.7045 46.57 41.7845 46.44 40.9045 46.18C40.0445 45.94 39.2545 45.59 38.5345 45.13C37.8345 44.67 37.2245 44.11 36.7045 43.45C36.2045 42.77 35.8345 42.01 35.5945 41.17L40.1845 39.76C40.4045 40.5 40.8145 41.11 41.4145 41.59C42.0345 42.07 42.7645 42.31 43.6045 42.31C44.4645 42.31 45.2045 42.05 45.8245 41.53C46.4645 41.01 46.7845 40.24 46.7845 39.22C46.7845 38.6 46.6545 38.08 46.3945 37.66C46.1345 37.24 45.7945 36.91 45.3745 36.67C44.9745 36.41 44.5145 36.23 43.9945 36.13C43.4745 36.03 42.9545 35.98 42.4345 35.98C41.6745 35.98 40.8045 36.07 39.8245 36.25C38.8645 36.41 38.0045 36.63 37.2445 36.91L37.7545 24.76H50.7745V29.08H42.2245L42.0445 32.44C42.3645 32.36 42.7145 32.31 43.0945 32.29C43.4945 32.25 43.8545 32.23 44.1745 32.23C45.2345 32.23 46.2345 32.37 47.1745 32.65C48.1145 32.93 48.9245 33.36 49.6045 33.94C50.3045 34.5 50.8545 35.2 51.2545 36.04C51.6545 36.88 51.8545 37.86 51.8545 38.98Z" fill="white"/>
</svg>
