<svg width="69" height="69" viewBox="0 0 69 69" fill="none" xmlns="http://www.w3.org/2000/svg">
<path d="M69 34.5C69 53.5538 53.5538 69 34.5 69C15.4462 69 0 53.5538 0 34.5C0 15.4462 15.4462 0 34.5 0C53.5538 0 69 15.4462 69 34.5Z" fill="#F18A88"/>
<path d="M33 35.32C33 36.82 32.85 38.25 32.55 39.61C32.25 40.97 31.77 42.17 31.11 43.21C30.45 44.23 29.59 45.05 28.53 45.67C27.49 46.27 26.22 46.57 24.72 46.57C23.22 46.57 21.94 46.27 20.88 45.67C19.82 45.05 18.95 44.23 18.27 43.21C17.61 42.17 17.13 40.97 16.83 39.61C16.53 38.25 16.38 36.82 16.38 35.32C16.38 33.82 16.53 32.4 16.83 31.06C17.13 29.7 17.61 28.52 18.27 27.52C18.95 26.5 19.82 25.69 20.88 25.09C21.94 24.49 23.22 24.19 24.72 24.19C26.22 24.19 27.49 24.49 28.53 25.09C29.59 25.69 30.45 26.5 31.11 27.52C31.77 28.52 32.25 29.7 32.55 31.06C32.85 32.4 33 33.82 33 35.32ZM27.84 35.32C27.84 34.66 27.8 33.93 27.72 33.13C27.64 32.33 27.49 31.59 27.27 30.91C27.05 30.21 26.73 29.63 26.31 29.17C25.91 28.69 25.38 28.45 24.72 28.45C24.06 28.45 23.52 28.69 23.1 29.17C22.68 29.63 22.35 30.21 22.11 30.91C21.89 31.59 21.74 32.33 21.66 33.13C21.58 33.93 21.54 34.66 21.54 35.32C21.54 36 21.58 36.75 21.66 37.57C21.74 38.37 21.89 39.12 22.11 39.82C22.35 40.5 22.68 41.08 23.1 41.56C23.52 42.02 24.06 42.25 24.72 42.25C25.38 42.25 25.91 42.02 26.31 41.56C26.73 41.08 27.05 40.5 27.27 39.82C27.49 39.12 27.64 38.37 27.72 37.57C27.8 36.75 27.84 36 27.84 35.32ZM52.4245 38.86C52.4245 40.06 52.2045 41.14 51.7645 42.1C51.3245 43.06 50.7245 43.87 49.9645 44.53C49.2045 45.19 48.3145 45.69 47.2945 46.03C46.2745 46.39 45.1945 46.57 44.0545 46.57C42.8945 46.57 41.8045 46.39 40.7845 46.03C39.7845 45.69 38.9045 45.19 38.1445 44.53C37.3845 43.87 36.7845 43.07 36.3445 42.13C35.9045 41.19 35.6845 40.14 35.6845 38.98C35.6845 37.72 35.9045 36.58 36.3445 35.56C36.7845 34.52 37.3545 33.47 38.0545 32.41L43.1845 24.76H49.2745L44.0545 32.02L43.9645 32.17C44.1645 32.09 44.4045 32.03 44.6845 31.99C44.9645 31.95 45.2245 31.93 45.4645 31.93C46.3845 31.93 47.2645 32.1 48.1045 32.44C48.9645 32.76 49.7045 33.23 50.3245 33.85C50.9645 34.45 51.4745 35.18 51.8545 36.04C52.2345 36.88 52.4245 37.82 52.4245 38.86ZM47.3845 38.98C47.3845 38.02 47.0845 37.23 46.4845 36.61C45.8845 35.97 45.0845 35.65 44.0845 35.65C43.0845 35.65 42.2745 35.96 41.6545 36.58C41.0345 37.2 40.7245 38.01 40.7245 39.01C40.7245 39.93 41.0245 40.72 41.6245 41.38C42.2245 42.04 43.0345 42.37 44.0545 42.37C45.0545 42.37 45.8545 42.06 46.4545 41.44C47.0745 40.82 47.3845 40 47.3845 38.98Z" fill="white"/>
</svg>
