<svg width="69" height="69" viewBox="0 0 69 69" fill="none" xmlns="http://www.w3.org/2000/svg">
<path d="M69 34.5C69 53.5538 53.5538 69 34.5 69C15.4462 69 0 53.5538 0 34.5C0 15.4462 15.4462 0 34.5 0C53.5538 0 69 15.4462 69 34.5Z" fill="#F18A88"/>
<path d="M33 35.32C33 36.82 32.85 38.25 32.55 39.61C32.25 40.97 31.77 42.17 31.11 43.21C30.45 44.23 29.59 45.05 28.53 45.67C27.49 46.27 26.22 46.57 24.72 46.57C23.22 46.57 21.94 46.27 20.88 45.67C19.82 45.05 18.95 44.23 18.27 43.21C17.61 42.17 17.13 40.97 16.83 39.61C16.53 38.25 16.38 36.82 16.38 35.32C16.38 33.82 16.53 32.4 16.83 31.06C17.13 29.7 17.61 28.52 18.27 27.52C18.95 26.5 19.82 25.69 20.88 25.09C21.94 24.49 23.22 24.19 24.72 24.19C26.22 24.19 27.49 24.49 28.53 25.09C29.59 25.69 30.45 26.5 31.11 27.52C31.77 28.52 32.25 29.7 32.55 31.06C32.85 32.4 33 33.82 33 35.32ZM27.84 35.32C27.84 34.66 27.8 33.93 27.72 33.13C27.64 32.33 27.49 31.59 27.27 30.91C27.05 30.21 26.73 29.63 26.31 29.17C25.91 28.69 25.38 28.45 24.72 28.45C24.06 28.45 23.52 28.69 23.1 29.17C22.68 29.63 22.35 30.21 22.11 30.91C21.89 31.59 21.74 32.33 21.66 33.13C21.58 33.93 21.54 34.66 21.54 35.32C21.54 36 21.58 36.75 21.66 37.57C21.74 38.37 21.89 39.12 22.11 39.82C22.35 40.5 22.68 41.08 23.1 41.56C23.52 42.02 24.06 42.25 24.72 42.25C25.38 42.25 25.91 42.02 26.31 41.56C26.73 41.08 27.05 40.5 27.27 39.82C27.49 39.12 27.64 38.37 27.72 37.57C27.8 36.75 27.84 36 27.84 35.32ZM52.0645 39.94C52.0645 41.06 51.8445 42.04 51.4045 42.88C50.9645 43.7 50.3745 44.39 49.6345 44.95C48.9145 45.49 48.0645 45.89 47.0845 46.15C46.1245 46.43 45.1245 46.57 44.0845 46.57C43.0245 46.57 42.0145 46.43 41.0545 46.15C40.0945 45.89 39.2445 45.49 38.5045 44.95C37.7845 44.41 37.2045 43.73 36.7645 42.91C36.3245 42.07 36.1045 41.09 36.1045 39.97C36.1045 39.33 36.2045 38.74 36.4045 38.2C36.6045 37.64 36.8745 37.15 37.2145 36.73C37.5745 36.29 37.9845 35.92 38.4445 35.62C38.9045 35.3 39.3945 35.06 39.9145 34.9V34.84C38.9945 34.5 38.2245 33.95 37.6045 33.19C36.9845 32.41 36.6745 31.43 36.6745 30.25C36.6745 29.27 36.8745 28.4 37.2745 27.64C37.6745 26.88 38.2145 26.25 38.8945 25.75C39.5745 25.23 40.3645 24.84 41.2645 24.58C42.1645 24.32 43.1045 24.19 44.0845 24.19C45.0645 24.19 45.9945 24.32 46.8745 24.58C47.7745 24.82 48.5645 25.19 49.2445 25.69C49.9245 26.19 50.4645 26.82 50.8645 27.58C51.2845 28.32 51.4945 29.18 51.4945 30.16C51.4945 31.34 51.1945 32.33 50.5945 33.13C49.9945 33.93 49.2145 34.49 48.2545 34.81V34.9C48.7945 35.06 49.2945 35.3 49.7545 35.62C50.2145 35.92 50.6145 36.29 50.9545 36.73C51.2945 37.15 51.5645 37.64 51.7645 38.2C51.9645 38.74 52.0645 39.32 52.0645 39.94ZM46.6345 30.52C46.6345 29.82 46.3845 29.24 45.8845 28.78C45.3845 28.32 44.7845 28.09 44.0845 28.09C43.3245 28.09 42.7145 28.32 42.2545 28.78C41.7945 29.24 41.5645 29.82 41.5645 30.52C41.5645 31.2 41.7845 31.79 42.2245 32.29C42.6845 32.79 43.3045 33.04 44.0845 33.04C44.8245 33.04 45.4345 32.79 45.9145 32.29C46.3945 31.79 46.6345 31.2 46.6345 30.52ZM47.0245 39.76C47.0245 38.94 46.7445 38.26 46.1845 37.72C45.6445 37.16 44.9445 36.88 44.0845 36.88C43.2045 36.88 42.4845 37.15 41.9245 37.69C41.3845 38.23 41.1145 38.92 41.1145 39.76C41.1145 40.62 41.3845 41.31 41.9245 41.83C42.4845 42.33 43.2045 42.58 44.0845 42.58C44.9645 42.58 45.6745 42.33 46.2145 41.83C46.7545 41.31 47.0245 40.62 47.0245 39.76Z" fill="white"/>
</svg>
