<svg width="69" height="69" viewBox="0 0 69 69" fill="none" xmlns="http://www.w3.org/2000/svg">
<path d="M69 34.5C69 53.5538 53.5538 69 34.5 69C15.4462 69 0 53.5538 0 34.5C0 15.4462 15.4462 0 34.5 0C53.5538 0 69 15.4462 69 34.5Z" fill="#F18A88"/>
<path d="M33 35.32C33 36.82 32.85 38.25 32.55 39.61C32.25 40.97 31.77 42.17 31.11 43.21C30.45 44.23 29.59 45.05 28.53 45.67C27.49 46.27 26.22 46.57 24.72 46.57C23.22 46.57 21.94 46.27 20.88 45.67C19.82 45.05 18.95 44.23 18.27 43.21C17.61 42.17 17.13 40.97 16.83 39.61C16.53 38.25 16.38 36.82 16.38 35.32C16.38 33.82 16.53 32.4 16.83 31.06C17.13 29.7 17.61 28.52 18.27 27.52C18.95 26.5 19.82 25.69 20.88 25.09C21.94 24.49 23.22 24.19 24.72 24.19C26.22 24.19 27.49 24.49 28.53 25.09C29.59 25.69 30.45 26.5 31.11 27.52C31.77 28.52 32.25 29.7 32.55 31.06C32.85 32.4 33 33.82 33 35.32ZM27.84 35.32C27.84 34.66 27.8 33.93 27.72 33.13C27.64 32.33 27.49 31.59 27.27 30.91C27.05 30.21 26.73 29.63 26.31 29.17C25.91 28.69 25.38 28.45 24.72 28.45C24.06 28.45 23.52 28.69 23.1 29.17C22.68 29.63 22.35 30.21 22.11 30.91C21.89 31.59 21.74 32.33 21.66 33.13C21.58 33.93 21.54 34.66 21.54 35.32C21.54 36 21.58 36.75 21.66 37.57C21.74 38.37 21.89 39.12 22.11 39.82C22.35 40.5 22.68 41.08 23.1 41.56C23.52 42.02 24.06 42.25 24.72 42.25C25.38 42.25 25.91 42.02 26.31 41.56C26.73 41.08 27.05 40.5 27.27 39.82C27.49 39.12 27.64 38.37 27.72 37.57C27.8 36.75 27.84 36 27.84 35.32ZM52.4545 31.78C52.4545 33.04 52.2345 34.19 51.7945 35.23C51.3545 36.25 50.7845 37.29 50.0845 38.35L44.9545 46H38.8645L44.1445 38.68L44.2045 38.59C43.9845 38.67 43.7345 38.73 43.4545 38.77C43.1945 38.81 42.9445 38.83 42.7045 38.83C41.7645 38.83 40.8745 38.67 40.0345 38.35C39.1945 38.01 38.4545 37.54 37.8145 36.94C37.1745 36.32 36.6645 35.59 36.2845 34.75C35.9045 33.89 35.7145 32.94 35.7145 31.9C35.7145 30.7 35.9345 29.62 36.3745 28.66C36.8145 27.7 37.4145 26.89 38.1745 26.23C38.9345 25.57 39.8245 25.07 40.8445 24.73C41.8645 24.37 42.9445 24.19 44.0845 24.19C45.2445 24.19 46.3345 24.37 47.3545 24.73C48.3745 25.07 49.2545 25.57 49.9945 26.23C50.7545 26.89 51.3545 27.69 51.7945 28.63C52.2345 29.57 52.4545 30.62 52.4545 31.78ZM47.4145 31.72C47.4145 30.8 47.1145 30.01 46.5145 29.35C45.9345 28.67 45.1345 28.33 44.1145 28.33C43.0945 28.33 42.2745 28.65 41.6545 29.29C41.0545 29.91 40.7545 30.73 40.7545 31.75C40.7545 32.71 41.0545 33.51 41.6545 34.15C42.2545 34.77 43.0545 35.08 44.0545 35.08C45.0545 35.08 45.8645 34.77 46.4845 34.15C47.1045 33.53 47.4145 32.72 47.4145 31.72Z" fill="white"/>
</svg>
