<svg width="69" height="69" viewBox="0 0 69 69" fill="none" xmlns="http://www.w3.org/2000/svg">
<path d="M69 34.5C69 53.5538 53.5538 69 34.5 69C15.4462 69 0 53.5538 0 34.5C0 15.4462 15.4462 0 34.5 0C53.5538 0 69 15.4462 69 34.5Z" fill="#F18A88"/>
<path d="M23.49 46V30.4L19.53 33.46L16.92 29.89L23.91 24.76H28.53V46H23.49ZM52.3945 35.32C52.3945 36.82 52.2445 38.25 51.9445 39.61C51.6445 40.97 51.1645 42.17 50.5045 43.21C49.8445 44.23 48.9845 45.05 47.9245 45.67C46.8845 46.27 45.6145 46.57 44.1145 46.57C42.6145 46.57 41.3345 46.27 40.2745 45.67C39.2145 45.05 38.3445 44.23 37.6645 43.21C37.0045 42.17 36.5245 40.97 36.2245 39.61C35.9245 38.25 35.7745 36.82 35.7745 35.32C35.7745 33.82 35.9245 32.4 36.2245 31.06C36.5245 29.7 37.0045 28.52 37.6645 27.52C38.3445 26.5 39.2145 25.69 40.2745 25.09C41.3345 24.49 42.6145 24.19 44.1145 24.19C45.6145 24.19 46.8845 24.49 47.9245 25.09C48.9845 25.69 49.8445 26.5 50.5045 27.52C51.1645 28.52 51.6445 29.7 51.9445 31.06C52.2445 32.4 52.3945 33.82 52.3945 35.32ZM47.2345 35.32C47.2345 34.66 47.1945 33.93 47.1145 33.13C47.0345 32.33 46.8845 31.59 46.6645 30.91C46.4445 30.21 46.1245 29.63 45.7045 29.17C45.3045 28.69 44.7745 28.45 44.1145 28.45C43.4545 28.45 42.9145 28.69 42.4945 29.17C42.0745 29.63 41.7445 30.21 41.5045 30.91C41.2845 31.59 41.1345 32.33 41.0545 33.13C40.9745 33.93 40.9345 34.66 40.9345 35.32C40.9345 36 40.9745 36.75 41.0545 37.57C41.1345 38.37 41.2845 39.12 41.5045 39.82C41.7445 40.5 42.0745 41.08 42.4945 41.56C42.9145 42.02 43.4545 42.25 44.1145 42.25C44.7745 42.25 45.3045 42.02 45.7045 41.56C46.1245 41.08 46.4445 40.5 46.6645 39.82C46.8845 39.12 47.0345 38.37 47.1145 37.57C47.1945 36.75 47.2345 36 47.2345 35.32Z" fill="white"/>
</svg>
