<svg width="69" height="69" viewBox="0 0 69 69" fill="none" xmlns="http://www.w3.org/2000/svg">
<path d="M69 34.5C69 53.5538 53.5538 69 34.5 69C15.4462 69 0 53.5538 0 34.5C0 15.4462 15.4462 0 34.5 0C53.5538 0 69 15.4462 69 34.5Z" fill="#F18A88"/>
<path d="M23.49 46V30.4L19.53 33.46L16.92 29.89L23.91 24.76H28.53V46H23.49ZM36.4345 46V41.8L44.7145 34.3C45.2345 33.8 45.6545 33.29 45.9745 32.77C46.2945 32.25 46.4545 31.67 46.4545 31.03C46.4545 30.27 46.2145 29.66 45.7345 29.2C45.2545 28.72 44.6145 28.48 43.8145 28.48C42.9745 28.48 42.2845 28.78 41.7445 29.38C41.2245 29.96 40.9145 30.73 40.8145 31.69L35.9845 31.03C36.1045 29.95 36.3945 28.99 36.8545 28.15C37.3345 27.31 37.9345 26.6 38.6545 26.02C39.3745 25.42 40.1945 24.97 41.1145 24.67C42.0545 24.35 43.0445 24.19 44.0845 24.19C45.0645 24.19 46.0145 24.32 46.9345 24.58C47.8545 24.84 48.6745 25.24 49.3945 25.78C50.1145 26.32 50.6845 27 51.1045 27.82C51.5445 28.64 51.7645 29.6 51.7645 30.7C51.7645 31.46 51.6645 32.15 51.4645 32.77C51.2645 33.37 50.9845 33.93 50.6245 34.45C50.2845 34.97 49.8845 35.46 49.4245 35.92C48.9845 36.36 48.5245 36.8 48.0445 37.24L43.1245 41.62H51.7945V46H36.4345Z" fill="white"/>
</svg>
