<svg width="1440" height="1100" viewBox="0 0 1440 1100" fill="none" xmlns="http://www.w3.org/2000/svg">
<g clip-path="url(#clip0)">
<path d="M148.551 367.895C48.5313 387.924 -14.9814 367.895 -14.9814 367.895L-108 920.699C-108 920.699 33.0282 1080.93 148.551 1076.93C264.075 1072.92 531 969.5 549.5 783C568 596.5 533.526 361.385 406 326C278.474 290.615 248.571 347.866 148.551 367.895Z" fill="#C74854" fill-opacity="0.02"/>
<path d="M107.551 349.191C7.53134 369.22 -55.9814 349.191 -55.9814 349.191L-149 901.995C-149 901.995 -7.97176 1062.23 107.551 1058.22C223.075 1054.22 490 950.796 508.5 764.296C527 577.796 492.526 342.681 365 307.296C237.474 271.911 207.571 329.162 107.551 349.191Z" fill="#C74854" fill-opacity="0.02"/>
<path d="M1158.92 76.1907C1058.9 96.2199 995.384 76.1907 995.384 76.1907C995.384 76.1907 885.981 255.086 920.865 377.5C951.5 485 1098.08 453.653 1117.87 501C1174.08 635.505 1151.81 747.277 1243.87 783C1335.92 818.723 1541.37 677.796 1559.87 491.296C1578.37 304.796 1543.89 69.6806 1416.36 34.2958C1288.84 -1.08905 1258.94 56.1616 1158.92 76.1907Z" fill="#567AAD" fill-opacity="0.03"/>
<path d="M1182.92 89.1907C1082.9 109.22 1019.38 89.1907 1019.38 89.1907C1019.38 89.1907 909.981 268.086 944.865 390.5C975.5 498 1122.08 466.653 1141.87 514C1198.08 648.505 1175.81 760.277 1267.87 796C1359.92 831.723 1565.37 690.796 1583.87 504.296C1602.37 317.796 1567.89 82.6806 1440.36 47.2958C1312.84 11.911 1282.94 69.1616 1182.92 89.1907Z" fill="#567AAD" fill-opacity="0.03"/>
</g>
<defs>
<clipPath id="clip0">
<rect width="1440" height="1100" fill="white"/>
</clipPath>
</defs>
</svg>
