<svg width="1440" height="1100" viewBox="0 0 1440 1100" fill="none" xmlns="http://www.w3.org/2000/svg">
<g clip-path="url(#clip0)">
<rect width="1440" height="1100" fill="#FCFCFC"/>
<path d="M158.551 303.895C58.5313 323.924 -4.98136 303.895 -4.98136 303.895L-98 856.699C-98 856.699 43.0282 1016.93 158.551 1012.93C274.075 1008.92 541 905.5 559.5 719C578 532.5 543.526 297.385 416 262C288.474 226.615 258.571 283.866 158.551 303.895Z" fill="#C74854" fill-opacity="0.02"/>
<path d="M117.551 285.191C17.5313 305.22 -45.9814 285.191 -45.9814 285.191L-139 837.995C-139 837.995 2.02824 998.228 117.551 994.223C233.075 990.217 500 886.796 518.5 700.296C537 513.796 502.526 278.681 375 243.296C247.474 207.911 217.571 265.162 117.551 285.191Z" fill="#C74854" fill-opacity="0.02"/>
<path d="M1168.92 12.1907C1068.9 32.2199 1005.38 12.1907 1005.38 12.1907C1005.38 12.1907 895.981 191.086 930.865 313.5C961.5 421 1108.08 389.653 1127.87 437C1184.08 571.505 1161.81 683.277 1253.87 719C1345.92 754.723 1551.37 613.796 1569.87 427.296C1588.37 240.796 1553.89 5.68063 1426.36 -29.7042C1298.84 -65.089 1268.94 -7.83845 1168.92 12.1907Z" fill="#567AAD" fill-opacity="0.03"/>
<path d="M1192.92 25.1907C1092.9 45.2199 1029.38 25.1907 1029.38 25.1907C1029.38 25.1907 919.981 204.086 954.865 326.5C985.5 434 1132.08 402.653 1151.87 450C1208.08 584.505 1185.81 696.277 1277.87 732C1369.92 767.723 1575.37 626.796 1593.87 440.296C1612.37 253.796 1577.89 18.6806 1450.36 -16.7042C1322.84 -52.089 1292.94 5.16155 1192.92 25.1907Z" fill="#567AAD" fill-opacity="0.03"/>
</g>
<defs>
<clipPath id="clip0">
<rect width="1440" height="1100" fill="white"/>
</clipPath>
</defs>
</svg>
