<svg width="735" height="477" viewBox="0 0 735 477" fill="none" xmlns="http://www.w3.org/2000/svg">
<g clip-path="url(#clip0)">
<path d="M497.777 357.934C592.987 321.41 606.65 216.115 597.668 150.945C583.181 45.8372 464.341 -21.5279 367.97 9.66475C242.806 50.177 280.628 65.9458 176.441 54.4394C89.8147 44.8725 15.1045 117.929 -7.61981 142.828C-12.4054 148.072 -15.2504 154.645 -16.3005 161.666L-34 280.007C-34 280.007 14.2571 407 140.204 407C266.15 407 246.533 370.825 318.749 357.934C390.964 345.044 402.567 394.458 497.777 357.934Z" fill="#082D87" fill-opacity="0.77"/>
<path opacity="0.3" d="M539.472 457.976C648.768 454.43 694.856 337.466 708.055 269.004C729.343 158.588 623.48 63.2395 514.831 61.0375C373.72 58.1776 380.6 81.6479 323.104 51.148C265.608 20.648 141.6 24.6479 93.0996 68.1479C33.7035 121.421 15.1255 188.475 29.6789 266.922C46.0971 355.422 125.793 410.43 190.108 432.408C254.423 454.387 298.439 373.201 376.263 385.362C454.087 397.523 430.177 461.523 539.472 457.976Z" fill="#C6C6C6"/>
<g filter="url(#filter0_d)">
<path d="M138.408 143.128C136.904 144.856 135.048 146.232 132.84 147.256C130.632 148.248 128.088 148.744 125.208 148.744C122.584 148.744 120.152 148.312 117.912 147.448C115.704 146.584 113.784 145.368 112.152 143.8C110.52 142.2 109.24 140.296 108.312 138.088C107.384 135.88 106.92 133.448 106.92 130.792C106.92 128.072 107.384 125.608 108.312 123.4C109.272 121.192 110.584 119.32 112.248 117.784C113.912 116.216 115.864 115.016 118.104 114.184C120.344 113.352 122.76 112.936 125.352 112.936C127.752 112.936 130.104 113.368 132.408 114.232C134.744 115.064 136.632 116.296 138.072 117.928L132.504 123.496C131.736 122.44 130.728 121.656 129.48 121.144C128.232 120.632 126.952 120.376 125.64 120.376C124.2 120.376 122.872 120.648 121.656 121.192C120.472 121.704 119.448 122.424 118.584 123.352C117.72 124.28 117.048 125.384 116.568 126.664C116.088 127.912 115.848 129.288 115.848 130.792C115.848 132.328 116.088 133.736 116.568 135.016C117.048 136.296 117.704 137.4 118.536 138.328C119.4 139.224 120.424 139.928 121.608 140.44C122.792 140.952 124.088 141.208 125.496 141.208C127.128 141.208 128.552 140.888 129.768 140.248C130.984 139.608 131.96 138.776 132.696 137.752L138.408 143.128ZM156.998 130.36C156.646 130.264 156.294 130.2 155.942 130.168C155.622 130.136 155.302 130.12 154.982 130.12C153.926 130.12 153.03 130.312 152.294 130.696C151.59 131.08 151.014 131.544 150.566 132.088C150.15 132.632 149.846 133.224 149.654 133.864C149.462 134.504 149.366 135.064 149.366 135.544V147.832H141.494V123.928H149.078V127.384H149.174C149.782 126.168 150.646 125.176 151.766 124.408C152.886 123.64 154.182 123.256 155.654 123.256C155.974 123.256 156.278 123.272 156.566 123.304C156.886 123.336 157.142 123.384 157.334 123.448L156.998 130.36ZM176.145 133.144C176.145 131.896 175.745 130.824 174.945 129.928C174.177 129.032 173.009 128.584 171.441 128.584C170.673 128.584 169.969 128.712 169.329 128.968C168.689 129.192 168.129 129.512 167.649 129.928C167.169 130.344 166.785 130.84 166.497 131.416C166.209 131.96 166.049 132.536 166.017 133.144H176.145ZM183.393 136.168C183.393 136.488 183.393 136.808 183.393 137.128C183.393 137.448 183.377 137.752 183.345 138.04H166.017C166.081 138.712 166.273 139.32 166.593 139.864C166.945 140.408 167.377 140.888 167.889 141.304C168.433 141.688 169.025 141.992 169.665 142.216C170.337 142.44 171.025 142.552 171.729 142.552C172.977 142.552 174.033 142.328 174.897 141.88C175.761 141.4 176.465 140.792 177.009 140.056L182.481 143.512C181.361 145.144 179.873 146.408 178.017 147.304C176.193 148.168 174.065 148.6 171.633 148.6C169.841 148.6 168.145 148.328 166.545 147.784C164.945 147.208 163.537 146.392 162.321 145.336C161.137 144.248 160.193 142.92 159.489 141.352C158.817 139.784 158.481 137.992 158.481 135.976C158.481 134.024 158.817 132.264 159.489 130.696C160.161 129.096 161.073 127.752 162.225 126.664C163.377 125.544 164.737 124.68 166.305 124.072C167.873 123.464 169.569 123.16 171.393 123.16C173.153 123.16 174.769 123.464 176.241 124.072C177.713 124.648 178.977 125.496 180.033 126.616C181.089 127.736 181.905 129.096 182.481 130.696C183.089 132.296 183.393 134.12 183.393 136.168ZM202.106 137.416H201.098C200.234 137.416 199.354 137.464 198.458 137.56C197.594 137.624 196.81 137.768 196.106 137.992C195.434 138.216 194.874 138.552 194.426 139C193.978 139.416 193.754 139.976 193.754 140.68C193.754 141.128 193.85 141.512 194.042 141.832C194.266 142.152 194.538 142.408 194.858 142.6C195.178 142.792 195.546 142.936 195.962 143.032C196.378 143.096 196.778 143.128 197.162 143.128C198.762 143.128 199.978 142.696 200.81 141.832C201.674 140.936 202.106 139.736 202.106 138.232V137.416ZM187.658 127.192C189.066 125.848 190.698 124.84 192.554 124.168C194.442 123.496 196.362 123.16 198.314 123.16C200.33 123.16 202.026 123.416 203.402 123.928C204.81 124.408 205.946 125.176 206.81 126.232C207.674 127.256 208.298 128.568 208.682 130.168C209.098 131.736 209.306 133.608 209.306 135.784V147.832H202.106V145.288H201.962C201.354 146.28 200.426 147.048 199.178 147.592C197.962 148.136 196.634 148.408 195.194 148.408C194.234 148.408 193.242 148.28 192.218 148.024C191.194 147.768 190.25 147.352 189.386 146.776C188.554 146.2 187.866 145.432 187.322 144.472C186.778 143.512 186.506 142.328 186.506 140.92C186.506 139.192 186.97 137.8 187.898 136.744C188.858 135.688 190.074 134.872 191.546 134.296C193.05 133.72 194.714 133.336 196.538 133.144C198.362 132.952 200.138 132.856 201.866 132.856V132.472C201.866 131.288 201.45 130.424 200.618 129.88C199.786 129.304 198.762 129.016 197.546 129.016C196.426 129.016 195.338 129.256 194.282 129.736C193.258 130.216 192.378 130.792 191.642 131.464L187.658 127.192ZM223.257 129.832V138.952C223.257 140.072 223.465 140.92 223.881 141.496C224.329 142.04 225.113 142.312 226.233 142.312C226.617 142.312 227.017 142.28 227.433 142.216C227.881 142.152 228.249 142.056 228.537 141.928L228.633 147.688C228.089 147.88 227.401 148.04 226.569 148.168C225.737 148.328 224.905 148.408 224.073 148.408C222.473 148.408 221.129 148.216 220.041 147.832C218.953 147.416 218.073 146.84 217.401 146.104C216.761 145.336 216.297 144.44 216.009 143.416C215.721 142.36 215.577 141.192 215.577 139.912V129.832H211.737V123.928H215.529V117.64H223.257V123.928H228.873V129.832H223.257ZM241.116 116.296C241.116 116.904 240.988 117.48 240.732 118.024C240.508 118.536 240.188 118.984 239.772 119.368C239.388 119.752 238.908 120.056 238.332 120.28C237.788 120.504 237.212 120.616 236.604 120.616C235.324 120.616 234.252 120.2 233.388 119.368C232.524 118.504 232.092 117.48 232.092 116.296C232.092 115.72 232.204 115.176 232.428 114.664C232.652 114.12 232.972 113.656 233.388 113.272C233.804 112.888 234.284 112.584 234.828 112.36C235.372 112.104 235.964 111.976 236.604 111.976C237.212 111.976 237.788 112.088 238.332 112.312C238.908 112.536 239.388 112.84 239.772 113.224C240.188 113.608 240.508 114.072 240.732 114.616C240.988 115.128 241.116 115.688 241.116 116.296ZM232.668 147.832V123.928H240.54V147.832H232.668ZM262.471 147.832V134.776C262.471 134.104 262.407 133.464 262.279 132.856C262.183 132.248 262.007 131.72 261.751 131.272C261.495 130.792 261.127 130.424 260.647 130.168C260.199 129.88 259.623 129.736 258.919 129.736C258.215 129.736 257.591 129.88 257.047 130.168C256.535 130.424 256.103 130.792 255.751 131.272C255.399 131.752 255.127 132.312 254.935 132.952C254.775 133.56 254.695 134.2 254.695 134.872V147.832H246.775V123.928H254.407V127.24H254.503C254.791 126.728 255.159 126.232 255.607 125.752C256.087 125.24 256.631 124.808 257.239 124.456C257.879 124.104 258.567 123.816 259.303 123.592C260.039 123.368 260.823 123.256 261.655 123.256C263.255 123.256 264.615 123.544 265.735 124.12C266.855 124.696 267.751 125.448 268.423 126.376C269.127 127.272 269.623 128.312 269.911 129.496C270.231 130.68 270.391 131.864 270.391 133.048V147.832H262.471ZM301.697 145.576C301.697 147.912 301.361 149.944 300.689 151.672C300.017 153.4 299.073 154.824 297.857 155.944C296.641 157.096 295.153 157.944 293.393 158.488C291.665 159.064 289.745 159.352 287.633 159.352C285.521 159.352 283.345 159.032 281.105 158.392C278.897 157.752 276.977 156.824 275.345 155.608L279.281 149.992C280.433 151.016 281.697 151.768 283.073 152.248C284.481 152.76 285.857 153.016 287.201 153.016C289.505 153.016 291.201 152.408 292.289 151.192C293.409 149.976 293.969 148.36 293.969 146.344V144.904H293.825C293.089 145.864 292.097 146.632 290.849 147.208C289.601 147.784 288.177 148.072 286.577 148.072C284.753 148.072 283.137 147.752 281.729 147.112C280.321 146.44 279.121 145.544 278.129 144.424C277.169 143.304 276.433 142.008 275.921 140.536C275.409 139.032 275.153 137.448 275.153 135.784C275.153 134.12 275.409 132.536 275.921 131.032C276.433 129.528 277.169 128.2 278.129 127.048C279.121 125.896 280.321 124.984 281.729 124.312C283.137 123.608 284.737 123.256 286.529 123.256C288.033 123.256 289.473 123.56 290.849 124.168C292.225 124.776 293.329 125.72 294.161 127H294.257V123.928H301.697V145.576ZM294.209 135.736C294.209 134.936 294.065 134.168 293.777 133.432C293.521 132.696 293.137 132.056 292.625 131.512C292.113 130.936 291.505 130.488 290.801 130.168C290.097 129.848 289.297 129.688 288.401 129.688C287.505 129.688 286.705 129.848 286.001 130.168C285.329 130.488 284.753 130.92 284.273 131.464C283.793 132.008 283.425 132.648 283.169 133.384C282.913 134.12 282.785 134.904 282.785 135.736C282.785 136.536 282.913 137.304 283.169 138.04C283.425 138.776 283.793 139.432 284.273 140.008C284.753 140.552 285.329 141 286.001 141.352C286.705 141.672 287.505 141.832 288.401 141.832C289.297 141.832 290.097 141.672 290.801 141.352C291.537 141 292.145 140.552 292.625 140.008C293.137 139.464 293.521 138.824 293.777 138.088C294.065 137.352 294.209 136.568 294.209 135.736ZM334.059 137.416H333.051C332.187 137.416 331.307 137.464 330.411 137.56C329.547 137.624 328.763 137.768 328.059 137.992C327.387 138.216 326.827 138.552 326.379 139C325.931 139.416 325.707 139.976 325.707 140.68C325.707 141.128 325.803 141.512 325.995 141.832C326.219 142.152 326.491 142.408 326.811 142.6C327.131 142.792 327.499 142.936 327.915 143.032C328.331 143.096 328.731 143.128 329.115 143.128C330.715 143.128 331.931 142.696 332.763 141.832C333.627 140.936 334.059 139.736 334.059 138.232V137.416ZM319.611 127.192C321.019 125.848 322.651 124.84 324.507 124.168C326.395 123.496 328.315 123.16 330.267 123.16C332.283 123.16 333.979 123.416 335.355 123.928C336.763 124.408 337.899 125.176 338.763 126.232C339.627 127.256 340.251 128.568 340.635 130.168C341.051 131.736 341.259 133.608 341.259 135.784V147.832H334.059V145.288H333.915C333.307 146.28 332.379 147.048 331.131 147.592C329.915 148.136 328.587 148.408 327.147 148.408C326.187 148.408 325.195 148.28 324.171 148.024C323.147 147.768 322.203 147.352 321.339 146.776C320.507 146.2 319.819 145.432 319.275 144.472C318.731 143.512 318.459 142.328 318.459 140.92C318.459 139.192 318.923 137.8 319.851 136.744C320.811 135.688 322.027 134.872 323.499 134.296C325.003 133.72 326.667 133.336 328.491 133.144C330.315 132.952 332.091 132.856 333.819 132.856V132.472C333.819 131.288 333.403 130.424 332.571 129.88C331.739 129.304 330.715 129.016 329.499 129.016C328.379 129.016 327.291 129.256 326.235 129.736C325.211 130.216 324.331 130.792 323.595 131.464L319.611 127.192ZM367.679 120.856V127.864H380.831V134.632H367.679V147.832H359.567V113.848H381.935V120.856H367.679ZM400.519 147.832V144.52H400.423C400.135 145.064 399.751 145.576 399.271 146.056C398.823 146.536 398.279 146.952 397.639 147.304C397.031 147.656 396.343 147.944 395.575 148.168C394.839 148.392 394.055 148.504 393.223 148.504C391.623 148.504 390.263 148.216 389.143 147.64C388.055 147.064 387.159 146.328 386.455 145.432C385.783 144.504 385.287 143.464 384.967 142.312C384.679 141.128 384.535 139.928 384.535 138.712V123.928H392.455V136.888C392.455 137.56 392.503 138.2 392.599 138.808C392.695 139.416 392.871 139.96 393.127 140.44C393.415 140.92 393.783 141.304 394.231 141.592C394.679 141.848 395.271 141.976 396.007 141.976C397.383 141.976 398.423 141.464 399.127 140.44C399.863 139.416 400.231 138.216 400.231 136.84V123.928H408.103V147.832H400.519ZM422.804 129.832V138.952C422.804 140.072 423.012 140.92 423.428 141.496C423.876 142.04 424.66 142.312 425.78 142.312C426.164 142.312 426.564 142.28 426.98 142.216C427.428 142.152 427.796 142.056 428.084 141.928L428.18 147.688C427.636 147.88 426.948 148.04 426.116 148.168C425.284 148.328 424.452 148.408 423.62 148.408C422.02 148.408 420.676 148.216 419.588 147.832C418.5 147.416 417.62 146.84 416.948 146.104C416.308 145.336 415.844 144.44 415.556 143.416C415.268 142.36 415.124 141.192 415.124 139.912V129.832H411.284V123.928H415.076V117.64H422.804V123.928H428.42V129.832H422.804ZM447.863 147.832V144.52H447.767C447.479 145.064 447.095 145.576 446.615 146.056C446.167 146.536 445.623 146.952 444.983 147.304C444.375 147.656 443.687 147.944 442.919 148.168C442.183 148.392 441.399 148.504 440.567 148.504C438.967 148.504 437.607 148.216 436.487 147.64C435.399 147.064 434.503 146.328 433.799 145.432C433.127 144.504 432.631 143.464 432.311 142.312C432.023 141.128 431.879 139.928 431.879 138.712V123.928H439.799V136.888C439.799 137.56 439.847 138.2 439.943 138.808C440.039 139.416 440.215 139.96 440.471 140.44C440.759 140.92 441.127 141.304 441.575 141.592C442.023 141.848 442.615 141.976 443.351 141.976C444.727 141.976 445.767 141.464 446.471 140.44C447.207 139.416 447.575 138.216 447.575 136.84V123.928H455.447V147.832H447.863ZM477.107 130.36C476.755 130.264 476.403 130.2 476.051 130.168C475.731 130.136 475.411 130.12 475.091 130.12C474.035 130.12 473.139 130.312 472.403 130.696C471.699 131.08 471.123 131.544 470.675 132.088C470.259 132.632 469.955 133.224 469.763 133.864C469.571 134.504 469.475 135.064 469.475 135.544V147.832H461.603V123.928H469.187V127.384H469.283C469.891 126.168 470.755 125.176 471.875 124.408C472.995 123.64 474.291 123.256 475.763 123.256C476.083 123.256 476.387 123.272 476.675 123.304C476.995 123.336 477.251 123.384 477.443 123.448L477.107 130.36ZM489.179 116.296C489.179 116.904 489.051 117.48 488.795 118.024C488.571 118.536 488.251 118.984 487.835 119.368C487.451 119.752 486.971 120.056 486.395 120.28C485.851 120.504 485.275 120.616 484.667 120.616C483.387 120.616 482.315 120.2 481.451 119.368C480.587 118.504 480.155 117.48 480.155 116.296C480.155 115.72 480.267 115.176 480.491 114.664C480.715 114.12 481.035 113.656 481.451 113.272C481.867 112.888 482.347 112.584 482.891 112.36C483.435 112.104 484.027 111.976 484.667 111.976C485.275 111.976 485.851 112.088 486.395 112.312C486.971 112.536 487.451 112.84 487.835 113.224C488.251 113.608 488.571 114.072 488.795 114.616C489.051 115.128 489.179 115.688 489.179 116.296ZM480.73 147.832V123.928H488.603V147.832H480.73ZM508.902 130.984C508.262 130.376 507.51 129.864 506.646 129.448C505.782 129.032 504.87 128.824 503.91 128.824C503.174 128.824 502.486 128.968 501.846 129.256C501.238 129.544 500.934 130.04 500.934 130.744C500.934 131.416 501.27 131.896 501.942 132.184C502.646 132.472 503.766 132.792 505.302 133.144C506.198 133.336 507.094 133.608 507.99 133.96C508.918 134.312 509.75 134.776 510.486 135.352C511.222 135.928 511.814 136.632 512.262 137.464C512.71 138.296 512.934 139.288 512.934 140.44C512.934 141.944 512.63 143.224 512.022 144.28C511.414 145.304 510.614 146.136 509.622 146.776C508.662 147.416 507.574 147.88 506.358 148.168C505.142 148.456 503.926 148.6 502.71 148.6C500.758 148.6 498.838 148.296 496.95 147.688C495.094 147.048 493.542 146.12 492.294 144.904L496.71 140.248C497.414 141.016 498.278 141.656 499.302 142.168C500.326 142.68 501.414 142.936 502.566 142.936C503.206 142.936 503.83 142.792 504.438 142.504C505.078 142.184 505.398 141.64 505.398 140.872C505.398 140.136 505.014 139.592 504.246 139.24C503.478 138.888 502.278 138.52 500.646 138.136C499.814 137.944 498.982 137.688 498.15 137.368C497.318 137.048 496.566 136.616 495.894 136.072C495.254 135.528 494.726 134.856 494.31 134.056C493.894 133.256 493.686 132.296 493.686 131.176C493.686 129.736 493.99 128.52 494.598 127.528C495.206 126.504 495.99 125.672 496.95 125.032C497.91 124.392 498.966 123.928 500.118 123.64C501.302 123.32 502.47 123.16 503.622 123.16C505.414 123.16 507.158 123.448 508.854 124.024C510.582 124.568 512.038 125.4 513.222 126.52L508.902 130.984ZM526.022 129.832V138.952C526.022 140.072 526.23 140.92 526.646 141.496C527.094 142.04 527.878 142.312 528.998 142.312C529.382 142.312 529.782 142.28 530.198 142.216C530.646 142.152 531.014 142.056 531.302 141.928L531.398 147.688C530.854 147.88 530.166 148.04 529.334 148.168C528.502 148.328 527.67 148.408 526.838 148.408C525.238 148.408 523.894 148.216 522.806 147.832C521.718 147.416 520.838 146.84 520.166 146.104C519.526 145.336 519.062 144.44 518.774 143.416C518.486 142.36 518.342 141.192 518.342 139.912V129.832H514.502V123.928H518.294V117.64H526.022V123.928H531.638V129.832H526.022ZM543.882 116.296C543.882 116.904 543.754 117.48 543.498 118.024C543.274 118.536 542.954 118.984 542.538 119.368C542.154 119.752 541.674 120.056 541.098 120.28C540.554 120.504 539.978 120.616 539.37 120.616C538.09 120.616 537.018 120.2 536.154 119.368C535.29 118.504 534.858 117.48 534.858 116.296C534.858 115.72 534.97 115.176 535.194 114.664C535.418 114.12 535.738 113.656 536.154 113.272C536.57 112.888 537.05 112.584 537.594 112.36C538.138 112.104 538.73 111.976 539.37 111.976C539.978 111.976 540.554 112.088 541.098 112.312C541.674 112.536 542.154 112.84 542.538 113.224C542.954 113.608 543.274 114.072 543.498 114.616C543.754 115.128 543.882 115.688 543.882 116.296ZM535.434 147.832V123.928H543.306V147.832H535.434ZM566.005 131.656C565.557 131.08 564.949 130.616 564.181 130.264C563.413 129.912 562.629 129.736 561.829 129.736C560.997 129.736 560.245 129.912 559.573 130.264C558.901 130.584 558.325 131.032 557.845 131.608C557.365 132.152 556.981 132.792 556.693 133.528C556.437 134.264 556.309 135.048 556.309 135.88C556.309 136.712 556.437 137.496 556.693 138.232C556.949 138.968 557.317 139.624 557.797 140.2C558.309 140.744 558.901 141.176 559.573 141.496C560.277 141.816 561.061 141.976 561.925 141.976C562.725 141.976 563.509 141.832 564.277 141.544C565.077 141.224 565.717 140.776 566.197 140.2L570.565 145.528C569.573 146.488 568.293 147.24 566.725 147.784C565.157 148.328 563.493 148.6 561.733 148.6C559.845 148.6 558.085 148.312 556.453 147.736C554.821 147.16 553.397 146.328 552.181 145.24C550.997 144.12 550.053 142.776 549.349 141.208C548.677 139.64 548.341 137.864 548.341 135.88C548.341 133.928 548.677 132.168 549.349 130.6C550.053 129.032 550.997 127.704 552.181 126.616C553.397 125.496 554.821 124.648 556.453 124.072C558.085 123.464 559.829 123.16 561.685 123.16C562.549 123.16 563.397 123.24 564.229 123.4C565.093 123.56 565.909 123.784 566.677 124.072C567.477 124.328 568.197 124.664 568.837 125.08C569.509 125.464 570.085 125.896 570.565 126.376L566.005 131.656ZM143.928 196.696C143.928 199.384 143.464 201.848 142.536 204.088C141.608 206.296 140.312 208.2 138.648 209.8C137.016 211.368 135.064 212.584 132.792 213.448C130.52 214.312 128.056 214.744 125.4 214.744C122.744 214.744 120.28 214.312 118.008 213.448C115.768 212.584 113.816 211.368 112.152 209.8C110.52 208.2 109.24 206.296 108.312 204.088C107.384 201.848 106.92 199.384 106.92 196.696C106.92 193.976 107.384 191.528 108.312 189.352C109.24 187.144 110.52 185.272 112.152 183.736C113.816 182.2 115.768 181.016 118.008 180.184C120.28 179.352 122.744 178.936 125.4 178.936C128.056 178.936 130.52 179.352 132.792 180.184C135.064 181.016 137.016 182.2 138.648 183.736C140.312 185.272 141.608 187.144 142.536 189.352C143.464 191.528 143.928 193.976 143.928 196.696ZM135.144 196.696C135.144 195.224 134.904 193.848 134.424 192.568C133.944 191.288 133.272 190.2 132.408 189.304C131.576 188.376 130.552 187.656 129.336 187.144C128.152 186.6 126.84 186.328 125.4 186.328C123.96 186.328 122.648 186.6 121.464 187.144C120.28 187.656 119.256 188.376 118.392 189.304C117.528 190.2 116.856 191.288 116.376 192.568C115.928 193.848 115.704 195.224 115.704 196.696C115.704 198.232 115.944 199.656 116.424 200.968C116.904 202.248 117.56 203.352 118.392 204.28C119.256 205.208 120.28 205.944 121.464 206.488C122.648 207 123.96 207.256 125.4 207.256C126.84 207.256 128.152 207 129.336 206.488C130.52 205.944 131.544 205.208 132.408 204.28C133.272 203.352 133.944 202.248 134.424 200.968C134.904 199.656 135.144 198.232 135.144 196.696ZM179.428 213.832V200.776C179.428 200.104 179.38 199.464 179.284 198.856C179.188 198.216 179.012 197.672 178.756 197.224C178.5 196.776 178.148 196.424 177.7 196.168C177.284 195.88 176.724 195.736 176.02 195.736C175.348 195.736 174.756 195.88 174.244 196.168C173.764 196.456 173.348 196.84 172.996 197.32C172.676 197.8 172.436 198.36 172.276 199C172.116 199.608 172.036 200.248 172.036 200.92V213.832H164.164V200.2C164.164 198.824 163.892 197.736 163.348 196.936C162.804 196.136 161.94 195.736 160.756 195.736C159.508 195.736 158.532 196.232 157.828 197.224C157.156 198.216 156.82 199.432 156.82 200.872V213.832H148.9V189.928H156.532V193.24H156.628C156.916 192.728 157.268 192.232 157.684 191.752C158.132 191.272 158.66 190.856 159.268 190.504C159.876 190.12 160.548 189.816 161.284 189.592C162.052 189.368 162.884 189.256 163.78 189.256C165.508 189.256 166.964 189.608 168.148 190.312C169.364 191.016 170.308 192.024 170.98 193.336C171.78 192.088 172.804 191.096 174.052 190.36C175.3 189.624 176.82 189.256 178.612 189.256C180.244 189.256 181.604 189.56 182.692 190.168C183.812 190.744 184.708 191.512 185.38 192.472C186.052 193.4 186.532 194.456 186.82 195.64C187.14 196.792 187.3 197.928 187.3 199.048V213.832H179.428ZM208.94 213.832V200.776C208.94 200.104 208.876 199.464 208.748 198.856C208.652 198.248 208.476 197.72 208.22 197.272C207.964 196.792 207.596 196.424 207.116 196.168C206.668 195.88 206.092 195.736 205.388 195.736C204.684 195.736 204.06 195.88 203.516 196.168C203.004 196.424 202.572 196.792 202.22 197.272C201.868 197.752 201.596 198.312 201.404 198.952C201.244 199.56 201.164 200.2 201.164 200.872V213.832H193.244V189.928H200.876V193.24H200.972C201.26 192.728 201.628 192.232 202.076 191.752C202.556 191.24 203.1 190.808 203.708 190.456C204.348 190.104 205.036 189.816 205.772 189.592C206.508 189.368 207.292 189.256 208.124 189.256C209.724 189.256 211.084 189.544 212.204 190.12C213.324 190.696 214.22 191.448 214.892 192.376C215.596 193.272 216.092 194.312 216.38 195.496C216.7 196.68 216.86 197.864 216.86 199.048V213.832H208.94ZM231.366 182.296C231.366 182.904 231.238 183.48 230.982 184.024C230.758 184.536 230.438 184.984 230.022 185.368C229.638 185.752 229.158 186.056 228.582 186.28C228.038 186.504 227.462 186.616 226.854 186.616C225.574 186.616 224.502 186.2 223.638 185.368C222.774 184.504 222.342 183.48 222.342 182.296C222.342 181.72 222.454 181.176 222.678 180.664C222.902 180.12 223.222 179.656 223.638 179.272C224.054 178.888 224.534 178.584 225.078 178.36C225.622 178.104 226.214 177.976 226.854 177.976C227.462 177.976 228.038 178.088 228.582 178.312C229.158 178.536 229.638 178.84 230.022 179.224C230.438 179.608 230.758 180.072 230.982 180.616C231.238 181.128 231.366 181.688 231.366 182.296ZM222.918 213.832V189.928H230.79V213.832H222.918ZM235.681 204.376V198.136H247.873V204.376H235.681ZM283.017 209.128C281.513 210.856 279.657 212.232 277.449 213.256C275.241 214.248 272.697 214.744 269.817 214.744C267.193 214.744 264.761 214.312 262.521 213.448C260.313 212.584 258.393 211.368 256.761 209.8C255.129 208.2 253.849 206.296 252.921 204.088C251.993 201.88 251.529 199.448 251.529 196.792C251.529 194.072 251.993 191.608 252.921 189.4C253.881 187.192 255.193 185.32 256.857 183.784C258.521 182.216 260.473 181.016 262.713 180.184C264.953 179.352 267.369 178.936 269.961 178.936C272.361 178.936 274.713 179.368 277.017 180.232C279.353 181.064 281.241 182.296 282.681 183.928L277.113 189.496C276.345 188.44 275.337 187.656 274.089 187.144C272.841 186.632 271.561 186.376 270.249 186.376C268.809 186.376 267.481 186.648 266.265 187.192C265.081 187.704 264.057 188.424 263.193 189.352C262.329 190.28 261.657 191.384 261.177 192.664C260.697 193.912 260.457 195.288 260.457 196.792C260.457 198.328 260.697 199.736 261.177 201.016C261.657 202.296 262.313 203.4 263.145 204.328C264.009 205.224 265.033 205.928 266.217 206.44C267.401 206.952 268.697 207.208 270.105 207.208C271.737 207.208 273.161 206.888 274.377 206.248C275.593 205.608 276.569 204.776 277.305 203.752L283.017 209.128ZM301.847 213.832V200.872C301.847 200.2 301.799 199.56 301.703 198.952C301.607 198.344 301.415 197.816 301.127 197.368C300.871 196.888 300.519 196.52 300.071 196.264C299.623 195.976 299.047 195.832 298.343 195.832C296.967 195.832 295.911 196.328 295.175 197.32C294.439 198.28 294.071 199.48 294.071 200.92V213.832H286.199V177.544H294.071V192.952H294.167C294.711 191.992 295.575 191.144 296.759 190.408C297.943 189.64 299.367 189.256 301.031 189.256C302.663 189.256 304.023 189.544 305.111 190.12C306.231 190.696 307.127 191.448 307.799 192.376C308.503 193.272 308.999 194.312 309.287 195.496C309.607 196.68 309.767 197.864 309.767 199.048V213.832H301.847ZM329.84 203.416H328.832C327.968 203.416 327.088 203.464 326.192 203.56C325.328 203.624 324.544 203.768 323.84 203.992C323.168 204.216 322.608 204.552 322.16 205C321.712 205.416 321.488 205.976 321.488 206.68C321.488 207.128 321.584 207.512 321.776 207.832C322 208.152 322.272 208.408 322.592 208.6C322.912 208.792 323.28 208.936 323.696 209.032C324.112 209.096 324.512 209.128 324.896 209.128C326.496 209.128 327.712 208.696 328.544 207.832C329.408 206.936 329.84 205.736 329.84 204.232V203.416ZM315.392 193.192C316.8 191.848 318.432 190.84 320.288 190.168C322.176 189.496 324.096 189.16 326.048 189.16C328.064 189.16 329.76 189.416 331.136 189.928C332.544 190.408 333.68 191.176 334.544 192.232C335.408 193.256 336.032 194.568 336.416 196.168C336.832 197.736 337.04 199.608 337.04 201.784V213.832H329.84V211.288H329.696C329.088 212.28 328.16 213.048 326.912 213.592C325.696 214.136 324.368 214.408 322.928 214.408C321.968 214.408 320.976 214.28 319.952 214.024C318.928 213.768 317.984 213.352 317.12 212.776C316.288 212.2 315.6 211.432 315.056 210.472C314.512 209.512 314.24 208.328 314.24 206.92C314.24 205.192 314.704 203.8 315.632 202.744C316.592 201.688 317.808 200.872 319.28 200.296C320.784 199.72 322.448 199.336 324.272 199.144C326.096 198.952 327.872 198.856 329.6 198.856V198.472C329.6 197.288 329.184 196.424 328.352 195.88C327.52 195.304 326.496 195.016 325.28 195.016C324.16 195.016 323.072 195.256 322.016 195.736C320.992 196.216 320.112 196.792 319.376 197.464L315.392 193.192ZM358.612 213.832V200.776C358.612 200.104 358.548 199.464 358.42 198.856C358.324 198.248 358.148 197.72 357.892 197.272C357.636 196.792 357.268 196.424 356.788 196.168C356.34 195.88 355.764 195.736 355.06 195.736C354.356 195.736 353.732 195.88 353.188 196.168C352.676 196.424 352.244 196.792 351.892 197.272C351.54 197.752 351.268 198.312 351.076 198.952C350.916 199.56 350.836 200.2 350.836 200.872V213.832H342.916V189.928H350.548V193.24H350.644C350.932 192.728 351.3 192.232 351.748 191.752C352.228 191.24 352.772 190.808 353.38 190.456C354.02 190.104 354.708 189.816 355.444 189.592C356.18 189.368 356.964 189.256 357.796 189.256C359.396 189.256 360.756 189.544 361.876 190.12C362.996 190.696 363.892 191.448 364.564 192.376C365.268 193.272 365.764 194.312 366.052 195.496C366.372 196.68 366.532 197.864 366.532 199.048V213.832H358.612ZM388.19 213.832V200.776C388.19 200.104 388.126 199.464 387.998 198.856C387.902 198.248 387.726 197.72 387.47 197.272C387.214 196.792 386.846 196.424 386.366 196.168C385.918 195.88 385.342 195.736 384.638 195.736C383.934 195.736 383.31 195.88 382.766 196.168C382.254 196.424 381.822 196.792 381.47 197.272C381.118 197.752 380.846 198.312 380.654 198.952C380.494 199.56 380.414 200.2 380.414 200.872V213.832H372.494V189.928H380.126V193.24H380.222C380.51 192.728 380.878 192.232 381.326 191.752C381.806 191.24 382.35 190.808 382.958 190.456C383.598 190.104 384.286 189.816 385.022 189.592C385.758 189.368 386.542 189.256 387.374 189.256C388.974 189.256 390.334 189.544 391.454 190.12C392.574 190.696 393.47 191.448 394.142 192.376C394.846 193.272 395.342 194.312 395.63 195.496C395.95 196.68 396.11 197.864 396.11 199.048V213.832H388.19ZM418.536 199.144C418.536 197.896 418.136 196.824 417.336 195.928C416.568 195.032 415.4 194.584 413.832 194.584C413.064 194.584 412.36 194.712 411.72 194.968C411.08 195.192 410.52 195.512 410.04 195.928C409.56 196.344 409.176 196.84 408.888 197.416C408.6 197.96 408.44 198.536 408.408 199.144H418.536ZM425.784 202.168C425.784 202.488 425.784 202.808 425.784 203.128C425.784 203.448 425.768 203.752 425.736 204.04H408.408C408.472 204.712 408.664 205.32 408.984 205.864C409.336 206.408 409.768 206.888 410.28 207.304C410.824 207.688 411.416 207.992 412.056 208.216C412.728 208.44 413.416 208.552 414.12 208.552C415.368 208.552 416.424 208.328 417.288 207.88C418.152 207.4 418.856 206.792 419.4 206.056L424.872 209.512C423.752 211.144 422.264 212.408 420.408 213.304C418.584 214.168 416.456 214.6 414.024 214.6C412.232 214.6 410.536 214.328 408.936 213.784C407.336 213.208 405.928 212.392 404.712 211.336C403.528 210.248 402.584 208.92 401.88 207.352C401.208 205.784 400.872 203.992 400.872 201.976C400.872 200.024 401.208 198.264 401.88 196.696C402.552 195.096 403.464 193.752 404.616 192.664C405.768 191.544 407.128 190.68 408.696 190.072C410.264 189.464 411.96 189.16 413.784 189.16C415.544 189.16 417.16 189.464 418.632 190.072C420.104 190.648 421.368 191.496 422.424 192.616C423.48 193.736 424.296 195.096 424.872 196.696C425.48 198.296 425.784 200.12 425.784 202.168ZM430.762 213.832V177.544H438.73V213.832H430.762ZM457.395 213.832V179.848H480.243V186.808H465.315V193.192H479.427V199.768H465.315V206.824H481.107V213.832H457.395ZM502.439 213.832L497.303 206.488L492.023 213.832H482.903L492.455 201.304L483.815 189.928H492.983L497.447 196.312L501.959 189.928H510.839L502.247 201.304L511.703 213.832H502.439ZM541.211 201.784C541.211 203.448 540.955 205.048 540.443 206.584C539.931 208.12 539.179 209.48 538.187 210.664C537.227 211.816 536.043 212.744 534.635 213.448C533.227 214.152 531.627 214.504 529.835 214.504C528.363 214.504 526.971 214.216 525.659 213.64C524.347 213.032 523.323 212.216 522.587 211.192H522.491V225.352H514.619V189.928H522.107V192.856H522.251C522.987 191.896 523.995 191.064 525.275 190.36C526.587 189.624 528.123 189.256 529.883 189.256C531.611 189.256 533.179 189.592 534.587 190.264C535.995 190.936 537.179 191.848 538.139 193C539.131 194.152 539.883 195.496 540.395 197.032C540.939 198.536 541.211 200.12 541.211 201.784ZM533.579 201.784C533.579 201.016 533.451 200.264 533.195 199.528C532.971 198.792 532.619 198.152 532.139 197.608C531.691 197.032 531.115 196.568 530.411 196.216C529.707 195.864 528.891 195.688 527.963 195.688C527.067 195.688 526.267 195.864 525.563 196.216C524.859 196.568 524.251 197.032 523.739 197.608C523.259 198.184 522.875 198.84 522.587 199.576C522.331 200.312 522.203 201.064 522.203 201.832C522.203 202.6 522.331 203.352 522.587 204.088C522.875 204.824 523.259 205.48 523.739 206.056C524.251 206.632 524.859 207.096 525.563 207.448C526.267 207.8 527.067 207.976 527.963 207.976C528.891 207.976 529.707 207.8 530.411 207.448C531.115 207.096 531.691 206.632 532.139 206.056C532.619 205.48 532.971 204.824 533.195 204.088C533.451 203.32 533.579 202.552 533.579 201.784ZM562.63 199.144C562.63 197.896 562.23 196.824 561.43 195.928C560.662 195.032 559.494 194.584 557.926 194.584C557.158 194.584 556.454 194.712 555.814 194.968C555.174 195.192 554.614 195.512 554.134 195.928C553.654 196.344 553.27 196.84 552.982 197.416C552.694 197.96 552.534 198.536 552.502 199.144H562.63ZM569.878 202.168C569.878 202.488 569.878 202.808 569.878 203.128C569.878 203.448 569.862 203.752 569.83 204.04H552.502C552.566 204.712 552.758 205.32 553.078 205.864C553.43 206.408 553.862 206.888 554.374 207.304C554.918 207.688 555.51 207.992 556.15 208.216C556.822 208.44 557.51 208.552 558.214 208.552C559.462 208.552 560.518 208.328 561.382 207.88C562.246 207.4 562.95 206.792 563.494 206.056L568.966 209.512C567.846 211.144 566.358 212.408 564.502 213.304C562.678 214.168 560.55 214.6 558.118 214.6C556.326 214.6 554.63 214.328 553.03 213.784C551.43 213.208 550.022 212.392 548.806 211.336C547.622 210.248 546.678 208.92 545.974 207.352C545.302 205.784 544.966 203.992 544.966 201.976C544.966 200.024 545.302 198.264 545.974 196.696C546.646 195.096 547.558 193.752 548.71 192.664C549.862 191.544 551.222 190.68 552.79 190.072C554.358 189.464 556.054 189.16 557.878 189.16C559.638 189.16 561.254 189.464 562.726 190.072C564.198 190.648 565.462 191.496 566.518 192.616C567.574 193.736 568.39 195.096 568.966 196.696C569.574 198.296 569.878 200.12 569.878 202.168ZM590.264 196.36C589.912 196.264 589.56 196.2 589.208 196.168C588.888 196.136 588.568 196.12 588.248 196.12C587.192 196.12 586.296 196.312 585.56 196.696C584.856 197.08 584.28 197.544 583.832 198.088C583.416 198.632 583.112 199.224 582.92 199.864C582.728 200.504 582.632 201.064 582.632 201.544V213.832H574.76V189.928H582.344V193.384H582.44C583.048 192.168 583.912 191.176 585.032 190.408C586.152 189.64 587.448 189.256 588.92 189.256C589.24 189.256 589.544 189.272 589.832 189.304C590.152 189.336 590.408 189.384 590.6 189.448L590.264 196.36ZM602.335 182.296C602.335 182.904 602.207 183.48 601.951 184.024C601.727 184.536 601.407 184.984 600.991 185.368C600.607 185.752 600.127 186.056 599.551 186.28C599.007 186.504 598.431 186.616 597.823 186.616C596.543 186.616 595.471 186.2 594.607 185.368C593.743 184.504 593.311 183.48 593.311 182.296C593.311 181.72 593.423 181.176 593.647 180.664C593.871 180.12 594.191 179.656 594.607 179.272C595.023 178.888 595.503 178.584 596.047 178.36C596.591 178.104 597.183 177.976 597.823 177.976C598.431 177.976 599.007 178.088 599.551 178.312C600.127 178.536 600.607 178.84 600.991 179.224C601.407 179.608 601.727 180.072 601.951 180.616C602.207 181.128 602.335 181.688 602.335 182.296ZM593.887 213.832V189.928H601.759V213.832H593.887ZM624.458 199.144C624.458 197.896 624.058 196.824 623.258 195.928C622.49 195.032 621.322 194.584 619.754 194.584C618.986 194.584 618.282 194.712 617.642 194.968C617.002 195.192 616.442 195.512 615.962 195.928C615.482 196.344 615.098 196.84 614.81 197.416C614.522 197.96 614.362 198.536 614.33 199.144H624.458ZM631.706 202.168C631.706 202.488 631.706 202.808 631.706 203.128C631.706 203.448 631.69 203.752 631.658 204.04H614.33C614.394 204.712 614.586 205.32 614.906 205.864C615.258 206.408 615.69 206.888 616.202 207.304C616.746 207.688 617.338 207.992 617.978 208.216C618.65 208.44 619.338 208.552 620.042 208.552C621.29 208.552 622.346 208.328 623.21 207.88C624.074 207.4 624.778 206.792 625.322 206.056L630.794 209.512C629.674 211.144 628.186 212.408 626.33 213.304C624.506 214.168 622.378 214.6 619.946 214.6C618.154 214.6 616.458 214.328 614.858 213.784C613.258 213.208 611.85 212.392 610.634 211.336C609.45 210.248 608.506 208.92 607.802 207.352C607.13 205.784 606.794 203.992 606.794 201.976C606.794 200.024 607.13 198.264 607.802 196.696C608.474 195.096 609.386 193.752 610.538 192.664C611.69 191.544 613.05 190.68 614.618 190.072C616.186 189.464 617.882 189.16 619.706 189.16C621.466 189.16 623.082 189.464 624.554 190.072C626.026 190.648 627.29 191.496 628.346 192.616C629.402 193.736 630.218 195.096 630.794 196.696C631.402 198.296 631.706 200.12 631.706 202.168ZM652.284 213.832V200.776C652.284 200.104 652.22 199.464 652.092 198.856C651.996 198.248 651.82 197.72 651.564 197.272C651.308 196.792 650.94 196.424 650.46 196.168C650.012 195.88 649.436 195.736 648.732 195.736C648.028 195.736 647.404 195.88 646.86 196.168C646.348 196.424 645.916 196.792 645.564 197.272C645.212 197.752 644.94 198.312 644.748 198.952C644.588 199.56 644.508 200.2 644.508 200.872V213.832H636.588V189.928H644.22V193.24H644.316C644.604 192.728 644.972 192.232 645.42 191.752C645.9 191.24 646.444 190.808 647.052 190.456C647.692 190.104 648.38 189.816 649.116 189.592C649.852 189.368 650.636 189.256 651.468 189.256C653.068 189.256 654.428 189.544 655.548 190.12C656.668 190.696 657.564 191.448 658.236 192.376C658.94 193.272 659.436 194.312 659.724 195.496C660.044 196.68 660.204 197.864 660.204 199.048V213.832H652.284ZM682.63 197.656C682.182 197.08 681.574 196.616 680.806 196.264C680.038 195.912 679.254 195.736 678.454 195.736C677.622 195.736 676.87 195.912 676.198 196.264C675.526 196.584 674.95 197.032 674.47 197.608C673.99 198.152 673.606 198.792 673.318 199.528C673.062 200.264 672.934 201.048 672.934 201.88C672.934 202.712 673.062 203.496 673.318 204.232C673.574 204.968 673.942 205.624 674.422 206.2C674.934 206.744 675.526 207.176 676.198 207.496C676.902 207.816 677.686 207.976 678.55 207.976C679.35 207.976 680.134 207.832 680.902 207.544C681.702 207.224 682.342 206.776 682.822 206.2L687.19 211.528C686.198 212.488 684.918 213.24 683.35 213.784C681.782 214.328 680.118 214.6 678.358 214.6C676.47 214.6 674.71 214.312 673.078 213.736C671.446 213.16 670.022 212.328 668.806 211.24C667.622 210.12 666.678 208.776 665.974 207.208C665.302 205.64 664.966 203.864 664.966 201.88C664.966 199.928 665.302 198.168 665.974 196.6C666.678 195.032 667.622 193.704 668.806 192.616C670.022 191.496 671.446 190.648 673.078 190.072C674.71 189.464 676.454 189.16 678.31 189.16C679.174 189.16 680.022 189.24 680.854 189.4C681.718 189.56 682.534 189.784 683.302 190.072C684.102 190.328 684.822 190.664 685.462 191.08C686.134 191.464 686.71 191.896 687.19 192.376L682.63 197.656ZM706.77 199.144C706.77 197.896 706.37 196.824 705.57 195.928C704.802 195.032 703.634 194.584 702.066 194.584C701.298 194.584 700.594 194.712 699.954 194.968C699.314 195.192 698.754 195.512 698.274 195.928C697.794 196.344 697.41 196.84 697.122 197.416C696.834 197.96 696.674 198.536 696.642 199.144H706.77ZM714.018 202.168C714.018 202.488 714.018 202.808 714.018 203.128C714.018 203.448 714.002 203.752 713.97 204.04H696.642C696.706 204.712 696.898 205.32 697.218 205.864C697.57 206.408 698.002 206.888 698.514 207.304C699.058 207.688 699.65 207.992 700.29 208.216C700.962 208.44 701.65 208.552 702.354 208.552C703.602 208.552 704.658 208.328 705.522 207.88C706.386 207.4 707.09 206.792 707.634 206.056L713.106 209.512C711.986 211.144 710.498 212.408 708.642 213.304C706.818 214.168 704.69 214.6 702.258 214.6C700.466 214.6 698.77 214.328 697.17 213.784C695.57 213.208 694.162 212.392 692.946 211.336C691.762 210.248 690.818 208.92 690.114 207.352C689.442 205.784 689.106 203.992 689.106 201.976C689.106 200.024 689.442 198.264 690.114 196.696C690.786 195.096 691.698 193.752 692.85 192.664C694.002 191.544 695.362 190.68 696.93 190.072C698.498 189.464 700.194 189.16 702.018 189.16C703.778 189.16 705.394 189.464 706.866 190.072C708.338 190.648 709.602 191.496 710.658 192.616C711.714 193.736 712.53 195.096 713.106 196.696C713.714 198.296 714.018 200.12 714.018 202.168ZM122.904 248.352C122.616 248.256 122.28 248.176 121.896 248.112C121.512 248.048 121.128 248.016 120.744 248.016C120.008 248.016 119.416 248.144 118.968 248.4C118.52 248.656 118.168 249.008 117.912 249.456C117.656 249.872 117.48 250.352 117.384 250.896C117.288 251.44 117.24 251.984 117.24 252.528V254.928H122.568V260.832H117.24V278.832H109.368V260.832H105V254.928H109.368V252.624C109.368 251.152 109.528 249.76 109.848 248.448C110.168 247.104 110.712 245.936 111.48 244.944C112.28 243.92 113.336 243.12 114.648 242.544C115.992 241.936 117.656 241.632 119.64 241.632C120.312 241.632 120.968 241.68 121.608 241.776C122.28 241.84 122.888 241.952 123.432 242.112L122.904 248.352ZM150.9 266.784C150.9 268.736 150.548 270.512 149.844 272.112C149.14 273.68 148.18 275.024 146.964 276.144C145.748 277.232 144.34 278.08 142.74 278.688C141.14 279.296 139.428 279.6 137.604 279.6C135.812 279.6 134.1 279.296 132.468 278.688C130.868 278.08 129.46 277.232 128.244 276.144C127.06 275.024 126.116 273.68 125.412 272.112C124.708 270.512 124.356 268.736 124.356 266.784C124.356 264.832 124.708 263.072 125.412 261.504C126.116 259.936 127.06 258.608 128.244 257.52C129.46 256.432 130.868 255.6 132.468 255.024C134.1 254.448 135.812 254.16 137.604 254.16C139.428 254.16 141.14 254.448 142.74 255.024C144.34 255.6 145.748 256.432 146.964 257.52C148.18 258.608 149.14 259.936 149.844 261.504C150.548 263.072 150.9 264.832 150.9 266.784ZM143.316 266.784C143.316 266.016 143.188 265.264 142.932 264.528C142.676 263.792 142.308 263.152 141.828 262.608C141.348 262.032 140.756 261.568 140.052 261.216C139.348 260.864 138.532 260.688 137.604 260.688C136.676 260.688 135.86 260.864 135.156 261.216C134.452 261.568 133.86 262.032 133.38 262.608C132.932 263.152 132.58 263.792 132.324 264.528C132.1 265.264 131.988 266.016 131.988 266.784C131.988 267.552 132.1 268.304 132.324 269.04C132.58 269.776 132.948 270.448 133.428 271.056C133.908 271.632 134.5 272.096 135.204 272.448C135.908 272.8 136.724 272.976 137.652 272.976C138.58 272.976 139.396 272.8 140.1 272.448C140.804 272.096 141.396 271.632 141.876 271.056C142.356 270.448 142.708 269.776 142.932 269.04C143.188 268.304 143.316 267.552 143.316 266.784ZM171.389 261.36C171.037 261.264 170.685 261.2 170.333 261.168C170.013 261.136 169.693 261.12 169.373 261.12C168.317 261.12 167.421 261.312 166.685 261.696C165.981 262.08 165.405 262.544 164.957 263.088C164.541 263.632 164.237 264.224 164.045 264.864C163.853 265.504 163.757 266.064 163.757 266.544V278.832H155.885V254.928H163.469V258.384H163.565C164.173 257.168 165.037 256.176 166.157 255.408C167.277 254.64 168.573 254.256 170.045 254.256C170.365 254.256 170.669 254.272 170.957 254.304C171.277 254.336 171.533 254.384 171.725 254.448L171.389 261.36ZM209.544 278.832L206.904 272.16H193.752L191.256 278.832H182.328L196.584 244.848H204.552L218.664 278.832H209.544ZM200.424 253.92L196.104 265.584H204.648L200.424 253.92ZM251.569 278.832V265.776C251.569 265.104 251.521 264.464 251.425 263.856C251.329 263.216 251.153 262.672 250.897 262.224C250.641 261.776 250.289 261.424 249.841 261.168C249.425 260.88 248.865 260.736 248.161 260.736C247.489 260.736 246.897 260.88 246.385 261.168C245.905 261.456 245.489 261.84 245.137 262.32C244.817 262.8 244.577 263.36 244.417 264C244.257 264.608 244.177 265.248 244.177 265.92V278.832H236.305V265.2C236.305 263.824 236.033 262.736 235.489 261.936C234.945 261.136 234.081 260.736 232.897 260.736C231.649 260.736 230.673 261.232 229.969 262.224C229.297 263.216 228.961 264.432 228.961 265.872V278.832H221.041V254.928H228.673V258.24H228.769C229.057 257.728 229.409 257.232 229.825 256.752C230.273 256.272 230.801 255.856 231.409 255.504C232.017 255.12 232.689 254.816 233.425 254.592C234.193 254.368 235.025 254.256 235.921 254.256C237.649 254.256 239.105 254.608 240.289 255.312C241.505 256.016 242.449 257.024 243.121 258.336C243.921 257.088 244.945 256.096 246.193 255.36C247.441 254.624 248.961 254.256 250.753 254.256C252.385 254.256 253.745 254.56 254.833 255.168C255.953 255.744 256.849 256.512 257.521 257.472C258.193 258.4 258.673 259.456 258.961 260.64C259.281 261.792 259.441 262.928 259.441 264.048V278.832H251.569ZM281.849 264.144C281.849 262.896 281.449 261.824 280.649 260.928C279.881 260.032 278.713 259.584 277.145 259.584C276.377 259.584 275.673 259.712 275.033 259.968C274.393 260.192 273.833 260.512 273.353 260.928C272.873 261.344 272.489 261.84 272.201 262.416C271.913 262.96 271.753 263.536 271.721 264.144H281.849ZM289.097 267.168C289.097 267.488 289.097 267.808 289.097 268.128C289.097 268.448 289.081 268.752 289.049 269.04H271.721C271.785 269.712 271.977 270.32 272.297 270.864C272.649 271.408 273.081 271.888 273.593 272.304C274.137 272.688 274.729 272.992 275.369 273.216C276.041 273.44 276.729 273.552 277.433 273.552C278.681 273.552 279.737 273.328 280.601 272.88C281.465 272.4 282.169 271.792 282.713 271.056L288.185 274.512C287.065 276.144 285.577 277.408 283.721 278.304C281.897 279.168 279.769 279.6 277.337 279.6C275.545 279.6 273.849 279.328 272.249 278.784C270.649 278.208 269.241 277.392 268.025 276.336C266.841 275.248 265.897 273.92 265.193 272.352C264.521 270.784 264.185 268.992 264.185 266.976C264.185 265.024 264.521 263.264 265.193 261.696C265.865 260.096 266.777 258.752 267.929 257.664C269.081 256.544 270.441 255.68 272.009 255.072C273.577 254.464 275.273 254.16 277.097 254.16C278.857 254.16 280.473 254.464 281.945 255.072C283.417 255.648 284.681 256.496 285.737 257.616C286.793 258.736 287.609 260.096 288.185 261.696C288.793 263.296 289.097 265.12 289.097 267.168ZM309.482 261.36C309.13 261.264 308.778 261.2 308.426 261.168C308.106 261.136 307.786 261.12 307.466 261.12C306.41 261.12 305.514 261.312 304.778 261.696C304.074 262.08 303.498 262.544 303.05 263.088C302.634 263.632 302.33 264.224 302.138 264.864C301.946 265.504 301.85 266.064 301.85 266.544V278.832H293.978V254.928H301.562V258.384H301.658C302.266 257.168 303.13 256.176 304.25 255.408C305.37 254.64 306.666 254.256 308.138 254.256C308.458 254.256 308.762 254.272 309.05 254.304C309.37 254.336 309.626 254.384 309.818 254.448L309.482 261.36ZM321.554 247.296C321.554 247.904 321.426 248.48 321.17 249.024C320.946 249.536 320.626 249.984 320.21 250.368C319.826 250.752 319.346 251.056 318.77 251.28C318.226 251.504 317.65 251.616 317.042 251.616C315.762 251.616 314.69 251.2 313.826 250.368C312.962 249.504 312.53 248.48 312.53 247.296C312.53 246.72 312.642 246.176 312.866 245.664C313.09 245.12 313.41 244.656 313.826 244.272C314.242 243.888 314.722 243.584 315.266 243.36C315.81 243.104 316.402 242.976 317.042 242.976C317.65 242.976 318.226 243.088 318.77 243.312C319.346 243.536 319.826 243.84 320.21 244.224C320.626 244.608 320.946 245.072 321.17 245.616C321.426 246.128 321.554 246.688 321.554 247.296ZM313.105 278.832V254.928H320.978V278.832H313.105ZM343.677 262.656C343.229 262.08 342.621 261.616 341.853 261.264C341.085 260.912 340.301 260.736 339.501 260.736C338.669 260.736 337.917 260.912 337.245 261.264C336.573 261.584 335.997 262.032 335.517 262.608C335.037 263.152 334.653 263.792 334.365 264.528C334.109 265.264 333.981 266.048 333.981 266.88C333.981 267.712 334.109 268.496 334.365 269.232C334.621 269.968 334.989 270.624 335.469 271.2C335.981 271.744 336.573 272.176 337.245 272.496C337.949 272.816 338.733 272.976 339.597 272.976C340.397 272.976 341.181 272.832 341.949 272.544C342.749 272.224 343.389 271.776 343.869 271.2L348.237 276.528C347.245 277.488 345.965 278.24 344.397 278.784C342.829 279.328 341.165 279.6 339.405 279.6C337.517 279.6 335.757 279.312 334.125 278.736C332.493 278.16 331.069 277.328 329.853 276.24C328.669 275.12 327.725 273.776 327.021 272.208C326.349 270.64 326.013 268.864 326.013 266.88C326.013 264.928 326.349 263.168 327.021 261.6C327.725 260.032 328.669 258.704 329.853 257.616C331.069 256.496 332.493 255.648 334.125 255.072C335.757 254.464 337.501 254.16 339.357 254.16C340.221 254.16 341.069 254.24 341.901 254.4C342.765 254.56 343.581 254.784 344.349 255.072C345.149 255.328 345.869 255.664 346.509 256.08C347.181 256.464 347.757 256.896 348.237 257.376L343.677 262.656ZM365.465 268.416H364.457C363.593 268.416 362.713 268.464 361.817 268.56C360.953 268.624 360.169 268.768 359.465 268.992C358.793 269.216 358.233 269.552 357.785 270C357.337 270.416 357.113 270.976 357.113 271.68C357.113 272.128 357.209 272.512 357.401 272.832C357.625 273.152 357.897 273.408 358.217 273.6C358.537 273.792 358.905 273.936 359.321 274.032C359.737 274.096 360.137 274.128 360.521 274.128C362.121 274.128 363.337 273.696 364.169 272.832C365.033 271.936 365.465 270.736 365.465 269.232V268.416ZM351.017 258.192C352.425 256.848 354.057 255.84 355.913 255.168C357.801 254.496 359.721 254.16 361.673 254.16C363.689 254.16 365.385 254.416 366.761 254.928C368.169 255.408 369.305 256.176 370.169 257.232C371.033 258.256 371.657 259.568 372.041 261.168C372.457 262.736 372.665 264.608 372.665 266.784V278.832H365.465V276.288H365.321C364.713 277.28 363.785 278.048 362.537 278.592C361.321 279.136 359.993 279.408 358.553 279.408C357.593 279.408 356.601 279.28 355.577 279.024C354.553 278.768 353.609 278.352 352.745 277.776C351.913 277.2 351.225 276.432 350.681 275.472C350.137 274.512 349.865 273.328 349.865 271.92C349.865 270.192 350.329 268.8 351.257 267.744C352.217 266.688 353.433 265.872 354.905 265.296C356.409 264.72 358.073 264.336 359.897 264.144C361.721 263.952 363.497 263.856 365.225 263.856V263.472C365.225 262.288 364.809 261.424 363.977 260.88C363.145 260.304 362.121 260.016 360.905 260.016C359.785 260.016 358.697 260.256 357.641 260.736C356.617 261.216 355.737 261.792 355.001 262.464L351.017 258.192ZM394.237 278.832V265.776C394.237 265.104 394.173 264.464 394.045 263.856C393.949 263.248 393.773 262.72 393.517 262.272C393.261 261.792 392.893 261.424 392.413 261.168C391.965 260.88 391.389 260.736 390.685 260.736C389.981 260.736 389.357 260.88 388.813 261.168C388.301 261.424 387.869 261.792 387.517 262.272C387.165 262.752 386.893 263.312 386.701 263.952C386.541 264.56 386.461 265.2 386.461 265.872V278.832H378.541V254.928H386.173V258.24H386.269C386.557 257.728 386.925 257.232 387.373 256.752C387.853 256.24 388.397 255.808 389.005 255.456C389.645 255.104 390.333 254.816 391.069 254.592C391.805 254.368 392.589 254.256 393.421 254.256C395.021 254.256 396.381 254.544 397.501 255.12C398.621 255.696 399.517 256.448 400.189 257.376C400.893 258.272 401.389 259.312 401.677 260.496C401.997 261.68 402.157 262.864 402.157 264.048V278.832H394.237ZM420.551 278.832V244.848H443.399V251.808H428.471V258.192H442.583V264.768H428.471V271.824H444.263V278.832H420.551ZM463.387 268.416H462.379C461.515 268.416 460.635 268.464 459.739 268.56C458.875 268.624 458.091 268.768 457.387 268.992C456.715 269.216 456.155 269.552 455.707 270C455.259 270.416 455.035 270.976 455.035 271.68C455.035 272.128 455.131 272.512 455.323 272.832C455.547 273.152 455.819 273.408 456.139 273.6C456.459 273.792 456.827 273.936 457.243 274.032C457.659 274.096 458.059 274.128 458.443 274.128C460.043 274.128 461.259 273.696 462.091 272.832C462.955 271.936 463.387 270.736 463.387 269.232V268.416ZM448.939 258.192C450.347 256.848 451.979 255.84 453.835 255.168C455.723 254.496 457.643 254.16 459.595 254.16C461.611 254.16 463.307 254.416 464.683 254.928C466.091 255.408 467.227 256.176 468.091 257.232C468.955 258.256 469.579 259.568 469.963 261.168C470.379 262.736 470.587 264.608 470.587 266.784V278.832H463.387V276.288H463.243C462.635 277.28 461.707 278.048 460.459 278.592C459.243 279.136 457.915 279.408 456.475 279.408C455.515 279.408 454.523 279.28 453.499 279.024C452.475 278.768 451.531 278.352 450.667 277.776C449.835 277.2 449.147 276.432 448.603 275.472C448.059 274.512 447.787 273.328 447.787 271.92C447.787 270.192 448.251 268.8 449.179 267.744C450.139 266.688 451.355 265.872 452.827 265.296C454.331 264.72 455.995 264.336 457.819 264.144C459.643 263.952 461.419 263.856 463.147 263.856V263.472C463.147 262.288 462.731 261.424 461.899 260.88C461.067 260.304 460.043 260.016 458.827 260.016C457.707 260.016 456.619 260.256 455.563 260.736C454.539 261.216 453.659 261.792 452.923 262.464L448.939 258.192ZM501.807 276.576C501.807 278.912 501.471 280.944 500.799 282.672C500.127 284.4 499.183 285.824 497.967 286.944C496.751 288.096 495.263 288.944 493.503 289.488C491.775 290.064 489.855 290.352 487.743 290.352C485.631 290.352 483.455 290.032 481.215 289.392C479.007 288.752 477.087 287.824 475.455 286.608L479.391 280.992C480.543 282.016 481.807 282.768 483.183 283.248C484.591 283.76 485.967 284.016 487.311 284.016C489.615 284.016 491.311 283.408 492.399 282.192C493.519 280.976 494.079 279.36 494.079 277.344V275.904H493.935C493.199 276.864 492.207 277.632 490.959 278.208C489.711 278.784 488.287 279.072 486.687 279.072C484.863 279.072 483.247 278.752 481.839 278.112C480.431 277.44 479.231 276.544 478.239 275.424C477.279 274.304 476.543 273.008 476.031 271.536C475.519 270.032 475.263 268.448 475.263 266.784C475.263 265.12 475.519 263.536 476.031 262.032C476.543 260.528 477.279 259.2 478.239 258.048C479.231 256.896 480.431 255.984 481.839 255.312C483.247 254.608 484.847 254.256 486.639 254.256C488.143 254.256 489.583 254.56 490.959 255.168C492.335 255.776 493.439 256.72 494.271 258H494.367V254.928H501.807V276.576ZM494.319 266.736C494.319 265.936 494.175 265.168 493.887 264.432C493.631 263.696 493.247 263.056 492.735 262.512C492.223 261.936 491.615 261.488 490.911 261.168C490.207 260.848 489.407 260.688 488.511 260.688C487.615 260.688 486.815 260.848 486.111 261.168C485.439 261.488 484.863 261.92 484.383 262.464C483.903 263.008 483.535 263.648 483.279 264.384C483.023 265.12 482.895 265.904 482.895 266.736C482.895 267.536 483.023 268.304 483.279 269.04C483.535 269.776 483.903 270.432 484.383 271.008C484.863 271.552 485.439 272 486.111 272.352C486.815 272.672 487.615 272.832 488.511 272.832C489.407 272.832 490.207 272.672 490.911 272.352C491.647 272 492.255 271.552 492.735 271.008C493.247 270.464 493.631 269.824 493.887 269.088C494.175 268.352 494.319 267.568 494.319 266.736ZM508.152 278.832V242.544H516.12V278.832H508.152ZM538.817 264.144C538.817 262.896 538.417 261.824 537.617 260.928C536.849 260.032 535.681 259.584 534.113 259.584C533.345 259.584 532.641 259.712 532.001 259.968C531.361 260.192 530.801 260.512 530.321 260.928C529.841 261.344 529.457 261.84 529.169 262.416C528.881 262.96 528.721 263.536 528.689 264.144H538.817ZM546.065 267.168C546.065 267.488 546.065 267.808 546.065 268.128C546.065 268.448 546.049 268.752 546.017 269.04H528.689C528.753 269.712 528.945 270.32 529.265 270.864C529.617 271.408 530.049 271.888 530.561 272.304C531.105 272.688 531.697 272.992 532.337 273.216C533.009 273.44 533.697 273.552 534.401 273.552C535.649 273.552 536.705 273.328 537.569 272.88C538.433 272.4 539.137 271.792 539.681 271.056L545.153 274.512C544.033 276.144 542.545 277.408 540.689 278.304C538.865 279.168 536.737 279.6 534.305 279.6C532.513 279.6 530.817 279.328 529.217 278.784C527.617 278.208 526.209 277.392 524.993 276.336C523.809 275.248 522.865 273.92 522.161 272.352C521.489 270.784 521.153 268.992 521.153 266.976C521.153 265.024 521.489 263.264 522.161 261.696C522.833 260.096 523.745 258.752 524.897 257.664C526.049 256.544 527.409 255.68 528.977 255.072C530.545 254.464 532.241 254.16 534.065 254.16C535.825 254.16 537.441 254.464 538.913 255.072C540.385 255.648 541.649 256.496 542.705 257.616C543.761 258.736 544.577 260.096 545.153 261.696C545.761 263.296 546.065 265.12 546.065 267.168ZM143.928 327.696C143.928 330.384 143.464 332.848 142.536 335.088C141.608 337.296 140.312 339.2 138.648 340.8C137.016 342.368 135.064 343.584 132.792 344.448C130.52 345.312 128.056 345.744 125.4 345.744C122.744 345.744 120.28 345.312 118.008 344.448C115.768 343.584 113.816 342.368 112.152 340.8C110.52 339.2 109.24 337.296 108.312 335.088C107.384 332.848 106.92 330.384 106.92 327.696C106.92 324.976 107.384 322.528 108.312 320.352C109.24 318.144 110.52 316.272 112.152 314.736C113.816 313.2 115.768 312.016 118.008 311.184C120.28 310.352 122.744 309.936 125.4 309.936C128.056 309.936 130.52 310.352 132.792 311.184C135.064 312.016 137.016 313.2 138.648 314.736C140.312 316.272 141.608 318.144 142.536 320.352C143.464 322.528 143.928 324.976 143.928 327.696ZM135.144 327.696C135.144 326.224 134.904 324.848 134.424 323.568C133.944 322.288 133.272 321.2 132.408 320.304C131.576 319.376 130.552 318.656 129.336 318.144C128.152 317.6 126.84 317.328 125.4 317.328C123.96 317.328 122.648 317.6 121.464 318.144C120.28 318.656 119.256 319.376 118.392 320.304C117.528 321.2 116.856 322.288 116.376 323.568C115.928 324.848 115.704 326.224 115.704 327.696C115.704 329.232 115.944 330.656 116.424 331.968C116.904 333.248 117.56 334.352 118.392 335.28C119.256 336.208 120.28 336.944 121.464 337.488C122.648 338 123.96 338.256 125.4 338.256C126.84 338.256 128.152 338 129.336 337.488C130.52 336.944 131.544 336.208 132.408 335.28C133.272 334.352 133.944 333.248 134.424 331.968C134.904 330.656 135.144 329.232 135.144 327.696ZM164.644 344.832V341.52H164.548C164.26 342.064 163.876 342.576 163.396 343.056C162.948 343.536 162.404 343.952 161.764 344.304C161.156 344.656 160.468 344.944 159.7 345.168C158.964 345.392 158.18 345.504 157.348 345.504C155.748 345.504 154.388 345.216 153.268 344.64C152.18 344.064 151.284 343.328 150.58 342.432C149.908 341.504 149.412 340.464 149.092 339.312C148.804 338.128 148.66 336.928 148.66 335.712V320.928H156.58V333.888C156.58 334.56 156.628 335.2 156.724 335.808C156.82 336.416 156.996 336.96 157.252 337.44C157.54 337.92 157.908 338.304 158.356 338.592C158.804 338.848 159.396 338.976 160.132 338.976C161.508 338.976 162.548 338.464 163.252 337.44C163.988 336.416 164.356 335.216 164.356 333.84V320.928H172.228V344.832H164.644ZM186.929 326.832V335.952C186.929 337.072 187.137 337.92 187.553 338.496C188.001 339.04 188.785 339.312 189.905 339.312C190.289 339.312 190.689 339.28 191.105 339.216C191.553 339.152 191.921 339.056 192.209 338.928L192.305 344.688C191.761 344.88 191.073 345.04 190.241 345.168C189.409 345.328 188.577 345.408 187.745 345.408C186.145 345.408 184.801 345.216 183.713 344.832C182.625 344.416 181.745 343.84 181.073 343.104C180.433 342.336 179.969 341.44 179.681 340.416C179.393 339.36 179.249 338.192 179.249 336.912V326.832H175.409V320.928H179.201V314.64H186.929V320.928H192.545V326.832H186.929ZM222.5 313.296C222.5 313.904 222.372 314.48 222.116 315.024C221.892 315.536 221.572 315.984 221.156 316.368C220.74 316.752 220.26 317.056 219.716 317.28C219.172 317.504 218.596 317.616 217.988 317.616C216.708 317.616 215.636 317.2 214.772 316.368C213.908 315.504 213.476 314.48 213.476 313.296C213.476 312.72 213.588 312.176 213.812 311.664C214.036 311.12 214.356 310.656 214.772 310.272C215.188 309.888 215.668 309.584 216.212 309.36C216.756 309.104 217.348 308.976 217.988 308.976C218.596 308.976 219.172 309.088 219.716 309.312C220.26 309.536 220.74 309.84 221.156 310.224C221.572 310.608 221.892 311.072 222.116 311.616C222.372 312.128 222.5 312.688 222.5 313.296ZM214.004 344.832V320.928H221.924V344.832H214.004ZM211.076 314.352C210.788 314.256 210.452 314.176 210.068 314.112C209.684 314.048 209.3 314.016 208.916 314.016C208.18 314.016 207.588 314.144 207.14 314.4C206.692 314.656 206.34 315.008 206.084 315.456C205.828 315.872 205.652 316.352 205.556 316.896C205.46 317.44 205.412 317.984 205.412 318.528V320.928H210.74V326.832H205.412V344.832H197.54V326.832H193.172V320.928H197.54V318.624C197.54 317.152 197.7 315.76 198.02 314.448C198.34 313.104 198.884 311.936 199.652 310.944C200.452 309.92 201.508 309.12 202.82 308.544C204.164 307.936 205.828 307.632 207.812 307.632C208.484 307.632 209.14 307.68 209.78 307.776C210.452 307.84 211.06 307.952 211.604 308.112L211.076 314.352ZM236.71 326.832V335.952C236.71 337.072 236.918 337.92 237.334 338.496C237.782 339.04 238.566 339.312 239.686 339.312C240.07 339.312 240.47 339.28 240.886 339.216C241.334 339.152 241.702 339.056 241.99 338.928L242.086 344.688C241.542 344.88 240.854 345.04 240.022 345.168C239.19 345.328 238.358 345.408 237.526 345.408C235.926 345.408 234.582 345.216 233.494 344.832C232.406 344.416 231.526 343.84 230.854 343.104C230.214 342.336 229.75 341.44 229.462 340.416C229.174 339.36 229.03 338.192 229.03 336.912V326.832H225.19V320.928H228.982V314.64H236.71V320.928H242.326V326.832H236.71ZM253.397 326.832V335.952C253.397 337.072 253.605 337.92 254.021 338.496C254.469 339.04 255.253 339.312 256.373 339.312C256.757 339.312 257.157 339.28 257.573 339.216C258.021 339.152 258.389 339.056 258.677 338.928L258.773 344.688C258.229 344.88 257.541 345.04 256.709 345.168C255.877 345.328 255.045 345.408 254.213 345.408C252.613 345.408 251.269 345.216 250.181 344.832C249.093 344.416 248.213 343.84 247.541 343.104C246.901 342.336 246.437 341.44 246.149 340.416C245.861 339.36 245.717 338.192 245.717 336.912V326.832H241.877V320.928H245.669V314.64H253.397V320.928H259.013V326.832H253.397ZM279.177 330.144C279.177 328.896 278.777 327.824 277.977 326.928C277.209 326.032 276.041 325.584 274.473 325.584C273.705 325.584 273.001 325.712 272.361 325.968C271.721 326.192 271.161 326.512 270.681 326.928C270.201 327.344 269.817 327.84 269.529 328.416C269.241 328.96 269.081 329.536 269.049 330.144H279.177ZM286.425 333.168C286.425 333.488 286.425 333.808 286.425 334.128C286.425 334.448 286.409 334.752 286.377 335.04H269.049C269.113 335.712 269.305 336.32 269.625 336.864C269.977 337.408 270.409 337.888 270.921 338.304C271.465 338.688 272.057 338.992 272.697 339.216C273.369 339.44 274.057 339.552 274.761 339.552C276.009 339.552 277.065 339.328 277.929 338.88C278.793 338.4 279.497 337.792 280.041 337.056L285.513 340.512C284.393 342.144 282.905 343.408 281.049 344.304C279.225 345.168 277.097 345.6 274.665 345.6C272.873 345.6 271.177 345.328 269.577 344.784C267.977 344.208 266.569 343.392 265.353 342.336C264.169 341.248 263.225 339.92 262.521 338.352C261.849 336.784 261.513 334.992 261.513 332.976C261.513 331.024 261.849 329.264 262.521 327.696C263.193 326.096 264.105 324.752 265.257 323.664C266.409 322.544 267.769 321.68 269.337 321.072C270.905 320.464 272.601 320.16 274.425 320.16C276.185 320.16 277.801 320.464 279.273 321.072C280.745 321.648 282.009 322.496 283.065 323.616C284.121 324.736 284.937 326.096 285.513 327.696C286.121 329.296 286.425 331.12 286.425 333.168ZM306.81 327.36C306.458 327.264 306.106 327.2 305.754 327.168C305.434 327.136 305.114 327.12 304.794 327.12C303.738 327.12 302.842 327.312 302.106 327.696C301.402 328.08 300.826 328.544 300.378 329.088C299.962 329.632 299.658 330.224 299.466 330.864C299.274 331.504 299.178 332.064 299.178 332.544V344.832H291.306V320.928H298.89V324.384H298.986C299.594 323.168 300.458 322.176 301.578 321.408C302.698 320.64 303.994 320.256 305.466 320.256C305.786 320.256 306.09 320.272 306.378 320.304C306.698 320.336 306.954 320.384 307.146 320.448L306.81 327.36ZM324.402 327.984C323.762 327.376 323.01 326.864 322.146 326.448C321.282 326.032 320.37 325.824 319.41 325.824C318.674 325.824 317.986 325.968 317.346 326.256C316.738 326.544 316.434 327.04 316.434 327.744C316.434 328.416 316.77 328.896 317.442 329.184C318.146 329.472 319.266 329.792 320.802 330.144C321.698 330.336 322.594 330.608 323.49 330.96C324.418 331.312 325.25 331.776 325.986 332.352C326.722 332.928 327.314 333.632 327.762 334.464C328.21 335.296 328.434 336.288 328.434 337.44C328.434 338.944 328.13 340.224 327.522 341.28C326.914 342.304 326.114 343.136 325.122 343.776C324.162 344.416 323.074 344.88 321.858 345.168C320.642 345.456 319.426 345.6 318.21 345.6C316.258 345.6 314.338 345.296 312.45 344.688C310.594 344.048 309.042 343.12 307.794 341.904L312.21 337.248C312.914 338.016 313.778 338.656 314.802 339.168C315.826 339.68 316.914 339.936 318.066 339.936C318.706 339.936 319.33 339.792 319.938 339.504C320.578 339.184 320.898 338.64 320.898 337.872C320.898 337.136 320.514 336.592 319.746 336.24C318.978 335.888 317.778 335.52 316.146 335.136C315.314 334.944 314.482 334.688 313.65 334.368C312.818 334.048 312.066 333.616 311.394 333.072C310.754 332.528 310.226 331.856 309.81 331.056C309.394 330.256 309.186 329.296 309.186 328.176C309.186 326.736 309.49 325.52 310.098 324.528C310.706 323.504 311.49 322.672 312.45 322.032C313.41 321.392 314.466 320.928 315.618 320.64C316.802 320.32 317.97 320.16 319.122 320.16C320.914 320.16 322.658 320.448 324.354 321.024C326.082 321.568 327.538 322.4 328.722 323.52L324.402 327.984ZM341.954 340.608C341.954 341.952 341.474 343.072 340.514 343.968C339.586 344.864 338.466 345.312 337.154 345.312C336.482 345.312 335.842 345.184 335.234 344.928C334.658 344.704 334.146 344.384 333.698 343.968C333.25 343.552 332.898 343.072 332.642 342.528C332.386 341.952 332.258 341.328 332.258 340.656C332.258 340.016 332.386 339.408 332.642 338.832C332.898 338.256 333.25 337.76 333.698 337.344C334.146 336.896 334.658 336.544 335.234 336.288C335.842 336.032 336.482 335.904 337.154 335.904C338.466 335.904 339.586 336.352 340.514 337.248C341.474 338.144 341.954 339.264 341.954 340.608Z" fill="white"/>
</g>
</g>
<defs>
<filter id="filter0_d" x="85" y="95.9761" width="649.018" height="273.768" filterUnits="userSpaceOnUse" color-interpolation-filters="sRGB">
<feFlood flood-opacity="0" result="BackgroundImageFix"/>
<feColorMatrix in="SourceAlpha" type="matrix" values="0 0 0 0 0 0 0 0 0 0 0 0 0 0 0 0 0 0 127 0"/>
<feOffset dy="4"/>
<feGaussianBlur stdDeviation="10"/>
<feColorMatrix type="matrix" values="0 0 0 0 0.254902 0 0 0 0 0.294118 0 0 0 0 0.694118 0 0 0 0.12 0"/>
<feBlend mode="normal" in2="BackgroundImageFix" result="effect1_dropShadow"/>
<feBlend mode="normal" in="SourceGraphic" in2="effect1_dropShadow" result="shape"/>
</filter>
<clipPath id="clip0">
<rect width="735" height="477" fill="white"/>
</clipPath>
</defs>
</svg>
