<svg width="128" height="138" viewBox="0 0 128 138" fill="none" xmlns="http://www.w3.org/2000/svg">
<path d="M89.6713 42.4292L89.7811 34.7703M89.6713 42.4292L75.4878 121.843C75.4878 121.843 75.061 122.698 74.6341 123.125C74.2073 123.553 72.9268 123.98 72.9268 123.98L56.6037 122.592C56.6037 122.592 56.0385 122.706 55.4732 122.139C54.9079 121.571 55.0066 120.437 55.0066 120.437L59.6871 26.2604M89.6713 42.4292L104.512 121.843C104.512 121.843 104.811 122.966 105.793 123.553C106.774 124.139 107.927 123.98 107.927 123.98L122.439 122.698C122.439 122.698 123.293 122.422 124.146 121.415C125 120.409 125 119.278 125 119.278L120.676 26.2604M120.025 11.7936H109.738M120.025 11.7936L120.676 26.2604M120.025 11.7936L119.63 4.28248C119.63 4.28248 119.362 3.85485 119.024 3.42745C118.687 3.00005 118.171 3 118.171 3H90.2366M60.4061 11.7936H70.4525M60.4061 11.7936L59.6871 26.2604M60.4061 11.7936L60.8431 4.28248C60.8431 4.28248 60.8431 3.85498 61.4024 3.42749C61.9617 3 62.2561 3 62.2561 3H80.9098M90.2366 3H80.9098M90.2366 3L89.7811 34.7703M80.9098 3C80.9098 3 80.9098 18.6015 80.9098 23.7074C80.9098 28.8133 89.7811 34.7703 89.7811 34.7703M70.4525 11.7936C70.4525 11.7936 70.7352 16.3322 67.6262 20.5871C64.5173 24.8421 59.6871 26.2604 59.6871 26.2604M70.4525 11.7936H109.738M109.738 11.7936C109.738 11.7936 110.303 17.4668 112.564 20.5871C114.825 23.7074 120.676 26.2604 120.676 26.2604" stroke="url(#paint0_linear)" stroke-width="4"/>
<path d="M33.195 93.9561L3.74789 123.109C3.74789 123.109 3.15894 123.698 2.86448 124.287C2.57003 124.876 0.508732 129.587 4.04237 132.826C7.57602 136.065 11.4041 134.888 12.2875 134.299C13.1709 133.71 14.0544 132.826 14.0544 132.826L43.2071 103.085" stroke="url(#paint1_linear)" stroke-width="4"/>
<mask id="path-3-inside-1" fill="white">
<path fill-rule="evenodd" clip-rule="evenodd" d="M64.5 109C87.4198 109 106 90.4198 106 67.5C106 44.5802 87.4198 26 64.5 26C41.5802 26 23 44.5802 23 67.5C23 90.4198 41.5802 109 64.5 109ZM64.5 95C79.6878 95 92 82.6878 92 67.5C92 52.3122 79.6878 40 64.5 40C49.3122 40 37 52.3122 37 67.5C37 82.6878 49.3122 95 64.5 95Z"/>
</mask>
<path fill-rule="evenodd" clip-rule="evenodd" d="M64.5 109C87.4198 109 106 90.4198 106 67.5C106 44.5802 87.4198 26 64.5 26C41.5802 26 23 44.5802 23 67.5C23 90.4198 41.5802 109 64.5 109ZM64.5 95C79.6878 95 92 82.6878 92 67.5C92 52.3122 79.6878 40 64.5 40C49.3122 40 37 52.3122 37 67.5C37 82.6878 49.3122 95 64.5 95Z" fill="white"/>
<path d="M102 67.5C102 88.2107 85.2107 105 64.5 105V113C89.629 113 110 92.629 110 67.5H102ZM64.5 30C85.2107 30 102 46.7893 102 67.5H110C110 42.371 89.629 22 64.5 22V30ZM27 67.5C27 46.7893 43.7893 30 64.5 30V22C39.371 22 19 42.371 19 67.5H27ZM64.5 105C43.7893 105 27 88.2107 27 67.5H19C19 92.629 39.371 113 64.5 113V105ZM88 67.5C88 80.4787 77.4787 91 64.5 91V99C81.897 99 96 84.897 96 67.5H88ZM64.5 44C77.4787 44 88 54.5213 88 67.5H96C96 50.103 81.897 36 64.5 36V44ZM41 67.5C41 54.5213 51.5213 44 64.5 44V36C47.103 36 33 50.103 33 67.5H41ZM64.5 91C51.5213 91 41 80.4787 41 67.5H33C33 84.897 47.103 99 64.5 99V91Z" fill="url(#paint2_linear)" mask="url(#path-3-inside-1)"/>
<defs>
<linearGradient id="paint0_linear" x1="89.6154" y1="-215.066" x2="89.6154" y2="192.478" gradientUnits="userSpaceOnUse">
<stop stop-color="#F18D88"/>
<stop offset="1" stop-color="#204BD3"/>
</linearGradient>
<linearGradient id="paint1_linear" x1="22.3771" y1="19.9865" x2="22.3771" y2="158.228" gradientUnits="userSpaceOnUse">
<stop stop-color="#F18D88"/>
<stop offset="1" stop-color="#204BD3"/>
</linearGradient>
<linearGradient id="paint2_linear" x1="64.044" y1="-123.582" x2="64.044" y2="155.973" gradientUnits="userSpaceOnUse">
<stop stop-color="#F18D88"/>
<stop offset="1" stop-color="#204BD3"/>
</linearGradient>
</defs>
</svg>
