<svg width="128" height="138" viewBox="0 0 128 138" fill="none" xmlns="http://www.w3.org/2000/svg">
<path d="M66.1079 54.0251C66.1079 54.0251 72.541 54.0251 75.4359 55.9551C78.3308 57.885 81.8691 62.3882 83.1557 63.6748C84.4423 64.9614 87.3372 65.9264 87.3372 65.9264M64.8213 80.4009C64.8213 80.4009 67.0729 75.5761 74.471 75.5761C81.8691 75.5761 83.1557 81.0442 83.1557 81.0442" stroke="url(#paint0_linear)" stroke-width="4"/>
<path d="M63.5353 71.7166C63.5353 71.7166 59.3538 71.7166 57.4239 70.7516C55.4939 69.7866 52.9207 66.8917 52.9207 66.8917M39.4111 54.9905C39.4111 54.9905 43.9143 55.9554 45.8443 57.8854C47.7742 59.8153 52.9207 66.8917 52.9207 66.8917M52.9207 66.8917L44.236 74.2898" stroke="url(#paint1_linear)" stroke-width="4"/>
<path d="M51.9554 93.9116C51.9554 93.9116 49.9794 93.9116 47.7739 95.8415C46.7564 96.7319 46.4872 100.345 44.879 102.596C43.2707 104.848 40.3758 106.456 40.3758 106.456M40.3758 106.456V109.351C40.3758 109.351 41.6624 119.322 50.6688 119.966C59.6751 120.609 64.5 109.673 64.5 109.673V25.7205C64.5 25.7205 59.9968 16.3925 49.0605 18.6441C38.1242 20.8957 39.0892 31.5104 39.0892 31.5104M40.3758 106.456C40.3758 106.456 31.0478 108.386 23.9713 101.953C16.8949 95.5198 23.0064 82.6536 23.0064 82.6536C23.0064 82.6536 14 76.2206 14 66.2492C14 56.2777 24.293 51.1314 24.293 51.1314C24.293 51.1314 22.0414 42.1249 27.5095 36.3351C32.9777 30.5453 39.0892 31.5104 39.0892 31.5104M39.0892 31.5104C39.0892 31.5104 43.914 32.4752 45.8439 34.4051C47.7739 36.3351 49.2745 39.6157 50.0255 40.5167C51.6337 42.4465 54.5286 41.8033 54.5286 41.8033" stroke="url(#paint2_linear)" stroke-width="4"/>
<path d="M77.2864 93.6193C77.2864 93.6193 79.2498 93.6193 81.4413 95.5493C82.4523 96.4397 82.7197 100.052 84.3177 102.304C85.9158 104.556 88.7922 106.164 88.7922 106.164M88.7922 106.164V109.059C88.7922 109.059 87.5138 119.031 78.5648 119.674C69.6158 120.317 64.8217 109.381 64.8217 109.381L64.8217 25.4272C64.8217 25.4272 69.2962 16.099 80.1628 18.3507C91.0295 20.6023 90.0706 31.2171 90.0706 31.2171M88.7922 106.164C88.7922 106.164 98.0608 108.094 105.092 101.661C112.124 95.2275 106.051 82.3612 106.051 82.3612C106.051 82.3612 115 75.9281 115 65.9565C115 55.9849 104.773 50.8384 104.773 50.8384C104.773 50.8384 107.01 41.8318 101.577 36.0419C96.1432 30.252 90.0706 31.2171 90.0706 31.2171M90.0706 31.2171C90.0706 31.2171 85.2765 32.182 83.3589 34.1119C81.4413 36.0419 79.9501 39.3225 79.204 40.2236C77.606 42.1535 74.7295 41.5103 74.7295 41.5103" stroke="url(#paint3_linear)" stroke-width="4"/>
<circle cx="39.4977" cy="78.2189" r="2.71256" fill="url(#paint4_linear)"/>
<circle cx="93.7497" cy="67.3686" r="2.71256" fill="url(#paint5_linear)"/>
<defs>
<linearGradient id="paint0_linear" x1="75.9555" y1="5.3314" x2="75.9555" y2="96.3353" gradientUnits="userSpaceOnUse">
<stop stop-color="#F18D88"/>
<stop offset="1" stop-color="#204BD3"/>
</linearGradient>
<linearGradient id="paint1_linear" x1="51.3407" y1="20.2092" x2="51.3407" y2="85.212" gradientUnits="userSpaceOnUse">
<stop stop-color="#F18D88"/>
<stop offset="1" stop-color="#204BD3"/>
</linearGradient>
<linearGradient id="paint2_linear" x1="38.9725" y1="-164.989" x2="38.9725" y2="177.548" gradientUnits="userSpaceOnUse">
<stop stop-color="#F18D88"/>
<stop offset="1" stop-color="#204BD3"/>
</linearGradient>
<linearGradient id="paint3_linear" x1="90.1865" y1="-165.286" x2="90.1865" y2="177.257" gradientUnits="userSpaceOnUse">
<stop stop-color="#F18D88"/>
<stop offset="1" stop-color="#204BD3"/>
</linearGradient>
<linearGradient id="paint4_linear" x1="39.4679" y1="65.7292" x2="39.4679" y2="84.0017" gradientUnits="userSpaceOnUse">
<stop stop-color="#F18D88"/>
<stop offset="1" stop-color="#204BD3"/>
</linearGradient>
<linearGradient id="paint5_linear" x1="93.7199" y1="54.8789" x2="93.7199" y2="73.1514" gradientUnits="userSpaceOnUse">
<stop stop-color="#F18D88"/>
<stop offset="1" stop-color="#204BD3"/>
</linearGradient>
</defs>
</svg>
