<svg width="141" height="138" viewBox="0 0 141 138" fill="none" xmlns="http://www.w3.org/2000/svg">
<rect x="4.79492" y="30" width="131.205" height="82" rx="8" stroke="url(#paint0_linear)" stroke-width="4"/>
<path d="M2.29551 40.9756C2.09097 40.4613 2.7046 39.4325 2.7046 39.4325L9.25005 29.4023C9.25005 29.4023 9.45459 28.8879 9.45459 28.3735C9.45459 27.8592 9.25005 27.3448 9.25005 27.3448L2.09097 16.543C2.09097 16.543 1.88632 16.2858 2.09092 15.7714C2.29552 15.2571 2.50006 15.2571 2.50006 15.2571H38.5C38.5 15.2571 39.3182 15.2571 39.7273 15.5143C40.1364 15.7714 40.75 16.543 40.75 16.543L49.1364 27.602C49.1364 27.602 49.341 27.8592 49.3409 28.3735C49.3409 28.8879 49.1364 29.1451 49.1364 29.1451L40.3409 40.9756L39.9319 41.2328C39.5228 41.49 39.1137 41.49 39.1137 41.49H3.11369C3.11369 41.49 2.50006 41.49 2.29551 40.9756Z" fill="white" stroke="url(#paint1_linear)" stroke-width="4"/>
<path d="M46.7731 40.7186C46.5685 40.2042 47.1821 39.1754 47.1821 39.1754L53.7276 29.1452C53.7276 29.1452 53.9321 28.6308 53.9321 28.1165C53.9321 27.6021 53.7276 27.0877 53.7276 27.0877L46.5685 16.2859C46.5685 16.2859 46.3639 16.0287 46.5685 15.5144C46.7731 15 46.9776 15 46.9776 15H82.9776C82.9776 15 83.7958 15.0001 84.2048 15.2572C84.6139 15.5143 85.2276 16.2859 85.2276 16.2859L93.6139 27.3449C93.6139 27.3449 93.8185 27.6021 93.8185 28.1165C93.8185 28.6308 93.6139 28.888 93.6139 28.888L84.8185 40.7186L84.4094 40.9757C84.0003 41.2329 83.5912 41.2329 83.5912 41.2329H47.5912C47.5912 41.2329 46.9776 41.2329 46.7731 40.7186Z" fill="white" stroke="url(#paint2_linear)" stroke-width="4"/>
<path d="M90.9547 40.7186C90.7501 40.2042 91.3638 39.1754 91.3638 39.1754L97.9092 29.1452C97.9092 29.1452 98.1138 28.6308 98.1138 28.1165C98.1138 27.6021 97.9092 27.0877 97.9092 27.0877L90.7501 16.2859C90.7501 16.2859 90.5455 16.0287 90.7501 15.5144C90.9547 15 91.1592 15 91.1592 15H127.159C127.159 15 127.977 15.0001 128.386 15.2572C128.796 15.5143 129.409 16.2859 129.409 16.2859L137.796 27.3449C137.796 27.3449 138 27.6021 138 28.1165C138 28.6308 137.796 28.888 137.796 28.888L129 40.7186L128.591 40.9757C128.182 41.2329 127.773 41.2329 127.773 41.2329H91.7729C91.7729 41.2329 91.1592 41.2329 90.9547 40.7186Z" fill="white" stroke="url(#paint3_linear)" stroke-width="4"/>
<path d="M45 77V92C45 92 45 93 45 94.5C45 96 45.6341 102 54.5122 102C63.3902 102 63.3902 95.2963 63.3902 93.8981C63.3902 92.5 63.3902 91.5 63.3902 91.5V64C63.3902 64 63.3902 65.2963 63.3902 61.8981C63.3902 58.5 66.2439 50 79.561 50C92.878 50 97 60 97 62.5C97 65 97 64.5 97 64.5V102" stroke="url(#paint4_linear)" stroke-width="4" stroke-linecap="round" stroke-linejoin="bevel" stroke-dasharray="1 6"/>
<defs>
<linearGradient id="paint0_linear" x1="69.6544" y1="-126.989" x2="69.6544" y2="162.67" gradientUnits="userSpaceOnUse">
<stop stop-color="#F18D88"/>
<stop offset="1" stop-color="#204BD3"/>
</linearGradient>
<linearGradient id="paint1_linear" x1="25.4104" y1="-32.0198" x2="25.4104" y2="56.3361" gradientUnits="userSpaceOnUse">
<stop stop-color="#F18D88"/>
<stop offset="1" stop-color="#204BD3"/>
</linearGradient>
<linearGradient id="paint2_linear" x1="69.8879" y1="-32.2769" x2="69.8879" y2="56.079" gradientUnits="userSpaceOnUse">
<stop stop-color="#F18D88"/>
<stop offset="1" stop-color="#204BD3"/>
</linearGradient>
<linearGradient id="paint3_linear" x1="114.07" y1="-32.2769" x2="114.07" y2="56.079" gradientUnits="userSpaceOnUse">
<stop stop-color="#F18D88"/>
<stop offset="1" stop-color="#204BD3"/>
</linearGradient>
<linearGradient id="paint4_linear" x1="70.7143" y1="-43.7143" x2="70.7143" y2="131.429" gradientUnits="userSpaceOnUse">
<stop stop-color="#F18D88"/>
<stop offset="1" stop-color="#204BD3"/>
</linearGradient>
</defs>
</svg>
