<svg width="404" height="91" viewBox="0 0 404 91" fill="none" xmlns="http://www.w3.org/2000/svg">
<g clip-path="url(#clip0)">
<rect width="404" height="91" fill="white"/>
<circle cx="45.5" cy="45.5" r="45.5" fill="url(#paint0_linear)"/>
<g filter="url(#filter0_d)">
<path d="M93.5455 52.72C93.5455 54.96 93.1588 57.0133 92.3855 58.88C91.6121 60.72 90.5321 62.3067 89.1455 63.64C87.7855 64.9467 86.1588 65.96 84.2655 66.68C82.3721 67.4 80.3188 67.76 78.1055 67.76C75.8921 67.76 73.8388 67.4 71.9455 66.68C70.0788 65.96 68.4521 64.9467 67.0655 63.64C65.7055 62.3067 64.6388 60.72 63.8655 58.88C63.0921 57.0133 62.7055 54.96 62.7055 52.72C62.7055 50.4533 63.0921 48.4133 63.8655 46.6C64.6388 44.76 65.7055 43.2 67.0655 41.92C68.4521 40.64 70.0788 39.6533 71.9455 38.96C73.8388 38.2667 75.8921 37.92 78.1055 37.92C80.3188 37.92 82.3721 38.2667 84.2655 38.96C86.1588 39.6533 87.7855 40.64 89.1455 41.92C90.5321 43.2 91.6121 44.76 92.3855 46.6C93.1588 48.4133 93.5455 50.4533 93.5455 52.72ZM86.2255 52.72C86.2255 51.4933 86.0255 50.3467 85.6255 49.28C85.2255 48.2133 84.6655 47.3067 83.9455 46.56C83.2521 45.7867 82.3988 45.1867 81.3855 44.76C80.3988 44.3067 79.3055 44.08 78.1055 44.08C76.9055 44.08 75.8121 44.3067 74.8255 44.76C73.8388 45.1867 72.9855 45.7867 72.2655 46.56C71.5455 47.3067 70.9855 48.2133 70.5855 49.28C70.2121 50.3467 70.0255 51.4933 70.0255 52.72C70.0255 54 70.2255 55.1867 70.6255 56.28C71.0255 57.3467 71.5721 58.2667 72.2655 59.04C72.9855 59.8133 73.8388 60.4267 74.8255 60.88C75.8121 61.3067 76.9055 61.52 78.1055 61.52C79.3055 61.52 80.3988 61.3067 81.3855 60.88C82.3721 60.4267 83.2255 59.8133 83.9455 59.04C84.6655 58.2667 85.2255 57.3467 85.6255 56.28C86.0255 55.1867 86.2255 54 86.2255 52.72ZM110.809 67V64.24H110.729C110.489 64.6933 110.169 65.12 109.769 65.52C109.396 65.92 108.942 66.2667 108.409 66.56C107.902 66.8533 107.329 67.0933 106.689 67.28C106.076 67.4667 105.422 67.56 104.729 67.56C103.396 67.56 102.262 67.32 101.329 66.84C100.422 66.36 99.6756 65.7467 99.0889 65C98.5289 64.2267 98.1156 63.36 97.8489 62.4C97.6089 61.4133 97.4889 60.4133 97.4889 59.4V47.08H104.089V57.88C104.089 58.44 104.129 58.9733 104.209 59.48C104.289 59.9867 104.436 60.44 104.649 60.84C104.889 61.24 105.196 61.56 105.569 61.8C105.942 62.0133 106.436 62.12 107.049 62.12C108.196 62.12 109.062 61.6933 109.649 60.84C110.262 59.9867 110.569 58.9867 110.569 57.84V47.08H117.129V67H110.809ZM135.179 52.44C134.886 52.36 134.593 52.3067 134.299 52.28C134.033 52.2533 133.766 52.24 133.499 52.24C132.619 52.24 131.873 52.4 131.259 52.72C130.673 53.04 130.193 53.4267 129.819 53.88C129.473 54.3333 129.219 54.8267 129.059 55.36C128.899 55.8933 128.819 56.36 128.819 56.76V67H122.259V47.08H128.579V49.96H128.659C129.166 48.9467 129.886 48.12 130.819 47.48C131.753 46.84 132.833 46.52 134.059 46.52C134.326 46.52 134.579 46.5333 134.819 46.56C135.086 46.5867 135.299 46.6267 135.459 46.68L135.179 52.44ZM166.975 67L164.775 61.44H153.815L151.735 67H144.295L156.175 38.68H162.815L174.575 67H166.975ZM159.375 46.24L155.775 55.96H162.895L159.375 46.24ZM176.916 67V38.68H195.956V44.48H183.516V49.8H195.276V55.28H183.516V61.16H196.676V67H176.916ZM230.733 52.72C230.733 54.96 230.346 57.0133 229.573 58.88C228.8 60.72 227.72 62.3067 226.333 63.64C224.973 64.9467 223.346 65.96 221.453 66.68C219.56 67.4 217.506 67.76 215.293 67.76C213.08 67.76 211.026 67.4 209.133 66.68C207.266 65.96 205.64 64.9467 204.253 63.64C202.893 62.3067 201.826 60.72 201.053 58.88C200.28 57.0133 199.893 54.96 199.893 52.72C199.893 50.4533 200.28 48.4133 201.053 46.6C201.826 44.76 202.893 43.2 204.253 41.92C205.64 40.64 207.266 39.6533 209.133 38.96C211.026 38.2667 213.08 37.92 215.293 37.92C217.506 37.92 219.56 38.2667 221.453 38.96C223.346 39.6533 224.973 40.64 226.333 41.92C227.72 43.2 228.8 44.76 229.573 46.6C230.346 48.4133 230.733 50.4533 230.733 52.72ZM223.413 52.72C223.413 51.4933 223.213 50.3467 222.813 49.28C222.413 48.2133 221.853 47.3067 221.133 46.56C220.44 45.7867 219.586 45.1867 218.573 44.76C217.586 44.3067 216.493 44.08 215.293 44.08C214.093 44.08 213 44.3067 212.013 44.76C211.026 45.1867 210.173 45.7867 209.453 46.56C208.733 47.3067 208.173 48.2133 207.773 49.28C207.4 50.3467 207.213 51.4933 207.213 52.72C207.213 54 207.413 55.1867 207.813 56.28C208.213 57.3467 208.76 58.2667 209.453 59.04C210.173 59.8133 211.026 60.4267 212.013 60.88C213 61.3067 214.093 61.52 215.293 61.52C216.493 61.52 217.586 61.3067 218.573 60.88C219.56 60.4267 220.413 59.8133 221.133 59.04C221.853 58.2667 222.413 57.3467 222.813 56.28C223.213 55.1867 223.413 54 223.413 52.72ZM260.248 57.32C260.248 58.44 260.114 59.6133 259.848 60.84C259.608 62.0667 259.141 63.2 258.448 64.24C257.781 65.2533 256.834 66.0933 255.608 66.76C254.408 67.4267 252.848 67.76 250.928 67.76C248.528 67.76 246.528 67.1467 244.928 65.92C243.328 64.6667 242.261 63.0667 241.728 61.12L247.768 59.08C247.954 59.8267 248.288 60.4267 248.768 60.88C249.274 61.3333 249.888 61.56 250.608 61.56C251.728 61.56 252.461 61.1733 252.808 60.4C253.181 59.6267 253.368 58.6133 253.368 57.36V38.68H260.248V57.32ZM286.7 56.96C286.7 58.5867 286.406 60.0667 285.82 61.4C285.233 62.7067 284.433 63.8267 283.42 64.76C282.406 65.6667 281.233 66.3733 279.9 66.88C278.566 67.3867 277.14 67.64 275.62 67.64C274.126 67.64 272.7 67.3867 271.34 66.88C270.006 66.3733 268.833 65.6667 267.82 64.76C266.833 63.8267 266.046 62.7067 265.46 61.4C264.873 60.0667 264.58 58.5867 264.58 56.96C264.58 55.3333 264.873 53.8667 265.46 52.56C266.046 51.2533 266.833 50.1467 267.82 49.24C268.833 48.3333 270.006 47.64 271.34 47.16C272.7 46.68 274.126 46.44 275.62 46.44C277.14 46.44 278.566 46.68 279.9 47.16C281.233 47.64 282.406 48.3333 283.42 49.24C284.433 50.1467 285.233 51.2533 285.82 52.56C286.406 53.8667 286.7 55.3333 286.7 56.96ZM280.38 56.96C280.38 56.32 280.273 55.6933 280.06 55.08C279.846 54.4667 279.54 53.9333 279.14 53.48C278.74 53 278.246 52.6133 277.66 52.32C277.073 52.0267 276.393 51.88 275.62 51.88C274.846 51.88 274.166 52.0267 273.58 52.32C272.993 52.6133 272.5 53 272.1 53.48C271.726 53.9333 271.433 54.4667 271.22 55.08C271.033 55.6933 270.94 56.32 270.94 56.96C270.94 57.6 271.033 58.2267 271.22 58.84C271.433 59.4533 271.74 60.0133 272.14 60.52C272.54 61 273.033 61.3867 273.62 61.68C274.206 61.9733 274.886 62.12 275.66 62.12C276.433 62.12 277.113 61.9733 277.7 61.68C278.286 61.3867 278.78 61 279.18 60.52C279.58 60.0133 279.873 59.4533 280.06 58.84C280.273 58.2267 280.38 57.6 280.38 56.96ZM303.973 67V64.24H303.893C303.653 64.6933 303.333 65.12 302.933 65.52C302.56 65.92 302.106 66.2667 301.573 66.56C301.066 66.8533 300.493 67.0933 299.853 67.28C299.24 67.4667 298.586 67.56 297.893 67.56C296.56 67.56 295.426 67.32 294.493 66.84C293.586 66.36 292.84 65.7467 292.253 65C291.693 64.2267 291.28 63.36 291.013 62.4C290.773 61.4133 290.653 60.4133 290.653 59.4V47.08H297.253V57.88C297.253 58.44 297.293 58.9733 297.373 59.48C297.453 59.9867 297.6 60.44 297.813 60.84C298.053 61.24 298.36 61.56 298.733 61.8C299.106 62.0133 299.6 62.12 300.213 62.12C301.36 62.12 302.226 61.6933 302.813 60.84C303.426 59.9867 303.733 58.9867 303.733 57.84V47.08H310.293V67H303.973ZM328.343 52.44C328.05 52.36 327.757 52.3067 327.463 52.28C327.197 52.2533 326.93 52.24 326.663 52.24C325.783 52.24 325.037 52.4 324.423 52.72C323.837 53.04 323.357 53.4267 322.983 53.88C322.637 54.3333 322.383 54.8267 322.223 55.36C322.063 55.8933 321.983 56.36 321.983 56.76V67H315.423V47.08H321.743V49.96H321.823C322.33 48.9467 323.05 48.12 323.983 47.48C324.917 46.84 325.997 46.52 327.223 46.52C327.49 46.52 327.743 46.5333 327.983 46.56C328.25 46.5867 328.463 46.6267 328.623 46.68L328.343 52.44ZM344.363 67V56.12C344.363 55.56 344.309 55.0267 344.203 54.52C344.123 54.0133 343.976 53.5733 343.763 53.2C343.549 52.8 343.243 52.4933 342.843 52.28C342.469 52.04 341.989 51.92 341.403 51.92C340.816 51.92 340.296 52.04 339.843 52.28C339.416 52.4933 339.056 52.8 338.763 53.2C338.469 53.6 338.243 54.0667 338.083 54.6C337.949 55.1067 337.883 55.64 337.883 56.2V67H331.283V47.08H337.643V49.84H337.723C337.963 49.4133 338.269 49 338.643 48.6C339.043 48.1733 339.496 47.8133 340.003 47.52C340.536 47.2267 341.109 46.9867 341.723 46.8C342.336 46.6133 342.989 46.52 343.683 46.52C345.016 46.52 346.149 46.76 347.083 47.24C348.016 47.72 348.763 48.3467 349.323 49.12C349.909 49.8667 350.323 50.7333 350.563 51.72C350.829 52.7067 350.963 53.6933 350.963 54.68V67H344.363ZM369.651 54.76C369.651 53.72 369.318 52.8267 368.651 52.08C368.011 51.3333 367.038 50.96 365.731 50.96C365.091 50.96 364.504 51.0667 363.971 51.28C363.438 51.4667 362.971 51.7333 362.571 52.08C362.171 52.4267 361.851 52.84 361.611 53.32C361.371 53.7733 361.238 54.2533 361.211 54.76H369.651ZM375.691 57.28C375.691 57.5467 375.691 57.8133 375.691 58.08C375.691 58.3467 375.678 58.6 375.651 58.84H361.211C361.264 59.4 361.424 59.9067 361.691 60.36C361.984 60.8133 362.344 61.2133 362.771 61.56C363.224 61.88 363.718 62.1333 364.251 62.32C364.811 62.5067 365.384 62.6 365.971 62.6C367.011 62.6 367.891 62.4133 368.611 62.04C369.331 61.64 369.918 61.1333 370.371 60.52L374.931 63.4C373.998 64.76 372.758 65.8133 371.211 66.56C369.691 67.28 367.918 67.64 365.891 67.64C364.398 67.64 362.984 67.4133 361.651 66.96C360.318 66.48 359.144 65.8 358.131 64.92C357.144 64.0133 356.358 62.9067 355.771 61.6C355.211 60.2933 354.931 58.8 354.931 57.12C354.931 55.4933 355.211 54.0267 355.771 52.72C356.331 51.3867 357.091 50.2667 358.051 49.36C359.011 48.4267 360.144 47.7067 361.451 47.2C362.758 46.6933 364.171 46.44 365.691 46.44C367.158 46.44 368.504 46.6933 369.731 47.2C370.958 47.68 372.011 48.3867 372.891 49.32C373.771 50.2533 374.451 51.3867 374.931 52.72C375.438 54.0533 375.691 55.5733 375.691 57.28ZM390.999 70C390.599 71.04 390.146 71.96 389.639 72.76C389.159 73.5867 388.573 74.28 387.879 74.84C387.213 75.4267 386.413 75.8667 385.479 76.16C384.573 76.4533 383.493 76.6 382.239 76.6C381.626 76.6 380.986 76.56 380.319 76.48C379.679 76.4 379.119 76.2933 378.639 76.16L379.359 70.64C379.679 70.7467 380.026 70.8267 380.399 70.88C380.799 70.96 381.159 71 381.479 71C382.493 71 383.226 70.76 383.679 70.28C384.133 69.8267 384.519 69.1733 384.839 68.32L385.479 66.68L377.159 47.08H384.439L388.879 59.88H388.999L392.959 47.08H399.919L390.999 70Z" fill="black"/>
</g>
</g>
<defs>
<filter id="filter0_d" x="42.7051" y="21.9199" width="377.214" height="78.68" filterUnits="userSpaceOnUse" color-interpolation-filters="sRGB">
<feFlood flood-opacity="0" result="BackgroundImageFix"/>
<feColorMatrix in="SourceAlpha" type="matrix" values="0 0 0 0 0 0 0 0 0 0 0 0 0 0 0 0 0 0 127 0"/>
<feOffset dy="4"/>
<feGaussianBlur stdDeviation="10"/>
<feColorMatrix type="matrix" values="0 0 0 0 0.254902 0 0 0 0 0.294118 0 0 0 0 0.694118 0 0 0 0.4 0"/>
<feBlend mode="normal" in2="BackgroundImageFix" result="effect1_dropShadow"/>
<feBlend mode="normal" in="SourceGraphic" in2="effect1_dropShadow" result="shape"/>
</filter>
<linearGradient id="paint0_linear" x1="45" y1="-164" x2="45" y2="142.5" gradientUnits="userSpaceOnUse">
<stop stop-color="#F18D88"/>
<stop offset="1" stop-color="#204BD3"/>
</linearGradient>
<clipPath id="clip0">
<rect width="404" height="91" fill="white"/>
</clipPath>
</defs>
</svg>
