<svg width="499" height="377" viewBox="0 0 499 377" fill="none" xmlns="http://www.w3.org/2000/svg">
<g clip-path="url(#clip0)">
<rect width="499" height="377" fill="white"/>
<path d="M183 187C183 212 180.5 235.833 175.5 258.5C170.5 281.167 162.5 301.167 151.5 318.5C140.5 335.5 126.167 349.167 108.5 359.5C91.1667 369.5 70 374.5 45 374.5C20 374.5 -1.33333 369.5 -19 359.5C-36.6667 349.167 -51.1667 335.5 -62.5 318.5C-73.5 301.167 -81.5 281.167 -86.5 258.5C-91.5 235.833 -94 212 -94 187C-94 162 -91.5 138.333 -86.5 116C-81.5 93.3333 -73.5 73.6666 -62.5 57C-51.1667 40 -36.6667 26.5 -19 16.5C-1.33333 6.49998 20 1.49997 45 1.49997C70 1.49997 91.1667 6.49998 108.5 16.5C126.167 26.5 140.5 40 151.5 57C162.5 73.6666 170.5 93.3333 175.5 116C180.5 138.333 183 162 183 187ZM97 187C97 176 96.3333 163.833 95 150.5C93.6667 137.167 91.1667 124.833 87.5 113.5C83.8333 101.833 78.5 92.1666 71.5 84.5C64.8333 76.5 56 72.5 45 72.5C34 72.5 25 76.5 18 84.5C11 92.1666 5.50001 101.833 1.50001 113.5C-2.16666 124.833 -4.66666 137.167 -5.99999 150.5C-7.33333 163.833 -8 176 -8 187C-8 198.333 -7.33333 210.833 -5.99999 224.5C-4.66666 237.833 -2.16666 250.333 1.50001 262C5.50001 273.333 11 283 18 291C25 298.667 34 302.5 45 302.5C56 302.5 64.8333 298.667 71.5 291C78.5 283 83.8333 273.333 87.5 262C91.1667 250.333 93.6667 237.833 95 224.5C96.3333 210.833 97 198.333 97 187ZM497.742 262C497.742 281.333 493.742 298.167 485.742 312.5C478.076 326.5 467.909 338.167 455.242 347.5C442.576 356.5 428.242 363.167 412.242 367.5C396.576 372.167 380.576 374.5 364.242 374.5C348.242 374.5 332.576 372.667 317.242 369C302.242 365.333 288.409 359.833 275.742 352.5C263.409 344.833 252.576 335.167 243.242 323.5C233.909 311.5 226.909 297.167 222.242 280.5L300.242 260C303.576 271.667 310.409 282 320.742 291C331.076 299.667 344.242 304 360.242 304C366.242 304 372.242 303.167 378.242 301.5C384.576 299.833 390.076 297.333 394.742 294C399.742 290.333 403.742 285.667 406.742 280C410.076 274.333 411.742 267.333 411.742 259C411.742 250 409.576 242.5 405.242 236.5C401.242 230.5 395.742 225.833 388.742 222.5C382.076 218.833 374.409 216.333 365.742 215C357.076 213.333 348.409 212.5 339.742 212.5H317.242V151H341.742C349.742 151 357.409 150.5 364.742 149.5C372.076 148.167 378.576 146 384.242 143C390.242 139.667 394.909 135.333 398.242 130C401.909 124.667 403.742 117.667 403.742 109C403.742 96.3333 399.242 86.6667 390.242 80C381.242 73.3333 370.909 70 359.242 70C347.242 70 336.742 73.6667 327.742 81C319.076 88 313.409 97.5 310.742 109.5L232.742 91.5C237.076 76.5 243.576 63.5 252.242 52.5C260.909 41.1667 271.076 31.8333 282.742 24.5C294.742 16.8333 307.742 11.1666 321.742 7.49998C335.742 3.49998 350.076 1.49997 364.742 1.49997C380.409 1.49997 395.576 3.49998 410.242 7.49998C425.242 11.5 438.576 17.6667 450.242 26C461.909 34.3333 471.242 44.8333 478.242 57.5C485.576 69.8333 489.242 84.5 489.242 101.5C489.242 121.167 483.576 137.833 472.242 151.5C461.242 164.833 447.076 173.833 429.742 178.5V180C439.742 182.333 448.909 186.167 457.242 191.5C465.576 196.5 472.742 202.667 478.742 210C484.742 217 489.409 225 492.742 234C496.076 242.667 497.742 252 497.742 262Z" fill="url(#paint0_linear)"/>
</g>
<defs>
<linearGradient id="paint0_linear" x1="202.945" y1="-536.544" x2="202.945" y2="934.533" gradientUnits="userSpaceOnUse">
<stop stop-color="#2047DB"/>
<stop offset="1" stop-color="#204BD3"/>
</linearGradient>
<clipPath id="clip0">
<rect width="499" height="377" fill="white"/>
</clipPath>
</defs>
</svg>
