<svg width="499" height="377" viewBox="0 0 499 377" fill="none" xmlns="http://www.w3.org/2000/svg">
<g clip-path="url(#clip0)">
<rect width="499" height="377" fill="white"/>
<path d="M279 187C279 212 276.5 235.833 271.5 258.5C266.5 281.167 258.5 301.167 247.5 318.5C236.5 335.5 222.167 349.167 204.5 359.5C187.167 369.5 166 374.5 141 374.5C116 374.5 94.6667 369.5 77 359.5C59.3333 349.167 44.8333 335.5 33.5 318.5C22.5 301.167 14.5 281.167 9.5 258.5C4.5 235.833 2 212 2 187C2 162 4.5 138.333 9.5 116C14.5 93.3333 22.5 73.6666 33.5 57C44.8333 40 59.3333 26.5 77 16.5C94.6667 6.49998 116 1.49997 141 1.49997C166 1.49997 187.167 6.49998 204.5 16.5C222.167 26.5 236.5 40 247.5 57C258.5 73.6666 266.5 93.3333 271.5 116C276.5 138.333 279 162 279 187ZM193 187C193 176 192.333 163.833 191 150.5C189.667 137.167 187.167 124.833 183.5 113.5C179.833 101.833 174.5 92.1666 167.5 84.5C160.833 76.5 152 72.5 141 72.5C130 72.5 121 76.5 114 84.5C107 92.1666 101.5 101.833 97.5 113.5C93.8333 124.833 91.3333 137.167 90 150.5C88.6667 163.833 88 176 88 187C88 198.333 88.6667 210.833 90 224.5C91.3333 237.833 93.8333 250.333 97.5 262C101.5 273.333 107 283 114 291C121 298.667 130 302.5 141 302.5C152 302.5 160.833 298.667 167.5 291C174.5 283 179.833 273.333 183.5 262C187.167 250.333 189.667 237.833 191 224.5C192.333 210.833 193 198.333 193 187ZM443.742 365V105L377.742 156L334.242 96.5L450.742 11H527.742V365H443.742Z" fill="url(#paint0_linear)"/>
</g>
<defs>
<linearGradient id="paint0_linear" x1="298.945" y1="-536.544" x2="298.945" y2="934.533" gradientUnits="userSpaceOnUse">
<stop stop-color="#2047DB"/>
<stop offset="1" stop-color="#204BD3"/>
</linearGradient>
<clipPath id="clip0">
<rect width="499" height="377" fill="white"/>
</clipPath>
</defs>
</svg>
