<svg width="499" height="377" viewBox="0 0 499 377" fill="none" xmlns="http://www.w3.org/2000/svg">
<g clip-path="url(#clip0)">
<rect width="499" height="377" fill="white"/>
<path d="M280 187C280 212 277.5 235.833 272.5 258.5C267.5 281.167 259.5 301.167 248.5 318.5C237.5 335.5 223.167 349.167 205.5 359.5C188.167 369.5 167 374.5 142 374.5C117 374.5 95.6667 369.5 78 359.5C60.3333 349.167 45.8333 335.5 34.5 318.5C23.5 301.167 15.5 281.167 10.5 258.5C5.5 235.833 3 212 3 187C3 162 5.5 138.333 10.5 116C15.5 93.3333 23.5 73.6666 34.5 57C45.8333 40 60.3333 26.5 78 16.5C95.6667 6.49998 117 1.49997 142 1.49997C167 1.49997 188.167 6.49998 205.5 16.5C223.167 26.5 237.5 40 248.5 57C259.5 73.6666 267.5 93.3333 272.5 116C277.5 138.333 280 162 280 187ZM194 187C194 176 193.333 163.833 192 150.5C190.667 137.167 188.167 124.833 184.5 113.5C180.833 101.833 175.5 92.1666 168.5 84.5C161.833 76.5 153 72.5 142 72.5C131 72.5 122 76.5 115 84.5C108 92.1666 102.5 101.833 98.5 113.5C94.8333 124.833 92.3333 137.167 91 150.5C89.6667 163.833 89 176 89 187C89 198.333 89.6667 210.833 91 224.5C92.3333 237.833 94.8333 250.333 98.5 262C102.5 273.333 108 283 115 291C122 298.667 131 302.5 142 302.5C153 302.5 161.833 298.667 168.5 291C175.5 283 180.833 273.333 184.5 262C188.167 250.333 190.667 237.833 192 224.5C193.333 210.833 194 198.333 194 187ZM560.742 296V365H482.242V296H315.742V225.5L459.742 11H560.242V228H609.242V296H560.742ZM482.742 97H481.242L397.242 228H482.742V97Z" fill="url(#paint0_linear)"/>
</g>
<defs>
<linearGradient id="paint0_linear" x1="299.945" y1="-536.544" x2="299.945" y2="934.533" gradientUnits="userSpaceOnUse">
<stop stop-color="#2047DB"/>
<stop offset="1" stop-color="#204BD3"/>
</linearGradient>
<clipPath id="clip0">
<rect width="499" height="377" fill="white"/>
</clipPath>
</defs>
</svg>
