<svg width="499" height="377" viewBox="0 0 499 377" fill="none" xmlns="http://www.w3.org/2000/svg">
<g clip-path="url(#clip0)">
<rect width="499" height="377" fill="white"/>
<path d="M280 187C280 212 277.5 235.833 272.5 258.5C267.5 281.167 259.5 301.167 248.5 318.5C237.5 335.5 223.167 349.167 205.5 359.5C188.167 369.5 167 374.5 142 374.5C117 374.5 95.6667 369.5 78 359.5C60.3333 349.167 45.8333 335.5 34.5 318.5C23.5 301.167 15.5 281.167 10.5 258.5C5.5 235.833 3 212 3 187C3 162 5.5 138.333 10.5 116C15.5 93.3333 23.5 73.6666 34.5 57C45.8333 40 60.3333 26.5 78 16.5C95.6667 6.49998 117 1.49997 142 1.49997C167 1.49997 188.167 6.49998 205.5 16.5C223.167 26.5 237.5 40 248.5 57C259.5 73.6666 267.5 93.3333 272.5 116C277.5 138.333 280 162 280 187ZM194 187C194 176 193.333 163.833 192 150.5C190.667 137.167 188.167 124.833 184.5 113.5C180.833 101.833 175.5 92.1666 168.5 84.5C161.833 76.5 153 72.5 142 72.5C131 72.5 122 76.5 115 84.5C108 92.1666 102.5 101.833 98.5 113.5C94.8333 124.833 92.3333 137.167 91 150.5C89.6667 163.833 89 176 89 187C89 198.333 89.6667 210.833 91 224.5C92.3333 237.833 94.8333 250.333 98.5 262C102.5 273.333 108 283 115 291C122 298.667 131 302.5 142 302.5C153 302.5 161.833 298.667 168.5 291C175.5 283 180.833 273.333 184.5 262C188.167 250.333 190.667 237.833 192 224.5C193.333 210.833 194 198.333 194 187ZM337.242 365V295L475.242 170C483.909 161.667 490.909 153.167 496.242 144.5C501.576 135.833 504.242 126.167 504.242 115.5C504.242 102.833 500.242 92.6667 492.242 85C484.242 77 473.576 73 460.242 73C446.242 73 434.742 78 425.742 88C417.076 97.6667 411.909 110.5 410.242 126.5L329.742 115.5C331.742 97.5 336.576 81.5 344.242 67.5C352.242 53.5 362.242 41.6667 374.242 32C386.242 22 399.909 14.5 415.242 9.49999C430.909 4.16664 447.409 1.49997 464.742 1.49997C481.076 1.49997 496.909 3.66664 512.242 7.99998C527.576 12.3333 541.242 19 553.242 28C565.242 37 574.742 48.3333 581.742 62C589.076 75.6667 592.742 91.6667 592.742 110C592.742 122.667 591.076 134.167 587.742 144.5C584.409 154.5 579.742 163.833 573.742 172.5C568.076 181.167 561.409 189.333 553.742 197C546.409 204.333 538.742 211.667 530.742 219L448.742 292H593.242V365H337.242Z" fill="url(#paint0_linear)"/>
</g>
<defs>
<linearGradient id="paint0_linear" x1="299.945" y1="-536.544" x2="299.945" y2="934.533" gradientUnits="userSpaceOnUse">
<stop stop-color="#2047DB"/>
<stop offset="1" stop-color="#204BD3"/>
</linearGradient>
<clipPath id="clip0">
<rect width="499" height="377" fill="white"/>
</clipPath>
</defs>
</svg>
